<svg width="500" height="500" xmlns="http://www.w3.org/2000/svg">

 <g id="imagebot_2">
  <path transform="translate(-2.9576 19.9062) matrix(1 0 0 1 -644.529 -535.395)" fill="#000000" id="imagebot_6" d="M 707.224 995.59 L 692.487 980.828 L 695.758 977.734 C 705.505 968.511 724.56 957.675 740.14 952.494 C 758.816 946.283 761.544 945.994 802.529 945.872 C 837.724 945.768 840.521 945.627 848.029 943.585 C 859.262 940.53 869.461 935.109 877.04 928.164 C 884.744 921.105 885.205 919.395 879.405 919.395 C 873.43 919.395 851.497 914.775 841.029 911.311 C 828.89 907.294 807.529 896.803 807.529 894.857 C 807.529 894.024 810.679 880.766 814.529 865.395 C 818.379 850.024 821.518 837.099 821.504 836.672 C 821.489 836.245 818.287 833.87 814.388 831.395 C 783.457 811.763 771.932 769.575 787.994 734.773 C 797.649 713.852 811.886 699.876 852.129 671.814 C 871.717 658.154 888.786 645.027 893.358 640.105 L 895.688 637.598 L 891.583 636.904 C 885.778 635.923 878.615 630.751 875.058 624.973 C 872.378 620.619 872.029 619.169 872.029 612.395 C 872.029 605.621 872.378 604.171 875.058 599.817 C 885.108 583.489 907.951 583.489 918 599.817 C 920.68 604.171 921.029 605.621 921.029 612.395 C 921.029 619.169 920.68 620.619 918 624.973 C 914.444 630.751 907.28 635.923 901.475 636.904 L 897.371 637.598 L 899.7 640.105 C 904.272 645.027 921.341 658.154 940.929 671.814 C 981.172 699.876 995.409 713.852 1005.06 734.773 C 1021.13 769.575 1009.6 811.763 978.67 831.395 C 974.771 833.87 971.569 836.245 971.555 836.672 C 971.541 837.099 974.679 850.024 978.529 865.395 C 982.379 880.766 985.529 894.024 985.529 894.857 C 985.529 896.803 964.169 907.294 952.029 911.311 C 941.561 914.775 919.628 919.395 913.653 919.395 C 907.854 919.395 908.315 921.105 916.018 928.164 C 923.598 935.109 933.796 940.53 945.029 943.585 C 952.537 945.627 955.334 945.768 990.529 945.872 C 1022.51 945.967 1029.21 946.245 1036.03 947.761 C 1055.52 952.091 1075.22 960.813 1089.4 971.397 C 1102.38 981.075 1102.73 978.72 1085.73 995.692 L 1071 1010.4 L 1065.06 1005.96 C 1049.94 994.649 1030.68 986.744 1011.53 983.984 C 1005.75 983.152 989.554 982.014 975.529 981.454 C 961.504 980.895 946.009 979.736 941.095 978.879 C 928.228 976.635 914.513 971.795 905.257 966.231 C 900.831 963.571 896.904 961.395 896.529 961.395 C 896.155 961.395 892.227 963.571 887.801 966.231 C 878.545 971.795 864.83 976.635 851.963 978.879 C 847.05 979.736 831.554 980.895 817.529 981.454 C 781.102 982.907 766.445 985.464 748.778 993.446 C 743.481 995.839 731.467 1003.3 723.995 1008.84 C 722.062 1010.28 721.228 1009.62 707.224 995.59 L 707.224 995.59 Z"/>
  <path transform="translate(-2.9576 19.9062) matrix(1 0 0 1 -644.529 -535.395)" fill="#ffffff" id="imagebot_5" d="M 904.529 761.895 L 904.529 749.395 L 916.529 749.395 L 928.529 749.395 L 928.529 741.895 L 928.529 734.395 L 916.529 734.395 L 904.529 734.395 L 904.529 721.895 L 904.529 709.395 L 897.029 709.395 L 889.529 709.395 L 889.529 721.895 L 889.529 734.395 L 877.029 734.395 L 864.529 734.395 L 864.529 741.895 L 864.529 749.395 L 877.029 749.395 L 889.529 749.395 L 889.529 761.895 L 889.529 774.395 L 897.029 774.395 L 904.529 774.395 L 904.529 761.895 Z"/>
  <path transform="translate(-2.9576 19.9062) matrix(1 0 0 1 -644.529 -535.395)" fill="#ffffff" id="imagebot_4" d="M 849.8 837.876 C 854.623 835.892 862.948 833.101 868.3 831.673 C 877.11 829.321 879.776 829.076 896.529 829.076 C 913.282 829.076 915.948 829.321 924.759 831.673 C 932.515 833.743 945.77 838.561 953.04 841.954 C 953.899 842.355 960.529 831.804 960.529 830.035 C 960.529 829.005 951.453 824.771 942.41 821.583 C 925.975 815.788 914.847 813.932 896.529 813.932 C 878.211 813.932 867.083 815.788 850.649 821.583 C 841.605 824.771 832.529 829.005 832.529 830.035 C 832.529 831.804 839.159 842.355 840.018 841.954 C 840.574 841.694 844.976 839.859 849.8 837.876 Z"/>
  <path transform="translate(-2.9576 19.9062) matrix(1 0 0 1 -644.529 -535.395)" fill="#ffffff" id="imagebot_3" d="M 829.849 898.526 C 847.497 886.413 874.032 878.407 896.529 878.407 C 919.027 878.407 945.561 886.413 963.209 898.526 C 965.508 900.104 967.592 901.395 967.839 901.395 C 968.346 901.395 976.529 890.716 976.529 890.055 C 976.529 888.98 963.013 881.016 953.529 876.503 C 929.609 865.121 903.506 861.135 877.846 864.945 C 863.637 867.055 852.023 870.558 839.529 876.503 C 830.045 881.016 816.529 888.98 816.529 890.055 C 816.529 890.716 824.713 901.395 825.219 901.395 C 825.466 901.395 827.55 900.104 829.849 898.526 L 829.849 898.526 Z"/>
  <title>imagebot_2</title>
 </g>
 <metadata>image/svg+xmlOpen Clip Art LibraryChess tile - Bishop 22006-12-26T00:00:00http://openclipart.org/detail/18676/-by--18676portablejim</metadata>
</svg>