<svg width="500" height="500" xmlns="http://www.w3.org/2000/svg">

 <g id="imagebot_2">
  <g id="imagebot_3" transform="translate(-2.022 19.412) matrix(1 0 0 1 267.355 513.591)">
   <path fill="#000000" id="imagebot_11" d="M -63.78 -47.1168 C -99.4494 -49.3891 -128.615 -56.1594 -153.605 -67.9681 C -166.194 -73.9169 -165.246 -70.7665 -162.04 -96.0031 L -159.816 -113.503 L -162.122 -139.003 C -163.63 -155.674 -164.86 -164.849 -165.675 -165.503 C -166.36 -166.053 -169.569 -171.228 -172.804 -177.003 C -181.363 -192.279 -191.48 -207.531 -203.979 -224.003 C -218.74 -243.456 -222.891 -249.737 -227.537 -259.65 C -236.833 -279.488 -236.589 -297.988 -226.769 -317.883 C -223.201 -325.11 -220.5 -328.917 -214.997 -334.474 C -190.816 -358.891 -154.04 -361.434 -114.231 -341.441 C -85.8559 -327.19 -65.9762 -310.822 -44.4715 -284.003 C -42.9726 -282.134 -43.8137 -285.666 -47.8049 -298.003 C -55.4492 -321.632 -56.805 -328.82 -56.7641 -345.503 C -56.7349 -357.428 -56.3931 -360.467 -54.4589 -366.003 C -49.311 -380.738 -39.7533 -392.414 -28.5857 -397.612 L -22.3755 -400.503 L -22.3651 -420.253 L -22.3546 -440.003 L -38.8546 -440.003 L -55.3546 -440.003 L -55.3546 -447.503 L -55.3546 -455.003 L -38.8546 -455.003 L -22.3546 -455.003 L -22.3546 -466.003 L -22.3546 -477.003 L -14.8546 -477.003 L -7.35464 -477.003 L -7.35464 -466.003 L -7.35464 -455.003 L 8.64536 -455.003 L 24.6454 -455.003 L 24.6454 -447.503 L 24.6454 -440.003 L 8.64536 -440.003 L -7.35464 -440.003 L -7.35464 -420.12 L -7.35464 -400.238 L -1.60464 -397.434 C 9.20554 -392.164 18.7384 -380.346 23.7496 -366.003 C 25.6838 -360.467 26.0256 -357.428 26.0548 -345.503 C 26.0957 -328.82 24.74 -321.632 17.0956 -298.003 C 13.1044 -285.666 12.2633 -282.134 13.7622 -284.003 C 35.2669 -310.822 55.1466 -327.19 83.5221 -341.441 C 123.33 -361.434 160.107 -358.891 184.288 -334.474 C 189.791 -328.917 192.492 -325.11 196.06 -317.883 C 205.88 -297.988 206.124 -279.488 196.827 -259.65 C 192.182 -249.737 188.031 -243.456 173.27 -224.003 C 160.771 -207.531 150.654 -192.279 142.095 -177.003 C 138.859 -171.228 135.651 -166.053 134.965 -165.503 C 134.15 -164.849 132.92 -155.674 131.413 -139.003 L 129.107 -113.503 L 131.33 -96.0031 C 134.528 -70.8336 135.331 -73.8108 123.895 -68.4342 C 109.849 -61.83 102.82 -59.291 88.0009 -55.4692 C 71.6429 -51.2505 52.0873 -48.3767 30.6454 -47.0406 C 11.6628 -45.8577 -44.7306 -45.9032 -63.78 -47.1168 L -63.78 -47.1168 Z"/>
   <path fill="#ffffff" id="imagebot_10" d="M -14.3546 -223.7 C -14.3546 -224.633 -7.82419 -244.819 0.157501 -268.556 C 15.8868 -315.335 18.2955 -324.28 19.2627 -339.503 C 20.4944 -358.889 15.8403 -373.967 5.43024 -384.319 C -1.90875 -391.617 -6.11905 -393.471 -15.3546 -393.471 C -24.5902 -393.471 -28.8005 -391.617 -36.1395 -384.319 C -46.5496 -373.967 -51.2036 -358.889 -49.972 -339.503 C -49.0048 -324.28 -46.5961 -315.335 -30.8668 -268.556 C -22.8851 -244.819 -16.3546 -224.633 -16.3546 -223.7 C -16.3546 -222.767 -15.9046 -222.003 -15.3546 -222.003 C -14.8046 -222.003 -14.3546 -222.767 -14.3546 -223.7 L -14.3546 -223.7 Z"/>
   <path fill="#ffffff" id="imagebot_9" d="M -137.172 -164.517 C -115.517 -170.694 -89.2804 -175.661 -62.3546 -178.678 C -40.6756 -181.108 9.96628 -181.108 31.6454 -178.678 C 58.5711 -175.661 84.808 -170.694 106.463 -164.517 C 113.238 -162.584 119.616 -161.003 120.636 -161.003 C 124.192 -161.003 128.6 -166.186 135.775 -178.803 C 145.989 -196.762 155.563 -211.257 168.27 -228.003 C 182.625 -246.921 187.232 -253.815 190.848 -261.789 C 206.075 -295.371 190.18 -333.355 156.145 -344.719 C 148.982 -347.111 146.682 -347.388 134.145 -347.373 C 122.288 -347.358 118.68 -346.961 110.572 -344.781 C 84.5026 -337.773 58.9062 -322.193 36.172 -299.496 C 22.9493 -286.295 13.3893 -273.564 5.73721 -258.967 C 0.220093 -248.443 -4.38495 -232.333 -8.53189 -209.047 L -10.8546 -196.005 L -15.3546 -196.005 L -19.8546 -196.005 L -22.1774 -209.047 C -26.3243 -232.333 -30.9294 -248.443 -36.4465 -258.967 C -44.0986 -273.564 -53.6586 -286.295 -66.8813 -299.496 C -89.6154 -322.193 -115.212 -337.773 -141.281 -344.781 C -149.39 -346.961 -152.997 -347.358 -164.855 -347.373 C -177.391 -347.388 -179.691 -347.111 -186.855 -344.719 C -220.889 -333.355 -236.784 -295.371 -221.557 -261.789 C -217.942 -253.815 -213.335 -246.921 -198.979 -228.003 C -186.272 -211.257 -176.699 -196.762 -166.485 -178.803 C -159.309 -166.186 -154.901 -161.003 -151.346 -161.003 C -150.325 -161.003 -143.947 -162.584 -137.172 -164.517 L -137.172 -164.517 Z"/>
   <path fill="#ffffff" id="imagebot_8" d="M -134.431 -109.931 C -111.15 -118.497 -83.886 -125.081 -56.8546 -128.663 C -47.1511 -129.949 -36.6277 -130.386 -15.3546 -130.386 C 5.91843 -130.386 16.4418 -129.949 26.1454 -128.663 C 53.3198 -125.062 80.4323 -118.501 104.051 -109.81 C 116.163 -105.353 118.886 -105.396 121.518 -110.086 C 123.494 -113.607 122.272 -117.652 118.546 -119.917 C 113.929 -122.725 86.1348 -131.701 70.2488 -135.514 C 38.7278 -143.08 18.1034 -145.481 -15.3546 -145.481 C -55.05 -145.481 -86.8081 -140.752 -123.13 -129.432 C -148.012 -121.678 -153.355 -118.815 -153.355 -113.235 C -153.355 -110.546 -149.222 -106.003 -146.775 -106.003 C -145.857 -106.003 -140.302 -107.771 -134.431 -109.931 L -134.431 -109.931 Z"/>
   <path fill="#ffffff" id="imagebot_7" d="M -141.243 -69.8932 C -113.583 -82.407 -74.8223 -92.0919 -41.0502 -94.9279 C 9.18094 -99.1459 62.6432 -90.4475 109.084 -70.5009 L 117.49 -66.8905 L 122.568 -69.4637 C 133.561 -75.0346 127.291 -80.266 96.1454 -91.5091 C 62.6435 -103.603 20.3886 -110.982 -15.3546 -110.982 C -51.0979 -110.982 -93.3528 -103.603 -126.855 -91.5091 C -157.734 -80.3622 -164.181 -75.0744 -153.605 -69.5688 C -150.992 -68.2089 -148.579 -67.0753 -148.243 -67.0497 C -147.907 -67.024 -144.757 -68.3037 -141.243 -69.8932 Z"/>
   <path fill="#000000" id="imagebot_6" d="M -23.6663 -271.753 C -32.4063 -297.744 -36.6492 -313.749 -38.9762 -329.503 C -42.4458 -352.993 -37.7623 -371.073 -26.2311 -378.704 C -22.6636 -381.064 -20.9594 -381.503 -15.3546 -381.503 C -9.74994 -381.503 -8.04575 -381.064 -4.47815 -378.704 C 10.5508 -368.758 13.2442 -344.758 3.62454 -306.503 C 0.284241 -293.22 -14.3104 -249.003 -15.3546 -249.003 C -15.7186 -249.003 -19.4588 -259.241 -23.6663 -271.753 L -23.6663 -271.753 Z"/>
   <path fill="#000000" id="imagebot_5" d="M 117.645 -180.136 C 116.27 -180.69 108.395 -182.896 100.145 -185.039 C 71.4503 -192.493 43.3566 -196.621 14.1122 -197.682 L -2.92102 -198.299 L -2.20416 -205.804 C 1.81686 -247.9 28.2937 -286.823 73.5436 -317.159 C 113.122 -343.692 147.674 -347.097 170.253 -326.69 C 182.648 -315.488 188.256 -294.987 184.184 -275.769 C 181.251 -261.93 175.437 -251.939 152.44 -221.219 C 146.147 -212.814 137.23 -199.876 132.624 -192.469 C 123.82 -178.31 123.282 -177.867 117.645 -180.136 L 117.645 -180.136 Z"/>
   <path fill="#000000" id="imagebot_4" d="M -163.286 -192.392 C -167.918 -199.841 -176.856 -212.814 -183.149 -221.219 C -200.961 -245.012 -205.107 -251.198 -209.438 -260.44 C -218.519 -279.819 -218.604 -298.221 -209.689 -315.185 C -201.749 -330.296 -184.39 -340.003 -165.306 -340.003 C -142.555 -340.003 -112.984 -326.196 -84.2702 -302.167 C -51.0098 -274.333 -31.8912 -241.253 -28.491 -205.656 L -27.76 -198.003 L -37.8073 -197.993 C -66.0227 -197.964 -106.253 -192.042 -136.855 -183.413 C -144.005 -181.397 -150.982 -179.545 -152.359 -179.298 C -154.635 -178.889 -155.633 -180.086 -163.286 -192.392 Z"/>
  </g>
  <title>imagebot_2</title>
 </g>
 <metadata>image/svg+xmlOpen Clip Art LibraryChess tile - King 12006-12-26T00:00:00http://openclipart.org/detail/18670/-by--18670portablejim</metadata>
</svg>