<svg width="500" height="500" xmlns="http://www.w3.org/2000/svg">

 <g id="imagebot_2">
  <path transform="translate(0.7144 22.5) matrix(1 0 0 1 -572.768 -269.791)" fill="#000000" id="imagebot_6" d="M 729.959 727.648 C 728.495 713.978 731.307 698.589 737.518 686.291 C 742.642 676.143 749.632 667.915 771.499 646.291 C 784.469 633.464 795.349 621.765 798.468 617.291 C 808.611 602.741 816.369 584.749 820.129 567.059 C 822.056 557.991 822.649 533.258 821.185 523.007 L 820.359 517.224 L 814.185 521.611 C 802.677 529.788 791.07 536.613 770.361 547.38 C 730.797 567.95 724.043 574.05 709.088 602.719 C 700.73 618.74 695.937 625.865 690.006 631.086 C 685.234 635.287 678.262 638.291 673.283 638.291 C 666.718 638.291 660.522 632.104 660.515 625.541 L 660.511 622.291 L 655.06 622.291 C 646.976 622.291 639.823 620.494 632.286 616.571 C 611.718 605.862 604.553 582.868 613.482 556.218 C 617.753 543.47 621.835 536.034 637.324 512.791 C 653.422 488.634 658.368 479.754 662.668 467.291 C 665.886 457.962 665.947 457.465 665.999 439.791 C 666.066 417.259 665.94 417.54 683.95 399.791 C 699.003 384.956 705.511 375.928 705.511 369.879 C 705.511 367.719 704.584 354.745 703.452 341.048 C 702.319 327.352 701.531 315.05 701.702 313.71 C 701.994 311.41 703.724 312.303 732.614 329.648 L 763.216 348.021 L 781.408 328.656 C 791.413 318.005 799.944 309.291 800.365 309.291 C 800.785 309.291 806.607 321.328 813.303 336.041 C 819.998 350.753 825.85 362.706 826.307 362.603 C 833.034 361.082 847.235 360.137 856.511 360.593 C 891.966 362.333 922.402 376.021 948.011 401.742 C 971.654 425.49 987.081 452.891 1002.08 497.791 C 1023.08 560.619 1036.81 640.602 1039.17 713.839 L 1039.83 734.291 L 885.249 734.291 L 730.67 734.291 L 729.959 727.648 Z"/>
  <path transform="translate(0.7144 22.5) matrix(1 0 0 1 -572.768 -269.791)" fill="#ffffff" id="imagebot_5" d="M 699.486 456.999 C 705.914 453.822 709.777 450.998 715.485 445.301 C 722.401 438.4 730.511 426.653 730.511 423.539 C 730.511 420.192 721.16 419.358 715.002 422.156 C 709.509 424.651 705.928 429.032 696.72 444.518 C 685.474 463.432 685.854 462.614 688.675 461.834 C 689.96 461.478 694.825 459.303 699.486 456.999 Z"/>
  <path transform="translate(0.7144 22.5) matrix(1 0 0 1 -572.768 -269.791)" fill="#ffffff" id="imagebot_4" d="M 649.261 574.334 C 650.498 572.498 651.511 569.914 651.511 568.593 C 651.511 562.907 645.938 557.285 640.311 557.295 C 635.959 557.302 631.51 561.051 628.782 567.01 C 626.721 571.511 626.089 574.726 625.708 582.651 L 625.227 592.626 L 636.119 585.15 C 642.109 581.037 648.023 576.17 649.261 574.334 L 649.261 574.334 Z"/>
  <path transform="translate(0.7144 22.5) matrix(1 0 0 1 -572.768 -269.791)" fill="#ffffff" id="imagebot_3" d="M 1031.15 724.743 C 1033.66 722.235 1033.69 722.029 1033.04 711.493 C 1029.4 651.943 1023.04 606.206 1010.9 552.291 C 1000.62 506.618 990.113 474.95 976.402 448.291 C 967.37 430.729 958.386 418.154 946.019 405.764 C 926.738 386.447 905.958 375.021 879.43 369.149 C 860.9 365.048 825.95 366.438 820.525 371.492 C 817.581 374.235 818.094 379.911 821.516 382.454 C 823.897 384.223 824.517 384.241 834.016 382.809 C 871.443 377.168 906.052 388.026 933.662 414.072 C 960.723 439.6 979.711 482.378 995.899 554.291 C 1007.62 606.377 1014.07 651.485 1017.54 705.79 C 1018.51 720.859 1018.87 723.046 1020.75 725.04 C 1023.6 728.081 1027.94 727.958 1031.15 724.743 L 1031.15 724.743 Z"/>
  <title>imagebot_2</title>
 </g>
 <metadata>image/svg+xmlOpen Clip Art LibraryChess tile - Knight 32006-12-26T00:00:00http://openclipart.org/detail/18645/-by--18645portablejim</metadata>
</svg>