<svg width="500" height="500" xmlns="http://www.w3.org/2000/svg">

 <g id="imagebot_2">
  <path transform="translate(-2.1521 35.7795) matrix(1 0 0 1 -458.892 -202.886)" fill="#000000" id="imagebot_3" d="M 559.764 645.589 C 557.544 632.241 558.014 605.654 560.709 592.111 C 568.941 550.752 593.077 514.735 627.392 492.606 C 638.362 485.532 648.768 480.579 663.892 475.234 C 664.824 474.904 662.362 473.131 657.392 470.551 C 645.434 464.344 634.665 453.252 628.526 440.817 C 622.516 428.645 620.528 419.414 621.206 406.839 C 622.181 388.786 628.871 373.9 641.892 360.817 C 653.534 349.119 671.919 340.839 686.248 340.839 L 691.285 340.839 L 685.838 338.141 C 678.744 334.628 669.978 325.802 666.503 318.676 C 658.521 302.301 661.591 283.009 674.184 270.416 C 693.493 251.107 728.291 251.107 747.6 270.416 C 760.193 283.009 763.264 302.301 755.281 318.676 C 751.806 325.802 743.04 334.628 735.946 338.141 L 730.499 340.839 L 735.536 340.839 C 749.865 340.839 768.25 349.119 779.892 360.817 C 792.913 373.9 799.603 388.786 800.578 406.839 C 801.256 419.414 799.268 428.645 793.258 440.817 C 787.119 453.252 776.35 464.344 764.392 470.551 C 759.422 473.131 756.96 474.904 757.892 475.234 C 773.017 480.579 783.422 485.532 794.392 492.606 C 828.707 514.735 852.844 550.752 861.075 592.111 C 863.77 605.654 864.24 632.241 862.02 645.589 L 860.648 653.839 L 710.892 653.839 L 561.137 653.839 L 559.764 645.589 Z"/>
  <title>imagebot_2</title>
 </g>
 <metadata>image/svg+xmlOpen Clip Art LibraryChess tile - Pawn 12006-12-26T00:00:00http://openclipart.org/detail/18651/-by--18651portablejim</metadata>
</svg>