<svg width="500" height="500" xmlns="http://www.w3.org/2000/svg">

 <g id="imagebot_2">
  <path transform="translate(-1.9813 13.2307) matrix(1 0 0 1 -520.309 -156.538)" fill="#000000" id="imagebot_6" d="M 701.226 630.143 C 680.522 628.691 661.279 624.671 645.837 618.57 C 636.495 614.879 624.833 608.87 623.815 607.223 C 623.495 606.705 627.525 596.413 632.771 584.352 C 638.017 572.291 642.309 561.898 642.309 561.256 C 642.309 560.001 626.457 523.325 623.324 517.332 C 622.283 515.342 613.348 503.867 603.467 491.833 L 585.502 469.953 L 584.317 460.333 C 583.666 455.042 578.773 415.839 573.443 373.214 L 563.754 295.715 L 558.057 295.003 C 541.612 292.949 531.79 278.323 536.776 263.313 C 538.895 256.934 542.134 252.989 548.164 249.444 C 552.108 247.126 553.941 246.713 560.309 246.713 C 566.677 246.713 568.51 247.126 572.453 249.444 C 578.484 252.989 581.723 256.934 583.842 263.313 C 587.46 274.207 582.749 286.391 572.755 291.983 C 571.599 292.63 578.997 308.616 609.439 371.254 C 630.411 414.406 647.631 449.796 647.706 449.896 C 647.911 450.174 658.407 262.096 658.355 259.082 C 658.315 256.829 657.691 256.295 654.008 255.368 C 648.038 253.865 641.959 249.177 638.626 243.506 C 636.206 239.389 635.809 237.645 635.809 231.135 C 635.809 224.448 636.165 222.978 638.838 218.635 C 648.887 202.307 671.73 202.307 681.78 218.635 C 684.459 222.989 684.809 224.439 684.809 231.213 C 684.809 237.978 684.457 239.444 681.79 243.792 C 679.989 246.729 676.74 250.055 673.732 252.041 L 668.692 255.369 L 700.247 346.791 C 717.602 397.073 732.028 438.213 732.305 438.213 C 732.652 438.212 765.44 251.656 767.686 236.905 C 767.753 236.46 766.12 235.501 764.057 234.772 C 758.54 232.825 753.718 228.766 750.581 223.43 C 748.21 219.396 747.809 217.616 747.809 211.135 C 747.809 204.448 748.165 202.978 750.838 198.635 C 760.887 182.307 783.73 182.307 793.78 198.635 C 796.452 202.978 796.809 204.448 796.809 211.135 C 796.809 217.616 796.407 219.396 794.036 223.43 C 790.899 228.766 786.077 232.825 780.561 234.772 C 778.497 235.501 776.864 236.46 776.932 236.905 C 779.177 251.656 811.965 438.212 812.312 438.213 C 812.589 438.213 827.016 397.073 844.371 346.791 L 875.926 255.369 L 870.885 252.041 C 867.877 250.055 864.628 246.729 862.827 243.792 C 860.161 239.444 859.809 237.978 859.809 231.213 C 859.809 224.439 860.158 222.989 862.838 218.635 C 872.887 202.307 895.73 202.307 905.78 218.635 C 908.452 222.978 908.809 224.448 908.809 231.135 C 908.809 237.645 908.412 239.389 905.992 243.506 C 902.658 249.177 896.58 253.865 890.609 255.368 C 886.926 256.295 886.302 256.829 886.263 259.082 C 886.21 262.096 896.707 450.174 896.912 449.896 C 896.986 449.796 914.206 414.406 935.178 371.254 C 965.62 308.616 973.018 292.63 971.862 291.983 C 961.869 286.391 957.157 274.207 960.776 263.313 C 962.895 256.934 966.134 252.989 972.164 249.444 C 976.108 247.126 977.941 246.713 984.309 246.713 C 990.677 246.713 992.51 247.126 996.453 249.444 C 1002.48 252.989 1005.72 256.934 1007.84 263.313 C 1012.83 278.323 1003.01 292.949 986.56 295.003 L 980.864 295.715 L 971.174 373.214 C 965.845 415.839 960.951 455.042 960.3 460.333 L 959.116 469.953 L 941.15 491.833 C 931.27 503.867 922.334 515.342 921.294 517.332 C 918.161 523.325 902.309 560.001 902.309 561.256 C 902.309 561.898 906.601 572.291 911.847 584.352 C 917.093 596.413 921.123 606.705 920.803 607.223 C 918.508 610.935 894.462 621.01 879.005 624.735 C 856.61 630.132 852.132 630.398 779.309 630.651 C 742.184 630.78 707.046 630.551 701.226 630.143 L 701.226 630.143 Z"/>
  <path transform="translate(-1.9813 13.2307) matrix(1 0 0 1 -520.309 -156.538)" fill="#ffffff" id="imagebot_5" d="M 650.812 518.212 C 668.105 511.732 685.249 506.827 703.309 503.194 C 729.674 497.889 741.149 496.831 772.309 496.831 C 803.469 496.831 814.943 497.889 841.309 503.194 C 859.459 506.845 876.524 511.736 894.109 518.326 C 909.07 523.933 911.441 524.014 914.245 519.018 C 916.557 514.899 914.797 511.204 909.197 508.424 C 900.914 504.312 876.741 496.366 860.103 492.285 C 827.117 484.196 806.639 481.735 772.309 481.735 C 756.736 481.735 741.479 482.268 735.309 483.027 C 700.865 487.265 670.785 494.523 642.565 505.406 C 632.086 509.447 629.309 511.663 629.309 515.981 C 629.309 518.648 633.433 523.213 635.842 523.213 C 636.736 523.213 643.472 520.963 650.812 518.212 L 650.812 518.212 Z"/>
  <path transform="translate(-1.9813 13.2307) matrix(1 0 0 1 -520.309 -156.538)" fill="#ffffff" id="imagebot_4" d="M 674.311 561.418 C 694.261 552.829 714.919 546.965 737.309 543.534 C 753.343 541.078 791.178 541.069 807.309 543.519 C 830.647 547.063 853.15 553.7 875.718 563.694 C 885.991 568.244 888.063 568.846 890.508 567.994 C 896.014 566.075 897.005 559.818 892.414 555.956 C 885.495 550.134 851.894 537.637 830.309 532.858 C 807.685 527.849 797.421 526.772 772.309 526.772 C 747.197 526.772 736.933 527.849 714.309 532.858 C 692.723 537.637 659.122 550.134 652.203 555.956 C 647.682 559.76 648.414 565.513 653.701 567.737 C 656.252 568.809 657.322 568.803 659.802 567.704 C 661.456 566.97 667.985 564.142 674.311 561.418 L 674.311 561.418 Z"/>
  <path transform="translate(-1.9813 13.2307) matrix(1 0 0 1 -520.309 -156.538)" fill="#ffffff" id="imagebot_3" d="M 642.108 612.823 C 647.301 610.149 676.917 600.452 689.309 597.368 C 703.427 593.854 719.612 590.957 735.809 589.042 C 750.16 587.346 794.458 587.346 808.809 589.042 C 840.667 592.807 869.837 599.985 897.519 610.87 L 906.229 614.295 L 910.318 612.209 C 914.886 609.878 915.814 608.362 914.9 604.719 C 914.085 601.472 908.723 598.797 890.309 592.451 C 812.111 565.502 732.506 565.502 654.309 592.451 C 635.895 598.797 630.533 601.472 629.718 604.719 C 628.818 608.305 629.716 609.854 634.008 612.119 C 638.618 614.552 638.731 614.562 642.108 612.823 L 642.108 612.823 Z"/>
  <title>imagebot_2</title>
 </g>
 <metadata>image/svg+xmlOpen Clip Art LibraryChess tile - Queen 12006-12-26T00:00:00http://openclipart.org/detail/18663/-by--18663portablejim</metadata>
</svg>