<svg width="500" height="500" xmlns="http://www.w3.org/2000/svg">

 <g id="imagebot_2">
  <path transform="translate(-2 46) matrix(1 0 0 1 -523.714 -225.648)" fill="#000000" id="imagebot_8" d="M 613.714 648.148 L 613.714 629.648 L 626.214 629.648 L 638.714 629.648 L 638.714 608.293 L 638.714 586.938 L 659.714 564.577 L 680.714 542.215 L 680.714 467.657 L 680.714 393.098 L 656.271 374.623 L 631.827 356.148 L 631.771 322.398 L 631.714 288.648 L 660.214 288.648 L 688.714 288.648 L 688.714 303.648 L 688.714 318.648 L 714.714 318.648 L 740.714 318.648 L 740.714 303.648 L 740.714 288.648 L 775.714 288.648 L 810.714 288.648 L 810.714 303.648 L 810.714 318.648 L 836.714 318.648 L 862.714 318.648 L 862.714 303.648 L 862.714 288.648 L 891.214 288.648 L 919.714 288.648 L 919.662 322.398 L 919.61 356.148 L 895.164 374.648 L 870.717 393.148 L 870.716 467.844 L 870.714 542.54 L 891.685 564.844 L 912.656 587.148 L 912.685 608.398 L 912.714 629.648 L 925.214 629.648 L 937.714 629.648 L 937.714 648.148 L 937.714 666.648 L 775.714 666.648 L 613.714 666.648 L 613.714 648.148 Z"/>
  <path transform="translate(-2 46) matrix(1 0 0 1 -523.714 -225.648)" fill="#ffffff" id="imagebot_7" d="M 911.26 360.193 C 912.61 358.843 913.714 356.573 913.714 355.148 C 913.714 353.723 912.61 351.452 911.26 350.102 L 908.805 347.648 L 775.714 347.648 L 642.623 347.648 L 640.169 350.102 C 638.819 351.452 637.714 353.723 637.714 355.148 C 637.714 356.573 638.819 358.843 640.169 360.193 L 642.623 362.648 L 775.714 362.648 L 908.805 362.648 L 911.26 360.193 Z"/>
  <path transform="translate(-2 46) matrix(1 0 0 1 -523.714 -225.648)" fill="#ffffff" id="imagebot_6" d="M 861.26 398.193 C 862.61 396.843 863.714 394.573 863.714 393.148 C 863.714 391.723 862.61 389.452 861.26 388.102 L 858.805 385.648 L 775.714 385.648 L 692.623 385.648 L 690.169 388.102 C 688.819 389.452 687.714 391.723 687.714 393.148 C 687.714 394.573 688.819 396.843 690.169 398.193 L 692.623 400.648 L 775.714 400.648 L 858.805 400.648 L 861.26 398.193 Z"/>
  <path transform="translate(-2 46) matrix(1 0 0 1 -523.714 -225.648)" fill="#ffffff" id="imagebot_5" d="M 861.26 547.193 C 862.61 545.843 863.714 543.573 863.714 542.148 C 863.714 540.723 862.61 538.452 861.26 537.102 L 858.805 534.648 L 775.714 534.648 L 692.623 534.648 L 690.169 537.102 C 688.819 538.452 687.714 540.723 687.714 542.148 C 687.714 543.573 688.819 545.843 690.169 547.193 L 692.623 549.648 L 775.714 549.648 L 858.805 549.648 L 861.26 547.193 Z"/>
  <path transform="translate(-2 46) matrix(1 0 0 1 -523.714 -225.648)" fill="#ffffff" id="imagebot_4" d="M 902.801 593.366 C 907.144 590.032 907.404 585.3 903.448 581.614 C 901.372 579.681 899.234 579.648 775.714 579.648 C 652.194 579.648 650.056 579.681 647.981 581.614 C 644.025 585.3 644.285 590.032 648.628 593.366 C 650.938 595.14 900.49 595.14 902.801 593.366 L 902.801 593.366 Z"/>
  <path transform="translate(-2 46) matrix(1 0 0 1 -523.714 -225.648)" fill="#ffffff" id="imagebot_3" d="M 902.801 635.366 C 907.144 632.032 907.404 627.3 903.448 623.614 C 901.372 621.681 899.234 621.648 775.714 621.648 C 652.194 621.648 650.056 621.681 647.981 623.614 C 644.025 627.3 644.285 632.032 648.628 635.366 C 650.938 637.14 900.49 637.14 902.801 635.366 L 902.801 635.366 Z"/>
  <title>imagebot_2</title>
 </g>
 <metadata>image/svg+xmlOpen Clip Art LibraryChess tile - Rook 12006-12-26T00:00:00http://openclipart.org/detail/18657/-by--18657portablejim</metadata>
</svg>