<svg width="500" height="500" xmlns="http://www.w3.org/2000/svg">

 <g id="imagebot_2">
  <path transform="translate(-1.8732 22.2511) matrix(1 0 0 1 -67.1149 -584.714)" fill="#000000" id="imagebot_9" d="M 124.467 1039.79 C 114.921 1030.3 106.86 1021.54 106.554 1020.33 C 105.488 1016.1 107.76 1012.63 115.913 1006.05 C 131.774 993.236 149.877 984.124 169.694 978.975 C 187.01 974.477 195.603 973.783 224.694 974.533 C 258.968 975.417 273.388 973.528 284.594 966.687 L 288.494 964.306 L 280.594 962.587 C 267.206 959.674 249.194 953.234 236.151 946.697 C 218.176 937.688 218.802 940.508 227.288 906.776 C 231.056 891.795 234.142 879.088 234.145 878.538 C 234.148 877.988 231.656 875.751 228.607 873.566 C 213.818 862.969 202.386 845.729 196.984 825.875 C 195.158 819.164 194.732 815.1 194.798 805.038 C 194.898 790.056 197.008 781.125 203.695 767.378 C 214.237 745.706 228.392 731.691 267.694 704.012 C 281.114 694.561 292.17 686.438 299.941 680.32 C 301.281 679.265 300.804 678.459 296.398 674.32 C 289.109 667.472 285.709 659.747 285.7 650.017 C 285.688 636.572 293.111 625.399 306.194 619.17 C 313.979 615.463 324.408 615.463 332.194 619.17 C 340.344 623.051 345.643 628.174 349.402 635.809 C 355.935 649.081 353.083 663.897 341.989 674.32 C 337.583 678.459 337.106 679.265 338.446 680.32 C 346.217 686.438 357.273 694.561 370.694 704.012 C 409.995 731.691 424.15 745.706 434.692 767.378 C 441.379 781.125 443.489 790.056 443.589 805.038 C 443.655 815.1 443.229 819.164 441.403 825.875 C 436.001 845.729 424.569 862.969 409.78 873.566 C 406.731 875.751 404.239 877.988 404.242 878.538 C 404.245 879.088 407.331 891.795 411.1 906.776 C 419.585 940.508 420.211 937.688 402.236 946.697 C 389.193 953.234 371.181 959.674 357.793 962.587 L 349.893 964.306 L 353.793 966.687 C 364.999 973.528 379.419 975.417 413.694 974.533 C 442.784 973.783 451.377 974.477 468.694 978.975 C 488.643 984.158 506.329 993.094 522.68 1006.25 C 529.465 1011.71 531.225 1013.69 531.739 1016.43 C 532.09 1018.3 531.919 1020.66 531.36 1021.68 C 530.801 1022.7 522.743 1031.08 513.452 1040.29 C 501.658 1051.98 495.882 1057.04 494.311 1057.04 C 491.434 1057.04 489.643 1056.05 481.966 1050.25 C 474.097 1044.3 461.912 1037.93 452.18 1034.68 C 441.149 1030.99 426.76 1029.24 398.194 1028.1 C 362.386 1026.67 346.707 1023.53 328.49 1014.14 L 319.194 1009.34 L 309.897 1014.14 C 291.68 1023.53 276.001 1026.67 240.194 1028.1 C 211.627 1029.24 197.238 1030.99 186.208 1034.68 C 176.475 1037.93 164.29 1044.3 156.421 1050.25 C 148.743 1056.05 146.953 1057.04 144.074 1057.04 C 142.497 1057.04 136.625 1051.87 124.467 1039.79 L 124.467 1039.79 Z"/>
  <path transform="translate(-1.8732 22.2511) matrix(1 0 0 1 -67.1149 -584.714)" fill="#ffffff" id="imagebot_8" d="M 258.928 859.605 C 296.26 847.899 333.204 847.065 370.938 857.078 C 377.122 858.719 384.665 860.991 387.7 862.126 L 393.218 864.191 L 398.023 860.663 C 424.678 841.097 433.616 805.217 419.237 775.51 C 409.842 756.1 395.375 742.431 352.59 712.538 C 345.505 707.588 335.092 699.843 329.451 695.326 L 319.194 687.115 L 308.936 695.326 C 303.295 699.843 292.882 707.588 285.797 712.538 C 243.012 742.431 228.545 756.1 219.15 775.51 C 207.014 800.582 211.239 830.404 229.86 851.11 C 235.37 857.237 244.441 864.18 246.194 863.613 C 247.019 863.346 252.749 861.542 258.928 859.605 Z"/>
  <path transform="translate(-1.8732 22.2511) matrix(1 0 0 1 -67.1149 -584.714)" fill="#ffffff" id="imagebot_7" d="M 251.925 913.084 C 261.319 909.256 278.222 904.512 290.194 902.345 C 303.402 899.953 334.994 899.954 348.194 902.346 C 360.646 904.604 374.578 908.492 385.523 912.766 C 390.379 914.662 394.554 916.011 394.801 915.764 C 395.048 915.517 393.325 907.556 390.972 898.073 C 386.021 878.12 387.492 879.801 370.894 875.14 C 352.965 870.105 340.906 868.574 319.194 868.574 C 297.481 868.574 285.422 870.105 267.493 875.14 C 250.962 879.782 252.297 878.323 247.772 896.688 C 245.625 905.406 243.663 913.325 243.414 914.288 C 242.809 916.62 243.48 916.526 251.925 913.084 L 251.925 913.084 Z"/>
  <path transform="translate(-1.8732 22.2511) matrix(1 0 0 1 -67.1149 -584.714)" fill="#ffffff" id="imagebot_6" d="M 352.806 945.595 C 364.787 943.106 379.473 938.463 386.133 935.058 L 389.573 933.3 L 384.832 931.202 C 376.418 927.48 358.96 922.276 348.694 920.43 C 334.727 917.918 303.66 917.918 289.694 920.43 C 279.427 922.276 261.969 927.48 253.555 931.202 L 248.814 933.3 L 252.254 935.058 C 262.098 940.09 283.83 946.024 299.84 948.051 C 312.435 949.646 339.309 948.4 352.806 945.595 L 352.806 945.595 Z"/>
  <path transform="translate(-1.8732 22.2511) matrix(1 0 0 1 -67.1149 -584.714)" fill="#ffffff" id="imagebot_5" d="M 151.343 1032.39 C 159.244 1027.01 175.483 1019.5 185.383 1016.64 C 198.55 1012.85 212.152 1011.22 240.194 1010.08 C 254.219 1009.51 268.619 1008.58 272.194 1008.01 C 287.35 1005.58 301.014 1000.36 312.116 992.739 C 317.683 988.919 320.704 988.919 326.271 992.739 C 337.373 1000.36 351.037 1005.58 366.194 1008.01 C 369.769 1008.58 384.169 1009.51 398.194 1010.08 C 426.235 1011.22 439.837 1012.85 453.005 1016.64 C 462.943 1019.51 479.15 1027.02 487.129 1032.45 L 492.565 1036.15 L 501.487 1027.23 L 510.409 1018.31 L 501.935 1012.67 C 488.516 1003.74 475.133 998.091 458.694 994.415 C 451.844 992.883 445.301 992.611 413.194 992.519 C 375.936 992.412 375.63 992.394 365.867 989.763 C 360.462 988.306 353.542 985.971 350.49 984.573 C 344.071 981.635 334.007 974.628 329.756 970.14 C 326.971 967.199 326.424 967.038 319.194 967.038 C 311.963 967.038 311.416 967.199 308.631 970.14 C 304.38 974.628 294.316 981.635 287.897 984.573 C 284.845 985.971 277.925 988.306 272.52 989.763 C 262.757 992.394 262.451 992.412 225.194 992.519 C 193.086 992.611 186.543 992.883 179.694 994.415 C 163.39 998.061 150.393 1003.52 136.552 1012.54 L 127.888 1018.19 L 136.77 1027.11 C 141.655 1032.02 145.728 1036.04 145.822 1036.04 C 145.916 1036.04 148.4 1034.4 151.343 1032.39 Z"/>
  <path transform="translate(-1.8732 22.2511) matrix(1 0 0 1 -67.1149 -584.714)" fill="#ffffff" id="imagebot_4" d="M 327.272 663.764 C 337.912 656.594 337.912 643.482 327.272 636.312 C 317.459 629.699 303.194 637.831 303.194 650.038 C 303.194 662.245 317.459 670.377 327.272 663.764 L 327.272 663.764 Z"/>
  <path transform="translate(-1.8732 22.2511) matrix(1 0 0 1 -67.1149 -584.714)" fill="#000000" id="imagebot_3" d="M 314.107 818.756 C 310.861 816.264 310.194 813.182 310.194 800.681 L 310.194 788.193 L 296.605 787.865 C 283.128 787.541 282.996 787.515 280.605 784.732 C 277.524 781.147 277.524 776.929 280.605 773.344 C 282.994 770.563 283.135 770.535 296.528 770.212 L 310.041 769.886 L 310.367 756.373 C 310.691 742.979 310.718 742.839 313.499 740.449 C 317.085 737.368 321.302 737.368 324.888 740.449 C 327.669 742.839 327.696 742.979 328.02 756.373 L 328.346 769.886 L 341.859 770.212 C 355.252 770.535 355.393 770.563 357.783 773.344 C 360.863 776.929 360.863 781.147 357.783 784.732 C 355.392 787.515 355.259 787.541 341.783 787.865 L 328.194 788.193 L 328.194 800.681 C 328.194 813.182 327.526 816.264 324.28 818.756 C 322.234 820.327 316.153 820.327 314.107 818.756 L 314.107 818.756 Z"/>
  <title>imagebot_2</title>
 </g>
 <metadata>image/svg+xmlOpen Clip Art LibraryChess tile - Bishop 12006-12-26T00:00:00http://openclipart.org/detail/18674/-by--18674portablejim</metadata>
</svg>