<svg width="500" height="500" xmlns="http://www.w3.org/2000/svg">

 <g id="imagebot_2">
  <path transform="translate(-3.8192 14.9118) matrix(1 0 0 1 -213.411 -9.6261)" fill="#000000" id="imagebot_9" d="M 416.717 480.607 C 378.898 478.231 344.276 469.623 318.172 456.109 C 310.858 452.322 308.503 450.588 307.768 448.446 C 307.098 446.494 307.541 439.716 309.272 425.446 L 311.726 405.214 L 309.354 378.714 L 306.981 352.214 L 300.962 341.714 C 292.674 327.257 282.763 312.591 270.887 297.214 C 253.957 275.292 248.284 265.813 243.659 251.714 C 241.265 244.417 240.86 241.517 240.794 231.214 C 240.73 221.283 241.121 217.921 243.06 211.714 C 250.254 188.685 265.794 171.701 286.572 164.159 C 306.111 157.067 324.481 157.114 347.388 164.315 C 369.654 171.315 397.514 188.207 417.861 207.045 L 423.782 212.527 L 421.572 203.762 C 417.005 185.648 416.151 171.79 418.807 158.929 C 421.758 144.645 428.604 131.88 437.429 124.206 C 441.599 120.581 454.367 113.714 456.939 113.714 C 457.927 113.714 458.217 109.754 458.217 96.2143 L 458.217 78.7143 L 441.717 78.7143 L 425.217 78.7143 L 425.217 71.2143 L 425.217 63.7143 L 441.717 63.7143 L 458.217 63.7143 L 458.217 52.7143 L 458.217 41.7143 L 465.717 41.7143 L 473.217 41.7143 L 473.217 52.7143 L 473.217 63.7143 L 489.217 63.7143 L 505.217 63.7143 L 505.217 71.2143 L 505.217 78.7143 L 489.217 78.7143 L 473.217 78.7143 L 473.218 95.9643 L 473.219 113.214 L 480.468 116.477 C 496.776 123.817 507.349 138.222 511.626 158.929 C 514.283 171.79 513.428 185.648 508.861 203.762 L 506.651 212.527 L 512.573 207.045 C 527.339 193.374 547.123 179.944 564.717 171.649 C 588.65 160.364 611.234 156.428 629.912 160.286 C 647.074 163.831 657.861 169.437 669.22 180.714 C 685.604 196.981 693.248 221.624 688.773 243.749 C 685.48 260.025 678.73 272.383 659.569 297.214 C 647.677 312.626 637.751 327.304 629.478 341.717 L 623.452 352.214 L 621.08 378.714 L 618.707 405.214 L 621.161 425.446 C 622.892 439.716 623.336 446.494 622.666 448.446 C 621.931 450.588 619.576 452.322 612.261 456.109 C 585.314 470.06 552.136 478.127 511.217 480.677 C 492.282 481.857 435.941 481.815 416.717 480.607 L 416.717 480.607 Z"/>
  <path transform="translate(-3.8192 14.9118) matrix(1 0 0 1 -213.411 -9.6261)" fill="#ffffff" id="imagebot_8" d="M 466.506 275.964 C 466.793 275.002 470.704 263.639 475.197 250.714 C 492.152 201.941 493.754 196.111 494.847 179.174 C 495.96 161.927 492.647 150.029 483.992 140.196 C 478.967 134.488 471.519 130.734 465.217 130.734 C 458.915 130.734 451.466 134.488 446.442 140.196 C 437.787 150.029 434.473 161.927 435.587 179.174 C 436.68 196.111 438.281 201.941 455.236 250.714 C 459.729 263.639 463.64 275.002 463.928 275.964 C 464.215 276.927 464.795 277.714 465.217 277.714 C 465.638 277.714 466.219 276.927 466.506 275.964 L 466.506 275.964 Z"/>
  <path transform="translate(-3.8192 14.9118) matrix(1 0 0 1 -213.411 -9.6261)" fill="#ffffff" id="imagebot_7" d="M 615.136 331.647 C 621.61 319.914 634.999 300.175 647.31 284.214 C 666.011 259.969 670.95 250.04 671.909 234.768 C 672.97 217.867 667.954 204.227 656.467 192.782 C 644.525 180.883 630.608 176.047 611.217 177.059 C 593.097 178.004 576.984 183.56 556.351 195.976 C 522.907 216.102 492.717 251.048 484.538 279.104 C 482.564 285.876 478.139 305.939 475.885 318.339 L 475.317 321.463 L 488.517 322.127 C 526.92 324.057 576.224 331.032 601.717 338.141 C 610.194 340.505 610.268 340.469 615.136 331.647 L 615.136 331.647 Z"/>
  <path transform="translate(-3.8192 14.9118) matrix(1 0 0 1 -213.411 -9.6261)" fill="#ffffff" id="imagebot_6" d="M 338.717 335.85 C 367.978 329.159 401.798 324.477 434.217 322.631 C 445.492 321.988 454.817 321.381 454.94 321.282 C 455.448 320.87 448.111 286.602 445.911 279.104 C 437.657 250.979 407.514 216.094 374.083 195.976 C 353.449 183.56 337.336 178.004 319.217 177.059 C 299.826 176.047 285.908 180.883 273.966 192.782 C 262.472 204.236 257.439 217.926 258.551 234.714 C 259.579 250.236 264.737 260.518 283.895 285.229 C 295.579 300.3 308.877 319.983 315.264 331.659 C 320.418 341.081 317.847 340.622 338.717 335.85 L 338.717 335.85 Z"/>
  <path transform="translate(-3.8192 14.9118) matrix(1 0 0 1 -213.411 -9.6261)" fill="#ffffff" id="imagebot_5" d="M 370.083 382.259 C 441.97 366.271 518.03 368.795 588.939 389.522 L 601.894 393.309 L 603.107 378.262 C 603.775 369.986 604.558 361.83 604.847 360.138 L 605.374 357.062 L 591.045 353.811 C 509.035 335.205 421.398 335.205 339.388 353.811 L 325.059 357.062 L 325.586 360.138 C 325.876 361.83 326.659 369.986 327.326 378.262 L 328.54 393.309 L 341.494 389.522 C 348.619 387.44 361.484 384.171 370.083 382.259 L 370.083 382.259 Z"/>
  <path transform="translate(-3.8192 14.9118) matrix(1 0 0 1 -213.411 -9.6261)" fill="#ffffff" id="imagebot_4" d="M 366.717 418.704 C 403.449 409.182 426.481 406.276 465.217 406.276 C 486.415 406.277 497.432 406.732 508.217 408.053 C 535.851 411.439 566.633 418.437 591.479 426.981 C 601.394 430.39 604.139 431.017 603.78 429.792 C 603.525 428.924 603.012 424.959 602.639 420.981 C 602.267 417.003 601.457 413.084 600.839 412.273 C 599.458 410.458 577.178 403.901 558.556 399.828 C 488.352 384.473 412.765 386.943 344.378 406.826 C 336.864 409.011 330.212 411.462 329.594 412.273 C 328.977 413.084 328.167 417.003 327.794 420.981 C 327.421 424.959 326.908 428.924 326.654 429.792 C 326.295 431.017 329.039 430.39 338.954 426.981 C 345.974 424.567 358.467 420.842 366.717 418.704 L 366.717 418.704 Z"/>
  <path transform="translate(-3.8192 14.9118) matrix(1 0 0 1 -213.411 -9.6261)" fill="#ffffff" id="imagebot_3" d="M 511.217 462.677 C 530.622 461.468 550.754 458.689 564.717 455.294 C 577.178 452.263 592.648 446.728 591.544 445.694 C 590.349 444.574 570.403 438.294 558.717 435.358 C 525.815 427.092 502.058 424.276 465.217 424.276 C 428.375 424.277 404.618 427.092 371.717 435.358 C 360.031 438.294 340.085 444.574 338.889 445.694 C 337.787 446.727 353.247 452.261 365.717 455.296 C 378.789 458.479 400.463 461.586 416.717 462.607 C 435.941 463.815 492.282 463.857 511.217 462.677 L 511.217 462.677 Z"/>
  <title>imagebot_2</title>
 </g>
 <metadata>image/svg+xmlOpen Clip Art LibraryChess tile - King 32006-12-26T00:00:00http://openclipart.org/detail/18668/-by--18668portablejim</metadata>
</svg>