<svg width="500" height="500" xmlns="http://www.w3.org/2000/svg">

 <g id="imagebot_2">
  <path transform="translate(-0.7845 12.7318) matrix(1 0 0 1 267.693 -489.519)" fill="#000000" id="imagebot_7" d="M -112.487 962.271 C -120.562 958.239 -121.763 934.463 -114.909 914.312 C -109.052 897.091 -102.293 887.991 -76.4547 862.539 C -53.1767 839.609 -46.9759 832.062 -39.7321 817.839 C -31.0871 800.865 -27.6778 787.438 -26.7697 766.789 C -26.4493 759.501 -26.4278 753.539 -26.7221 753.539 C -27.0163 753.539 -31.9212 756.39 -37.6219 759.875 C -43.3225 763.359 -56.1566 770.358 -66.1422 775.428 C -104.041 794.67 -109.991 800.32 -126.901 833.117 C -130.043 839.211 -134.627 846.762 -137.088 849.898 C -144.975 859.946 -157.652 867.539 -166.542 867.539 C -170.337 867.539 -177.289 864.927 -180.971 862.118 C -182.689 860.809 -184.906 857.936 -185.898 855.735 C -187.532 852.112 -188.142 851.669 -192.345 851.05 C -221.05 846.819 -241.408 821.846 -239.151 793.629 C -237.7 775.488 -229.538 757.352 -209.01 726.66 C -194.961 705.655 -189.251 695.469 -185.334 684.42 C -183.304 678.693 -183.067 676.142 -183.029 659.539 L -182.987 641.039 L -179.747 634.2 C -177.049 628.502 -174.209 625.081 -162.726 613.7 C -155.146 606.186 -147.639 598.104 -146.045 595.739 L -143.146 591.439 L -145.34 563.739 C -148.365 525.557 -148.373 525.656 -142.165 523.046 C -137.936 521.268 -138.141 521.169 -106.17 540.404 C -91.421 549.278 -79.0112 556.539 -78.5928 556.539 C -78.1745 556.539 -70.2733 548.449 -61.0348 538.561 C -47.1147 523.662 -43.6438 520.471 -40.7721 519.933 C -34.6658 518.787 -33.2181 520.832 -20.789 548.152 L -9.39594 573.196 L -3.19128 572.287 C 5.71741 570.982 27.4077 572.133 38.6719 574.507 C 59.1255 578.818 79.4362 587.613 95.8785 599.278 C 106.856 607.066 124.536 624.947 132.721 636.539 C 150.406 661.588 163.224 689.623 174.973 728.957 C 195.148 796.497 207.576 875.479 207.907 938.252 C 208.011 958.02 207.963 958.515 205.736 960.752 L 203.458 963.039 L 46.7357 963.279 C -76.9136 963.469 -110.514 963.256 -112.487 962.271 L -112.487 962.271 Z"/>
  <path transform="translate(-0.7845 12.7318) matrix(1 0 0 1 267.693 -489.519)" fill="#ffffff" id="imagebot_6" d="M -111.902 557.378 C -120.748 552.065 -128.113 547.842 -128.268 547.993 C -128.423 548.145 -128.012 555.464 -127.354 564.258 L -126.158 580.247 L -110.988 573.643 L -95.8167 567.039 L -111.902 557.378 Z"/>
  <path transform="translate(-0.7845 12.7318) matrix(1 0 0 1 267.693 -489.519)" fill="#ffffff" id="imagebot_5" d="M 191.152 944.991 C 194.039 942.104 194.039 941.98 190.932 902.539 C 185.129 828.856 167.16 742.147 147.309 692.039 C 141.496 677.364 130.415 656.387 122.746 645.539 C 106.284 622.253 81.8157 603.184 56.9321 594.247 C 42.0029 588.885 30.4445 587.032 12.5134 587.124 C 1.79608 587.179 -6.60269 587.753 -11.4511 588.76 C -15.5566 589.614 -19.4382 590.111 -20.077 589.866 C -20.7157 589.621 -24.7473 581.685 -29.036 572.23 C -33.3248 562.775 -37.9516 552.594 -39.3179 549.605 L -41.8021 544.17 L -57.3944 560.272 L -72.9866 576.373 L -100.152 588.064 L -127.317 599.754 L -133.867 608.526 C -137.47 613.35 -144.937 621.468 -150.461 626.565 C -165.292 640.25 -164.972 639.506 -165.059 660.539 C -165.12 675.601 -165.441 679.084 -167.362 685.539 C -171.148 698.265 -179.582 714.16 -193.892 735.539 C -209.588 758.99 -217.755 774.582 -220.087 785.551 C -222.069 794.874 -221.485 806.519 -218.728 812.661 C -213.861 823.506 -201.897 832.109 -190.161 833.205 L -183.74 833.805 L -177.042 824.922 C -173.358 820.036 -169.363 815.492 -168.165 814.824 C -163.32 812.123 -158.105 813.839 -156.009 818.825 C -154.245 823.02 -155.122 825.041 -163.617 836.347 C -167.464 841.466 -170.467 846.416 -170.291 847.347 C -169.71 850.41 -163.496 850.053 -158.854 846.69 C -152.428 842.035 -148.142 836.032 -139.425 819.477 C -134.954 810.986 -129.342 801.297 -126.952 797.945 C -117.779 785.076 -103.947 775.058 -75.1422 760.419 C -46.8031 746.017 -21.7399 730.034 -14.3435 721.648 C -5.62234 711.76 -1.92563 700.227 -2.79034 685.606 C -3.43817 674.652 -2.33081 671.378 2.60318 669.658 C 5.10754 668.784 6.43268 668.881 9.06393 670.13 C 13.2458 672.114 14.5385 675.561 15.23 686.571 C 16.2854 703.374 8.75833 723.216 -3.34091 735.526 L -9.98663 742.287 L -9.18137 748.663 C -7.98239 758.156 -9.18536 779.751 -11.4863 790.039 C -16.0211 810.315 -24.555 829.625 -35.7244 844.882 C -39.0366 849.406 -51.3885 862.614 -63.4595 874.539 C -84.9914 895.81 -91.2176 903.341 -96.1138 914.036 C -99.2293 920.841 -101.447 931.299 -101.469 939.289 L -101.487 945.539 L 39.9543 945.539 C 133.17 945.539 181.606 945.88 182.013 946.539 C 183.223 948.496 188.55 947.594 191.152 944.991 L 191.152 944.991 Z"/>
  <path transform="translate(-0.7845 12.7318) matrix(1 0 0 1 267.693 -489.519)" fill="#000000" id="imagebot_4" d="M -152.414 680.384 C -147.889 671.861 -134.845 650.878 -132.195 647.859 C -126.802 641.717 -118.443 639.084 -112.052 641.514 C -110.641 642.051 -109.487 643.073 -109.487 643.787 C -109.487 646.902 -117.597 658.648 -124.512 665.549 C -130.221 671.246 -134.084 674.071 -140.512 677.248 C -145.173 679.551 -150.038 681.727 -151.322 682.082 C -153.507 682.686 -153.578 682.577 -152.414 680.384 Z"/>
  <path transform="translate(-0.7845 12.7318) matrix(1 0 0 1 267.693 -489.519)" fill="#000000" id="imagebot_3" d="M -214.29 802.899 C -213.908 794.974 -213.276 791.759 -211.215 787.258 C -208.487 781.299 -204.038 777.55 -199.687 777.543 C -194.059 777.534 -188.487 783.155 -188.487 788.841 C -188.487 793.153 -192.8 797.793 -203.879 805.398 L -214.77 812.874 L -214.29 802.899 Z"/>
  <title>imagebot_2</title>
 </g>
 <metadata>image/svg+xmlOpen Clip Art LibraryChess tile - Knight 22006-12-26T00:00:00http://openclipart.org/detail/18643/-by--18643portablejim</metadata>
</svg>