<svg width="500" height="500" xmlns="http://www.w3.org/2000/svg">

 <g id="imagebot_2">
  <path transform="translate(-2.113 26.2597) matrix(1 0 0 1 -387.206 -272.99)" fill="#000000" id="imagebot_4" d="M 486.515 731.983 C 480.412 729.525 477.868 717.646 477.841 691.492 C 477.819 669.839 479.34 660.427 486.18 639.88 C 499.158 600.894 527.58 567.107 562.764 548.84 L 572.822 543.618 L 567.764 539.497 C 556.975 530.707 547.371 515.548 543.018 500.436 C 541.156 493.971 540.741 490.165 540.791 479.992 C 540.844 469.133 541.217 466.376 543.631 458.992 C 551.171 435.924 564.376 420.416 585.206 410.167 L 594.706 405.492 L 590.479 399.186 C 582.015 386.558 579.381 371.394 583.196 357.256 C 587.441 341.522 595.929 331.183 610.493 324.004 C 629.308 314.731 649.104 314.731 667.919 324.004 C 682.484 331.183 690.971 341.522 695.217 357.256 C 699.032 371.394 696.398 386.558 687.934 399.186 L 683.706 405.492 L 693.206 410.167 C 714.037 420.416 727.242 435.924 734.782 458.992 C 737.195 466.376 737.568 469.133 737.621 479.992 C 737.671 490.165 737.257 493.971 735.395 500.436 C 731.041 515.548 721.437 530.707 710.648 539.497 L 705.59 543.618 L 715.648 548.84 C 750.833 567.107 779.255 600.894 792.233 639.88 C 799.073 660.427 800.593 669.839 800.571 691.492 C 800.544 718.143 798.006 729.597 791.589 732.037 C 788.359 733.265 489.566 733.212 486.515 731.983 L 486.515 731.983 Z"/>
  <path transform="translate(-2.113 26.2597) matrix(1 0 0 1 -387.206 -272.99)" fill="#ffffff" id="imagebot_3" d="M 781.937 712.242 C 782.36 710.73 782.677 701.167 782.641 690.992 C 782.568 670.374 780.884 659.741 775.085 643.304 C 760.885 603.054 727.826 569.66 688.206 555.544 C 678.247 551.996 676.427 550.686 675.641 546.495 C 674.662 541.28 676.897 538.795 686.908 533.966 C 718.151 518.895 729.531 480.095 711.72 449.373 C 706.89 441.041 695.603 430.781 686.073 426.059 C 678.115 422.116 673.974 421.062 660.103 419.449 C 654.964 418.852 651.574 416.304 650.565 412.284 C 649.516 408.107 652.076 404.826 659.167 401.255 C 667.213 397.204 672.528 392.07 676.005 384.992 C 678.365 380.188 678.706 378.291 678.706 369.992 C 678.706 361.628 678.374 359.815 675.927 354.832 C 672.479 347.811 666.936 342.708 658.33 338.631 C 652.004 335.634 651.144 335.492 639.206 335.492 C 627.269 335.492 626.408 335.634 620.083 338.631 C 611.476 342.708 605.934 347.811 602.486 354.832 C 600.039 359.815 599.706 361.628 599.706 369.992 C 599.706 378.291 600.048 380.188 602.408 384.992 C 605.884 392.07 611.199 397.204 619.246 401.255 C 626.337 404.826 628.896 408.107 627.848 412.284 C 626.839 416.304 623.448 418.852 618.31 419.449 C 604.439 421.062 600.298 422.116 592.339 426.059 C 582.81 430.781 571.523 441.041 566.693 449.373 C 559.419 461.919 556.714 477.215 559.181 491.843 C 562.128 509.311 574.9 525.956 591.505 533.966 C 601.516 538.795 603.75 541.28 602.772 546.495 C 601.986 550.686 600.166 551.996 590.206 555.544 C 550.586 569.66 517.527 603.054 503.328 643.304 C 497.529 659.741 495.844 670.374 495.771 690.992 C 495.736 701.167 496.052 710.73 496.475 712.242 L 497.244 714.992 L 639.206 714.992 L 781.168 714.992 L 781.937 712.242 Z"/>
  <title>imagebot_2</title>
 </g>
 <metadata>image/svg+xmlOpen Clip Art LibraryChess tile - Pawn 32006-12-26T00:00:00http://openclipart.org/detail/18649/-by--18649portablejim</metadata>
</svg>