<svg width="500" height="500" xmlns="http://www.w3.org/2000/svg">

 <g id="imagebot_2">
  <path transform="translate(-1.87476 4.0209) matrix(1 0 0 1 -319.918 -446.857)" fill="#000000" id="imagebot_17" d="M 505.918 929.756 C 476.739 928.226 448.883 921.257 427.572 910.154 C 417.157 904.728 413.918 901.767 413.918 897.672 C 413.918 896.291 418.189 885.354 423.41 873.368 L 432.902 851.575 L 423.978 831.092 L 415.055 810.609 L 396.816 788.281 C 386.785 776 378.119 765.354 377.559 764.623 C 376.999 763.892 371.784 725.278 365.971 678.816 L 355.401 594.338 L 348.789 592.113 C 340.709 589.394 335.64 585.658 331.772 579.572 C 324.946 568.829 324.292 557.228 329.874 545.889 C 335.59 534.279 346.058 528.07 359.918 528.07 C 373.777 528.07 384.245 534.279 389.961 545.889 C 396.586 559.346 394.629 571.534 383.528 585.963 C 382.951 586.714 392.777 607.961 411.52 646.489 L 440.402 705.859 L 444.593 632.906 C 446.898 592.782 448.814 558.499 448.851 556.723 C 448.908 553.973 448.361 553.206 445.168 551.56 C 438.435 548.09 433.141 542.652 429.71 535.682 C 421.306 518.612 428.689 499.265 446.918 490.585 C 458.198 485.214 472.046 487.651 482.626 496.87 C 485.119 499.043 488.175 503.261 490.126 507.224 C 492.966 512.994 493.418 514.945 493.418 521.453 C 493.418 527.961 492.966 529.912 490.126 535.682 C 488.191 539.611 485.169 543.794 482.797 545.824 L 478.76 549.28 L 503.589 621.351 C 517.245 660.99 528.663 693.429 528.962 693.437 C 529.262 693.446 535.816 657.121 543.526 612.716 L 557.546 531.979 L 553.254 529.136 C 543.688 522.8 538.434 512.985 538.424 501.432 C 538.413 487.987 545.835 476.814 558.918 470.585 C 566.704 466.877 577.132 466.877 584.918 470.585 C 593.069 474.466 598.367 479.589 602.126 487.224 C 604.967 492.996 605.417 494.94 605.411 501.432 C 605.401 512.985 600.148 522.8 590.582 529.136 L 586.289 531.979 L 600.309 612.716 C 608.02 657.121 614.574 693.446 614.873 693.437 C 615.173 693.429 626.591 660.99 640.247 621.351 L 665.075 549.28 L 661.039 545.824 C 658.666 543.794 655.644 539.611 653.71 535.682 C 645.306 518.612 652.689 499.265 670.918 490.585 C 678.704 486.877 689.132 486.877 696.918 490.585 C 705.069 494.466 710.367 499.589 714.126 507.224 C 716.966 512.994 717.418 514.945 717.418 521.453 C 717.418 527.961 716.966 529.912 714.126 535.682 C 710.695 542.652 705.4 548.09 698.668 551.56 C 695.474 553.206 694.928 553.973 694.984 556.723 C 695.021 558.499 696.937 592.782 699.242 632.906 L 703.434 705.859 L 732.315 646.489 C 751.058 607.961 760.885 586.714 760.307 585.963 C 749.206 571.534 747.25 559.346 753.875 545.889 C 759.59 534.279 770.058 528.07 783.918 528.07 C 797.777 528.07 808.245 534.279 813.961 545.889 C 819.543 557.228 818.889 568.829 812.063 579.572 C 808.196 585.658 803.126 589.394 795.046 592.113 L 788.434 594.338 L 777.865 678.816 C 772.051 725.278 766.837 763.892 766.277 764.623 C 765.716 765.354 757.051 776 747.019 788.281 L 728.781 810.609 L 719.857 831.092 L 710.934 851.575 L 720.426 873.368 C 725.646 885.354 729.918 896.291 729.918 897.672 C 729.918 901.767 726.678 904.728 716.263 910.154 C 699.749 918.758 679.658 924.849 656.975 928.129 C 648.459 929.36 633.369 929.693 578.918 929.85 C 541.793 929.957 508.943 929.914 505.918 929.756 L 505.918 929.756 Z"/>
  <path transform="translate(-1.87476 4.0209) matrix(1 0 0 1 -319.918 -446.857)" fill="#ffffff" id="imagebot_16" d="M 579.996 515.179 C 585.179 511.686 587.918 506.94 587.918 501.453 C 587.918 489.246 573.652 481.114 563.839 487.727 C 558.657 491.219 555.918 495.965 555.918 501.453 C 555.918 513.659 570.183 521.792 579.996 515.179 L 579.996 515.179 Z"/>
  <path transform="translate(-1.87476 4.0209) matrix(1 0 0 1 -319.918 -446.857)" fill="#ffffff" id="imagebot_15" d="M 691.996 535.179 C 697.179 531.686 699.918 526.94 699.918 521.453 C 699.918 515.965 697.179 511.219 691.996 507.727 C 682.183 501.114 667.918 509.246 667.918 521.453 C 667.918 533.659 682.183 541.792 691.996 535.179 L 691.996 535.179 Z"/>
  <path transform="translate(-1.87476 4.0209) matrix(1 0 0 1 -319.918 -446.857)" fill="#ffffff" id="imagebot_14" d="M 467.996 535.179 C 478.636 528.009 478.636 514.897 467.996 507.727 C 458.183 501.114 443.918 509.246 443.918 521.453 C 443.918 533.659 458.183 541.792 467.996 535.179 L 467.996 535.179 Z"/>
  <path transform="translate(-1.87476 4.0209) matrix(1 0 0 1 -319.918 -446.857)" fill="#ffffff" id="imagebot_13" d="M 791.898 574.701 C 797.073 572.101 799.918 567.224 799.918 560.953 C 799.918 551.726 793.444 545.456 783.918 545.456 C 774.391 545.456 767.918 551.726 767.918 560.953 C 767.918 570.18 774.391 576.45 783.918 576.45 C 786.393 576.45 789.984 575.663 791.898 574.701 L 791.898 574.701 Z"/>
  <path transform="translate(-1.87476 4.0209) matrix(1 0 0 1 -319.918 -446.857)" fill="#ffffff" id="imagebot_12" d="M 367.898 574.701 C 378.719 569.264 378.719 552.641 367.898 547.204 C 363.446 544.968 356.39 544.968 351.938 547.204 C 341.116 552.641 341.116 569.264 351.938 574.701 C 353.852 575.663 357.443 576.45 359.918 576.45 C 362.393 576.45 365.984 575.663 367.898 574.701 Z"/>
  <path transform="translate(-1.87476 4.0209) matrix(1 0 0 1 -319.918 -446.857)" fill="#ffffff" id="imagebot_11" d="M 550.835 714.862 C 554.455 712.887 559.443 709.585 561.918 707.523 C 570.884 700.056 573.251 699.965 581.052 706.789 C 585.502 710.682 599.644 719.123 600.349 718.307 C 600.821 717.761 572.485 555.461 571.918 555.46 C 571.643 555.46 565.164 591.57 557.521 635.706 C 549.878 679.842 543.417 716.515 543.164 717.203 C 542.455 719.13 543.717 718.744 550.835 714.862 L 550.835 714.862 Z"/>
  <path transform="translate(-1.87476 4.0209) matrix(1 0 0 1 -319.918 -446.857)" fill="#ffffff" id="imagebot_10" d="M 686.446 721.703 C 686.12 717.99 684.069 682.778 681.888 643.453 C 679.707 604.128 677.809 570.764 677.67 569.311 C 677.524 567.778 666.331 598.853 651.016 643.311 C 636.495 685.464 624.382 720.587 624.098 721.362 C 623.238 723.707 637.081 721.86 646.89 718.32 C 659.399 713.806 661.228 713.687 665.672 717.092 C 669.384 719.936 684.68 728.368 686.228 728.424 C 686.674 728.44 686.772 725.415 686.446 721.703 L 686.446 721.703 Z"/>
  <path transform="translate(-1.87476 4.0209) matrix(1 0 0 1 -319.918 -446.857)" fill="#ffffff" id="imagebot_9" d="M 465.193 724.832 C 469.166 722.841 474.568 719.643 477.196 717.726 C 482.805 713.635 484.069 713.673 496.946 718.32 C 506.754 721.86 520.597 723.707 519.737 721.362 C 519.453 720.587 507.34 685.464 492.819 643.311 C 477.505 598.853 466.312 567.778 466.166 569.311 C 466.027 570.764 464.129 604.128 461.947 643.453 C 459.766 682.778 457.715 717.99 457.389 721.703 C 457.063 725.415 457.06 728.453 457.382 728.453 C 457.704 728.453 461.219 726.824 465.193 724.832 L 465.193 724.832 Z"/>
  <path transform="translate(-1.87476 4.0209) matrix(1 0 0 1 -319.918 -446.857)" fill="#ffffff" id="imagebot_8" d="M 759.855 678.953 C 764.255 643.811 767.724 614.926 767.563 614.765 C 767.311 614.513 711.647 728.495 710.132 732.364 C 709.666 733.555 711.205 733.648 719.999 732.961 C 737.73 731.575 736.729 731.383 744.469 737.668 C 748.283 740.766 751.505 743.199 751.629 743.075 C 751.753 742.951 755.455 714.096 759.855 678.953 L 759.855 678.953 Z"/>
  <path transform="translate(-1.87476 4.0209) matrix(1 0 0 1 -319.918 -446.857)" fill="#ffffff" id="imagebot_7" d="M 406.468 732.631 C 408.454 731.59 410.453 731.537 415.895 732.381 C 425.6 733.887 434.268 733.8 433.641 732.203 C 432.153 728.41 376.517 614.52 376.272 614.765 C 376.111 614.926 379.56 643.609 383.937 678.505 C 388.313 713.401 391.899 742.32 391.906 742.769 C 391.912 743.218 394.624 741.418 397.932 738.769 C 401.24 736.12 405.081 733.358 406.468 732.631 L 406.468 732.631 Z"/>
  <path transform="translate(-1.87476 4.0209) matrix(1 0 0 1 -319.918 -446.857)" fill="#ffffff" id="imagebot_6" d="M 432.993 792.899 C 523.152 761.89 620.688 761.892 710.861 792.905 C 714.955 794.313 718.626 795.125 719.018 794.709 C 721.445 792.136 745.869 761.861 745.847 761.453 C 745.833 761.178 742.621 758.445 738.71 755.379 L 731.599 749.806 L 726.008 750.724 C 708.667 753.575 683.162 747.974 664.626 737.247 L 657.835 733.316 L 650.126 735.846 C 624.954 744.108 599.688 740.603 577.168 725.726 L 571.918 722.258 L 566.668 725.726 C 553.915 734.151 539.226 739.154 524.369 740.132 C 514.013 740.814 505.012 739.556 493.709 735.846 L 486.001 733.316 L 479.209 737.247 C 460.674 747.974 435.168 753.575 417.827 750.724 L 412.236 749.806 L 405.129 755.379 C 401.22 758.445 398.111 761.271 398.22 761.66 C 398.391 762.27 425.128 795.453 425.449 795.453 C 425.514 795.453 428.909 794.304 432.993 792.899 L 432.993 792.899 Z"/>
  <path transform="translate(-1.87476 4.0209) matrix(1 0 0 1 -319.918 -446.857)" fill="#ffffff" id="imagebot_5" d="M 471.117 831.615 C 537.298 810.193 606.537 810.193 672.718 831.615 C 681.134 834.339 689.985 837.41 692.388 838.44 C 695.554 839.797 696.895 839.988 697.256 839.133 C 697.53 838.484 700.433 831.823 703.707 824.331 L 709.659 810.709 L 706.038 809.551 C 639.064 788.128 580.258 782.596 514.418 791.522 C 489.59 794.888 467.075 800.186 437.797 809.551 L 434.177 810.709 L 440.129 824.331 C 443.403 831.823 446.305 838.484 446.58 839.133 C 446.941 839.988 448.281 839.797 451.447 838.44 C 453.85 837.41 462.702 834.339 471.117 831.615 L 471.117 831.615 Z"/>
  <path transform="translate(-1.87476 4.0209) matrix(1 0 0 1 -319.918 -446.857)" fill="#ffffff" id="imagebot_4" d="M 471.418 872.939 C 490.969 868.111 512.277 864.363 531.918 862.296 C 548.204 860.583 595.632 860.583 611.918 862.296 C 639.237 865.171 677.742 873.057 697.668 879.859 C 701.655 881.22 704.918 882.152 704.918 881.93 C 704.918 881.708 702.726 876.448 700.048 870.24 C 694.253 856.808 695.181 857.458 669.693 849.004 C 652.349 843.251 632.427 838.769 610.918 835.78 C 593.392 833.344 550.444 833.344 532.918 835.78 C 511.408 838.769 491.487 843.251 474.142 849.004 C 448.654 857.458 449.582 856.808 443.787 870.24 C 441.109 876.448 438.918 881.708 438.918 881.93 C 438.918 882.152 442.18 881.22 446.168 879.859 C 450.155 878.498 461.518 875.384 471.418 872.939 L 471.418 872.939 Z"/>
  <path transform="translate(-1.87476 4.0209) matrix(1 0 0 1 -319.918 -446.857)" fill="#ffffff" id="imagebot_3" d="M 656.918 910.135 C 670.773 908.129 679.422 906.113 690.783 902.24 L 700.148 899.047 L 693.283 896.721 C 682.088 892.928 655.501 886.677 639.418 884.056 C 614.516 879.998 600.988 878.981 571.918 878.981 C 542.847 878.981 529.319 879.998 504.418 884.056 C 488.335 886.677 461.747 892.928 450.553 896.721 L 443.688 899.047 L 453.053 902.257 C 468.2 907.449 486.511 910.739 505.918 911.756 C 508.943 911.914 541.793 911.957 578.918 911.85 C 633.252 911.693 648.466 911.359 656.918 910.135 L 656.918 910.135 Z"/>
  <title>imagebot_2</title>
 </g>
 <metadata>image/svg+xmlOpen Clip Art LibraryChess tile - Queen 32006-12-26T00:00:00http://openclipart.org/detail/18661/-by--18661portablejim</metadata>
</svg>