<svg width="500" height="500" xmlns="http://www.w3.org/2000/svg">

 <g id="imagebot_2">
  <path transform="translate(-2.0511 37.0218) matrix(1 0 0 1 -554.822 -264.5)" fill="#000000" id="imagebot_9" d="M 640.905 713.048 C 636.369 710.575 635.873 707.624 636.208 685.106 L 636.516 664.366 L 639.322 661.954 C 641.859 659.774 643.033 659.543 651.572 659.543 L 661.016 659.543 L 661.02 641.793 C 661.024 625.961 661.233 623.719 662.955 621.043 C 664.017 619.393 673.45 609.043 683.917 598.043 L 702.948 578.043 L 702.974 507.043 L 703 436.043 L 679.464 418.145 C 666.519 408.301 655.498 399.443 654.972 398.461 C 654.417 397.422 654.016 381.977 654.016 361.559 C 654.016 323.146 654.179 321.961 659.779 319.641 C 661.821 318.795 671.367 318.542 693.299 318.751 C 731.271 319.113 728.36 317.695 728.848 336.068 L 729.18 348.543 L 746.098 348.543 L 763.016 348.543 L 763.016 338.011 C 763.016 325.783 764.349 321.476 768.687 319.679 C 770.832 318.791 781.434 318.547 808.783 318.757 C 854.311 319.107 850.354 317.479 850.848 336.068 L 851.18 348.543 L 868.098 348.543 L 885.016 348.543 L 885.016 337.493 C 885.016 325.081 886.154 321.557 890.779 319.641 C 892.822 318.795 902.367 318.542 924.299 318.751 C 954.687 319.04 954.984 319.063 957.24 321.32 C 959.515 323.594 959.517 323.628 959.802 360.19 C 960.039 390.43 959.843 397.154 958.673 398.914 C 957.894 400.085 946.857 408.918 934.146 418.543 L 911.034 436.043 L 911.029 507.043 L 911.023 578.043 L 931.132 599.524 C 942.193 611.339 951.641 622.055 952.129 623.339 C 952.617 624.623 953.016 633.252 953.016 642.514 L 953.016 659.355 L 962.991 659.699 C 978.114 660.22 977.516 659.095 977.516 687.043 C 977.516 709.066 977.474 709.53 975.239 711.765 L 972.961 714.043 L 808.239 714.258 C 667.301 714.442 643.139 714.267 640.905 713.048 L 640.905 713.048 Z"/>
  <path transform="translate(-2.0511 37.0218) matrix(1 0 0 1 -554.822 -264.5)" fill="#ffffff" id="imagebot_8" d="M 942.016 361.043 L 942.016 336.543 L 922.598 336.543 L 903.18 336.543 L 902.848 349.018 C 902.362 367.286 904.872 365.97 869.807 366.338 C 849.755 366.549 840.826 366.292 838.786 365.448 C 834.154 363.529 833.016 360.01 833.016 347.593 L 833.016 336.543 L 807.016 336.543 L 781.016 336.543 L 781.016 348.487 C 781.016 359.669 780.863 360.61 778.604 363.237 L 776.192 366.043 L 747.921 366.338 C 727.781 366.549 718.826 366.293 716.786 365.448 C 712.154 363.529 711.016 360.01 711.016 347.593 L 711.016 336.543 L 691.516 336.543 L 672.016 336.543 L 672.016 361.043 L 672.016 385.543 L 807.016 385.543 L 942.016 385.543 L 942.016 361.043 Z"/>
  <path transform="translate(-2.0511 37.0218) matrix(1 0 0 1 -554.822 -264.5)" fill="#ffffff" id="imagebot_7" d="M 912.291 413.293 L 924.428 404.043 L 865.722 403.785 C 833.434 403.643 780.626 403.643 748.372 403.785 L 689.727 404.043 L 701.622 413.242 L 713.516 422.441 L 806.835 422.492 L 900.154 422.543 L 912.291 413.293 Z"/>
  <path transform="translate(-2.0511 37.0218) matrix(1 0 0 1 -554.822 -264.5)" fill="#ffffff" id="imagebot_6" d="M 893.016 506.543 L 893.016 440.543 L 807.016 440.543 L 721.016 440.543 L 721.016 506.543 L 721.016 572.543 L 807.016 572.543 L 893.016 572.543 L 893.016 506.543 Z"/>
  <path transform="translate(-2.0511 37.0218) matrix(1 0 0 1 -554.822 -264.5)" fill="#ffffff" id="imagebot_5" d="M 921.339 615.23 C 920.337 613.958 914.792 607.883 909.016 601.731 L 898.516 590.544 L 806.939 590.543 L 715.362 590.543 L 702.608 604.043 L 689.854 617.543 L 806.508 617.543 L 923.162 617.543 L 921.339 615.23 Z"/>
  <path transform="translate(-2.0511 37.0218) matrix(1 0 0 1 -554.822 -264.5)" fill="#ffffff" id="imagebot_4" d="M 935.016 647.543 L 935.016 635.543 L 807.016 635.543 L 679.016 635.543 L 679.016 647.543 L 679.016 659.543 L 807.016 659.543 L 935.016 659.543 L 935.016 647.543 Z"/>
  <path transform="translate(-2.0511 37.0218) matrix(1 0 0 1 -554.822 -264.5)" fill="#ffffff" id="imagebot_3" d="M 960.016 687.043 L 960.016 677.543 L 807.016 677.543 L 654.016 677.543 L 654.016 687.043 L 654.016 696.543 L 807.016 696.543 L 960.016 696.543 L 960.016 687.043 Z"/>
  <title>imagebot_2</title>
 </g>
 <metadata>image/svg+xmlOpen Clip Art LibraryChess tile - Rook 32006-12-26T00:00:00http://openclipart.org/detail/18655/-by--18655portablejim</metadata>
</svg>