<?xml version="1.0" encoding="UTF-8" standalone="no"?>
<svg
   xmlns:dc="http://purl.org/dc/elements/1.1/"
   xmlns:cc="http://creativecommons.org/ns#"
   xmlns:rdf="http://www.w3.org/1999/02/22-rdf-syntax-ns#"
   xmlns:svg="http://www.w3.org/2000/svg"
   xmlns="http://www.w3.org/2000/svg"
   xmlns:sodipodi="http://sodipodi.sourceforge.net/DTD/sodipodi-0.dtd"
   xmlns:inkscape="http://www.inkscape.org/namespaces/inkscape"
   width="90"
   height="90"
   id="svg3381"
   version="1.1"
   inkscape:version="0.48.4 r9939"
   sodipodi:docname="bb.svg">
  <defs
     id="defs3391" />
  <sodipodi:namedview
     pagecolor="#ffffff"
     bordercolor="#666666"
     borderopacity="1"
     objecttolerance="10"
     gridtolerance="10"
     guidetolerance="10"
     inkscape:pageopacity="0"
     inkscape:pageshadow="2"
     inkscape:window-width="871"
     inkscape:window-height="897"
     id="namedview3389"
     showgrid="false"
     inkscape:zoom="2.6222222"
     inkscape:cx="45"
     inkscape:cy="45"
     inkscape:window-x="0"
     inkscape:window-y="0"
     inkscape:window-maximized="0"
     inkscape:current-layer="svg3381" />
  <g
     label="Layer 1"
     id="imagebot_2">
    <path
       transform="matrix(1 0 0 1 -566.892 -70.3401)"
       label="Layer 1"
       fill="#000000"
       stroke-width="1pt"
       id="imagebot_3"
       d="M 605.394 126.499 C 601.005 126.499 598.81 127.187 598.81 128.564 C 598.81 129.769 600.746 130.501 604.619 130.759 L 611.72 130.759 C 620.326 130.759 624.63 130.027 624.63 128.564 C 624.63 127.187 622.435 126.499 618.046 126.499 L 605.394 126.499 M 605.394 118.494 C 601.607 118.494 599.498 118.925 599.068 119.785 C 598.896 119.957 598.81 120.216 598.81 120.56 C 598.81 121.507 599.714 122.066 601.521 122.238 C 603.759 122.496 607.158 122.626 611.72 122.626 C 616.281 122.626 619.724 122.496 622.048 122.238 C 623.769 122.066 624.63 121.507 624.63 120.56 C 624.63 119.183 622.435 118.494 618.046 118.494 L 605.394 118.494 M 629.407 124.046 L 631.989 133.986 C 631.988 136.999 628.933 138.763 622.823 139.279 C 627.298 141.001 631.472 141.861 635.345 141.861 C 635.862 141.861 638.4 141.732 642.962 141.474 C 646.749 141.474 649.847 143.454 652.257 147.413 C 652.601 148.101 653.032 148.876 653.548 149.737 L 648.901 156.837 C 647.523 158.558 646.06 159.677 644.511 160.194 C 644.167 158.386 641.413 157.267 636.249 156.837 L 633.151 156.579 C 622.564 155.718 615.421 153.437 611.72 149.737 C 608.363 153.265 603.242 155.288 596.357 155.804 C 594.808 155.976 592.785 156.235 590.289 156.579 C 584.006 157.095 580.349 157.999 579.316 159.29 C 579.144 159.548 579.015 159.849 578.929 160.194 C 576.691 159.247 574.582 157.095 572.603 153.739 C 571.828 152.362 570.924 151.028 569.892 149.737 C 572.215 145.433 574.711 142.851 577.379 141.991 C 578.326 141.646 579.359 141.474 580.478 141.474 C 580.478 141.474 583.017 141.603 588.095 141.861 C 592.054 141.861 596.228 141.001 600.617 139.279 C 594.507 138.763 591.451 136.999 591.451 133.986 C 591.451 133.728 592.14 131.533 593.517 127.402 C 593.947 126.025 594.162 125.078 594.162 124.562 C 588.912 118.193 586.287 112.556 586.287 107.65 C 586.287 101.97 589.084 96.8056 594.679 92.158 C 599.67 87.9407 603.285 85.703 605.523 85.4448 C 603.63 83.121 602.683 80.7111 602.683 78.2152 C 602.683 74.17 604.705 71.6741 608.751 70.7274 C 609.697 70.4693 610.687 70.3402 611.72 70.3401 C 616.023 70.3402 618.82 71.9323 620.111 75.1168 L 620.757 77.8279 L 620.757 78.2152 C 620.757 80.625 619.81 83.0349 617.917 85.4448 C 619.552 85.8751 622.005 87.2091 625.275 89.4469 C 633.193 94.9551 637.153 101.023 637.153 107.65 C 637.153 112.642 634.57 118.107 629.407 124.046 M 614.044 112.039 L 614.044 106.101 L 618.562 106.101 L 618.562 101.195 L 614.044 101.195 L 614.044 95.6436 L 609.396 95.6436 L 609.396 101.195 L 604.878 101.195 L 604.878 106.101 L 609.396 106.101 L 609.396 112.039 L 614.044 112.039 M 611.72 75.6332 C 609.998 75.6332 608.923 76.4078 608.492 77.957 L 608.363 78.7316 C 608.363 80.3668 609.224 81.3996 610.945 81.83 C 611.203 81.9161 611.462 81.9591 611.72 81.9591 C 613.871 81.9591 614.947 80.8832 614.947 78.7316 C 614.947 76.666 613.871 75.6332 611.72 75.6332" />
    <title
       id="title3385">Layer 1</title>
  </g>
  <metadata
     id="metadata3387">image/svg+xmlOpen Clip Art LibraryChess symbols set2009-04-06T07:41:21Chess set by Igor Krizanovskij. From old OCAL site.http://openclipart.org/detail/24135/chess-symbols-set--by-anonymous-24135Anonymousmediaclip artpublic domainimagepngsvggameplaychessboardpiecefiguresetcollectionsymbolgameplaychessboardpiecefiguresetcollectionsymbol<rdf:RDF>
  <cc:Work
     rdf:about="">
    <dc:format>image/svg+xml</dc:format>
    <dc:type
       rdf:resource="http://purl.org/dc/dcmitype/StillImage" />
  </cc:Work>
</rdf:RDF>
</metadata>
  <path
     style="fill:#ffffff"
     d="m 36.686441,60.149996 c -0.314619,-0.08253 -1.210056,-0.254028 -1.98986,-0.381107 -1.397259,-0.227702 -2.586412,-1.042971 -2.586412,-1.773215 0,-0.205467 0.595124,-0.622234 1.322498,-0.92615 1.039319,-0.434256 3.427794,-0.552119 11.15466,-0.550448 9.767625,0.0021 12.423994,0.273953 12.822402,1.312186 0.566748,1.476923 -2.917372,2.132602 -12.30525,2.315734 -4.315303,0.08418 -8.10342,0.08553 -8.418038,0.003 z"
     id="path3393"
     inkscape:connector-curvature="0" />
  <path
     style="fill:#ffffff"
     d="m 34.076956,51.561225 c -0.701107,-0.16576 -1.453237,-0.479879 -1.6714,-0.698042 -0.585917,-0.585916 -0.0718,-1.550892 1.054413,-1.979076 1.310643,-0.498305 20.549965,-0.485137 22.351665,0.0153 2.388656,0.663467 2.235122,2.093193 -0.287626,2.678397 -1.806776,0.41912 -19.662577,0.405317 -21.447052,-0.01658 z"
     id="path3395"
     inkscape:connector-curvature="0" />
  <path
     style="fill:#ffffff"
     d="m 42.788136,38.59322 0,-3.050847 -2.288136,0 -2.288136,0 0,-2.288136 0,-2.288135 2.288136,0 2.288136,0 0,-2.669492 0,-2.669491 2.097457,0 2.097458,0 0,2.669491 0,2.669492 2.288135,0 2.288136,0 0,2.288135 0,2.288136 -2.288136,0 -2.288135,0 0,3.050847 0,3.050848 -2.097458,0 -2.097457,0 0,-3.050848 z"
     id="path3397"
     inkscape:connector-curvature="0" />
  <path
     style="fill:#ffffff"
     d="m 43.562375,11.038331 c -1.515513,-0.781686 -2.150486,-2.2350937 -1.57912,-3.6144935 0.822048,-1.9845992 3.056139,-2.5566317 4.757689,-1.2181925 0.76827,0.6043218 1.004819,1.1290663 1.004819,2.2290301 0,2.2631879 -2.194942,3.6292759 -4.183388,2.6036559 z"
     id="path3399"
     inkscape:connector-curvature="0" />
</svg>
