<?xml version="1.0" encoding="UTF-8" standalone="no"?>
<svg
   xmlns:dc="http://purl.org/dc/elements/1.1/"
   xmlns:cc="http://creativecommons.org/ns#"
   xmlns:rdf="http://www.w3.org/1999/02/22-rdf-syntax-ns#"
   xmlns:svg="http://www.w3.org/2000/svg"
   xmlns="http://www.w3.org/2000/svg"
   xmlns:sodipodi="http://sodipodi.sourceforge.net/DTD/sodipodi-0.dtd"
   xmlns:inkscape="http://www.inkscape.org/namespaces/inkscape"
   width="90"
   height="90"
   id="svg3353"
   version="1.1"
   inkscape:version="0.48.4 r9939"
   sodipodi:docname="bk.svg">
  <defs
     id="defs3363" />
  <sodipodi:namedview
     pagecolor="#ffffff"
     bordercolor="#666666"
     borderopacity="1"
     objecttolerance="10"
     gridtolerance="10"
     guidetolerance="10"
     inkscape:pageopacity="0"
     inkscape:pageshadow="2"
     inkscape:window-width="815"
     inkscape:window-height="775"
     id="namedview3361"
     showgrid="false"
     inkscape:zoom="2.6222222"
     inkscape:cx="45"
     inkscape:cy="45"
     inkscape:window-x="59"
     inkscape:window-y="49"
     inkscape:window-maximized="0"
     inkscape:current-layer="svg3353" />
  <g
     label="Layer 1"
     id="imagebot_2">
    <path
       transform="matrix(1 0 0 1 -63.5686 -66.6311)"
       label="Layer 1"
       fill="#000000"
       stroke-width="1pt"
       id="imagebot_3"
       d="M 111.542 124.046 C 111.542 125.595 110.467 126.369 108.315 126.369 C 105.905 126.369 104.7 125.595 104.7 124.046 C 104.7 116.902 102.333 111.093 97.5997 106.617 C 93.3824 102.83 89.2943 100.937 85.3352 100.937 C 79.4827 100.937 75.8248 103.261 74.3617 107.908 L 73.8453 111.394 L 73.8453 111.652 C 73.8453 115.095 76.3843 119.871 81.4622 125.982 C 82.8393 127.531 84.0012 128.736 84.9479 129.597 C 86.325 130.716 88.6057 131.275 91.7902 131.275 C 95.1468 131.275 100.569 130.63 108.057 129.339 C 115.631 130.63 121.096 131.275 124.452 131.275 C 127.723 131.275 130.004 130.716 131.295 129.597 C 134.91 126.412 137.922 122.539 140.332 117.978 C 141.709 115.396 142.397 113.287 142.397 111.652 C 142.397 106.23 139.944 102.83 135.039 101.453 C 133.748 101.109 132.371 100.937 130.907 100.937 C 126.948 100.937 122.903 102.873 118.772 106.746 C 113.952 111.05 111.542 116.816 111.542 124.046 M 139.557 111.652 C 139.557 115.095 137.19 119.14 132.457 123.787 L 129.1 126.628 L 127.809 127.402 C 126.174 127.66 124.452 127.79 122.645 127.79 C 117.309 127.79 114.641 126.714 114.641 124.562 C 114.813 117.935 116.793 112.771 120.579 109.07 C 123.85 105.8 127.207 104.164 130.649 104.164 C 135.039 104.164 137.836 105.756 139.041 108.941 L 139.557 111.652 M 127.293 144.443 C 127.293 142.206 120.967 141.087 108.315 141.087 C 104.872 141.087 101.817 141.216 99.1489 141.474 L 96.0505 141.732 C 91.4029 142.335 89.0791 143.195 89.0791 144.314 C 89.0791 145.605 90.241 146.251 92.5648 146.251 L 108.186 144.96 L 123.678 146.251 C 126.088 146.251 127.293 145.648 127.293 144.443 M 134.522 147.542 C 134.35 153.394 125.571 156.321 108.186 156.321 C 90.9726 156.321 82.2368 153.394 81.9786 147.542 C 81.8925 142.034 81.0749 137.128 79.5257 132.824 C 78.579 130.501 76.7716 127.531 74.1035 123.917 C 70.7469 119.355 69.0686 115.31 69.0686 111.781 C 69.0686 106.273 71.4354 102.013 76.1691 99.0003 C 78.8372 97.2789 81.8065 96.4183 85.077 96.4183 C 89.5525 96.4183 93.8128 98.0535 97.8579 101.324 C 97.8579 97.365 98.2452 94.6539 99.0198 93.1908 C 99.6223 91.5555 101.602 89.576 104.958 87.2522 L 104.958 84.2829 L 99.6653 81.0554 L 99.6653 76.4078 L 104.442 76.4078 L 105.991 71.6311 L 110.381 71.6311 L 112.059 76.4078 L 116.706 76.4078 L 116.706 81.0554 L 111.542 84.2829 L 111.542 87.2522 C 114.813 89.662 116.836 91.7276 117.61 93.449 L 118.514 97.1928 C 118.6 98.2256 118.686 99.6027 118.772 101.324 C 122.817 98.0535 126.991 96.4183 131.295 96.4183 C 137.061 96.4183 141.537 98.613 144.721 103.002 C 146.529 105.584 147.432 108.511 147.432 111.781 C 147.432 115.31 145.754 119.398 142.397 124.046 L 139.428 128.177 C 136.244 132.997 134.608 139.452 134.522 147.542 M 76.8146 111.652 C 76.8146 108.037 78.622 105.713 82.2368 104.681 C 83.2696 104.336 84.3454 104.164 85.4643 104.164 C 89.0791 104.164 92.5218 105.8 95.7923 109.07 C 99.4931 112.857 101.43 118.021 101.602 124.562 C 101.688 126.455 99.7083 127.531 95.6632 127.79 C 95.0607 127.79 94.4152 127.79 93.7267 127.79 C 92.0054 127.79 90.241 127.66 88.4336 127.402 C 85.5934 126.025 82.7532 123.314 79.913 119.269 C 77.8474 116.257 76.8146 113.718 76.8146 111.652" />
    <title
       id="title3357">Layer 1</title>
  </g>
  <metadata
     id="metadata3359">image/svg+xmlOpen Clip Art LibraryChess symbols set2009-04-06T07:41:21Chess set by Igor Krizanovskij. From old OCAL site.http://openclipart.org/detail/24132/chess-symbols-set--by-anonymous-24132Anonymousmediaclip artpublic domainimagepngsvggameplaychessboardpiecefiguresetcollectionsymbolgameplaychessboardpiecefiguresetcollectionsymbol<rdf:RDF>
  <cc:Work
     rdf:about="">
    <dc:format>image/svg+xml</dc:format>
    <dc:type
       rdf:resource="http://purl.org/dc/dcmitype/StillImage" />
  </cc:Work>
</rdf:RDF>
</metadata>
  <path
     style="fill:#ffffff"
     d="m 26.389831,78.788136 c -1.452355,-1.452354 0.315192,-2.551653 5.456143,-3.393365 4.138309,-0.677553 22.258037,-0.708162 26.091639,-0.04408 4.585894,0.794403 6.331067,2.016219 4.909845,3.437441 -0.608343,0.608342 -4.033362,0.574174 -11.841102,-0.118126 -5.649669,-0.500947 -7.125755,-0.500947 -12.775424,0 -7.80774,0.6923 -11.232759,0.726468 -11.841101,0.118126 z"
     id="path3365"
     inkscape:connector-curvature="0" />
  <path
     style="fill:#ffffff"
     d="M 23.944651,63.945508 C 21.937932,63.372468 19.36121,60.956893 16.138917,56.627939 12.648136,51.93829 10.64996,47.895755 10.594675,45.411317 c -0.112177,-5.041148 2.405988,-8.958763 6.540219,-10.174893 2.800206,-0.823711 6.299105,-0.771705 8.927801,0.132699 4.55365,1.566686 9.740229,5.998511 12.015149,10.266698 1.482857,2.782125 2.727241,7.452093 2.727241,10.234889 0,2.791147 1.072745,3.9259 3.711371,3.9259 2.905757,0 3.406946,-0.57701 3.720779,-4.283669 0.313071,-3.69768 1.687245,-8.143837 3.293787,-10.657099 1.42309,-2.226268 6.061469,-6.667454 8.341859,-7.987219 5.544874,-3.209069 11.680216,-2.971935 15.944549,0.616264 1.484043,1.248741 2.745118,4.557562 2.731576,7.167131 -0.01995,3.841468 -4.046026,11.077782 -8.979193,16.138813 -2.291045,2.350427 -2.916744,2.775418 -4.712053,3.200557 -2.540833,0.601681 -8.006266,0.338764 -15.304847,-0.736247 -5.157136,-0.759596 -5.184993,-0.759622 -9.915256,-0.009 -5.720072,0.907652 -13.715826,1.264003 -15.693006,0.699398 z M 34.883924,60.90345 c 0.91429,-0.23022 2.04138,-0.771708 2.504645,-1.203304 0.784909,-0.731254 0.824723,-1.001338 0.584338,-3.963946 -0.470709,-5.80124 -1.981034,-9.407174 -5.528506,-13.199433 -4.842823,-5.176992 -11.127527,-6.538435 -16.27026,-3.524593 -1.975394,1.157658 -2.940424,3.081038 -2.979238,5.93785 -0.02357,1.735006 0.235014,2.653594 1.396374,4.960411 2.785609,5.533072 7.784933,10.516178 11.093298,11.057312 2.568718,0.420152 7.4098,0.386317 9.199349,-0.0643 z m 28.517598,0.173633 c 2.831217,-0.467965 8.963615,-6.57275 11.437906,-11.386405 0.94159,-1.831834 1.173275,-2.748515 1.161789,-4.596723 -0.01667,-2.683267 -0.6611,-4.145636 -2.562567,-5.815145 -1.570534,-1.378949 -3.250064,-1.811395 -6.756773,-1.739735 -6.516705,0.133168 -13.179932,6.496829 -14.994194,14.320086 -0.764859,3.298131 -0.875536,6.938379 -0.234443,7.710852 1.168395,1.40783 7.623061,2.221975 11.948282,1.50707 z"
     id="path3367"
     inkscape:connector-curvature="0" />
</svg>
