<?xml version="1.0" encoding="UTF-8" standalone="no"?>
<svg
   xmlns:dc="http://purl.org/dc/elements/1.1/"
   xmlns:cc="http://creativecommons.org/ns#"
   xmlns:rdf="http://www.w3.org/1999/02/22-rdf-syntax-ns#"
   xmlns:svg="http://www.w3.org/2000/svg"
   xmlns="http://www.w3.org/2000/svg"
   xmlns:sodipodi="http://sodipodi.sourceforge.net/DTD/sodipodi-0.dtd"
   xmlns:inkscape="http://www.inkscape.org/namespaces/inkscape"
   width="90"
   height="90"
   id="svg3299"
   version="1.1"
   inkscape:version="0.48.4 r9939"
   sodipodi:docname="bn.svg">
  <defs
     id="defs3309" />
  <sodipodi:namedview
     pagecolor="#ffffff"
     bordercolor="#666666"
     borderopacity="1"
     objecttolerance="10"
     gridtolerance="10"
     guidetolerance="10"
     inkscape:pageopacity="0"
     inkscape:pageshadow="2"
     inkscape:window-width="1100"
     inkscape:window-height="782"
     id="namedview3307"
     showgrid="false"
     inkscape:zoom="2.6222222"
     inkscape:cx="45"
     inkscape:cy="45"
     inkscape:window-x="240"
     inkscape:window-y="197"
     inkscape:window-maximized="0"
     inkscape:current-layer="svg3299" />
  <g
     label="Layer 1"
     id="imagebot_2">
    <path
       transform="matrix(1 0 0 1 -734.921 -67.2808)"
       label="Layer 1"
       fill="#000000"
       stroke-width="1pt"
       id="imagebot_3"
       d="M 758.736 110.361 C 760.888 110.361 763.169 109.113 765.579 106.617 C 766.87 105.326 767.515 104.207 767.515 103.261 C 767.515 102.142 766.482 101.582 764.417 101.582 C 762.007 101.582 759.984 102.658 758.349 104.81 C 757.488 105.843 757.058 106.918 757.058 108.037 C 757.058 109.586 757.618 110.361 758.736 110.361 M 756.542 82.0882 C 756.714 82.0882 757.144 82.0451 757.833 81.9591 C 761.706 81.9591 765.837 83.2501 770.226 85.8321 C 770.743 86.1764 771.001 86.3485 771.001 86.3485 C 773.497 82.3033 775.39 80.2808 776.681 80.2808 C 779.435 81.83 781.243 83.5083 782.104 85.3157 C 782.534 86.1764 783.179 87.9837 784.04 90.7379 C 784.729 90.5657 785.417 90.4797 786.106 90.4797 C 793.335 90.4797 800.221 94.9121 806.762 103.777 C 814.594 114.019 818.51 127.962 818.51 145.605 C 818.51 149.564 818.338 153.136 817.993 156.321 L 763.513 156.321 C 763.685 150.554 765.794 145.089 769.839 139.925 C 770.269 139.236 770.872 138.462 771.646 137.601 C 774.831 133.556 776.767 130.458 777.456 128.306 C 777.8 127.187 778.058 126.025 778.231 124.82 C 772.55 127.058 768.29 130.372 765.45 134.761 C 764.159 136.913 762.739 139.15 761.189 141.474 C 760.759 142.163 760.113 142.507 759.253 142.507 C 757.101 142.507 756.025 141.173 756.025 138.505 C 755.165 139.624 754.175 140.183 753.056 140.183 C 753.056 140.183 752.195 139.968 750.474 139.538 C 746.773 138.591 744.148 136.956 742.599 134.632 C 742.083 133.857 741.523 132.824 740.921 131.533 C 741.523 127.833 744.492 120.474 749.828 109.457 C 753.702 101.539 756.111 95.8588 757.058 92.4162 C 757.144 91.6416 757.187 90.5227 757.187 89.0596 C 757.187 87.8546 756.972 85.5309 756.542 82.0882 M 748.796 127.402 C 746.73 127.402 745.353 128.306 744.664 130.113 C 744.492 130.544 744.406 130.974 744.406 131.404 C 744.406 131.749 744.535 132.179 744.794 132.695 C 747.031 132.695 748.408 131.749 748.925 129.855 C 749.011 129.597 749.054 129.296 749.054 128.951 C 749.054 128.779 748.968 128.263 748.796 127.402 M 812.184 147.284 L 812.184 142.507 C 812.184 128.478 808.612 116.988 801.469 108.037 C 795.272 100.291 789.634 96.4183 784.556 96.4183 C 784.556 96.4183 784.04 96.3322 783.007 96.1601 C 782.835 96.2461 782.706 96.3322 782.62 96.4183 C 781.501 96.4183 780.942 96.8916 780.942 97.8383 C 780.942 98.1826 781.2 98.613 781.716 99.1294 C 786.364 99.5597 791.442 102.873 796.95 109.07 C 803.921 117.16 807.407 128.865 807.407 144.185 C 807.407 144.185 807.407 144.443 807.407 144.96 C 807.407 148.747 808.225 150.64 809.86 150.64 C 811.237 150.64 812.012 149.521 812.184 147.284" />
    <title
       id="title3303">Layer 1</title>
  </g>
  <metadata
     id="metadata3305">image/svg+xmlOpen Clip Art LibraryChess symbols set2009-04-06T07:41:21Chess set by Igor Krizanovskij. From old OCAL site.http://openclipart.org/detail/24136/chess-symbols-set--by-anonymous-24136Anonymousmediaclip artpublic domainimagepngsvggameplaychessboardpiecefiguresetcollectionsymbolgameplaychessboardpiecefiguresetcollectionsymbol<rdf:RDF>
  <cc:Work
     rdf:about="">
    <dc:format>image/svg+xml</dc:format>
    <dc:type
       rdf:resource="http://purl.org/dc/dcmitype/StillImage" />
  </cc:Work>
</rdf:RDF>
</metadata>
  <path
     style="fill:#ffffff"
     d="m 22.754237,42.533898 c -0.450474,-0.450474 -0.270691,-2.802668 0.298316,-3.903006 1.330987,-2.573845 5.02701,-4.575387 7.461482,-4.040688 2.369755,0.520486 2.357833,1.82503 -0.04165,4.557893 -2.202654,2.508685 -6.646035,4.457911 -7.718145,3.385801 z"
     id="path3311"
     inkscape:connector-curvature="0" />
  <path
     style="fill:#ffffff"
     d="m 9.9152542,64.015998 c 0,-1.585796 1.2158528,-3.158313 2.7129468,-3.508774 1.231066,-0.288185 1.61413,0.689155 0.918526,2.34351 -0.566333,1.346909 -1.215307,1.913667 -2.584877,2.257407 -0.9941188,0.249508 -1.0465958,0.194747 -1.0465958,-1.092143 z"
     id="path3313"
     inkscape:connector-curvature="0" />
  <path
     style="fill:#ffffff"
     d="m 73.781947,82.437632 c -0.560062,-0.618861 -0.762819,-1.747678 -1.01036,-5.625 C 71.833014,62.111375 70.660631,56.349579 67.180736,49.335809 63.017627,40.945012 54.501115,33.065612 48.350452,31.914199 46.749549,31.614508 46.02529,30.956656 46.353787,30.100608 c 0.313529,-0.817045 1.885955,-1.0299 4.49921,-0.609048 8.55182,1.377231 19.255435,13.435274 23.312704,26.262677 1.888532,5.970756 2.501324,9.982211 2.738037,17.923729 0.216045,7.24812 0.200484,7.462998 -0.614481,8.48517 -0.996744,1.250164 -1.567766,1.31268 -2.50731,0.274496 z"
     id="path3315"
     inkscape:connector-curvature="0" />
</svg>
