<svg width="90" height="90" xmlns="http://www.w3.org/2000/svg">

 <g label="Layer 1" id="imagebot_2">
  <path transform="matrix(1 0 0 1 -903.454 -67.4099)" label="Layer 1" fill="#000000" stroke-width="1pt" id="imagebot_3" d="M 920.083 156.321 C 919.997 155.288 919.954 153.265 919.954 150.253 C 919.954 139.409 923.311 131.361 930.024 126.111 C 932.003 124.476 934.413 122.97 937.253 121.593 C 933.897 120.56 931.616 118.021 930.411 113.976 C 930.067 112.685 929.895 111.351 929.895 109.974 C 929.895 104.207 932.864 100.119 938.803 97.7093 C 937.253 95.1273 936.479 92.6744 936.479 90.3506 C 936.479 86.4776 938.372 83.5944 942.159 81.7009 C 943.88 80.8402 945.731 80.4099 947.711 80.4099 C 952.014 80.4099 955.198 82.0882 957.264 85.4448 C 958.211 86.9079 958.684 88.5432 958.684 90.3506 C 958.684 92.8465 957.952 95.2994 956.489 97.7093 C 959.674 99.0003 961.954 100.722 963.332 102.873 C 964.708 105.197 965.397 107.564 965.397 109.974 C 965.397 114.449 963.848 117.849 960.75 120.173 C 959.975 120.861 959.114 121.335 958.168 121.593 C 966.086 125.638 971.207 130.931 973.53 137.472 C 974.735 141.087 975.338 145.347 975.338 150.253 C 975.338 153.265 975.295 155.288 975.209 156.321 L 920.083 156.321"/>
  <title>Layer 1</title>
 </g>
 <metadata>image/svg+xmlOpen Clip Art LibraryChess symbols set2009-04-06T07:41:21Chess set by Igor Krizanovskij. From old OCAL site.http://openclipart.org/detail/24137/chess-symbols-set--by-anonymous-24137Anonymousmediaclip artpublic domainimagepngsvggameplaychessboardpiecefiguresetcollectionsymbolgameplaychessboardpiecefiguresetcollectionsymbol</metadata>
</svg>