<?xml version="1.0" encoding="UTF-8" standalone="no"?>
<svg
   xmlns:dc="http://purl.org/dc/elements/1.1/"
   xmlns:cc="http://creativecommons.org/ns#"
   xmlns:rdf="http://www.w3.org/1999/02/22-rdf-syntax-ns#"
   xmlns:svg="http://www.w3.org/2000/svg"
   xmlns="http://www.w3.org/2000/svg"
   xmlns:sodipodi="http://sodipodi.sourceforge.net/DTD/sodipodi-0.dtd"
   xmlns:inkscape="http://www.inkscape.org/namespaces/inkscape"
   width="90"
   height="90"
   id="svg3247"
   version="1.1"
   inkscape:version="0.48.4 r9939"
   sodipodi:docname="bq.svg">
  <defs
     id="defs3257" />
  <sodipodi:namedview
     pagecolor="#ffffff"
     bordercolor="#666666"
     borderopacity="1"
     objecttolerance="10"
     gridtolerance="10"
     guidetolerance="10"
     inkscape:pageopacity="0"
     inkscape:pageshadow="2"
     inkscape:window-width="704"
     inkscape:window-height="898"
     id="namedview3255"
     showgrid="false"
     inkscape:zoom="2.6222222"
     inkscape:cx="45"
     inkscape:cy="45"
     inkscape:window-x="0"
     inkscape:window-y="0"
     inkscape:window-maximized="0"
     inkscape:current-layer="svg3247" />
  <g
     label="Layer 1"
     id="imagebot_2">
    <path
       transform="matrix(1 0 0 1 -230.932 -67.0512)"
       label="Layer 1"
       fill="#000000"
       stroke-width="1pt"
       id="imagebot_3"
       d="M 254.428 142.894 C 254.428 144.271 255.418 144.96 257.397 144.96 L 266.305 144.314 C 266.305 144.314 268.887 144.185 274.051 143.927 L 275.988 143.927 L 291.092 144.702 L 294.191 144.96 C 296.17 144.96 297.16 144.271 297.16 142.894 C 297.16 140.398 291.393 139.021 279.861 138.763 L 275.858 138.763 C 266.133 138.763 259.635 139.495 256.364 140.958 C 255.073 141.474 254.428 142.12 254.428 142.894 M 238.29 88.9305 C 236.655 88.9305 235.622 89.7481 235.192 91.3834 C 235.106 91.6416 235.063 91.8997 235.063 92.158 C 235.063 93.7932 235.881 94.826 237.516 95.2564 C 237.774 95.3424 238.032 95.3855 238.29 95.3855 C 240.356 95.3855 241.389 94.3096 241.389 92.158 C 241.389 90.0063 240.356 88.9305 238.29 88.9305 M 255.202 80.7972 C 252.965 80.7972 251.846 81.873 251.846 84.0247 C 251.846 86.1764 252.965 87.2522 255.202 87.2522 C 257.268 87.2522 258.301 86.1764 258.301 84.0247 C 258.301 81.873 257.268 80.7972 255.202 80.7972 M 296.385 80.7972 C 294.922 80.7972 293.932 81.5287 293.416 82.9919 L 293.287 84.0247 C 293.287 86.1764 294.32 87.2522 296.385 87.2522 C 298.537 87.2522 299.613 86.1764 299.613 84.0247 C 299.613 81.873 298.537 80.7972 296.385 80.7972 M 313.168 88.9305 C 311.103 88.9305 310.07 90.0063 310.07 92.158 C 310.07 94.3096 311.103 95.3855 313.168 95.3855 C 315.32 95.3855 316.396 94.3096 316.396 92.158 C 316.396 90.5227 315.578 89.4899 313.943 89.0596 C 313.685 88.9735 313.426 88.9305 313.168 88.9305 M 303.873 150.64 C 303.873 153.05 299.441 154.728 290.576 155.675 L 278.053 156.45 L 275.729 156.45 C 265.229 156.45 257.225 155.546 251.717 153.739 C 249.049 152.964 247.715 151.931 247.715 150.64 C 247.715 148.144 248.403 145.304 249.78 142.12 C 250.727 140.226 251.2 138.892 251.2 138.118 C 251.2 136.482 249.221 133.298 245.262 128.564 C 243.11 126.068 241.862 124.347 241.518 123.4 C 241.518 122.884 241.26 121.722 240.743 119.914 L 239.065 113.459 C 237.946 109.242 237.215 104.767 236.87 100.033 C 232.911 98.3978 230.932 95.7728 230.932 92.158 C 230.932 89.0596 232.352 86.8649 235.192 85.5739 C 236.139 85.1435 237.172 84.9284 238.29 84.9284 C 241.131 84.9284 243.239 86.2194 244.616 88.8014 C 245.219 89.9202 245.52 91.0391 245.52 92.158 L 244.874 97.0638 C 244.874 100.937 247.629 105.67 253.137 111.265 C 253.567 107.736 253.782 104.035 253.782 100.162 C 253.782 94.3957 252.75 90.7379 250.684 89.1887 C 250.512 89.0165 250.34 88.8874 250.168 88.8014 C 248.618 87.8546 247.844 86.1764 247.844 83.7665 C 247.844 80.582 249.307 78.3873 252.233 77.1824 C 253.18 76.752 254.17 76.5369 255.202 76.5369 C 258.215 76.5369 260.366 77.914 261.657 80.6681 C 262.174 81.6148 262.432 82.6476 262.432 83.7665 L 261.528 89.3178 C 261.528 94.1375 263.895 101.496 268.629 111.394 C 270.436 103.304 271.34 97.1068 271.34 92.8035 C 271.34 89.1887 270.694 85.8751 269.403 82.8628 C 268.887 81.7439 268.629 80.8832 268.629 80.2808 C 268.629 77.0963 270.049 74.9016 272.889 73.6967 C 273.836 73.2663 274.826 73.0512 275.858 73.0512 C 278.871 73.0512 280.979 74.4713 282.184 77.3115 C 282.615 78.2582 282.83 79.248 282.83 80.2808 C 282.83 80.4529 282.098 82.7337 280.635 87.1231 C 280.291 88.2419 280.119 90.1354 280.119 92.8035 C 280.119 97.1068 281.022 103.304 282.83 111.394 C 287.477 101.582 289.801 94.2236 289.801 89.3178 L 289.027 83.8956 L 289.027 83.7665 C 289.027 80.582 290.49 78.3873 293.416 77.1824 C 294.363 76.752 295.352 76.5369 296.385 76.5369 C 299.398 76.5369 301.549 77.914 302.84 80.6681 C 303.357 81.6148 303.615 82.6476 303.615 83.7665 C 303.615 86.1764 302.84 87.8977 301.291 88.9305 C 298.881 90.4797 297.676 94.2666 297.676 100.291 C 297.676 104.078 297.891 107.736 298.322 111.265 C 303.83 105.67 306.584 100.937 306.584 97.0638 L 305.939 92.158 C 305.939 89.1456 307.316 86.994 310.07 85.703 C 311.017 85.1866 312.049 84.9284 313.168 84.9284 C 316.267 84.9284 318.461 86.3054 319.752 89.0596 L 320.527 91.5125 L 320.527 92.158 C 320.527 95.6006 318.547 98.2256 314.588 100.033 C 314.072 105.972 312.609 113.244 310.199 121.851 C 310.027 122.539 309.941 123.056 309.941 123.4 C 309.941 124.003 309.295 124.992 308.004 126.369 L 306.455 128.306 C 302.324 133.04 300.258 136.31 300.258 138.118 C 300.258 138.634 301.291 141.302 303.357 146.122 C 303.701 147.843 303.873 149.349 303.873 150.64 M 275.858 76.7951 C 274.223 76.7951 273.19 77.6127 272.76 79.248 C 272.674 79.5062 272.631 79.7644 272.631 80.0226 C 272.631 81.6578 273.448 82.6906 275.084 83.121 C 275.342 83.207 275.6 83.2501 275.858 83.2501 C 277.924 83.2501 278.957 82.1742 278.957 80.0226 C 278.957 78.4734 278.225 77.4406 276.762 76.9242 C 276.504 76.8381 276.203 76.7951 275.858 76.7951 M 299.096 127.144 C 299.096 124.39 291.35 123.013 275.858 123.013 C 260.28 123.013 252.491 124.433 252.491 127.273 C 252.491 128.478 253.61 129.081 255.848 129.081 C 258.43 129.081 261.657 128.865 265.53 128.435 L 273.922 128.177 L 275.988 128.177 C 278.397 128.177 282.959 128.392 289.672 128.822 L 295.998 129.081 C 298.064 129.081 299.096 128.435 299.096 127.144" />
    <title
       id="title3251">Layer 1</title>
  </g>
  <metadata
     id="metadata3253">image/svg+xmlOpen Clip Art LibraryChess symbols set2009-04-06T07:41:21Chess set by Igor Krizanovskij. From old OCAL site.http://openclipart.org/detail/24133/chess-symbols-set--by-anonymous-24133Anonymousmediaclip artpublic domainimagepngsvggameplaychessboardpiecefiguresetcollectionsymbolgameplaychessboardpiecefiguresetcollectionsymbol<rdf:RDF>
  <cc:Work
     rdf:about="">
    <dc:format>image/svg+xml</dc:format>
    <dc:type
       rdf:resource="http://purl.org/dc/dcmitype/StillImage" />
  </cc:Work>
</rdf:RDF>
</metadata>
  <path
     style="fill:#ffffff"
     d="m 24.436581,77.091102 c -0.838213,-1.083808 -0.846367,-1.421258 -0.05222,-2.161115 0.939519,-0.875295 3.365579,-1.634465 7.57327,-2.36985 3.881452,-0.678368 21.870123,-0.677962 26.504237,5.98e-4 4.471418,0.654737 7.436441,1.939864 7.436441,3.223167 0,1.869117 -0.275545,1.900445 -12.035,1.368312 -8.69578,-0.393496 -12.469928,-0.39998 -18.600324,-0.03195 -9.486794,0.569523 -10.365211,0.567157 -10.8264,-0.02916 z"
     id="path3259"
     inkscape:connector-curvature="0" />
  <path
     style="fill:#ffffff"
     d="m 22.95347,61.583728 c -1.134716,-0.493933 -1.364358,-1.385009 -0.600152,-2.328763 0.940396,-1.161341 5.076213,-2.188851 10.873498,-2.701433 5.801093,-0.51292 23.921326,-0.250188 27.713862,0.401833 3.206738,0.551309 5.924326,1.443445 6.496288,2.132617 0.662934,0.79879 0.141582,2.341325 -0.877809,2.597175 -0.479166,0.120263 -5.843479,-0.01792 -11.920693,-0.307078 -10.51076,-0.500107 -15.217309,-0.44227 -27.447786,0.337294 -1.887712,0.120322 -3.794455,0.06108 -4.237208,-0.131645 z"
     id="path3261"
     inkscape:connector-curvature="0" />
  <path
     style="fill:#ffffff"
     d="m 42.633467,14.745425 c -1.90618,-2.423315 0.673961,-5.5666037 3.636225,-4.429876 0.988708,0.379403 1.672727,2.348221 1.285239,3.699315 -0.409108,1.426474 -0.918429,1.760018 -2.698862,1.767432 -1.077733,0.0045 -1.592291,-0.235559 -2.222602,-1.036871 l 0,0 z"
     id="path3263"
     inkscape:connector-curvature="0" />
  <path
     style="fill:#ffffff"
     d="m 22.114282,19.205483 c -0.992076,-0.924259 -1.147046,-3.431799 -0.26651,-4.312335 1.242385,-1.242385 3.94647,-1.083988 4.860371,0.284705 0.579721,0.868212 0.29975,3.271882 -0.470855,4.042486 -1.004077,1.004077 -3.037173,0.996752 -4.123006,-0.01486 z"
     id="path3265"
     inkscape:connector-curvature="0" />
  <path
     style="fill:#ffffff"
     d="m 5.3346209,27.213958 c -1.0841098,-1.010002 -1.1206033,-3.131365 -0.071909,-4.18006 1.0939275,-1.093927 3.5720687,-1.045742 4.3639688,0.08485 0.8338283,1.190456 0.7516083,3.1894 -0.1690536,4.110062 -1.004077,1.004077 -3.0371734,0.996751 -4.1230062,-0.01486 z"
     id="path3267"
     inkscape:connector-curvature="0" />
  <path
     style="fill:#ffffff"
     d="m 63.653566,19.315678 c -0.442096,-0.367055 -0.910209,-1.218231 -1.040251,-1.891501 -0.199178,-1.031205 -0.0467,-1.413873 0.967519,-2.428088 1.017295,-1.017295 1.392961,-1.166161 2.422981,-0.960156 1.722622,0.344524 2.355969,1.135395 2.355969,2.941935 0,1.176321 -0.219805,1.739171 -0.891631,2.283183 -1.115699,0.903438 -2.763817,0.92704 -3.814587,0.05463 l 0,0 z"
     id="path3269"
     inkscape:connector-curvature="0" />
  <path
     style="fill:#ffffff"
     d="m 80.509028,27.691907 c -0.881768,-0.560676 -1.31318,-2.397857 -0.87491,-3.725828 0.664188,-2.012508 3.153681,-2.38244 4.819898,-0.716223 1.779488,1.779488 0.450441,4.746783 -2.121172,4.73583 -0.754039,-0.0032 -1.574756,-0.135412 -1.823816,-0.293779 z"
     id="path3271"
     inkscape:connector-curvature="0" />
  <path
     style="fill:#ffffff"
     d="m 80.509028,27.691907 c -0.881768,-0.560676 -1.31318,-2.397857 -0.87491,-3.725828 0.655535,-1.986289 3.15311,-2.383011 4.777284,-0.758837 1.842891,1.842891 0.580585,4.789386 -2.047132,4.778444 -0.771323,-0.0032 -1.606182,-0.135412 -1.855242,-0.293779 z"
     id="path3273"
     inkscape:connector-curvature="0" />
</svg>
