<?xml version="1.0" encoding="UTF-8" standalone="no"?>
<svg
   xmlns:dc="http://purl.org/dc/elements/1.1/"
   xmlns:cc="http://creativecommons.org/ns#"
   xmlns:rdf="http://www.w3.org/1999/02/22-rdf-syntax-ns#"
   xmlns:svg="http://www.w3.org/2000/svg"
   xmlns="http://www.w3.org/2000/svg"
   xmlns:sodipodi="http://sodipodi.sourceforge.net/DTD/sodipodi-0.dtd"
   xmlns:inkscape="http://www.inkscape.org/namespaces/inkscape"
   width="90"
   height="90"
   id="svg3219"
   version="1.1"
   inkscape:version="0.48.4 r9939"
   sodipodi:docname="br.svg">
  <defs
     id="defs3229" />
  <sodipodi:namedview
     pagecolor="#ffffff"
     bordercolor="#666666"
     borderopacity="1"
     objecttolerance="10"
     gridtolerance="10"
     guidetolerance="10"
     inkscape:pageopacity="0"
     inkscape:pageshadow="2"
     inkscape:window-width="640"
     inkscape:window-height="809"
     id="namedview3227"
     showgrid="false"
     inkscape:zoom="2.6222222"
     inkscape:cx="45"
     inkscape:cy="45"
     inkscape:window-x="0"
     inkscape:window-y="0"
     inkscape:window-maximized="0"
     inkscape:current-layer="svg3219" />
  <g
     label="Layer 1"
     id="imagebot_2">
    <path
       transform="matrix(1 0 0 1 -399.918 -67.0554)"
       label="Layer 1"
       fill="#000000"
       stroke-width="1pt"
       id="imagebot_3"
       d="M 414.871 156.321 L 412.418 153.868 L 412.418 144.702 L 425.457 131.792 L 425.457 106.101 L 415.387 96.1601 L 415.387 84.6702 L 419.002 81.0554 L 428.168 81.0554 L 430.492 83.2501 L 430.492 86.4776 L 435.398 86.4776 L 435.398 83.2501 L 437.592 81.0554 L 451.922 81.0554 L 454.117 83.2501 L 454.117 86.4776 L 459.023 86.4776 L 459.023 83.2501 L 461.218 81.0554 L 470.513 81.0554 L 474.128 84.6702 L 474.128 96.1601 L 464.058 106.101 L 464.058 131.792 L 477.097 144.702 L 477.097 153.868 L 474.515 156.321 L 414.871 156.321 M 430.105 128.822 L 430.105 133.212 L 459.41 133.212 L 459.41 128.822 L 430.105 128.822 M 430.105 105.584 L 430.105 109.974 L 459.41 109.974 L 459.41 105.584 L 430.105 105.584" />
    <title
       id="title3223">Layer 1</title>
  </g>
  <metadata
     id="metadata3225">image/svg+xmlOpen Clip Art LibraryChess symbols set2009-04-06T07:41:21Chess set by Igor Krizanovskij. From old OCAL site.http://openclipart.org/detail/24134/chess-symbols-set--by-anonymous-24134Anonymousmediaclip artpublic domainimagepngsvggameplaychessboardpiecefiguresetcollectionsymbolgameplaychessboardpiecefiguresetcollectionsymbol<rdf:RDF>
  <cc:Work
     rdf:about="">
    <dc:format>image/svg+xml</dc:format>
    <dc:type
       rdf:resource="http://purl.org/dc/dcmitype/StillImage" />
  </cc:Work>
</rdf:RDF>
</metadata>
  <path
     style="fill:#ffffff"
     d="m 30.508475,63.915254 0,-1.906779 14.491525,0 14.491525,0 0,1.906779 0,1.90678 -14.491525,0 -14.491525,0 0,-1.90678 z"
     id="path3231"
     inkscape:connector-curvature="0" />
  <path
     style="fill:#ffffff"
     d="m 30.508475,40.652542 0,-1.906779 14.491525,0 14.491525,0 0,1.906779 0,1.90678 -14.491525,0 -14.491525,0 0,-1.90678 z"
     id="path3233"
     inkscape:connector-curvature="0" />
</svg>
