<?xml version="1.0" encoding="UTF-8" standalone="no"?>
<svg
   xmlns:dc="http://purl.org/dc/elements/1.1/"
   xmlns:cc="http://creativecommons.org/ns#"
   xmlns:rdf="http://www.w3.org/1999/02/22-rdf-syntax-ns#"
   xmlns:svg="http://www.w3.org/2000/svg"
   xmlns="http://www.w3.org/2000/svg"
   xmlns:sodipodi="http://sodipodi.sourceforge.net/DTD/sodipodi-0.dtd"
   xmlns:inkscape="http://www.inkscape.org/namespaces/inkscape"
   width="90"
   height="90"
   id="svg3185"
   version="1.1"
   inkscape:version="0.48.4 r9939"
   sodipodi:docname="wb.svg">
  <defs
     id="defs3195" />
  <sodipodi:namedview
     pagecolor="#ffffff"
     bordercolor="#666666"
     borderopacity="1"
     objecttolerance="10"
     gridtolerance="10"
     guidetolerance="10"
     inkscape:pageopacity="0"
     inkscape:pageshadow="2"
     inkscape:window-width="861"
     inkscape:window-height="871"
     id="namedview3193"
     showgrid="false"
     inkscape:zoom="2.6222222"
     inkscape:cx="45"
     inkscape:cy="45"
     inkscape:window-x="0"
     inkscape:window-y="0"
     inkscape:window-maximized="0"
     inkscape:current-layer="svg3185" />
  <g
     label="Layer 1"
     id="imagebot_2">
    <path
       transform="matrix(1 0 0 1 -568.362 -212.653)"
       label="Layer 1"
       fill="#000000"
       stroke-width="1pt"
       id="imagebot_3"
       d="M 613.062 264.164 C 607.037 264.164 602.346 263.905 598.99 263.389 C 599.592 264.594 599.893 265.627 599.893 266.487 C 599.893 267.778 599.635 268.854 599.119 269.715 C 601.615 268.94 606.262 268.553 613.062 268.553 C 619.861 268.553 624.508 268.94 627.004 269.715 C 626.488 268.854 626.23 267.778 626.23 266.487 C 626.23 265.455 626.488 264.422 627.004 263.389 C 622.959 263.905 618.312 264.164 613.062 264.164 M 613.062 217.429 C 611.254 217.429 610.006 218.247 609.318 219.882 C 609.146 220.313 609.06 220.743 609.06 221.173 C 609.06 223.067 610.006 224.315 611.9 224.917 C 612.244 225.003 612.631 225.046 613.062 225.046 C 615.041 225.046 616.332 224.143 616.935 222.335 C 617.021 221.991 617.064 221.604 617.064 221.173 C 617.064 219.452 616.203 218.29 614.482 217.688 C 613.965 217.515 613.492 217.429 613.062 217.429 M 613.062 272.297 C 609.791 272.297 605.574 272.598 600.41 273.201 C 598.947 273.373 598.086 274.19 597.828 275.653 C 597.828 276.686 600.195 277.332 604.928 277.59 C 604.498 277.504 604.67 277.461 605.445 277.461 C 606.219 277.461 608.758 277.461 613.062 277.461 C 623.131 277.461 628.166 276.858 628.166 275.653 C 628.166 273.674 625.67 272.598 620.679 272.426 L 616.935 272.426 C 615.816 272.426 614.869 272.383 614.094 272.297 L 613.062 272.297 M 612.933 260.42 C 622.572 260.42 628.468 259.516 630.619 257.709 C 632.082 256.59 633.158 253.62 633.847 248.801 C 633.416 244.497 630.619 240.366 625.455 236.407 C 620.635 232.62 616.418 230.512 612.804 230.081 C 609.447 230.512 605.359 232.62 600.539 236.407 C 595.461 240.366 592.707 244.497 592.277 248.801 C 592.879 253.276 593.826 256.116 595.117 257.321 C 595.461 257.666 595.848 257.967 596.279 258.225 C 598.43 259.688 603.982 260.42 612.933 260.42 M 610.738 254.094 L 610.738 248.413 L 606.349 248.413 L 606.349 243.378 L 610.738 243.378 L 610.738 237.827 L 615.385 237.827 L 615.385 243.378 L 619.775 243.378 L 619.775 248.413 L 615.385 248.413 L 615.385 254.094 L 610.738 254.094 M 612.804 280.43 C 612.029 280.43 609.748 281.936 605.961 284.949 C 603.293 286.756 598.99 287.832 593.051 288.176 C 588.748 288.176 585.305 288.391 582.723 288.822 C 579.969 289.424 578.592 290.586 578.592 292.307 C 578.85 294.029 579.754 294.889 581.303 294.889 L 588.145 293.857 C 592.621 293.857 597.312 293.254 602.217 292.049 C 607.812 290.586 611.426 288.262 613.062 285.078 C 615.385 289.639 621.41 292.393 631.136 293.34 C 631.136 293.34 632.254 293.512 634.492 293.857 C 636.73 293.857 637.849 293.857 637.849 293.857 L 644.82 294.889 C 646.369 294.889 647.273 294.029 647.531 292.307 C 647.531 290.586 646.154 289.424 643.4 288.822 L 629.586 287.789 C 625.197 287.445 620.98 285.723 616.935 282.625 C 615.127 281.162 613.75 280.43 612.804 280.43 M 613.062 291.662 C 609.705 295.018 604.627 297.084 597.828 297.859 C 595.074 298.117 590.254 298.719 583.369 299.666 C 581.561 300.01 580.529 300.828 580.27 302.119 C 578.635 301.689 576.225 299.021 573.041 294.115 C 572.266 292.91 571.707 292.092 571.362 291.662 C 574.203 286.24 577.731 283.529 581.949 283.529 L 589.566 283.916 C 593.094 283.916 597.225 283.098 601.959 281.463 C 595.848 280.688 592.793 278.838 592.793 275.912 L 595.375 266.1 C 595.375 266.014 595.375 265.928 595.375 265.842 C 590.211 260.161 587.629 254.825 587.629 249.833 C 587.629 244.153 590.426 238.989 596.021 234.341 C 600.926 230.21 604.541 228.016 606.865 227.757 C 604.971 225.434 604.025 223.024 604.025 220.528 C 604.025 216.569 606.004 214.073 609.963 213.04 C 610.91 212.782 611.943 212.653 613.062 212.653 C 617.279 212.653 620.033 214.245 621.324 217.429 L 621.97 220.141 L 621.97 220.528 C 621.969 223.196 621.066 225.606 619.258 227.757 C 621.582 228.016 625.24 230.253 630.232 234.471 C 635.74 239.032 638.494 244.153 638.494 249.833 C 638.494 254.653 635.912 259.989 630.748 265.842 C 630.748 267.047 631.179 268.768 632.039 271.006 C 632.9 273.76 633.33 275.395 633.33 275.912 C 633.33 278.838 630.275 280.688 624.164 281.463 C 628.812 283.098 632.943 283.916 636.558 283.916 L 644.175 283.529 C 648.392 283.529 651.921 286.24 654.761 291.662 L 650.372 298.375 C 648.908 300.268 647.402 301.516 645.853 302.119 C 645.509 300.398 643.013 299.322 638.365 298.891 C 638.968 298.891 637.677 298.762 634.492 298.504 C 623.734 297.471 616.59 295.191 613.062 291.662" />
    <title
       id="title3189">Layer 1</title>
  </g>
  <metadata
     id="metadata3191">image/svg+xmlOpen Clip Art LibraryChess symbols set2009-04-06T07:41:21Chess set by Igor Krizanovskij. From old OCAL site.http://openclipart.org/detail/24129/chess-symbols-set--by-anonymous-24129Anonymousmediaclip artpublic domainimagepngsvggameplaychessboardpiecefiguresetcollectionsymbolgameplaychessboardpiecefiguresetcollectionsymbol<rdf:RDF>
  <cc:Work
     rdf:about="">
    <dc:format>image/svg+xml</dc:format>
    <dc:type
       rdf:resource="http://purl.org/dc/dcmitype/StillImage" />
  </cc:Work>
</rdf:RDF>
</metadata>
  <path
     style="fill:#ffffff"
     d="m 11.420306,81.459047 c -1.6386173,-1.638618 -1.075222,-3.355645 1.47057,-4.48177 1.331469,-0.588972 3.152279,-0.826723 8.581711,-1.120555 10.387866,-0.562172 13.996849,-1.542546 18.55454,-5.040309 1.203936,-0.923951 2.748258,-1.967527 3.431825,-2.319058 1.445778,-0.743505 1.293092,-0.80337 6.24624,2.44904 5.493101,3.606963 7.752707,4.196996 19.015147,4.965275 6.740184,0.459789 9.078353,1.083889 9.914575,2.646381 0.604106,1.128785 -0.164166,2.983247 -1.360281,3.283452 -0.48568,0.121899 -2.651987,-0.03941 -4.814012,-0.358459 -2.162029,-0.319051 -5.389646,-0.670863 -7.172485,-0.781805 -4.822395,-0.300088 -9.5941,-1.245867 -13.092579,-2.595022 C 49.6831,77.13731 48.65678,76.48051 46.882099,74.705827 l -2.199532,-2.199532 -1.904132,1.904132 c -3.231417,3.231417 -8.646448,5.220265 -16.455602,6.04386 -5.0493,0.532527 -10.753316,1.169796 -12.734712,1.422759 -1.122709,0.143335 -1.722045,0.02777 -2.167815,-0.417999 z"
     id="path3197"
     inkscape:connector-curvature="0" />
  <path
     style="fill:#ffffff"
     d="m 33.323301,64.366316 c -2.365907,-0.349695 -3.501267,-0.874834 -3.501267,-1.619443 0,-0.729497 1.025185,-1.692233 2.028786,-1.905203 4.391958,-0.932001 18.631196,-1.283711 23.140705,-0.571577 2.551818,0.402978 4.296027,1.326036 4.504206,2.383683 0.200588,1.019083 -2.373719,1.475573 -9.271155,1.644012 -3.565678,0.08708 -8.370762,0.205573 -10.677966,0.263328 -2.307203,0.05775 -5.107692,-0.02991 -6.223309,-0.1948 z"
     id="path3199"
     inkscape:connector-curvature="0" />
  <path
     style="fill:#ffffff"
     d="m 31.600284,55.08392 c 0.123199,-0.898841 0.03215,-2.184601 -0.202336,-2.857244 l -0.426335,-1.222986 2.988517,0.260692 c 3.891999,0.339504 17.173338,0.341499 21.051952,0.0032 l 3.029186,-0.264239 -0.237861,1.73538 c -0.131751,0.961231 -0.04933,2.276183 0.184749,2.947678 0.376056,1.078754 0.351047,1.184836 -0.227035,0.963005 -2.450597,-0.940383 -20.032999,-1.101584 -24.778488,-0.227178 l -1.606349,0.295987 0.224,-1.634258 z"
     id="path3201"
     inkscape:connector-curvature="0" />
  <path
     style="fill:#ffffff"
     d="m 38.211864,47.414754 c -3.687512,-0.199806 -7.769081,-0.952414 -9.450341,-1.742567 -2.094864,-0.984538 -3.361885,-3.108708 -4.145087,-6.949269 -0.543689,-2.666067 -0.540422,-3.065353 0.03959,-4.838632 0.911113,-2.785567 2.252927,-4.746222 5.236669,-7.651805 4.676693,-4.554188 11.444977,-8.441176 14.626676,-8.40002 5.253437,0.06796 16.518761,8.216699 19.419228,14.046852 0.848021,1.704581 1.11473,2.761926 1.097146,4.349501 -0.03948,3.563513 -1.602973,7.768674 -3.302443,8.88221 -2.848803,1.866608 -13.085413,2.869199 -23.521436,2.30373 z m 9.152543,-8.707127 0,-2.860169 2.097457,0 2.097458,0 0,-2.669492 0,-2.669491 -2.097458,0 -2.097457,0 0,-2.669492 0,-2.669491 -2.669492,0 -2.669491,0 0,2.669491 0,2.669492 -2.097458,0 -2.097458,0 0,2.669491 0,2.669492 2.097458,0 2.097458,0 0,2.860169 0,2.86017 2.669491,0 2.669492,0 0,-2.86017 z"
     id="path3203"
     inkscape:connector-curvature="0" />
  <path
     style="fill:#ffffff"
     d="M 42.830112,11.671205 C 41.81631,11.109298 40.915531,9.7062628 40.894869,8.6569093 c -0.02415,-1.2266912 1.06726,-2.8178203 2.276388,-3.3186576 2.30985,-0.956771 5.337218,0.7248573 5.337218,2.964693 0,2.9597753 -3.098886,4.7979553 -5.678363,3.3682603 z"
     id="path3205"
     inkscape:connector-curvature="0" />
</svg>
