<?xml version="1.0" encoding="UTF-8" standalone="no"?>
<svg
   xmlns:dc="http://purl.org/dc/elements/1.1/"
   xmlns:cc="http://creativecommons.org/ns#"
   xmlns:rdf="http://www.w3.org/1999/02/22-rdf-syntax-ns#"
   xmlns:svg="http://www.w3.org/2000/svg"
   xmlns="http://www.w3.org/2000/svg"
   xmlns:sodipodi="http://sodipodi.sourceforge.net/DTD/sodipodi-0.dtd"
   xmlns:inkscape="http://www.inkscape.org/namespaces/inkscape"
   width="90"
   height="90"
   id="svg3151"
   version="1.1"
   inkscape:version="0.48.4 r9939"
   sodipodi:docname="wk.svg">
  <defs
     id="defs3161" />
  <sodipodi:namedview
     pagecolor="#ffffff"
     bordercolor="#666666"
     borderopacity="1"
     objecttolerance="10"
     gridtolerance="10"
     guidetolerance="10"
     inkscape:pageopacity="0"
     inkscape:pageshadow="2"
     inkscape:window-width="902"
     inkscape:window-height="811"
     id="namedview3159"
     showgrid="false"
     inkscape:zoom="2.6222222"
     inkscape:cx="45"
     inkscape:cy="45"
     inkscape:window-x="47"
     inkscape:window-y="33"
     inkscape:window-maximized="0"
     inkscape:current-layer="svg3151" />
  <g
     label="Layer 1"
     id="imagebot_2">
    <path
       transform="matrix(1 0 0 1 -65.0395 -209.202)"
       label="Layer 1"
       fill="#000000"
       stroke-width="1pt"
       id="imagebot_3"
       d="M 109.657 299.15 C 92.5295 299.15 83.8368 296.266 83.5786 290.5 C 83.1482 282.582 81.8142 276.6 79.5765 272.555 C 78.6298 270.92 77.2957 268.94 75.5744 266.616 C 72.6481 262.743 71.0129 259.473 70.6686 256.805 C 70.5825 256.116 70.5395 255.385 70.5395 254.61 C 70.5395 249.188 72.8202 244.928 77.3818 241.829 C 78.5006 241.141 79.6625 240.581 80.8675 240.151 C 85.429 238.516 89.9475 238.774 94.423 240.926 C 96.0582 241.7 97.6935 242.733 99.3288 244.024 L 99.4579 244.153 C 99.4579 242.346 99.5439 240.409 99.7161 238.344 C 99.7161 237.741 100.017 236.923 100.62 235.891 C 101.997 233.653 103.632 231.889 105.526 230.598 C 105.87 230.425 106.214 230.21 106.558 229.952 L 106.558 226.854 L 101.265 223.755 L 101.265 219.108 L 106.042 219.108 L 107.72 214.202 L 111.593 214.202 L 113.272 219.108 L 118.048 219.108 L 118.048 223.755 L 112.755 226.854 L 112.755 229.952 C 117.231 232.792 119.511 235.632 119.597 238.473 C 119.77 240.194 119.856 242.087 119.856 244.153 L 119.985 244.024 C 125.407 239.462 131.087 237.999 137.026 239.635 C 138.575 240.065 140.038 240.71 141.415 241.571 C 146.235 244.497 148.688 248.844 148.774 254.61 C 148.774 258.053 147.053 262.141 143.61 266.875 C 140.77 270.834 139.005 273.717 138.317 275.524 C 136.854 279.397 135.993 284.389 135.735 290.5 C 135.563 296.266 126.87 299.15 109.657 299.15 M 109.657 255.643 L 113.401 249.704 C 114.003 248.413 114.476 247.208 114.821 246.09 C 114.993 245.487 115.079 244.239 115.079 242.346 C 115.079 237.268 113.315 234.729 109.786 234.729 C 106.085 234.729 104.235 237.268 104.235 242.346 C 104.235 244.239 104.321 245.487 104.493 246.09 C 105.181 248.413 106.644 251.168 108.882 254.352 C 109.399 254.954 109.657 255.385 109.657 255.643 M 144.126 255.385 C 144.126 251.512 142.835 248.542 140.253 246.477 C 138.102 244.669 135.563 243.766 132.637 243.766 C 128.936 243.766 124.934 245.659 120.63 249.446 C 115.552 253.836 112.669 259.774 111.981 267.262 C 111.981 267.864 113.573 268.553 116.757 269.328 C 120.458 270.016 126.741 270.36 135.606 270.36 L 141.415 262.614 C 143.223 259.86 144.126 257.45 144.126 255.385 M 109.657 272.813 C 107.505 273.76 100.964 274.578 90.0336 275.266 C 88.3983 275.352 87.0643 275.438 86.0315 275.524 C 86.8921 278.795 87.4516 282.41 87.7098 286.369 C 93.6484 284.475 100.964 283.529 109.657 283.529 C 118.522 283.529 125.837 284.475 131.604 286.369 C 131.862 282.065 132.421 278.451 133.282 275.524 L 114.175 273.975 C 112.54 273.717 111.034 273.33 109.657 272.813 M 75.1871 255.385 C 75.1871 258.053 77.2957 262.098 81.513 267.52 C 82.5458 268.811 83.2774 269.758 83.7077 270.36 L 86.0315 270.36 C 94.8963 270.36 101.351 269.758 105.396 268.553 C 106.687 268.209 107.333 267.778 107.333 267.262 C 106.644 259.774 103.761 253.836 98.6833 249.446 C 94.466 245.659 90.4639 243.766 86.677 243.766 C 85.472 243.766 84.1811 244.024 82.804 244.54 C 79.3613 245.401 77.0375 247.682 75.8326 251.383 L 75.1871 254.868 L 75.1871 255.385 M 109.657 294.502 C 117.747 294.502 123.341 293.986 126.44 292.953 C 127.214 292.695 127.602 292.393 127.602 292.049 C 127.602 289.811 121.663 288.693 109.786 288.693 C 105.224 288.693 100.792 288.994 96.4886 289.596 C 93.3041 290.113 91.7119 290.93 91.7119 292.049 C 91.7119 293.34 96.7898 294.158 106.946 294.502 C 107.978 294.502 108.882 294.502 109.657 294.502" />
    <title
       id="title3155">Layer 1</title>
  </g>
  <metadata
     id="metadata3157">image/svg+xmlOpen Clip Art LibraryChess symbols set2009-04-06T07:41:21Chess set by Igor Krizanovskij. From old OCAL site.http://openclipart.org/detail/24126/chess-symbols-set--by-anonymous-24126Anonymousmediaclip artpublic domainimagepngsvggameplaychessboardpiecefiguresetcollectionsymbolgameplaychessboardpiecefiguresetcollectionsymbol<rdf:RDF>
  <cc:Work
     rdf:about="">
    <dc:format>image/svg+xml</dc:format>
    <dc:type
       rdf:resource="http://purl.org/dc/dcmitype/StillImage" />
  </cc:Work>
</rdf:RDF>
</metadata>
  <path
     style="fill:#ffffff"
     d="m 42.661653,42.863304 c -2.787771,-4.472796 -3.336179,-6.227096 -3.146931,-10.066694 0.244937,-4.96942 1.692172,-6.927966 5.119307,-6.927966 3.481094,0 4.811176,1.795615 5.029613,6.789991 0.134327,3.071278 0.03339,3.868836 -0.729015,5.760315 -0.775987,1.925178 -3.973176,7.343762 -4.333123,7.343762 -0.073,0 -0.945934,-1.304734 -1.939851,-2.899408 z"
     id="path3163"
     inkscape:connector-curvature="0" />
  <path
     style="fill:#ffffff"
     d="m 16.051517,57.276252 c -1.578956,-2.12161 -3.442521,-5.020999 -4.141257,-6.443086 -1.088242,-2.214819 -1.26646,-2.968868 -1.242748,-5.258118 0.05397,-5.210139 2.612669,-8.60381 7.604193,-10.08563 2.531495,-0.751517 3.184289,-0.809593 5.169502,-0.459905 3.111313,0.548047 6.946042,2.654782 10.142468,5.5721 4.426598,4.040071 7.098158,8.93667 8.114202,14.872204 0.407769,2.38211 0.38787,2.704856 -0.192948,3.129561 -1.462248,1.069222 -7.652099,1.946767 -16.045875,2.274851 l -6.536709,0.255497 -2.870828,-3.857474 0,0 z"
     id="path3165"
     inkscape:connector-curvature="0" />
  <path
     style="fill:#ffffff"
     d="m 59.072034,60.62436 c -5.37083,-0.276733 -9.558049,-1.067484 -11.139478,-2.103676 -0.688794,-0.451315 -0.8117,-0.797551 -0.637624,-1.796239 1.408656,-8.081591 4.561418,-13.44279 10.490588,-17.839001 3.729625,-2.765349 6.570303,-3.899242 9.867022,-3.93855 3.070178,-0.03661 4.83094,0.552346 7.155867,2.393546 2.458357,1.946869 3.650023,4.410169 3.838463,7.934512 0.1302,2.435081 0.0151,3.036139 -0.994579,5.193775 -0.628001,1.342006 -2.491316,4.257063 -4.1407,6.477904 l -2.998881,4.037893 -3.050848,-0.04254 c -1.677966,-0.0234 -5.453389,-0.166327 -8.38983,-0.317628 z"
     id="path3167"
     inkscape:connector-curvature="0" />
  <path
     style="fill:#ffffff"
     d="M 22.486635,74.042108 C 22.342237,72.448613 21.998228,70.06734 21.722172,68.750389 l -0.50192,-2.394457 1.594031,0 c 2.950088,0 17.989893,-1.528735 19.890768,-2.021816 1.540958,-0.399719 2.19377,-0.397205 3.595249,0.01385 0.941827,0.276236 6.174276,0.865251 11.627666,1.308922 5.45339,0.443671 9.951228,0.832731 9.99519,0.864578 0.04397,0.03185 -0.155139,1.080195 -0.44246,2.329661 -0.287318,1.249466 -0.642471,3.587851 -0.789224,5.196411 l -0.266823,2.924654 -1.76953,-0.539461 C 55.200235,73.550297 35.56431,73.544954 24.702979,76.421857 l -1.9538,0.517514 -0.262544,-2.897263 z"
     id="path3169"
     inkscape:connector-curvature="0" />
  <path
     style="fill:#ffffff"
     d="m 33.672236,84.601567 c -9.305805,-0.958808 -8.740252,-3.250917 1.072352,-4.346095 9.597149,-1.071131 23.307999,-0.407698 26.174667,1.266526 2.567354,1.499416 0.949757,2.362357 -5.805934,3.097297 -4.483413,0.487743 -16.632682,0.477698 -21.441085,-0.01773 z"
     id="path3171"
     inkscape:connector-curvature="0" />
</svg>
