<?xml version="1.0" encoding="UTF-8" standalone="no"?>
<svg
   xmlns:dc="http://purl.org/dc/elements/1.1/"
   xmlns:cc="http://creativecommons.org/ns#"
   xmlns:rdf="http://www.w3.org/1999/02/22-rdf-syntax-ns#"
   xmlns:svg="http://www.w3.org/2000/svg"
   xmlns="http://www.w3.org/2000/svg"
   xmlns:sodipodi="http://sodipodi.sourceforge.net/DTD/sodipodi-0.dtd"
   xmlns:inkscape="http://www.inkscape.org/namespaces/inkscape"
   width="90"
   height="90"
   id="svg3123"
   version="1.1"
   inkscape:version="0.48.4 r9939"
   sodipodi:docname="wn.svg">
  <defs
     id="defs3133" />
  <sodipodi:namedview
     pagecolor="#ffffff"
     bordercolor="#666666"
     borderopacity="1"
     objecttolerance="10"
     gridtolerance="10"
     guidetolerance="10"
     inkscape:pageopacity="0"
     inkscape:pageshadow="2"
     inkscape:window-width="640"
     inkscape:window-height="827"
     id="namedview3131"
     showgrid="false"
     inkscape:zoom="2.6222222"
     inkscape:cx="45"
     inkscape:cy="45"
     inkscape:window-x="0"
     inkscape:window-y="0"
     inkscape:window-maximized="0"
     inkscape:current-layer="svg3123" />
  <g
     label="Layer 1"
     id="imagebot_2">
    <path
       transform="matrix(1 0 0 1 -735.359 -209.852)"
       label="Layer 1"
       fill="#000000"
       stroke-width="1pt"
       id="imagebot_3"
       d="M 750.654 268.682 C 751.859 268.682 752.461 269.5 752.461 271.135 C 752.461 273.287 751.385 274.362 749.234 274.362 C 748.373 274.362 747.943 273.674 747.943 272.297 C 747.943 269.887 748.846 268.682 750.654 268.682 M 759.949 252.932 C 758.744 252.932 758.142 252.2 758.142 250.737 C 758.142 248.413 759.519 246.52 762.273 245.057 C 763.478 244.454 764.597 244.153 765.63 244.153 C 767.437 244.153 768.427 244.756 768.599 245.96 C 768.599 247.94 767.05 249.833 763.951 251.641 C 762.402 252.502 761.068 252.932 759.949 252.932 M 760.982 228.661 C 761.326 229.866 761.498 230.684 761.498 231.114 C 761.498 231.372 761.369 232.061 761.111 233.18 C 762.488 233.18 764.382 232.491 766.791 231.114 C 764.468 229.909 762.531 229.091 760.982 228.661 M 745.619 273.071 C 746.135 275.137 747.512 276.643 749.75 277.59 C 750.611 277.934 751.429 278.106 752.203 278.106 L 752.461 278.106 C 752.633 278.106 753.58 277.59 755.302 276.557 C 755.818 276.213 756.248 276.041 756.593 276.041 L 757.109 276.041 C 757.539 276.041 757.754 276.299 757.754 276.815 L 756.98 279.268 C 756.98 280.043 757.582 280.43 758.787 280.43 C 758.959 280.43 760.035 278.924 762.015 275.912 C 765.802 270.059 771.181 265.627 778.152 262.614 C 778.841 257.967 780.562 253.879 783.316 250.35 C 784.005 249.403 784.693 248.93 785.382 248.93 C 786.156 248.93 786.544 249.489 786.544 250.608 C 786.544 250.866 785.769 253.319 784.22 257.967 C 783.617 259.946 783.316 261.409 783.316 262.356 C 783.316 262.614 783.402 263.174 783.574 264.034 C 783.574 270.145 780.992 276.557 775.828 283.27 C 772.386 287.918 770.492 291.619 770.148 294.373 L 812.751 294.373 C 813.095 290.414 813.267 287.488 813.267 285.594 C 813.267 267.864 807.716 253.706 796.613 243.12 C 793.257 240.022 790.546 238.473 788.48 238.473 L 780.734 238.473 C 780.046 238.128 779.357 236.407 778.669 233.309 C 778.152 230.813 777.507 229.264 776.732 228.661 C 775.699 231.759 772.515 234.169 767.179 235.891 C 764.339 236.751 762.359 237.612 761.24 238.473 C 760.293 241.485 757.496 247.596 752.849 256.805 C 748.287 265.928 745.877 271.35 745.619 273.071 M 817.915 299.15 L 763.822 299.15 C 764.166 293.211 766.404 287.531 770.535 282.108 C 773.72 277.805 775.613 275.18 776.216 274.233 C 777.421 272.34 778.152 270.059 778.41 267.391 C 772.816 269.801 768.47 273.244 765.371 277.719 L 763.564 280.688 C 762.273 282.754 761.455 283.916 761.111 284.174 C 760.595 284.604 760.035 284.82 759.433 284.82 C 756.765 284.82 754.957 283.916 754.01 282.108 C 753.838 281.85 753.752 281.549 753.752 281.205 C 752.892 281.635 752.031 281.85 751.17 281.85 C 747.039 281.85 743.769 279.268 741.359 274.104 C 742.047 270.317 745.662 261.582 752.203 247.897 C 752.892 246.606 753.408 245.573 753.752 244.799 C 756.334 239.032 757.625 234.686 757.625 231.759 C 757.625 231.329 757.367 228.919 756.851 224.53 L 757.883 224.53 C 762.531 224.53 766.964 225.993 771.181 228.919 C 773.505 224.874 775.441 222.852 776.99 222.852 C 779.744 224.315 781.638 226.38 782.671 229.048 L 784.091 233.309 C 784.951 233.137 785.683 233.05 786.285 233.05 C 793.171 233.05 799.97 237.44 806.683 246.219 C 814.515 256.461 818.431 270.489 818.431 288.305 C 818.431 292.35 818.259 295.965 817.915 299.15" />
    <title
       id="title3127">Layer 1</title>
  </g>
  <metadata
     id="metadata3129">image/svg+xmlOpen Clip Art LibraryChess symbols set2009-04-06T07:41:21Chess set by Igor Krizanovskij. From old OCAL site.http://openclipart.org/detail/24130/chess-symbols-set--by-anonymous-24130Anonymousmediaclip artpublic domainimagepngsvggameplaychessboardpiecefiguresetcollectionsymbolgameplaychessboardpiecefiguresetcollectionsymbol<rdf:RDF>
  <cc:Work
     rdf:about="">
    <dc:format>image/svg+xml</dc:format>
    <dc:type
       rdf:resource="http://purl.org/dc/dcmitype/StillImage" />
  </cc:Work>
</rdf:RDF>
</metadata>
  <path
     style="fill:#ffffff"
     d="m 35.084746,83.991924 c 0,-1.26993 2.088361,-5.181189 5.506994,-10.313958 6.187298,-9.28967 7.453804,-12.418265 7.665562,-18.935893 0.135347,-4.165757 0.360343,-5.297014 2.126906,-10.693766 0.912459,-2.787505 1.061901,-3.667476 0.7286,-4.290254 -0.601292,-1.123524 -1.822142,-0.966637 -3.096875,0.397967 -1.575715,1.686809 -4.425194,7.575744 -4.945604,10.220937 -0.416658,2.117833 -0.533856,2.28945 -2.017842,2.954801 -2.687865,1.205115 -7.158954,4.311137 -9.652266,6.705339 -1.311394,1.259264 -3.635147,4.077782 -5.163897,6.263371 -2.139988,3.059454 -2.955429,3.94854 -3.543951,3.864024 -0.787183,-0.113049 -0.810075,-0.314481 -0.326648,-2.874238 0.217247,-1.150329 0.159991,-1.239407 -0.796648,-1.239407 -0.566896,0 -1.798835,0.450145 -2.737644,1.000324 -1.317284,0.771982 -2.018434,0.949774 -3.071571,0.778873 -2.530996,-0.410724 -5.081896,-2.822651 -5.081896,-4.805035 0,-1.161827 1.156964,-3.773345 7.600493,-17.155961 3.150613,-6.543534 6.186611,-13.070502 6.746662,-14.504376 1.147419,-2.937686 1.488793,-3.186667 7.302641,-5.326176 3.932977,-1.447344 7.046433,-3.411956 8.179921,-5.161586 0.47819,-0.738125 0.990877,-1.344169 1.139304,-1.346766 0.23802,-0.0042 0.643039,1.221608 2.299573,6.959554 0.227793,0.789037 0.600908,1.586611 0.829144,1.772386 0.228235,0.185774 2.474296,0.401285 4.991245,0.478913 4.225569,0.130325 4.73453,0.228265 6.641348,1.277997 5.658136,3.11489 12.784485,11.928808 16.336892,20.205582 3.649172,8.50222 5.399424,19.377732 4.756454,29.555085 l -0.277067,4.385593 -21.069915,0.09857 C 42.707514,84.326728 35.084746,84.228361 35.084746,83.991924 z M 16.398305,63.762712 c 0.870064,-0.870064 1.064665,-3.740419 0.305085,-4.5 -0.784962,-0.78496 -2.86307,-0.555079 -3.524986,0.38994 -0.588649,0.840413 -0.830237,4.12772 -0.339421,4.618533 0.553787,0.55379 2.82094,0.229908 3.559322,-0.508473 z M 28.050123,42.212046 c 2.76725,-1.404584 4.322082,-2.850814 4.913079,-4.569911 0.618252,-1.798373 0.274535,-2.713636 -1.234539,-3.287385 -2.871153,-1.09161 -8.000773,1.857395 -8.874423,5.101883 -0.408864,1.518403 -0.178531,2.937625 0.55521,3.421002 0.840663,0.553814 2.78872,0.274414 4.640673,-0.665589 l 0,0 z"
     id="path3135"
     inkscape:connector-curvature="0" />
  <path
     style="fill:#ffffff"
     d="m 26.086043,21.086053 -0.03684,-1.866872 1.439242,0.507795 c 0.791583,0.279286 1.898514,0.748431 2.459846,1.042542 l 1.020604,0.534749 -1.92167,0.82668 c -2.747882,1.182107 -2.918427,1.121928 -2.961184,-1.044894 z"
     id="path3137"
     inkscape:connector-curvature="0" />
</svg>
