<?xml version="1.0" encoding="UTF-8" standalone="no"?>
<svg
   xmlns:dc="http://purl.org/dc/elements/1.1/"
   xmlns:cc="http://creativecommons.org/ns#"
   xmlns:rdf="http://www.w3.org/1999/02/22-rdf-syntax-ns#"
   xmlns:svg="http://www.w3.org/2000/svg"
   xmlns="http://www.w3.org/2000/svg"
   xmlns:sodipodi="http://sodipodi.sourceforge.net/DTD/sodipodi-0.dtd"
   xmlns:inkscape="http://www.inkscape.org/namespaces/inkscape"
   width="90"
   height="90"
   id="svg2997"
   version="1.1"
   inkscape:version="0.48.4 r9939"
   sodipodi:docname="wp.svg">
  <defs
     id="defs3007" />
  <sodipodi:namedview
     pagecolor="#ffffff"
     bordercolor="#666666"
     borderopacity="1"
     objecttolerance="10"
     gridtolerance="10"
     guidetolerance="10"
     inkscape:pageopacity="0"
     inkscape:pageshadow="2"
     inkscape:window-width="1043"
     inkscape:window-height="739"
     id="namedview3005"
     showgrid="false"
     inkscape:zoom="2.6222222"
     inkscape:cx="45"
     inkscape:cy="45"
     inkscape:window-x="117"
     inkscape:window-y="130"
     inkscape:window-maximized="0"
     inkscape:current-layer="svg2997" />
  <g
     label="Layer 1"
     id="imagebot_2">
    <path
       transform="matrix(1 0 0 1 -904.425 -209.239)"
       label="Layer 1"
       fill="#000000"
       stroke-width="1pt"
       id="imagebot_3"
       d="M 972.161 293.986 C 972.161 284.949 969.708 278.192 964.802 273.717 C 963.167 272.168 961.145 270.705 958.735 269.328 C 955.378 267.348 953.7 265.541 953.7 263.905 C 953.7 263.045 954.56 262.098 956.282 261.065 C 958.95 259.602 960.542 257.881 961.059 255.901 C 961.231 255.127 961.317 254.18 961.317 253.061 C 961.317 249.102 959.294 246.004 955.249 243.766 L 952.925 242.087 C 952.495 241.657 952.28 241.184 952.28 240.667 C 952.28 239.204 952.796 237.741 953.829 236.278 C 954.517 235.331 954.862 234.212 954.862 232.921 C 954.862 230.684 953.657 229.048 951.247 228.016 C 950.472 227.757 949.698 227.628 948.923 227.628 C 946.513 227.628 944.792 228.704 943.759 230.856 C 943.415 231.544 943.243 232.233 943.243 232.921 C 943.243 233.696 943.802 235.159 944.921 237.311 C 945.609 238.516 945.911 239.635 945.825 240.667 C 945.825 241.7 944.835 242.733 942.855 243.766 C 938.896 246.09 936.917 249.188 936.917 253.061 C 936.917 256.418 938.595 259.086 941.952 261.065 C 943.587 262.184 944.405 263.131 944.405 263.905 C 944.405 265.541 942.726 267.348 939.37 269.328 C 933.173 273.114 929.214 277.719 927.493 283.141 C 926.546 286.154 926.073 289.768 926.073 293.986 L 972.161 293.986 M 921.554 299.15 C 921.468 298.117 921.425 296.137 921.425 293.211 C 921.425 282.625 924.523 274.707 930.72 269.457 C 932.786 267.735 935.411 266.057 938.595 264.422 C 935.325 263.389 933.13 260.893 932.011 256.934 C 931.581 255.643 931.366 254.309 931.366 252.932 C 931.366 247.165 934.292 243.034 940.144 240.538 C 938.767 238.042 938.079 235.589 938.079 233.18 C 938.079 229.221 940.015 226.294 943.888 224.401 C 945.523 223.626 947.288 223.239 949.181 223.239 C 953.571 223.239 956.798 224.917 958.864 228.274 C 959.81 229.737 960.284 231.372 960.284 233.18 C 960.284 235.503 959.509 237.956 957.96 240.538 C 963.899 242.948 966.868 247.079 966.868 252.932 C 966.868 257.493 965.19 260.936 961.833 263.26 C 961.145 263.776 960.37 264.164 959.509 264.422 C 967.255 268.381 972.29 273.416 974.614 279.526 C 976.077 283.313 976.809 287.875 976.809 293.211 C 976.809 296.051 976.766 298.031 976.68 299.15 L 921.554 299.15" />
    <title
       id="title3001">Layer 1</title>
  </g>
  <metadata
     id="metadata3003">image/svg+xmlOpen Clip Art LibraryChess symbols set2009-04-06T07:41:21Chess set by Igor Krizanovskij. From old OCAL site.http://openclipart.org/detail/24131/chess-symbols-set--by-anonymous-24131Anonymousmediaclip artpublic domainimagepngsvggameplaychessboardpiecefiguresetcollectionsymbolgameplaychessboardpiecefiguresetcollectionsymbol<rdf:RDF>
  <cc:Work
     rdf:about="">
    <dc:format>image/svg+xml</dc:format>
    <dc:type
       rdf:resource="http://purl.org/dc/dcmitype/StillImage" />
  </cc:Work>
</rdf:RDF>
</metadata>
  <path
     style="fill:#ffffff"
     d="m 21.966102,82.204261 c 0,-3.38252 1.018257,-7.803275 2.522342,-10.950719 1.753711,-3.669815 4.858656,-6.92597 10.210838,-10.708098 3.193129,-2.256429 4.482127,-3.410786 4.979869,-4.4597 0.835366,-1.760403 0.503336,-2.493816 -1.980137,-4.37388 -2.140618,-1.620512 -3.411103,-2.925273 -4.089607,-4.199939 -0.787684,-1.479778 -1.076261,-4.268492 -0.617864,-5.970847 0.746198,-2.771169 1.761456,-3.894272 7.374982,-8.158391 1.427718,-1.084516 1.398336,-3.035172 -0.09534,-6.329401 -1.370714,-3.023045 -1.425055,-4.172424 -0.278415,-5.888839 1.771766,-2.652172 5.346308,-3.308811 7.943763,-1.45926 2.456526,1.749201 2.830481,4.170463 1.160729,7.515434 -1.382496,2.769521 -1.701301,4.103453 -1.203164,5.034233 0.217586,0.406562 1.507586,1.532693 2.866667,2.502513 4.367405,3.116515 5.908726,5.579544 5.908726,9.442136 0,3.19991 -1.054038,4.784509 -5.06098,7.608476 -2.351452,1.657229 -2.90943,2.727431 -2.168206,4.15862 0.813788,1.571301 1.618826,2.273736 5.496216,4.795719 2.088181,1.358222 4.778589,3.47297 5.978685,4.699434 3.834073,3.918314 6.432251,10.68112 6.432251,16.742509 l 0,2.304214 -22.690678,0 -22.690678,0 0,-2.304214 z"
     id="path3009"
     inkscape:connector-curvature="0" />
  <path
     style="fill:#ffffff"
     d="m 21.966101,82.204261 c 0,-3.38252 1.018258,-7.803274 2.522343,-10.950719 1.753711,-3.669815 4.858656,-6.925969 10.210838,-10.708097 6.25098,-4.417267 6.777071,-5.967836 2.997136,-8.833581 -2.139865,-1.62233 -3.409393,-2.926937 -4.087011,-4.199939 -0.787684,-1.479778 -1.076261,-4.268492 -0.617864,-5.970847 0.746198,-2.771169 1.761456,-3.894272 7.374982,-8.158391 1.427718,-1.084516 1.398336,-3.035173 -0.09534,-6.329401 -1.370714,-3.023046 -1.425055,-4.172424 -0.278415,-5.888839 1.771766,-2.652172 5.346308,-3.308811 7.943763,-1.45926 2.456526,1.749201 2.830481,4.170462 1.160729,7.515434 -1.382496,2.769521 -1.701301,4.103453 -1.203163,5.034233 0.217585,0.406562 1.507585,1.532693 2.866666,2.502513 4.380879,3.12613 5.908726,5.577214 5.908726,9.479211 0,3.126777 -1.379829,5.124109 -5.425664,7.853769 -3.53608,2.385736 -2.806175,4.221131 3.328206,8.368999 2.307203,1.560055 5.169222,3.825538 6.360041,5.034405 3.811408,3.869169 6.415383,10.651897 6.415383,16.71051 l 0,2.304214 -22.690678,0 -22.690679,0 0,-2.304214 z"
     id="path3025"
     inkscape:connector-curvature="0" />
  <path
     style="fill:#ffffff"
     d="m 21.966101,82.204261 c 0,-3.38252 1.018258,-7.803274 2.522343,-10.950719 1.684928,-3.52588 4.823723,-6.899297 9.616094,-10.334887 4.02395,-2.884718 5.556793,-4.348976 5.964723,-5.69783 0.272477,-0.900967 0.01327,-1.210234 -4.533766,-5.409369 -1.757898,-1.623398 -2.357788,-2.734721 -2.696909,-4.996138 -0.508709,-3.392314 0.88215,-6.253068 4.381753,-9.012505 4.047015,-3.19107 4.194915,-3.360141 4.194915,-4.795376 0,-0.738715 -0.51483,-2.490579 -1.144068,-3.89303 -1.370636,-3.054889 -1.42574,-4.232519 -0.278415,-5.94996 1.771766,-2.652172 5.346308,-3.308811 7.943763,-1.45926 2.463601,1.754239 2.832566,4.17927 1.144625,7.523064 -1.038392,2.057041 -1.325251,3.168291 -1.225067,4.745717 0.02322,0.365556 1.31155,1.603366 2.862961,2.750688 4.591994,3.39594 5.950439,5.567448 5.950439,9.511922 0,3.126777 -1.379829,5.124109 -5.425664,7.853769 -3.469822,2.341033 -2.714991,4.220075 3.364262,8.374837 2.287373,1.563266 5.133166,3.828749 6.323985,5.034406 3.809452,3.856912 6.415383,10.642359 6.415383,16.704671 l 0,2.304214 -22.690678,0 -22.690679,0 0,-2.304214 z"
     id="path3027"
     inkscape:connector-curvature="0" />
</svg>
