<?xml version="1.0" encoding="UTF-8" standalone="no"?>
<svg
   xmlns:dc="http://purl.org/dc/elements/1.1/"
   xmlns:cc="http://creativecommons.org/ns#"
   xmlns:rdf="http://www.w3.org/1999/02/22-rdf-syntax-ns#"
   xmlns:svg="http://www.w3.org/2000/svg"
   xmlns="http://www.w3.org/2000/svg"
   xmlns:sodipodi="http://sodipodi.sourceforge.net/DTD/sodipodi-0.dtd"
   xmlns:inkscape="http://www.inkscape.org/namespaces/inkscape"
   width="90"
   height="90"
   id="svg3073"
   version="1.1"
   inkscape:version="0.48.4 r9939"
   sodipodi:docname="wq.svg">
  <defs
     id="defs3083" />
  <sodipodi:namedview
     pagecolor="#ffffff"
     bordercolor="#666666"
     borderopacity="1"
     objecttolerance="10"
     gridtolerance="10"
     guidetolerance="10"
     inkscape:pageopacity="0"
     inkscape:pageshadow="2"
     inkscape:window-width="960"
     inkscape:window-height="817"
     id="namedview3081"
     showgrid="false"
     inkscape:zoom="2.6222222"
     inkscape:cx="45"
     inkscape:cy="45"
     inkscape:window-x="0"
     inkscape:window-y="0"
     inkscape:window-maximized="0"
     inkscape:current-layer="svg3073" />
  <g
     label="Layer 1"
     id="imagebot_2">
    <path
       transform="matrix(1 0 0 1 -232.79 -209.751)"
       label="Layer 1"
       fill="#000000"
       stroke-width="1pt"
       id="imagebot_3"
       d="M 274.618 270.102 L 280.299 270.102 C 281.59 270.102 283.139 270.145 284.946 270.231 L 297.727 271.006 L 297.856 271.006 C 299.405 271.006 300.18 270.791 300.18 270.36 L 300.18 269.844 C 300.18 267.262 294.457 265.584 283.01 264.809 C 280.944 264.637 279.137 264.551 277.588 264.551 C 269.153 264.551 262.655 265.412 258.093 267.133 C 256.028 267.907 254.995 268.811 254.995 269.844 L 254.995 270.36 C 254.995 270.791 255.77 271.006 257.319 271.006 L 274.618 270.102 M 298.502 275.912 C 291.702 275.051 284.731 274.621 277.588 274.621 C 270.1 274.621 263.128 275.051 256.673 275.912 C 257.706 276.772 258.223 278.451 258.223 280.947 C 258.223 282.582 257.964 283.572 257.448 283.916 C 262.612 282.969 269.325 282.496 277.588 282.496 C 285.85 282.496 292.563 282.969 297.727 283.916 C 297.211 283.572 296.952 282.582 296.953 280.947 C 296.952 278.451 297.469 276.772 298.502 275.912 M 277.588 287.014 C 273.198 287.014 268.292 287.229 262.87 287.66 C 258.653 288.004 256.544 288.994 256.544 290.629 C 256.544 292.781 263.559 293.857 277.588 293.857 C 291.616 293.857 298.631 292.781 298.631 290.629 C 298.631 289.941 298.071 289.295 296.953 288.693 C 293.682 287.574 287.227 287.014 277.588 287.014 M 277.588 219.495 C 275.436 219.495 274.36 220.528 274.36 222.593 C 274.36 224.831 275.436 225.95 277.588 225.95 C 279.653 225.95 280.686 224.831 280.686 222.593 C 280.686 220.528 279.653 219.495 277.588 219.495 M 277.588 215.751 C 280.686 215.751 282.837 217.171 284.043 220.011 L 284.688 222.593 L 284.688 222.981 C 284.688 223.497 284.344 224.573 283.655 226.208 C 282.45 229.737 281.848 232.792 281.848 235.374 C 281.848 239.592 282.794 245.831 284.688 254.094 C 289.336 244.282 291.659 236.88 291.659 231.889 L 290.885 226.337 C 290.885 223.325 292.219 221.173 294.887 219.882 C 295.834 219.366 296.866 219.108 297.985 219.108 C 301.084 219.108 303.278 220.485 304.569 223.239 C 305.086 224.272 305.344 225.304 305.344 226.337 C 305.344 228.575 304.569 230.339 303.02 231.63 C 300.696 233.954 299.491 237.741 299.405 242.991 C 299.405 245.229 299.62 248.844 300.051 253.836 C 305.645 248.069 308.442 243.378 308.442 239.764 L 307.797 234.729 C 307.797 231.889 309.088 229.78 311.67 228.403 C 312.703 227.8 313.778 227.499 314.897 227.499 C 317.824 227.499 320.018 228.833 321.482 231.501 L 322.256 233.954 L 322.256 234.729 C 322.256 238.258 320.276 240.926 316.318 242.733 C 316.145 246.434 314.725 253.706 312.057 264.551 C 311.885 265.067 311.756 265.541 311.67 265.971 C 311.67 267.176 310.293 269.241 307.539 272.168 C 303.838 275.869 301.987 278.752 301.987 280.817 C 301.987 281.764 303.02 284.303 305.086 288.434 C 305.43 289.209 305.602 290.371 305.602 291.92 L 305.602 292.824 C 305.516 293.082 305.473 293.383 305.473 293.727 L 305.473 293.857 L 305.602 293.986 C 305.602 297.084 297.297 298.805 280.686 299.15 C 279.567 299.15 278.491 299.15 277.458 299.15 L 272.036 299.021 L 271.907 299.021 C 263.817 298.762 257.663 298.074 253.446 296.955 C 250.778 296.18 249.444 295.191 249.444 293.986 C 249.53 293.9 249.53 293.383 249.444 292.436 C 249.358 292.264 249.358 292.092 249.444 291.92 C 249.444 289.941 250.089 287.66 251.38 285.078 C 252.413 283.012 252.929 281.592 252.929 280.817 C 252.929 279.44 252.198 277.805 250.735 275.912 L 244.409 268.682 C 243.72 267.735 243.376 266.832 243.376 265.971 C 240.708 255.04 239.202 247.94 238.858 244.669 C 238.772 243.981 238.728 243.335 238.728 242.733 C 234.769 240.926 232.79 238.258 232.79 234.729 C 232.79 231.889 234.081 229.78 236.663 228.403 C 237.782 227.8 238.901 227.499 240.019 227.499 C 243.032 227.499 245.183 228.876 246.474 231.63 C 246.991 232.577 247.249 233.61 247.249 234.729 L 246.604 239.764 C 246.604 243.551 249.358 248.241 254.866 253.836 C 255.296 250.049 255.511 246.434 255.511 242.991 C 255.511 238.258 254.952 235.116 253.833 233.567 C 253.403 232.964 252.757 232.276 251.897 231.501 C 250.347 230.468 249.573 228.747 249.573 226.337 C 249.573 223.325 250.993 221.13 253.833 219.753 C 254.78 219.323 255.813 219.108 256.932 219.108 C 259.944 219.108 262.096 220.485 263.387 223.239 C 263.903 224.186 264.161 225.218 264.161 226.337 L 263.387 231.759 L 263.387 231.889 C 263.387 236.794 265.71 244.196 270.358 254.094 C 272.165 246.262 273.069 240.022 273.069 235.374 C 273.069 231.932 272.423 228.661 271.133 225.563 C 270.616 224.358 270.358 223.497 270.358 222.981 C 270.358 219.968 271.735 217.817 274.489 216.526 C 275.436 216.009 276.469 215.751 277.588 215.751 M 314.897 231.63 C 313.52 231.63 312.53 232.319 311.928 233.696 C 311.842 234.04 311.799 234.385 311.799 234.729 C 311.799 236.45 312.573 237.526 314.123 237.956 C 314.381 238.042 314.639 238.085 314.897 238.085 C 317.049 238.085 318.125 236.967 318.125 234.729 C 318.125 232.663 317.049 231.63 314.897 231.63 M 297.985 223.368 C 296.522 223.368 295.532 224.1 295.016 225.563 L 294.887 226.595 C 294.887 228.145 295.618 229.177 297.082 229.694 C 297.34 229.78 297.641 229.823 297.985 229.823 C 300.223 229.823 301.342 228.747 301.342 226.595 C 301.342 224.444 300.223 223.368 297.985 223.368 M 256.932 223.368 C 254.78 223.368 253.704 224.444 253.704 226.595 C 253.704 228.747 254.78 229.823 256.932 229.823 C 258.997 229.823 260.03 228.747 260.03 226.595 C 260.03 224.444 258.997 223.368 256.932 223.368 M 240.019 231.63 C 237.868 231.63 236.792 232.663 236.792 234.729 C 236.792 236.967 237.868 238.085 240.019 238.085 C 242.085 238.085 243.118 236.967 243.118 234.729 C 243.118 233.266 242.386 232.276 240.923 231.759 C 240.665 231.673 240.364 231.63 240.019 231.63 M 277.588 239.893 C 276.383 247.467 274.833 252.932 272.94 256.288 L 271.003 259.387 L 271.003 259.516 C 270.745 259.258 269.626 257.967 267.647 255.643 C 265.151 252.717 262.526 247.165 259.772 238.989 C 259.944 240.194 260.03 241.442 260.03 242.733 C 260.03 246.778 259.298 253.018 257.835 261.452 C 253.188 258.698 248.669 254.309 244.28 248.284 C 245.743 255.686 246.862 260.549 247.636 262.873 C 248.153 264.594 248.798 265.584 249.573 265.842 C 256.63 261.797 265.968 259.774 277.588 259.774 C 289.292 259.774 298.631 261.797 305.602 265.842 C 307.151 265.325 308.873 259.473 310.766 248.284 C 306.291 254.481 301.815 258.87 297.34 261.452 C 295.877 253.965 295.145 248.069 295.145 243.766 C 295.145 242.647 295.231 241.055 295.403 238.989 C 293.682 244.153 291.702 248.758 289.465 252.803 C 288.26 254.61 286.926 256.332 285.463 257.967 C 284.774 258.655 284.344 259.172 284.172 259.516 L 281.331 254.481 C 281.245 254.137 281.116 253.793 280.944 253.448 C 280.256 251.555 279.137 247.036 277.588 239.893" />
    <title
       id="title3077">Layer 1</title>
  </g>
  <metadata
     id="metadata3079">image/svg+xmlOpen Clip Art LibraryChess symbols set2009-04-06T07:41:21Chess set by Igor Krizanovskij. From old OCAL site.http://openclipart.org/detail/24127/chess-symbols-set--by-anonymous-24127Anonymousmediaclip artpublic domainimagepngsvggameplaychessboardpiecefiguresetcollectionsymbolgameplaychessboardpiecefiguresetcollectionsymbol<rdf:RDF>
  <cc:Work
     rdf:about="">
    <dc:format>image/svg+xml</dc:format>
    <dc:type
       rdf:resource="http://purl.org/dc/dcmitype/StillImage" />
  </cc:Work>
</rdf:RDF>
</metadata>
  <path
     style="fill:#ffffff"
     d="m 34.322034,83.573743 c -2.621822,-0.192135 -5.662542,-0.534823 -6.757155,-0.761528 -5.310006,-1.099754 -4.352032,-3.677055 1.727739,-4.648255 3.707345,-0.592222 26.606383,-0.586279 30.375653,0.0079 7.881873,1.242445 7.673573,4.093358 -0.367424,5.028788 -4.889206,0.568774 -19.359422,0.784917 -24.978813,0.373111 z"
     id="path3085"
     inkscape:connector-curvature="0" />
  <path
     style="fill:#ffffff"
     d="m 25.359078,70.723924 c -7.08e-4,-1.967864 -0.17994,-3.248557 -0.510349,-3.646677 -0.440523,-0.530797 -0.388903,-0.63937 0.382447,-0.80441 4.924898,-1.053739 26.285819,-1.356297 34.832383,-0.493368 4.244069,0.428515 4.566741,0.517423 4.444971,1.224768 -0.07221,0.419492 -0.219982,2.112271 -0.328371,3.761732 l -0.197073,2.99902 -1.88611,-0.250201 c -9.278,-1.23077 -24.261898,-1.233318 -34.639349,-0.0059 l -2.097458,0.248084 -0.0011,-3.033057 -1e-6,0 z"
     id="path3087"
     inkscape:connector-curvature="0" />
  <path
     style="fill:#ffffff"
     d="m 22.62755,60.494193 c -0.400063,-1.042547 0.364997,-1.81904 2.729298,-2.770083 6.180482,-2.486105 16.327216,-3.293034 27.460949,-2.183858 9.474124,0.94384 14.110169,2.394876 14.110169,4.41634 l 0,0.94595 -5.338983,-0.190678 C 53.406128,60.41962 35.591922,60.485084 28.885276,60.832045 23.408121,61.1154 22.854459,61.085507 22.62755,60.494193 z"
     id="path3089"
     inkscape:connector-curvature="0" />
  <path
     style="fill:#ffffff"
     d="m 38.516949,49.719882 c 0,-0.149404 0.432791,-0.908552 0.961757,-1.686996 1.886119,-2.775674 4.24057,-9.85233 4.97912,-14.965492 0.273153,-1.891106 0.284934,-1.862412 1.893434,4.611821 1.26291,5.083226 1.962665,7.121996 3.184503,9.278191 0.861262,1.519883 1.565932,2.824331 1.565932,2.898772 0,0.07444 -2.831568,0.135347 -6.292373,0.135347 -3.460805,0 -6.292373,-0.122239 -6.292373,-0.271643 z"
     id="path3091"
     inkscape:connector-curvature="0" />
  <path
     style="fill:#ffffff"
     d="m 16.127559,55.277542 c -1.051284,-1.376246 -4.377893,-14.450937 -3.818975,-15.009855 0.09264,-0.09264 0.908774,0.791165 1.813624,1.964019 2.66696,3.456875 10.354842,10.147176 10.96224,9.539778 0.32802,-0.32802 1.977157,-12.179655 2.222215,-15.970102 l 0.26238,-4.058363 1.475167,3.665724 c 2.190101,5.442304 3.854222,8.38159 6.592793,11.644649 l 2.459475,2.930511 -2.173239,0.249981 c -5.951818,0.684619 -13.78543,2.809368 -17.698301,4.800398 -1.677422,0.853541 -1.634962,0.848617 -2.097379,0.24326 l 0,0 z"
     id="path3093"
     inkscape:connector-curvature="0" />
  <path
     style="fill:#ffffff"
     d="m 16.127559,55.277542 c -1.003579,-1.313796 -4.220592,-13.697596 -3.84838,-14.814231 0.0693,-0.207913 1.103882,0.810638 2.299062,2.263446 2.891463,3.514735 9.952591,9.598343 10.502429,9.048506 0.328969,-0.32897 1.979958,-12.266881 2.234763,-16.159051 l 0.257308,-3.930399 1.599026,3.977999 c 2.109844,5.248792 3.829171,8.254408 6.624273,11.580124 l 2.302583,2.7397 -2.174311,0.250114 c -5.953005,0.684784 -13.786214,2.809355 -17.699374,4.800532 -1.677422,0.853541 -1.634962,0.848617 -2.097379,0.24326 l 0,0 z"
     id="path3095"
     inkscape:connector-curvature="0" />
  <path
     style="fill:#ffffff"
     d="M 69.885432,54.398814 C 66.489531,52.814338 61.3009,51.37368 56.25,50.612845 c -2.097458,-0.315948 -4.024533,-0.575462 -4.28239,-0.576699 -0.257857,-0.0012 0.644775,-1.381591 2.005848,-3.067455 2.485639,-3.078784 5.357872,-8.337025 7.074687,-12.951742 l 0.922194,-2.478813 0.268247,4.576271 c 0.256896,4.382621 1.576485,13.755668 2.134785,15.163386 0.23826,0.600757 0.477603,0.529556 2.26156,-0.672778 2.344131,-1.579876 6.881418,-5.98712 9.225352,-8.960947 l 1.653191,-2.097458 -0.272608,1.716102 c -0.967141,6.088273 -3.333093,14.118571 -4.223608,14.335386 -0.202924,0.04941 -1.612246,-0.490272 -3.131826,-1.199284 z"
     id="path3097"
     inkscape:connector-curvature="0" />
  <path
     style="fill:#ffffff"
     d="M 71.313559,55.015922 C 67.66055,53.092966 59.653281,50.919066 53.703115,50.234848 l -2.165528,-0.249018 2.455274,-3.041173 c 2.468449,-3.057491 5.342399,-8.323556 7.055284,-12.927708 l 0.922194,-2.478813 0.270424,4.385593 c 0.274301,4.448469 1.710052,14.651372 2.189628,15.560184 0.562149,1.065294 7.612578,-5.020116 11.476032,-9.905265 l 1.607051,-2.032038 -0.272608,1.716102 c -0.964573,6.072108 -3.325779,14.094853 -4.223608,14.35069 -0.202924,0.05782 -0.969589,-0.211043 -1.703699,-0.59748 z"
     id="path3099"
     inkscape:connector-curvature="0" />
  <path
     style="fill:#ffffff"
     d="m 80.936735,27.707944 c -2.840395,-1.194296 -1.770795,-5.513029 1.365386,-5.513029 1.590668,0 2.740252,1.164294 2.740252,2.775316 0,2.462811 -1.840539,3.690116 -4.105638,2.737713 z"
     id="path3101"
     inkscape:connector-curvature="0" />
  <path
     style="fill:#ffffff"
     d="m 63.747224,19.296262 c -1.221077,-0.855276 -1.642228,-2.165813 -1.149875,-3.578179 1.092517,-3.133995 5.665363,-2.215571 5.665363,1.137849 0,2.481458 -2.515703,3.841033 -4.515488,2.44033 z"
     id="path3103"
     inkscape:connector-curvature="0" />
  <path
     style="fill:#ffffff"
     d="m 43.485342,15.676907 c -1.240621,-0.505912 -1.523328,-1.01021 -1.53035,-2.729873 -0.0076,-1.853309 1.056899,-2.9555086 2.85433,-2.9555086 1.734903,0 2.86017,1.1086446 2.86017,2.8179216 0,2.307056 -2.073595,3.728122 -4.18415,2.86746 z"
     id="path3105"
     inkscape:connector-curvature="0" />
  <path
     style="fill:#ffffff"
     d="m 22.399382,19.430085 c -1.577384,-1.197818 -1.507233,-4.383149 0.11566,-5.251694 1.990427,-1.065245 4.561229,0.443872 4.561229,2.677541 0,2.294206 -2.925277,3.904274 -4.676889,2.574153 z"
     id="path3107"
     inkscape:connector-curvature="0" />
  <path
     style="fill:#ffffff"
     d="m 6.1327742,27.852118 c -3.0411567,-1.124996 -2.3242028,-5.657203 0.8949182,-5.657203 1.4578298,0 2.8101473,0.975211 2.9085288,2.097458 0.1097198,1.251593 -0.013618,2.258154 -0.3396364,2.771798 C 9.1352715,27.79097 7.17371,28.237186 6.1327742,27.852118 l 0,0 z"
     id="path3109"
     inkscape:connector-curvature="0" />
</svg>
