<?xml version="1.0" encoding="UTF-8" standalone="no"?>
<svg
   xmlns:dc="http://purl.org/dc/elements/1.1/"
   xmlns:cc="http://creativecommons.org/ns#"
   xmlns:rdf="http://www.w3.org/1999/02/22-rdf-syntax-ns#"
   xmlns:svg="http://www.w3.org/2000/svg"
   xmlns="http://www.w3.org/2000/svg"
   xmlns:sodipodi="http://sodipodi.sourceforge.net/DTD/sodipodi-0.dtd"
   xmlns:inkscape="http://www.inkscape.org/namespaces/inkscape"
   width="90"
   height="90"
   id="svg3041"
   version="1.1"
   inkscape:version="0.48.4 r9939"
   sodipodi:docname="wr.svg">
  <defs
     id="defs3051" />
  <sodipodi:namedview
     pagecolor="#ffffff"
     bordercolor="#666666"
     borderopacity="1"
     objecttolerance="10"
     gridtolerance="10"
     guidetolerance="10"
     inkscape:pageopacity="0"
     inkscape:pageshadow="2"
     inkscape:window-width="789"
     inkscape:window-height="753"
     id="namedview3049"
     showgrid="false"
     inkscape:zoom="2.6222222"
     inkscape:cx="45"
     inkscape:cy="45"
     inkscape:window-x="162"
     inkscape:window-y="145"
     inkscape:window-maximized="0"
     inkscape:current-layer="svg3041" />
  <g
     label="Layer 1"
     id="imagebot_2">
    <path
       transform="matrix(1 0 0 1 -400.227 -209.368)"
       label="Layer 1"
       fill="#000000"
       stroke-width="1pt"
       id="imagebot_3"
       d="M 430.414 249.059 L 430.414 271.91 L 459.848 271.91 L 459.848 249.059 L 430.414 249.059 M 415.18 299.15 L 412.727 296.697 L 412.727 287.789 L 425.895 274.492 L 425.895 248.672 L 414.534 238.731 L 414.534 226.983 L 418.278 223.368 L 429.897 223.368 L 432.092 225.563 L 432.092 228.919 L 435.836 228.919 L 435.836 225.563 L 438.03 223.368 L 452.231 223.368 L 454.426 225.563 L 454.426 228.919 L 458.041 228.919 L 458.041 225.563 L 460.365 223.368 L 471.984 223.368 L 475.728 226.983 L 475.728 238.731 L 464.367 248.672 L 464.367 274.492 L 477.535 287.789 L 477.535 296.697 L 475.082 299.15 L 415.18 299.15 M 417.245 288.951 L 417.245 293.986 L 473.016 293.986 L 473.016 288.951 L 417.245 288.951 M 429.897 276.17 L 421.377 284.432 L 468.885 284.432 L 460.365 276.17 L 429.897 276.17 M 440.225 228.79 L 440.225 232.147 L 438.289 233.954 L 429.897 233.954 L 427.961 232.147 L 427.961 228.532 L 420.731 228.532 L 419.053 230.339 L 419.053 237.569 L 427.832 244.669 L 462.43 244.669 L 471.209 237.569 L 471.209 230.339 L 469.531 228.532 L 462.301 228.532 L 462.301 232.147 L 460.365 233.954 L 451.973 233.954 L 450.037 232.147 L 450.037 228.79 L 440.225 228.79" />
    <title
       id="title3045">Layer 1</title>
  </g>
  <metadata
     id="metadata3047">image/svg+xmlOpen Clip Art LibraryChess symbols set2009-04-06T07:41:21Chess set by Igor Krizanovskij. From old OCAL site.http://openclipart.org/detail/24128/chess-symbols-set--by-anonymous-24128Anonymousmediaclip artpublic domainimagepngsvggameplaychessboardpiecefiguresetcollectionsymbolgameplaychessboardpiecefiguresetcollectionsymbol<rdf:RDF>
  <cc:Work
     rdf:about="">
    <dc:format>image/svg+xml</dc:format>
    <dc:type
       rdf:resource="http://purl.org/dc/dcmitype/StillImage" />
  </cc:Work>
</rdf:RDF>
</metadata>
  <path
     style="fill:#ffffff"
     d="m 23.490779,31.707875 -4.46261,-3.525672 -0.01832,-3.651744 c -0.01674,-3.336545 0.05786,-3.723316 0.864308,-4.480932 0.766356,-0.719955 1.318975,-0.829188 4.194915,-0.829188 l 3.312286,0 0,1.87288 c 0,1.623192 0.156425,2.004502 1.173327,2.860169 1.10447,0.92935 1.416075,0.98729 5.309724,0.98729 3.893649,0 4.205253,-0.05794 5.309723,-0.98729 0.983658,-0.827693 1.173328,-1.25922 1.173328,-2.669491 l 0,-1.682202 4.576271,0 4.576271,0 0,1.644753 c 0,1.304244 0.221436,1.856903 1.069596,2.669492 1.025016,0.982027 1.240241,1.024738 5.163747,1.024738 3.613332,0 4.226697,-0.098 5.222776,-0.834429 1.004228,-0.742457 1.128627,-1.057709 1.128627,-2.86017 l 0,-2.02574 3.596915,0 c 3.534978,0 3.610491,0.01907 4.385593,1.107599 0.649785,0.912543 0.788678,1.683018 0.788678,4.37504 l 0,3.26744 -4.461548,3.633435 -4.461551,3.633435 -16.989721,-0.0019 -16.989722,-0.0019 -4.462611,-3.525671 z"
     id="path3053"
     inkscape:connector-curvature="0" />
  <path
     style="fill:#ffffff"
     d="m 30.432203,51.063559 0,-11.25 14.491526,0 14.491525,0 0,11.25 0,11.25 -14.491525,0 -14.491526,0 0,-11.25 z"
     id="path3055"
     inkscape:connector-curvature="0" />
  <path
     style="fill:#ffffff"
     d="m 25.855932,70.894068 3.99061,-4.004237 15.077187,0 15.077185,0 3.990611,4.004237 3.990612,4.004237 -23.058408,0 -23.058407,0 3.99061,-4.004237 z"
     id="path3057"
     inkscape:connector-curvature="0" />
  <path
     style="fill:#ffffff"
     d="m 17.084746,82.144068 0,-2.288136 27.838983,0 27.838983,0 0,2.288136 0,2.288135 -27.838983,0 -27.838983,0 0,-2.288135 z"
     id="path3059"
     inkscape:connector-curvature="0" />
</svg>
