<?xml version="1.0" standalone="no"?>
<!DOCTYPE svg PUBLIC "-//W3C//DTD SVG 1.1//EN" "http://www.w3.org/Graphics/SVG/1.1/DTD/svg11.dtd" >
<svg xmlns="http://www.w3.org/2000/svg">
<metadata>
This is a custom SVG webfont generated by Font Squirrel.
Copyright   : C Copyright 1993 ChessOle  Frank David  37081 Gttingen  Germany
</metadata>
<defs>
<font id="ChessOle!FigurinMedium" horiz-adv-x="1228" >
<font-face units-per-em="2048" ascent="1638" descent="-410" />
<missing-glyph horiz-adv-x="500" />
<glyph unicode=" " />
<glyph unicode="!" horiz-adv-x="1572" d="M88 676q0 -143 54.5 -272.5t152.5 -227.5t227 -152.5t273 -54.5q143 0 272 54.5t227.5 152.5t152.5 227t54 273q0 143 -54 272t-152.5 227.5t-227.5 152.5t-272 54t-272.5 -54t-227.5 -152.5t-152.5 -227.5t-54.5 -272zM197 676q0 121 46 230.5t129 192.5t192.5 129 t230.5 46t230.5 -46t192 -129t129 -192.5t46.5 -230.5t-46.5 -230.5t-129 -192.5t-192.5 -129t-230 -46q-121 0 -230.5 46t-192.5 129t-129 192.5t-46 230.5zM287 621h452v-457h111v457h457v110h-457v451h-111v-451h-452v-110z" />
<glyph unicode="&#x22;" horiz-adv-x="1173" d="M12 0h113h1036v113h-1036v1036h-113v-1149z" />
<glyph unicode="#" horiz-adv-x="1024" d="M49 393h221l-22 -426h100l21 426h264l-19 -426h99l18 426h221l4 94h-219l17 373h217l6 94h-219l22 424h-100l-21 -424h-266l21 424h-97l-24 -424h-211l-4 -94h213l-19 -373h-217zM373 487l18 373h262l-16 -373h-264z" />
<glyph unicode="$" horiz-adv-x="1198" d="M29 2h1149v113v1036h-113v-1036h-1036v-113z" />
<glyph unicode="%" horiz-adv-x="661" d="M55 0h144v1378h-144v-1378zM465 0h143v1378h-143v-1378z" />
<glyph unicode="&#x26;" horiz-adv-x="1198" d="M29 2h1149v113h-1149v-113z" />
<glyph unicode="'" />
<glyph unicode="(" />
<glyph unicode=")" />
<glyph unicode="*" />
<glyph unicode="+" horiz-adv-x="1316" d="M68 498h485v-498h113v498h485v112h-485v482h-113v-482h-485v-112z" />
<glyph unicode="," />
<glyph unicode="-" horiz-adv-x="1251" d="M74 498h1073v112h-1073v-112z" />
<glyph unicode="." horiz-adv-x="512" d="M141 80q0 -47 34 -81t81 -34t81 34t34 81t-34 81t-81 34t-81 -34t-34 -81z" />
<glyph unicode="/" />
<glyph unicode="0" horiz-adv-x="1124" d="M20 0h1084v113h-1084v-113zM20 723h486v-485h112v485h486v113h-486v485h-112v-485h-486v-113z" />
<glyph unicode="1" horiz-adv-x="1124" d="M20 -2h1078v113h-1078v-113zM20 389h1084v113h-1084v-113zM20 1112h486v-485h112v485h486v113h-486v485h-112v-485h-486v-113z" />
<glyph unicode="2" horiz-adv-x="1124" d="M20 489h486v-485h112v485h486v113h-486v485h-112v-485h-486v-113zM20 1212h1084v113h-1084v-113zM20 1604h1078v112h-1078v-112z" />
<glyph unicode="3" horiz-adv-x="1124" d="M20 496h486v-486h112v486h486v112h-486v486h-112v-486h-486v-112zM20 1219h1084v112h-1084v-112z" />
<glyph unicode="4" horiz-adv-x="1460" d="M47 891q0 -4 2 -14v-13q10 -106 94 -181t195 -75q63 0 125 27q37 16 63.5 31.5t54 36t57.5 46t89 78.5q55 -49 87 -76.5t58.5 -47t54 -36t64.5 -32.5q61 -27 125 -27q111 0 195 75t94 181v13q2 10 2 14q0 51 -20.5 103.5t-57.5 94t-88 67.5t-111 26l-12 -2h-14 q-115 -10 -196 -63.5t-152 -127.5q-20 -20 -29 -26q-8 6 -29 26q-72 76 -151.5 128t-196.5 63h-12l-14 2q-57 0 -108.5 -26t-89.5 -67.5t-58.5 -94t-20.5 -103.5zM49 27h1360v112h-1360v-112zM49 418h1360v112h-1360v-112zM152 905q2 76 59 127t133 51q23 0 45 -6 q76 -16 119 -47t131 -115l20 -20q-92 -78 -143 -112.5t-100 -53.5q-41 -14 -80 -14q-84 0 -134 61t-50 129zM795 895l20 20q88 84 131 115t119 47q23 6 45 6q76 0 133 -50t60 -128q0 -68 -50.5 -129t-134.5 -61q-39 0 -80 14q-49 18 -100 53t-143 113z" />
<glyph unicode="5" horiz-adv-x="1460" d="M51 545q0 -51 20.5 -103.5t58.5 -94.5t89 -67.5t109 -25.5l14 2h12q117 12 197 64.5t151 125.5q20 20 29 27q8 -6 29 -27q74 -74 153.5 -126t194.5 -64h14l13 -2q59 0 110 25.5t88 67.5t57.5 94.5t20.5 103.5q0 6 -2 14v12q-10 106 -93 181t-196 75q-63 0 -125 -26 q-37 -16 -64.5 -32.5t-57 -38t-59.5 -47.5t-83 -75q-59 55 -87 79t-55.5 44.5t-55 36.5t-66.5 33q-61 27 -125 26q-113 0 -194.5 -74.5t-94.5 -181.5v-12q-2 -8 -2 -14zM156 530q0 68 50 129.5t134 61.5q39 0 80 -14q51 -18 100 -52t144 -114q-12 -10 -21 -19 q-88 -86 -131 -115.5t-119 -48.5q-23 -6 -45 -6q-76 0 -133 51t-59 127zM799 541q94 80 144 113.5t99 52.5q41 14 80 14q84 0 134.5 -61.5t50.5 -129.5q-2 -76 -59.5 -127t-133.5 -51q-23 0 -45 6q-76 18 -119 48t-131 116q-8 9 -20 19z" />
<glyph unicode="6" horiz-adv-x="1460" d="M47 299q0 -51 20.5 -103.5t58.5 -94.5t89 -67.5t109 -25.5l14 2h12q117 12 197 64.5t151 126.5q20 20 29 26q8 -6 29 -26q74 -74 153.5 -126t194.5 -65h14l12 -2q59 0 110.5 25.5t88.5 67.5t57.5 94.5t20.5 103.5q0 6 -2 14v13q-10 106 -93 181t-196 75q-63 0 -125 -27 q-37 -16 -64.5 -32.5t-57 -38t-59.5 -47t-83 -75.5q-59 55 -87 79t-55.5 44.5t-55 37t-66.5 32.5q-61 27 -125 27q-113 0 -195 -75t-94 -181v-13q-2 -8 -2 -14zM49 659h1360v113h-1360v-113zM49 1051h1360v112h-1360v-112zM152 285q0 68 50 129t134 61q39 0 80 -14 q51 -18 100 -52t143 -114q-12 -10 -20 -19q-88 -86 -131 -115.5t-119 -47.5q-23 -6 -45 -7q-76 0 -133 51.5t-59 127.5zM795 295q94 80 144 113.5t99 52.5q41 14 80 14q84 0 134.5 -61.5t50.5 -128.5q-2 -76 -59.5 -127.5t-133.5 -51.5q-23 0 -45 7q-76 18 -119 47.5 t-131 115.5q-8 9 -20 19z" />
<glyph unicode="7" horiz-adv-x="1370" d="M27 123h897v242h413v596h-897v-242h-413v-596zM117 213v416h323v-264h396v-152h-719zM530 455v174h306v-174h-306zM530 719v151h717v-415h-323v264h-394z" />
<glyph unicode="8" horiz-adv-x="1370" d="M27 123h897v242h413v596h-897v-242h-413v-596zM117 213v416h323v-264h396v-152h-719z" />
<glyph unicode="9" horiz-adv-x="1370" d="M27 123h897v242h413v596h-897v-242h-413v-596z" />
<glyph unicode=":" horiz-adv-x="2134" d="M55 502q94 -86 154.5 -145.5t114 -116t102.5 -114.5t141 -167l82 70l-155 194h1163l-156 -194l82 -70q96 113 145.5 171t100.5 112.5t113.5 116t152.5 143.5q-90 82 -152.5 143.5t-114.5 117.5t-105.5 117.5t-139.5 163.5l-82 -69l156 -195h-1163l155 195l-82 69 q-102 -121 -146 -173t-95.5 -107t-114 -115.5t-156.5 -146.5zM231 502l172 176h1346l172 -176l-172 -176h-1346z" />
<glyph unicode=";" horiz-adv-x="1873" d="M55 295l76 -78l1270 1266l254 20l-23 -254l-1270 -1263l76 -78l1190 1184l10 -275l117 23v90q-2 51 -2 71q0 78 3 149t7 139.5t13.5 162.5t21.5 195q-223 -25 -350 -34t-266 -9h-86q-66 2 -105 2l-20 -117l272 -10z" />
<glyph unicode="&#x3c;" horiz-adv-x="995" d="M51 829l471 -829l105 45l-447 784l447 785l-105 45zM371 829l471 -829l104 45l-446 784l446 785l-104 45z" />
<glyph unicode="=" horiz-adv-x="1124" d="M23 289h1077v112h-1077v-112zM23 686h1077v113h-1077v-113z" />
<glyph unicode="&#x3e;" horiz-adv-x="960" d="M25 45l104 -45l471 829l-471 830l-104 -45l446 -785zM344 45l105 -45l471 829l-471 830l-105 -45l447 -785z" />
<glyph unicode="?" />
<glyph unicode="@" />
<glyph unicode="A" />
<glyph unicode="B" horiz-adv-x="2048" d="M406 90q0 -45 4 -90h1228q6 45 7 90q0 96 -23 183t-56.5 156t-68.5 115t-63 70q-57 53 -114.5 86t-111.5 37q100 33 142.5 96.5t42.5 190.5q0 104 -85 182t-202 84q57 14 82.5 68.5t25.5 120.5q-2 74 -60 116.5t-130 42.5t-130 -43t-60 -116q0 -66 25.5 -120t82.5 -69 q-117 -6 -202 -84t-85 -182q0 -127 42 -190.5t143 -96.5q-53 -4 -110.5 -36.5t-115.5 -86.5q-27 -23 -62.5 -70.5t-69 -115.5t-55 -155t-21.5 -183z" />
<glyph unicode="C" />
<glyph unicode="D" horiz-adv-x="2048" d="M102 1335q0 -35 32 -65.5t71 -30.5t70.5 30.5t31.5 65.5q0 37 -31.5 67t-70.5 30t-71 -30t-32 -67zM217 1237l127 -633l154 -174l41 -182l-82 -174q27 -41 176 -74q90 -14 174 -18.5t217 -4.5t217 4.5t174 18.5q150 33 176 74l-82 174l41 182l154 174l127 631l-19 8 l-333 -571l-41 717l-21 6l-248 -688l-137 755h-16l-137 -755l-248 688l-19 -6l-43 -717l-2 6l-331 565zM487 1483q0 -37 32 -67t71 -30t70.5 30t31.5 67q0 35 -31.5 64.5t-70.5 29.5t-71 -29.5t-32 -64.5zM494 113q29 16 97 34.5t153 35t160 26.5t120 10t120 -10t161 -27.5 t153.5 -35t95.5 -33.5l-43 -72q-49 16 -114.5 31.5t-138 29t-134 21.5t-100.5 8t-99.5 -8t-134 -21.5t-141 -30t-112.5 -30.5zM520 381v86q94 45 237.5 75.5t266.5 30.5t266.5 -30.5t237.5 -75.5v-86q-96 45 -239.5 75.5t-264.5 30.5t-264.5 -30.5t-239.5 -75.5zM567 209v86 q35 20 94.5 39.5t126 34t129 23.5t107.5 9t107.5 -8t130 -23.5t126 -35t93.5 -39.5v-86q-35 20 -94.5 38.5t-125 34t-129 23.5t-108.5 8t-108.5 -8t-129 -23.5t-125 -34t-94.5 -38.5zM922 1563q0 -33 32.5 -66t69.5 -33t69.5 33t32.5 66q0 35 -31.5 65.5t-70.5 30.5 t-70.5 -30.5t-31.5 -65.5zM1356 1483q0 -37 31.5 -67t70.5 -30t71 30t32 67q0 35 -32 64.5t-71 29.5t-70.5 -29.5t-31.5 -64.5zM1741 1335q0 -35 31.5 -65.5t70.5 -30.5t71 30.5t32 65.5q0 37 -32 67t-71 30t-70.5 -30t-31.5 -67z" />
<glyph unicode="E" horiz-adv-x="1753" d="M43 799q0 -168 63.5 -318.5t177 -265.5t264 -178.5t318.5 -63.5t318.5 63.5t264.5 177.5t177.5 265.5t63.5 319.5q0 129 -37 247.5t-107 219.5l-114 -60q63 -88 97 -191.5t34 -215.5q0 -141 -53.5 -269.5t-149.5 -224.5t-224 -150.5t-270 -54.5q-141 0 -268 54.5 t-224.5 150.5t-150.5 224t-53 270q0 141 54.5 269t149.5 224.5t223 150.5t269 54q109 0 213 -33l-100 -202l389 153l-127 381l-92 -221q-131 49 -283 49q-168 0 -318.5 -63.5t-264 -177t-177 -265t-63.5 -319.5z" />
<glyph unicode="F" horiz-adv-x="1572" d="M88 676q0 -143 54.5 -272.5t152.5 -227.5t227 -152.5t273 -54.5q143 0 272 54.5t227.5 152.5t152.5 227t54 273q0 143 -54 272t-152.5 227.5t-227.5 152.5t-272 54t-272.5 -54t-227.5 -152.5t-152.5 -227.5t-54.5 -272zM197 676q0 121 46 230.5t129 192.5t192.5 129 t230.5 46t230.5 -46t192 -129t129 -192.5t46.5 -230.5t-46.5 -230.5t-129 -192.5t-192.5 -129t-230 -46q-121 0 -230.5 46t-192.5 129t-129 192.5t-46 230.5z" />
<glyph unicode="G" horiz-adv-x="2021" d="M117 498q162 -154 275.5 -273t238.5 -266l71 72q-41 51 -87 107.5t-96 115.5t-95 109.5t-72 76.5h1628v115h-1628q31 29 74 78t98.5 114.5t100.5 121t77 96.5l-71 71q-125 -147 -238.5 -265.5t-275.5 -272.5zM117 1149h1628q-29 -29 -70 -75t-94 -108.5t-99 -118.5 t-87 -108l71 -71q125 147 239 266t275 272q-162 154 -275.5 272.5t-238.5 266.5l-71 -72q33 -41 83 -102.5t100 -120.5t94 -109.5t73 -76.5h-1628v-115z" />
<glyph unicode="H" horiz-adv-x="2021" d="M117 508h1628q-29 -29 -70 -75t-94 -108.5t-99 -118.5t-87 -108l71 -71q125 147 239 266t275 272q-162 154 -275.5 272.5t-238.5 266.5l-71 -72q33 -41 83 -102.5t100 -120.5t94 -109.5t73 -76.5h-1628v-115z" />
<glyph unicode="I" horiz-adv-x="1234" d="M92 1350l72 -72q51 41 107.5 87t115.5 96t109.5 95.5t76.5 71.5v-1628h115v1628q29 -29 78 -73t114.5 -99t121 -100t96.5 -78l71 72q-147 125 -266 238.5t-272 275.5q-154 -162 -273 -275.5t-266 -238.5z" />
<glyph unicode="J" horiz-adv-x="1525" d="M55 676q0 -143 54.5 -272.5t152.5 -227.5t227 -152.5t273 -54.5q143 0 272 54.5t227.5 152.5t152.5 227t54 273q0 143 -54 272t-152.5 227.5t-227.5 152.5t-272 54t-272.5 -54t-227.5 -152.5t-152.5 -227.5t-54.5 -272zM164 676q0 121 46 230.5t129 192.5t192.5 129 t230.5 46t230.5 -46t192.5 -129t129 -192.5t46 -230.5t-46 -230.5t-129 -192.5t-192.5 -129t-230.5 -46t-230.5 46t-192.5 129t-129 192.5t-46 230.5zM659 676q0 -43 30 -73t73 -30q41 0 71.5 30t30.5 73q0 41 -30.5 71.5t-71.5 30.5q-43 0 -73 -30.5t-30 -71.5z" />
<glyph unicode="K" horiz-adv-x="2048" d="M129 942q0 -41 13.5 -79t60.5 -113q76 -86 109.5 -138.5t58.5 -124.5q31 -78 48 -143t17 -117q0 -37 1 -65.5t7 -73.5q45 -12 121 -27.5t160 -31t164 -24.5t135 -9q63 2 146 11t164 23.5t155 30t115 27.5q4 43 5 72.5t1 66.5q0 51 17.5 116t47.5 144q27 72 62 124.5 t108 138.5q37 61 53.5 104t16.5 88q0 49 -25 117q-55 80 -119.5 108.5t-164.5 30.5q-96 -2 -215 -67.5t-240 -190.5q10 70 16.5 125t6.5 100q0 43 -8.5 83t-26.5 71q-18 27 -38 41t-52 16v97h108v49h-108v116h-50v-116h-106v-49h106v-97q-33 -2 -52 -16t-38 -41 q-18 -29 -26.5 -69t-8.5 -85q0 -100 23 -225q-121 125 -239.5 190.5t-217.5 67.5q-51 0 -103 -13.5t-98 -41t-77 -78.5t-33 -123zM180 942q2 66 34 108t75 62.5t82 27.5t69 9q59 -2 151.5 -46t242.5 -161q4 -6 30 -39q41 -55 66.5 -95t44.5 -87q4 -23 10 -86q4 -49 4 -51h68 q4 37 8 75q4 39 8 62q18 49 45 89t70 97q10 14 24 35q147 117 240.5 161t153.5 46h14q63 -2 117.5 -20.5t103.5 -86.5q18 -57 19 -96q0 -37 -14.5 -73.5t-45.5 -86.5q-76 -94 -117 -164.5t-77 -189.5q-174 27 -335 42t-245 18q-80 0 -236.5 -15.5t-330.5 -42.5l-37 86 q-25 59 -62.5 117.5t-111.5 148.5q-43 63 -54.5 94t-13.5 62zM272 969q0 -10 4 -23q16 -45 29.5 -71.5t44.5 -67.5q47 -74 64.5 -101.5t62.5 -97.5l47 -73q240 27 385 49q-10 29 -16 46t-14 42q-4 16 -9.5 28.5t-11.5 28.5q-27 63 -53.5 104t-73.5 93q-78 63 -151.5 107 t-114.5 44q-61 0 -127 -28.5t-66 -79.5zM477 322q158 25 312.5 40t234.5 15t234.5 -15.5t312.5 -39.5l-8 -91q-145 23 -301 38.5t-238 17.5q-80 0 -232.5 -15.5t-310.5 -40.5zM483 164q141 27 293 40t248 13q98 0 247.5 -13.5t291.5 -39.5l-27 -82q-125 20 -261 30.5 t-251 12.5q-98 -2 -245.5 -13.5t-266.5 -29.5zM924 1165v11v18q0 47 15 86t60 51q4 0 11 2q8 2 14 2q4 0 12 -2t13 -2q47 -14 61 -56t14 -110q0 -43 -6 -95t-18 -130q-6 -29 -33 -96q-31 -78 -43 -123q-12 49 -45 129q-27 66 -33 90q-2 12 -4 35q-18 129 -18 190zM977 1178 q0 -61 12 -139t35 -152q23 74 34 148.5t11 138.5q0 115 -33 114l-4 2q-4 2 -8 2q-2 0 -6 -2t-6 -2q-35 1 -35 -110zM1139 584q145 -23 385 -49l47 73q41 61 64.5 100.5t62.5 98.5q33 43 44 64.5t25 64.5l5 10q4 14 4 27q0 51 -58.5 75.5t-134.5 28.5q-41 0 -114.5 -44 t-151.5 -107q-47 -51 -73.5 -92t-53.5 -105q-8 -18 -12 -30.5t-9 -26.5q-4 -8 -14 -41t-16 -47z" />
<glyph unicode="L" horiz-adv-x="2048" d="M184 20l123 -122q100 88 205 102q86 14 174 22.5t215 18.5q37 10 61.5 22.5t61.5 38.5q37 -27 61.5 -39t61.5 -22q127 -10 215 -18.5t174 -22.5q104 -14 205 -102l123 122q-57 53 -142.5 94.5t-185.5 49.5q-47 6 -168 16q-80 6 -136 12.5t-85 12.5q-41 18 -68 63h-108 q-14 -25 -30.5 -38t-39.5 -25q-31 -6 -76 -11.5t-145 -13.5q-121 -10 -168 -16q-100 -8 -185.5 -49.5t-142.5 -94.5zM543 883q0 -72 40 -142.5t134 -126.5l-62 -245q96 -47 171 -71t145 -30q18 -2 53 -2q37 0 55 2q72 6 145.5 30t168.5 71l-62 245q94 55 135 125t41 144 q0 41 -12 80q-33 53 -82 102t-123 111q-45 37 -61 53l-205 205l-205 -205q-16 -16 -61 -53q-74 -61 -123 -110.5t-82 -102.5q-10 -39 -10 -80zM705 446q123 70 319 70q197 0 319 -70l-38 -63q-100 49 -281 49q-180 0 -281 -49zM745 674q55 25 139.5 36t139.5 11t139 -11.5 t140 -35.5l-41 -78q-55 16 -123 24.5t-115 8.5t-114.5 -8.5t-123.5 -24.5zM870 952v103h103v102h102v-102h103v-103h-103v-102h-102v102h-103zM922 1536q0 -39 31.5 -70.5t70.5 -31.5t70.5 31.5t31.5 70.5t-31.5 70.5t-70.5 31.5t-70.5 -31.5t-31.5 -70.5z" />
<glyph unicode="M" />
<glyph unicode="N" />
<glyph unicode="O" />
<glyph unicode="P" horiz-adv-x="819" d="M41 340q0 -76 28.5 -142.5t80 -117.5t118 -80t142.5 -29t143.5 29t117.5 80t78.5 117.5t28.5 142.5q0 74 -28.5 140.5t-80 117.5t-119 80t-140.5 29q-74 0 -141.5 -28t-119 -79t-80 -118.5t-28.5 -141.5zM139 340q0 111 79 189.5t190 78.5q113 0 192.5 -79.5t79.5 -188.5 q0 -113 -80 -191.5t-190 -78.5q-113 0 -192 78.5t-79 191.5z" />
<glyph unicode="Q" horiz-adv-x="819" d="M41 340q0 -76 28.5 -142.5t80 -117.5t118 -80t142.5 -29t143.5 29t117.5 80t78.5 117.5t28.5 142.5q0 74 -28.5 140.5t-80 117.5t-119 80t-140.5 29q-74 0 -141.5 -28t-119 -79t-80 -118.5t-28.5 -141.5zM41 1149q0 -76 28.5 -142.5t80 -116.5t119 -79t141.5 -29t141 29 t118.5 79t80 116.5t28.5 142.5q0 74 -28.5 141.5t-80 118.5t-118 80t-141.5 29q-74 0 -141.5 -29t-119 -80t-80 -117.5t-28.5 -142.5zM139 340q0 111 79 189.5t190 78.5q113 0 192.5 -79.5t79.5 -188.5q0 -113 -80 -191.5t-190 -78.5q-113 0 -192 78.5t-79 191.5zM139 1149 q0 113 79 191.5t190 78.5q113 0 192.5 -79.5t79.5 -190.5t-80 -189.5t-190 -78.5q-113 0 -192 77.5t-79 190.5z" />
<glyph unicode="R" horiz-adv-x="819" d="M41 344q0 -76 28.5 -143.5t79 -118.5t118 -80t143.5 -29t142 29t117.5 80t80 118.5t28.5 143.5q0 68 -23.5 130.5t-68.5 113.5q-92 104 -227 123v161h121l-170 164l-172 -164h120v-161q-135 -18 -226 -123t-91 -244zM139 344q0 113 79 191.5t190 78.5q113 0 192.5 -79.5 t79.5 -190.5q0 -113 -80 -192.5t-190 -79.5q-113 0 -192 79.5t-79 192.5z" />
<glyph unicode="S" horiz-adv-x="2048" d="M137 592q0 -25 6 -60q10 -53 39 -81.5t105 -40.5q23 -4 35 -4t26 4q0 -27 10 -52q20 -27 50 -26q33 0 53 37q49 51 74 88q14 23 26 48t33 68q45 59 108.5 99.5t137.5 64.5q29 10 54.5 26.5t61.5 45.5q35 25 48 31q0 -100 -29 -228.5t-84 -212.5q-12 -25 -80 -86 q-55 -49 -93 -90t-63 -90q-23 -45 -22 -121v-30q2 -23 2 -33h1270q-6 238 -35 445.5t-88 424.5q-18 76 -56 160t-88.5 164t-103.5 145.5t-100 104.5q-57 49 -138.5 78.5t-156.5 29.5q-68 0 -115 -26l-100 223l-156 -162l-256 154l20 -256q-33 -25 -79 -101l-2 -2l-19 -22 q-12 -14 -30.5 -38t-32.5 -42q-8 -18 -9 -39q0 -23 9 -43q-2 -12 -23.5 -58.5t-58.5 -121.5q-59 -119 -92 -188.5t-52 -123.5q-6 -34 -6 -63zM209 567q0 14 6 27q12 37 40 61.5t58 30.5q14 -6 25.5 -20.5t11.5 -26.5v-6q-2 -2 -2 -4q-4 -20 -14 -31.5t-35 -26.5 q-18 -16 -46 -30.5t-38 -14.5q-6 27 -6 41zM442 1071l13 19q20 33 33.5 53t25.5 37q23 27 43.5 40t63.5 27h10q4 2 8 2q18 0 33 -14q0 -35 -23 -57q-33 -41 -84 -70t-123 -37zM1024 1315v110q43 25 106 25q72 0 148 -27.5t129 -74.5q45 -37 94 -98.5t96.5 -137.5t83 -155.5 t52.5 -151.5q57 -209 84.5 -403.5t35.5 -411.5l-118 -2q-10 209 -37 404.5t-72 365.5q-16 59 -50 134t-76 150.5t-83 136t-69 85.5q-35 35 -100.5 59.5t-127.5 24.5q-65 0 -96 -33z" />
<glyph unicode="T" horiz-adv-x="2048" d="M358 0h666h666v154h-103v174l-174 184v614l205 154v276h-236v-122h-215v122h-286v-122h-215v122h-236v-276l205 -154v-614l-174 -184v-174h-103v-154zM492 1331h1064l-122 -92h-410h-410zM522 106v93h502h502v-93h-502h-502zM522 283l86 92h416h416l86 -92h-502h-502z M696 467v92h656v-92h-328h-328zM696 1075v92h328h328v-92h-656z" />
<glyph unicode="U" horiz-adv-x="1253" d="M12 0h1233l-577 1409zM147 100l447 959l397 -959h-844z" />
<glyph unicode="V" horiz-adv-x="1253" d="M0 0h1229v1229h-1229v-1229zM102 102v1024h1024v-1024h-1024z" />
<glyph unicode="W" horiz-adv-x="1253" d="M10 0h1229v102q0 113 -51 223.5t-140.5 199.5t-200 140.5t-222.5 51.5q-113 0 -223.5 -51.5t-199.5 -140.5t-140.5 -199.5t-51.5 -223.5v-102zM113 102q0 94 43 186.5t116.5 166t165.5 116.5t187 43q94 0 186 -43t166 -116.5t117 -165.5t43 -187h-1024z" />
<glyph unicode="X" horiz-adv-x="1124" d="M35 92l76 -76l452 455l453 -455l76 76l-451 453l451 452l-76 76l-453 -455l-452 455l-76 -76l450 -452z" />
<glyph unicode="Y" horiz-adv-x="1347" d="M31 0h1304v113h-596v1267h-112v-1267h-596v-113z" />
<glyph unicode="Z" horiz-adv-x="1253" d="M0 0h1229v1229h-1229v-1229zM102 102v461h461v-461h-461zM102 666v460h461v-460h-461zM666 102v461h460v-461h-460zM666 666v460h460v-460h-460z" />
<glyph unicode="[" />
<glyph unicode="\" />
<glyph unicode="]" />
<glyph unicode="^" />
<glyph unicode="_" />
<glyph unicode="`" />
<glyph unicode="a" />
<glyph unicode="b" horiz-adv-x="1329" d="M51 90q0 -45 4 -90h615h614q6 45 6 90q0 96 -22.5 183t-56 156t-68.5 115t-64 70q-57 53 -114.5 86t-110.5 37q100 33 142 96.5t42 190.5q0 104 -85 182t-201 84q57 14 82.5 68.5t25.5 120.5q-2 74 -60.5 116.5t-129.5 42.5q-72 0 -130.5 -43t-60.5 -116q0 -66 25.5 -120 t83.5 -69q-117 -6 -202 -84t-85 -182q0 -127 42 -190.5t142 -96.5q-53 -4 -110.5 -36.5t-114.5 -86.5q-27 -23 -62.5 -70.5t-69.5 -115.5t-55.5 -155t-21.5 -183zM100 76v28q0 80 22.5 159t56.5 144.5t68 111.5t58 69q39 51 105.5 84t148.5 37q12 2 12 22q0 23 -12 27 q-119 41 -162 98t-47 168q4 86 79 154.5t194 76.5q12 10 12 33q0 16 -6 21q-47 23 -74 75t-27 95q4 51 47 80.5t95 29.5q53 0 95 -29.5t46 -80.5q0 -43 -25.5 -95.5t-74.5 -74.5q-4 -4 -4 -19q0 -27 10 -35q119 -8 193.5 -76.5t78.5 -154.5q-4 -111 -46 -168t-163 -98 q-12 -4 -12 -27q0 -20 12 -22q82 -4 148.5 -37t105.5 -84q25 -23 58.5 -69t68.5 -111.5t56.5 -144.5t21.5 -159v-28q-2 -14 -2 -27h-567h-568q0 13 -2 27z" />
<glyph unicode="c" />
<glyph unicode="d" horiz-adv-x="1933" d="M39 1329q0 -41 37 -75.5t80 -34.5q45 0 81.5 34.5t36.5 75.5t-36.5 77t-81.5 36q-43 0 -80 -36t-37 -77zM88 1329q0 25 21.5 45.5t46.5 20.5q27 0 48 -20.5t21 -45.5t-21.5 -45t-47.5 -20q-25 0 -46.5 20t-21.5 45zM168 1217l125 -619l153 -174l39 -182l-79 -172 q29 -43 174 -76q90 -12 175 -16.5t214 -4.5q131 0 215 4.5t174 16.5q145 33 174 76l-31 65l-49 107l41 182l152 174l124 616l-24 9l-324 -557l-41 698l-26 8l-240 -672l-135 744h-21l-135 -744l-239 672l-27 -6l-41 -700l-323 557zM260 1014l219 -379q-33 2 -80 20 q-10 -23 -28.5 -33t-30.5 -10zM375 575q20 6 43 31q35 -14 82 -14t93 15.5t83 47.5q59 -27 129 -26q92 0 164 45q72 -45 164 -45q70 0 129 26q37 -33 84 -48t92 -15q47 0 82 14q23 -27 47 -31l-107 -122q-98 43 -236.5 72.5t-254.5 29.5q-117 0 -256.5 -29.5t-235.5 -72.5z M426 1477q0 -41 36 -76t81 -35t82 35t37 76q0 43 -37 77.5t-82 34.5t-81 -34.5t-36 -77.5zM475 106l53 121q37 18 95.5 37t122 33t122 21.5t101.5 7.5t100 -7.5t122.5 -21.5t123 -31.5t94.5 -36.5l57 -123q-39 14 -105.5 31t-144 31t-142 22.5t-105.5 8.5t-104.5 -8.5 t-139.5 -22.5t-143.5 -31t-106.5 -31zM475 1477q0 25 20.5 45t47.5 20t48 -20.5t21 -44.5q0 -23 -21.5 -43.5t-47.5 -20.5q-27 0 -47.5 20.5t-20.5 43.5zM494 66q51 16 113.5 30.5t133 27.5t130 20.5t98.5 7.5t101.5 -8.5t131 -20.5t133 -28.5t111.5 -31.5q-41 -14 -88 -22 q-90 -14 -173 -18.5t-216 -4.5q-131 0 -215 4.5t-174 18.5q-49 11 -86 25zM496 414q96 41 227 67.5t246 26.5t244.5 -26.5t228.5 -67.5l-31 -140q-39 18 -94 36t-123 32t-126 22.5t-99 8.5q-39 0 -100.5 -8.5t-125 -21.5t-121 -31.5t-96.5 -37.5zM563 645l31 563l194 -534 q-68 6 -120 28q-50 -43 -105 -57zM850 1556q0 -41 37 -75.5t82 -34.5t81.5 35t36.5 75q0 41 -36.5 76t-81.5 35t-82 -35t-37 -76zM868 678l101 553l100 -553q-49 8 -100 41q-52 -33 -101 -41zM899 1556q0 25 21.5 45.5t48.5 20.5t48 -20.5t21 -45.5t-21.5 -45t-47.5 -20 q-27 0 -48.5 20t-21.5 45zM1151 674l192 534l31 -563q-55 14 -104 57q-53 -20 -119 -28zM1282 1477q0 -43 37 -78t82 -35t81 35t36 78q0 41 -36 75.5t-81 34.5t-82 -34.5t-37 -75.5zM1331 1477q0 23 21.5 43t48.5 20t48 -20.5t21 -42.5q0 -25 -21.5 -45.5t-47.5 -20.5 q-27 0 -48.5 20.5t-21.5 45.5zM1458 635l219 379l-80 -402q-12 0 -30.5 10.5t-28.5 32.5q-47 -18 -80 -20zM1663 1329q0 -41 37 -75.5t82 -34.5q43 0 79.5 34.5t36.5 75.5t-36.5 77t-79.5 36q-45 0 -82 -36t-37 -77zM1712 1329q0 25 21.5 45.5t48.5 20.5t47 -20.5t20 -45.5 t-20.5 -45t-46.5 -20q-27 0 -48.5 20t-21.5 45z" />
<glyph unicode="e" horiz-adv-x="0" d="M94 1329q0 -41 37 -75.5t80 -34.5q45 0 82 34.5t37 75.5t-37 77t-82 36q-43 0 -80 -36t-37 -77zM143 1329q0 25 21.5 45.5t46.5 20.5q27 0 48.5 -20.5t21.5 -45.5t-21.5 -45t-48.5 -20q-25 0 -46.5 20t-21.5 45zM481 1477q0 -41 36 -76t81 -35t82 35t37 76q0 43 -37 77.5 t-82 34.5t-81 -34.5t-36 -77.5zM530 1477q0 25 20.5 45t47.5 20t48.5 -20.5t21.5 -44.5q0 -23 -21.5 -43.5t-48.5 -20.5t-47.5 20.5t-20.5 43.5zM905 1556q0 -41 37 -75.5t82 -34.5t82 35t37 75q0 41 -37 76t-82 35t-82 -35t-37 -76zM954 1556q0 25 21.5 45.5t48.5 20.5 t48.5 -20.5t21.5 -45.5t-21.5 -45t-48.5 -20t-48.5 20t-21.5 45zM1337 1477q0 -43 37 -78t82 -35t81 35t36 78q0 41 -36 75.5t-81 34.5t-82 -34.5t-37 -75.5zM1386 1477q0 23 22 43t48 20q27 0 48.5 -20.5t21.5 -42.5q0 -25 -21.5 -45.5t-48.5 -20.5t-48.5 20.5t-21.5 45.5z M1718 1329q0 -41 37 -75.5t82 -34.5q43 0 80 34.5t37 75.5t-37 77t-80 36q-45 0 -82 -36t-37 -77zM1767 1329q0 25 21.5 45.5t48.5 20.5t47.5 -20.5t20.5 -45.5t-20.5 -45t-47.5 -20t-48.5 20t-21.5 45z" />
<glyph unicode="f" horiz-adv-x="2048" d="M223 1217l125 -619l154 -174l39 -182l-80 -172q29 -43 174 -76q90 -12 175 -16.5t214 -4.5q131 0 215 4.5t174 16.5q145 33 174 76l-31 65l-49 107l41 182l152 174l125 616l-25 9l-323 -557l-41 698l-27 8l-240 -672l-135 744h-20l-135 -744l-240 672l-27 -8l-41 -698 l-323 557zM315 1014l220 -379q-33 2 -80 20q-10 -23 -28.5 -33t-31.5 -10zM430 575q20 6 43 31q35 -14 82 -14t93 15.5t83 47.5q59 -27 129 -26q92 0 164 45q72 -45 164 -45q70 0 129 26q37 -33 84 -48t92 -15q47 0 82 14q23 -27 47 -31l-106 -122q-98 43 -236.5 72.5 t-255.5 29.5t-256 -29.5t-236 -72.5zM530 106l54 121q37 18 95 37t121.5 33t122 21.5t101.5 7.5t100.5 -7.5t123 -21.5t122.5 -31.5t94 -36.5l58 -123q-39 14 -105.5 31t-144.5 31t-142.5 22.5t-105.5 8.5t-104.5 -8.5t-139 -22.5t-143.5 -31t-107 -31zM549 66 q51 16 113.5 30.5t133 27.5t130 20.5t98.5 7.5t101.5 -8.5t131 -20.5t133 -28.5t111.5 -31.5q-41 -14 -88 -22q-90 -14 -173 -18.5t-216 -4.5q-131 0 -215 4.5t-174 18.5q-49 11 -86 25zM551 414q96 41 227 67.5t246 26.5t245 -26.5t228 -67.5l-31 -140q-39 18 -94 36 t-122.5 32t-126 22.5t-99.5 8.5q-39 0 -100.5 -8.5t-125 -21.5t-120.5 -31.5t-96 -37.5zM618 645l31 563l195 -534q-68 6 -121 28q-50 -43 -105 -57zM924 678l100 553l100 -553q-49 8 -100 41q-51 -33 -100 -41zM1206 674l193 534l31 -563q-55 14 -105 57q-53 -20 -119 -28z M1513 635l220 379l-80 -402q-12 0 -30.5 10.5t-29.5 32.5q-47 -18 -80 -20z" />
<glyph unicode="g" />
<glyph unicode="h" />
<glyph unicode="i" />
<glyph unicode="j" />
<glyph unicode="k" horiz-adv-x="1886" d="M53 942q0 -41 13.5 -79t60.5 -113q76 -86 109.5 -138.5t58.5 -124.5q31 -78 48 -143t17 -117q0 -37 1 -65.5t8 -73.5q45 -12 120.5 -27.5t159.5 -31t164 -24.5t135 -9q63 2 146.5 11t164 23.5t154.5 30t115 27.5q4 43 5 72.5t1 66.5q0 51 17.5 116t47.5 144 q27 72 62 124.5t108 138.5q37 61 53.5 104t16.5 88q0 49 -24 117q-55 80 -120 108.5t-165 30.5q-96 -2 -215 -67.5t-240 -190.5q10 70 16.5 125t6.5 100q0 43 -8.5 83t-26.5 71q-18 27 -37.5 41t-52.5 16v97h108v49h-108v116h-49v-116h-107v-49h107v-97q-33 -2 -52.5 -16 t-37.5 -41q-18 -29 -26.5 -69t-8.5 -85q0 -100 22 -225q-121 125 -239.5 190.5t-216.5 67.5q-51 0 -103.5 -13.5t-98.5 -41t-77 -78.5t-33 -123zM104 942q2 66 34 108t75 62.5t82 27.5t70 9q59 -2 151 -46t242 -161q4 -6 30 -39q41 -55 67 -95t44 -87q4 -23 10 -86 q4 -49 4 -51q-115 -10 -248 -24.5t-319 -39.5q-25 59 -62.5 117.5t-111.5 148.5q-43 63 -54.5 94t-13.5 62zM360 471q86 12 171 22.5t176.5 20.5t148.5 15.5t92 5.5q31 0 91.5 -5.5t149.5 -15.5t172 -20.5t173 -22.5l-39 -170q-158 25 -312.5 40t-234.5 15t-234.5 -15 t-312.5 -40zM406 252q158 25 310 40t232 15q82 -2 237.5 -17.5t301.5 -37.5v-100q-141 27 -290.5 40t-248.5 13q-96 0 -247.5 -13.5t-292.5 -39.5zM436 113q119 18 266.5 29.5t245.5 13.5q115 -2 251 -12.5t261 -30.5q-57 -12 -119.5 -23.5t-134 -22t-139.5 -16.5t-119 -6 q-49 0 -117.5 6t-136 15.5t-136.5 22t-122 24.5zM848 1165v11v18q0 47 15.5 86t60.5 51q4 0 10 2q8 2 14 2q4 0 13 -2q8 -2 12 -2q47 -14 61.5 -56t14.5 -110q0 -43 -6.5 -95t-18.5 -130q-6 -29 -33 -96q-31 -78 -43 -123q-12 49 -45 129q-27 66 -33 90q-2 12 -4 35 q-18 129 -18 190zM981 584q4 37 8 75q4 39 8 62q18 49 45 89t70 97l25 35q147 117 240 161t153 46h14q63 -2 117.5 -20.5t103.5 -86.5q18 -57 19 -96q0 -37 -14.5 -73.5t-45.5 -86.5q-72 -90 -110.5 -148t-63.5 -118q-188 25 -320 39.5t-249 24.5z" />
<glyph unicode="l" horiz-adv-x="1837" d="M57 14l150 -143q61 41 113.5 71.5t89.5 37.5q27 2 104 10q70 6 145.5 14t139.5 16q31 6 57.5 19.5t67.5 42.5q43 -29 68.5 -42t56.5 -20q63 -8 115.5 -13t170.5 -17q76 -8 103 -10q37 -6 89 -36t113 -73l150 143q-72 76 -154 117t-200 53q-55 6 -176 19q-82 6 -131.5 11 t-81.5 11q-8 4 -19 6q-12 6 -22.5 12.5t-20.5 22.5h-123q-12 -16 -20 -22t-23 -13q-10 -2 -18 -6q-31 -6 -65 -9l-146 -13q-123 -12 -178 -19q-119 -12 -201 -53t-154 -117zM129 16q127 104 283 119q47 6 172 17q80 6 138 12t87 12t64.5 23.5t50.5 40.5q14 -23 50 -40.5 t64 -23.5q31 -6 77 -11t149 -13q125 -10 172 -17q156 -14 282 -119l-84 -75q-70 47 -109.5 63t-88.5 25q-25 4 -73 9t-106.5 11t-106.5 11.5t-103 9.5q-47 8 -123 61q-74 -53 -123 -61q-55 -4 -101.5 -9.5t-97.5 -10.5t-108.5 -11t-81.5 -10q-49 -8 -89 -24.5t-110 -63.5z M442 883q0 -72 40 -142.5t134 -126.5l-61 -245q96 -47 171 -71t144 -30q18 -2 54 -2q37 0 55 2q72 6 145.5 30t167.5 71l-61 245q94 55 135 125t41 144q0 41 -12 80q-33 53 -82 102t-123 111q-45 37 -62 53l-204 205l-205 -205q-16 -16 -62 -53q-74 -61 -123 -110.5 t-81 -102.5q-11 -39 -11 -80zM492 889q0 39 12 74q29 39 75 81.5t113 100.5q63 55 84 76l150 151l149 -151q20 -20 84 -76q74 -63 117 -103.5t72 -78.5q12 -35 12 -72q0 -70 -41 -136.5t-125 -119.5q-53 23 -135 34t-135 11q-55 0 -133 -11.5t-134 -33.5 q-84 53 -124.5 119.5t-40.5 134.5zM621 422l43 168q70 20 141.5 29.5t118.5 9.5t118.5 -9.5t141.5 -29.5l43 -166q-119 59 -303 59q-180 0 -303 -61zM639 377q102 55 285 55q180 0 286 -53q-63 -27 -118.5 -42t-110.5 -20h-115q-106 9 -227 60zM770 963h113v-113h82v113h112 v81h-112v113h-82v-113h-113v-81zM805 1544q0 -41 37 -75.5t82 -34.5t81.5 34.5t36.5 75.5t-36.5 76t-81.5 35t-82 -35t-37 -76zM854 1544q0 25 21.5 45.5t48.5 20.5t48 -20.5t21 -45.5t-21.5 -45t-47.5 -20q-27 0 -48.5 20t-21.5 45z" />
<glyph unicode="m" />
<glyph unicode="n" />
<glyph unicode="o" />
<glyph unicode="p" />
<glyph unicode="q" />
<glyph unicode="r" />
<glyph unicode="s" horiz-adv-x="1865" d="M59 592q0 -25 7 -60q10 -53 38.5 -81.5t104.5 -40.5q23 -4 35 -4t26 4q0 -27 11 -52q20 -27 49 -26q33 0 53 37q49 51 72.5 87t60.5 117q45 59 108.5 99.5t137.5 64.5q51 18 123 74q29 23 41 29q0 -100 -29 -228.5t-84 -212.5q-12 -25 -80 -86q-55 -49 -93 -90t-62 -90 q-23 -45 -23 -121v-30q2 -23 2 -33h1270q-6 238 -35 445.5t-88 424.5q-18 76 -56 160t-88.5 164t-103.5 145.5t-100 104.5q-57 49 -138 78.5t-157 29.5q-68 0 -115 -26l-100 223l-156 -162l-256 154l21 -256q-33 -25 -80 -101l-2 -2q-12 -16 -39 -47q-25 -31 -43 -55 q-8 -18 -8 -39q0 -23 8 -43q-2 -12 -23.5 -58.5t-58.5 -121.5q-59 -119 -92 -188.5t-51 -123.5q-7 -34 -7 -63zM111 594q0 29 6 63q16 51 53 129t90 183q41 84 60.5 126t21.5 54q-6 18 -6 39q0 25 6 41q29 29 44 49t34 53q55 57 80 92l-15 174l215 -124l129 145l86 -205 q63 33 144 33q74 0 145.5 -26.5t124.5 -71.5q45 -37 94.5 -98.5t96.5 -137.5t82.5 -155.5t52.5 -151.5q57 -207 84.5 -400.5t36.5 -406.5h-1168q4 35 15 80q8 33 8 45q31 53 74 97t104 97q55 49 65 64q55 96 81 219t26 260q0 12 -2 35v33q-47 -25 -117 -72q-74 -49 -114 -63 q-154 -51 -261 -170q-10 -18 -41 -70q-27 -43 -41 -67.5t-36 -67.5q-23 -43 -39 -43q-8 0 -17 12v2q-14 33 -16 57q-39 10 -88 11q-78 10 -92 78q-6 34 -6 59zM172 608q0 -14 6 -41q12 2 39 15.5t45 29.5q25 14 35 25.5t14 32.5q0 2 2 4v6q0 12 -11 26.5t-26 20.5 q-31 -6 -58.5 -30.5t-39.5 -61.5q-6 -13 -6 -27zM393 1085q72 8 123 37t84 70q23 23 23 57q-14 14 -33 15q-4 0 -8 -2h-11q-43 -14 -63.5 -27.5t-42.5 -40.5q-14 -18 -23.5 -32.5t-35.5 -57.5z" />
<glyph unicode="t" horiz-adv-x="1431" d="M57 0h1332v164h-103v164l-174 184v614l205 154v276h-236v-122h-215v122h-286v-122h-215v122h-236v-276l205 -154v-614l-174 -184v-164h-103v-164zM106 49v66h103h1130v-66h-1233zM178 1317v190h137v-123h314v123h188v-123h313v123h138v-190h-1090zM209 164v127h1028v-127 h-1028zM227 1268h992l-140 -105h-696h-16zM244 340l127 135h704l127 -135h-958zM383 524v590h680v-590h-680z" />
<glyph unicode="u" />
<glyph unicode="v" />
<glyph unicode="w" />
<glyph unicode="x" />
<glyph unicode="y" />
<glyph unicode="z" />
<glyph unicode="{" />
<glyph unicode="|" />
<glyph unicode="}" />
<glyph unicode="~" />
<glyph unicode="&#xa0;" />
<glyph unicode="&#xa1;" />
<glyph unicode="&#xa2;" />
<glyph unicode="&#xa3;" />
<glyph unicode="&#xa4;" />
<glyph unicode="&#xa5;" />
<glyph unicode="&#xa6;" />
<glyph unicode="&#xa7;" />
<glyph unicode="&#xa8;" />
<glyph unicode="&#xa9;" />
<glyph unicode="&#xaa;" />
<glyph unicode="&#xab;" />
<glyph unicode="&#xac;" />
<glyph unicode="&#xad;" />
<glyph unicode="&#x2212;" />
<glyph unicode="&#xae;" />
<glyph unicode="&#xaf;" />
<glyph unicode="&#xb0;" />
<glyph unicode="&#xb1;" />
<glyph unicode="&#xb2;" />
<glyph unicode="&#xb3;" />
<glyph unicode="&#xb4;" />
<glyph unicode="&#xb5;" />
<glyph unicode="&#xb6;" />
<glyph unicode="&#xb7;" />
<glyph unicode="&#x2219;" />
<glyph unicode="&#xb8;" />
<glyph unicode="&#xb9;" />
<glyph unicode="&#xba;" />
<glyph unicode="&#xbb;" />
<glyph unicode="&#xbc;" />
<glyph unicode="&#xbd;" />
<glyph unicode="&#xbe;" />
<glyph unicode="&#xbf;" />
<glyph unicode="&#xc0;" />
<glyph unicode="&#xc1;" />
<glyph unicode="&#xc2;" />
<glyph unicode="&#xc3;" />
<glyph unicode="&#xc4;" />
<glyph unicode="&#xc5;" />
<glyph unicode="&#xc6;" />
<glyph unicode="&#xc7;" />
<glyph unicode="&#xc8;" />
<glyph unicode="&#xc9;" />
<glyph unicode="&#xca;" />
<glyph unicode="&#xcb;" />
<glyph unicode="&#xcc;" />
<glyph unicode="&#xcd;" />
<glyph unicode="&#xce;" />
<glyph unicode="&#xcf;" />
<glyph unicode="&#xd0;" />
<glyph unicode="&#xd1;" />
<glyph unicode="&#xd2;" />
<glyph unicode="&#xd3;" />
<glyph unicode="&#xd4;" />
<glyph unicode="&#xd5;" />
<glyph unicode="&#xd6;" />
<glyph unicode="&#xd7;" />
<glyph unicode="&#xd8;" />
<glyph unicode="&#xd9;" />
<glyph unicode="&#xda;" />
<glyph unicode="&#xdb;" />
<glyph unicode="&#xdc;" />
<glyph unicode="&#xdd;" />
<glyph unicode="&#xde;" />
<glyph unicode="&#xdf;" />
<glyph unicode="&#xe0;" />
<glyph unicode="&#xe1;" />
<glyph unicode="&#xe2;" />
<glyph unicode="&#xe3;" />
<glyph unicode="&#xe4;" />
<glyph unicode="&#xe5;" />
<glyph unicode="&#xe6;" />
<glyph unicode="&#xe7;" />
<glyph unicode="&#xe8;" />
<glyph unicode="&#xe9;" horiz-adv-x="0" />
<glyph unicode="&#xea;" />
<glyph unicode="&#xeb;" />
<glyph unicode="&#xec;" />
<glyph unicode="&#xed;" />
<glyph unicode="&#xee;" />
<glyph unicode="&#xef;" />
<glyph unicode="&#xf0;" />
<glyph unicode="&#xf1;" />
<glyph unicode="&#xf2;" />
<glyph unicode="&#xf3;" />
<glyph unicode="&#xf4;" />
<glyph unicode="&#xf5;" />
<glyph unicode="&#xf6;" />
<glyph unicode="&#xf7;" />
<glyph unicode="&#xf8;" />
<glyph unicode="&#xf9;" />
<glyph unicode="&#xfa;" />
<glyph unicode="&#xfb;" />
<glyph unicode="&#xfc;" />
<glyph unicode="&#xfd;" />
<glyph unicode="&#xfe;" />
<glyph unicode="&#xff;" />
<glyph unicode="&#x152;" />
<glyph unicode="&#x153;" />
<glyph unicode="&#x178;" />
<glyph unicode="&#x2c6;" />
<glyph unicode="&#x2dc;" />
<glyph unicode="&#x2000;" horiz-adv-x="931" />
<glyph unicode="&#x2001;" horiz-adv-x="1863" />
<glyph unicode="&#x2002;" horiz-adv-x="931" />
<glyph unicode="&#x2003;" horiz-adv-x="1863" />
<glyph unicode="&#x2004;" horiz-adv-x="620" />
<glyph unicode="&#x2005;" horiz-adv-x="464" />
<glyph unicode="&#x2006;" horiz-adv-x="309" />
<glyph unicode="&#x2007;" horiz-adv-x="309" />
<glyph unicode="&#x2008;" horiz-adv-x="231" />
<glyph unicode="&#x2009;" horiz-adv-x="372" />
<glyph unicode="&#x200a;" horiz-adv-x="102" />
<glyph unicode="&#x2010;" horiz-adv-x="1251" d="M74 498h1073v112h-1073v-112z" />
<glyph unicode="&#x2011;" horiz-adv-x="1251" d="M74 498h1073v112h-1073v-112z" />
<glyph unicode="&#x2012;" horiz-adv-x="1251" d="M74 498h1073v112h-1073v-112z" />
<glyph unicode="&#x2013;" />
<glyph unicode="&#x2014;" />
<glyph unicode="&#x2018;" />
<glyph unicode="&#x2019;" />
<glyph unicode="&#x201a;" />
<glyph unicode="&#x201c;" />
<glyph unicode="&#x201d;" />
<glyph unicode="&#x201e;" />
<glyph unicode="&#x2022;" />
<glyph unicode="&#x2026;" />
<glyph unicode="&#x202f;" horiz-adv-x="372" />
<glyph unicode="&#x2039;" />
<glyph unicode="&#x203a;" />
<glyph unicode="&#x205f;" horiz-adv-x="464" />
<glyph unicode="&#x2122;" />
<glyph unicode="&#xe000;" horiz-adv-x="500" d="M0 0v0v0v0v0z" />
<glyph unicode="&#xfb01;" horiz-adv-x="3276" d="M223 1217l125 -619l154 -174l39 -182l-80 -172q29 -43 174 -76q90 -12 175 -16.5t214 -4.5q131 0 215 4.5t174 16.5q145 33 174 76l-31 65l-49 107l41 182l152 174l125 616l-25 9l-323 -557l-41 698l-27 8l-240 -672l-135 744h-20l-135 -744l-240 672l-27 -8l-41 -698 l-323 557zM315 1014l220 -379q-33 2 -80 20q-10 -23 -28.5 -33t-31.5 -10zM430 575q20 6 43 31q35 -14 82 -14t93 15.5t83 47.5q59 -27 129 -26q92 0 164 45q72 -45 164 -45q70 0 129 26q37 -33 84 -48t92 -15q47 0 82 14q23 -27 47 -31l-106 -122q-98 43 -236.5 72.5 t-255.5 29.5t-256 -29.5t-236 -72.5zM530 106l54 121q37 18 95 37t121.5 33t122 21.5t101.5 7.5t100.5 -7.5t123 -21.5t122.5 -31.5t94 -36.5l58 -123q-39 14 -105.5 31t-144.5 31t-142.5 22.5t-105.5 8.5t-104.5 -8.5t-139 -22.5t-143.5 -31t-107 -31zM549 66 q51 16 113.5 30.5t133 27.5t130 20.5t98.5 7.5t101.5 -8.5t131 -20.5t133 -28.5t111.5 -31.5q-41 -14 -88 -22q-90 -14 -173 -18.5t-216 -4.5q-131 0 -215 4.5t-174 18.5q-49 11 -86 25zM551 414q96 41 227 67.5t246 26.5t245 -26.5t228 -67.5l-31 -140q-39 18 -94 36 t-122.5 32t-126 22.5t-99.5 8.5q-39 0 -100.5 -8.5t-125 -21.5t-120.5 -31.5t-96 -37.5zM618 645l31 563l195 -534q-68 6 -121 28q-50 -43 -105 -57zM924 678l100 553l100 -553q-49 8 -100 41q-51 -33 -100 -41zM1206 674l193 534l31 -563q-55 14 -105 57q-53 -20 -119 -28z M1513 635l220 379l-80 -402q-12 0 -30.5 10.5t-29.5 32.5q-47 -18 -80 -20z" />
<glyph unicode="&#xfb02;" horiz-adv-x="3885" d="M2105 14l150 -143q61 41 113.5 71.5t89.5 37.5q27 2 104 10q70 6 145.5 14t139.5 16q31 6 57.5 19.5t67.5 42.5q43 -29 68.5 -42t56.5 -20q63 -8 115.5 -13t170.5 -17q76 -8 103 -10q37 -6 89 -36t113 -73l150 143q-72 76 -154 117t-200 53q-55 6 -176 19 q-82 6 -131.5 11t-81.5 11q-8 4 -19 6q-12 6 -22.5 12.5t-20.5 22.5h-123q-12 -16 -20 -22t-23 -13q-10 -2 -18 -6q-31 -6 -65 -9l-146 -13q-123 -12 -178 -19q-119 -12 -201 -53t-154 -117zM2177 16q127 104 283 119q47 6 172 17q80 6 138 12t87 12t64.5 23.5t50.5 40.5 q14 -23 50 -40.5t64 -23.5q31 -6 77 -11t149 -13q125 -10 172 -17q156 -14 282 -119l-84 -75q-70 47 -109.5 63t-88.5 25q-25 4 -73 9t-106.5 11t-106.5 11.5t-103 9.5q-47 8 -123 61q-74 -53 -123 -61q-55 -4 -101.5 -9.5t-97.5 -10.5t-108.5 -11t-81.5 -10 q-49 -8 -89 -24.5t-110 -63.5zM2490 883q0 -72 40 -142.5t134 -126.5l-61 -245q96 -47 171 -71t144 -30q18 -2 54 -2q37 0 55 2q72 6 145.5 30t167.5 71l-61 245q94 55 135 125t41 144q0 41 -12 80q-33 53 -82 102t-123 111q-45 37 -62 53l-204 205l-205 -205 q-16 -16 -62 -53q-74 -61 -123 -110.5t-81 -102.5q-11 -39 -11 -80zM2540 889q0 39 12 74q29 39 75 81.5t113 100.5q63 55 84 76l150 151l149 -151q20 -20 84 -76q74 -63 117 -103.5t72 -78.5q12 -35 12 -72q0 -70 -41 -136.5t-125 -119.5q-53 23 -135 34t-135 11 q-55 0 -133 -11.5t-134 -33.5q-84 53 -124.5 119.5t-40.5 134.5zM2669 422l43 168q70 20 141.5 29.5t118.5 9.5t118.5 -9.5t141.5 -29.5l43 -166q-119 59 -303 59q-180 0 -303 -61zM2687 377q102 55 285 55q180 0 286 -53q-63 -27 -118.5 -42t-110.5 -20h-115 q-106 9 -227 60zM2818 963h113v-113h82v113h112v81h-112v113h-82v-113h-113v-81zM2853 1544q0 -41 37 -75.5t82 -34.5t81.5 34.5t36.5 75.5t-36.5 76t-81.5 35t-82 -35t-37 -76zM2902 1544q0 25 21.5 45.5t48.5 20.5t48 -20.5t21 -45.5t-21.5 -45t-47.5 -20q-27 0 -48.5 20 t-21.5 45zM223 1217l125 -619l154 -174l39 -182l-80 -172q29 -43 174 -76q90 -12 175 -16.5t214 -4.5q131 0 215 4.5t174 16.5q145 33 174 76l-31 65l-49 107l41 182l152 174l125 616l-25 9l-323 -557l-41 698l-27 8l-240 -672l-135 744h-20l-135 -744l-240 672l-27 -8 l-41 -698l-323 557zM315 1014l220 -379q-33 2 -80 20q-10 -23 -28.5 -33t-31.5 -10zM430 575q20 6 43 31q35 -14 82 -14t93 15.5t83 47.5q59 -27 129 -26q92 0 164 45q72 -45 164 -45q70 0 129 26q37 -33 84 -48t92 -15q47 0 82 14q23 -27 47 -31l-106 -122 q-98 43 -236.5 72.5t-255.5 29.5t-256 -29.5t-236 -72.5zM530 106l54 121q37 18 95 37t121.5 33t122 21.5t101.5 7.5t100.5 -7.5t123 -21.5t122.5 -31.5t94 -36.5l58 -123q-39 14 -105.5 31t-144.5 31t-142.5 22.5t-105.5 8.5t-104.5 -8.5t-139 -22.5t-143.5 -31t-107 -31z M549 66q51 16 113.5 30.5t133 27.5t130 20.5t98.5 7.5t101.5 -8.5t131 -20.5t133 -28.5t111.5 -31.5q-41 -14 -88 -22q-90 -14 -173 -18.5t-216 -4.5q-131 0 -215 4.5t-174 18.5q-49 11 -86 25zM551 414q96 41 227 67.5t246 26.5t245 -26.5t228 -67.5l-31 -140 q-39 18 -94 36t-122.5 32t-126 22.5t-99.5 8.5q-39 0 -100.5 -8.5t-125 -21.5t-120.5 -31.5t-96 -37.5zM618 645l31 563l195 -534q-68 6 -121 28q-50 -43 -105 -57zM924 678l100 553l100 -553q-49 8 -100 41q-51 -33 -100 -41zM1206 674l193 534l31 -563q-55 14 -105 57 q-53 -20 -119 -28zM1513 635l220 379l-80 -402q-12 0 -30.5 10.5t-29.5 32.5q-47 -18 -80 -20z" />
<glyph unicode="&#xfb03;" horiz-adv-x="5324" d="M2271 1217l125 -619l154 -174l39 -182l-80 -172q29 -43 174 -76q90 -12 175 -16.5t214 -4.5q131 0 215 4.5t174 16.5q145 33 174 76l-31 65l-49 107l41 182l152 174l125 616l-25 9l-323 -557l-41 698l-27 8l-240 -672l-135 744h-20l-135 -744l-240 672l-27 -8l-41 -698 l-323 557zM2363 1014l220 -379q-33 2 -80 20q-10 -23 -28.5 -33t-31.5 -10zM2478 575q20 6 43 31q35 -14 82 -14t93 15.5t83 47.5q59 -27 129 -26q92 0 164 45q72 -45 164 -45q70 0 129 26q37 -33 84 -48t92 -15q47 0 82 14q23 -27 47 -31l-106 -122q-98 43 -236.5 72.5 t-255.5 29.5t-256 -29.5t-236 -72.5zM2578 106l54 121q37 18 95 37t121.5 33t122 21.5t101.5 7.5t100.5 -7.5t123 -21.5t122.5 -31.5t94 -36.5l58 -123q-39 14 -105.5 31t-144.5 31t-142.5 22.5t-105.5 8.5t-104.5 -8.5t-139 -22.5t-143.5 -31t-107 -31zM2597 66 q51 16 113.5 30.5t133 27.5t130 20.5t98.5 7.5t101.5 -8.5t131 -20.5t133 -28.5t111.5 -31.5q-41 -14 -88 -22q-90 -14 -173 -18.5t-216 -4.5q-131 0 -215 4.5t-174 18.5q-49 11 -86 25zM2599 414q96 41 227 67.5t246 26.5t245 -26.5t228 -67.5l-31 -140q-39 18 -94 36 t-122.5 32t-126 22.5t-99.5 8.5q-39 0 -100.5 -8.5t-125 -21.5t-120.5 -31.5t-96 -37.5zM2666 645l31 563l195 -534q-68 6 -121 28q-50 -43 -105 -57zM2972 678l100 553l100 -553q-49 8 -100 41q-51 -33 -100 -41zM3254 674l193 534l31 -563q-55 14 -105 57 q-53 -20 -119 -28zM3561 635l220 379l-80 -402q-12 0 -30.5 10.5t-29.5 32.5q-47 -18 -80 -20zM223 1217l125 -619l154 -174l39 -182l-80 -172q29 -43 174 -76q90 -12 175 -16.5t214 -4.5q131 0 215 4.5t174 16.5q145 33 174 76l-31 65l-49 107l41 182l152 174l125 616 l-25 9l-323 -557l-41 698l-27 8l-240 -672l-135 744h-20l-135 -744l-240 672l-27 -8l-41 -698l-323 557zM315 1014l220 -379q-33 2 -80 20q-10 -23 -28.5 -33t-31.5 -10zM430 575q20 6 43 31q35 -14 82 -14t93 15.5t83 47.5q59 -27 129 -26q92 0 164 45q72 -45 164 -45 q70 0 129 26q37 -33 84 -48t92 -15q47 0 82 14q23 -27 47 -31l-106 -122q-98 43 -236.5 72.5t-255.5 29.5t-256 -29.5t-236 -72.5zM530 106l54 121q37 18 95 37t121.5 33t122 21.5t101.5 7.5t100.5 -7.5t123 -21.5t122.5 -31.5t94 -36.5l58 -123q-39 14 -105.5 31t-144.5 31 t-142.5 22.5t-105.5 8.5t-104.5 -8.5t-139 -22.5t-143.5 -31t-107 -31zM549 66q51 16 113.5 30.5t133 27.5t130 20.5t98.5 7.5t101.5 -8.5t131 -20.5t133 -28.5t111.5 -31.5q-41 -14 -88 -22q-90 -14 -173 -18.5t-216 -4.5q-131 0 -215 4.5t-174 18.5q-49 11 -86 25z M551 414q96 41 227 67.5t246 26.5t245 -26.5t228 -67.5l-31 -140q-39 18 -94 36t-122.5 32t-126 22.5t-99.5 8.5q-39 0 -100.5 -8.5t-125 -21.5t-120.5 -31.5t-96 -37.5zM618 645l31 563l195 -534q-68 6 -121 28q-50 -43 -105 -57zM924 678l100 553l100 -553q-49 8 -100 41 q-51 -33 -100 -41zM1206 674l193 534l31 -563q-55 14 -105 57q-53 -20 -119 -28zM1513 635l220 379l-80 -402q-12 0 -30.5 10.5t-29.5 32.5q-47 -18 -80 -20z" />
<glyph unicode="&#xfb04;" horiz-adv-x="5933" d="M4153 14l150 -143q61 41 113.5 71.5t89.5 37.5q27 2 104 10q70 6 145.5 14t139.5 16q31 6 57.5 19.5t67.5 42.5q43 -29 68.5 -42t56.5 -20q63 -8 115.5 -13t170.5 -17q76 -8 103 -10q37 -6 89 -36t113 -73l150 143q-72 76 -154 117t-200 53q-55 6 -176 19 q-82 6 -131.5 11t-81.5 11q-8 4 -19 6q-12 6 -22.5 12.5t-20.5 22.5h-123q-12 -16 -20 -22t-23 -13q-10 -2 -18 -6q-31 -6 -65 -9l-146 -13q-123 -12 -178 -19q-119 -12 -201 -53t-154 -117zM4225 16q127 104 283 119q47 6 172 17q80 6 138 12t87 12t64.5 23.5t50.5 40.5 q14 -23 50 -40.5t64 -23.5q31 -6 77 -11t149 -13q125 -10 172 -17q156 -14 282 -119l-84 -75q-70 47 -109.5 63t-88.5 25q-25 4 -73 9t-106.5 11t-106.5 11.5t-103 9.5q-47 8 -123 61q-74 -53 -123 -61q-55 -4 -101.5 -9.5t-97.5 -10.5t-108.5 -11t-81.5 -10 q-49 -8 -89 -24.5t-110 -63.5zM4538 883q0 -72 40 -142.5t134 -126.5l-61 -245q96 -47 171 -71t144 -30q18 -2 54 -2q37 0 55 2q72 6 145.5 30t167.5 71l-61 245q94 55 135 125t41 144q0 41 -12 80q-33 53 -82 102t-123 111q-45 37 -62 53l-204 205l-205 -205 q-16 -16 -62 -53q-74 -61 -123 -110.5t-81 -102.5q-11 -39 -11 -80zM4588 889q0 39 12 74q29 39 75 81.5t113 100.5q63 55 84 76l150 151l149 -151q20 -20 84 -76q74 -63 117 -103.5t72 -78.5q12 -35 12 -72q0 -70 -41 -136.5t-125 -119.5q-53 23 -135 34t-135 11 q-55 0 -133 -11.5t-134 -33.5q-84 53 -124.5 119.5t-40.5 134.5zM4717 422l43 168q70 20 141.5 29.5t118.5 9.5t118.5 -9.5t141.5 -29.5l43 -166q-119 59 -303 59q-180 0 -303 -61zM4735 377q102 55 285 55q180 0 286 -53q-63 -27 -118.5 -42t-110.5 -20h-115 q-106 9 -227 60zM4866 963h113v-113h82v113h112v81h-112v113h-82v-113h-113v-81zM4901 1544q0 -41 37 -75.5t82 -34.5t81.5 34.5t36.5 75.5t-36.5 76t-81.5 35t-82 -35t-37 -76zM4950 1544q0 25 21.5 45.5t48.5 20.5t48 -20.5t21 -45.5t-21.5 -45t-47.5 -20q-27 0 -48.5 20 t-21.5 45zM2271 1217l125 -619l154 -174l39 -182l-80 -172q29 -43 174 -76q90 -12 175 -16.5t214 -4.5q131 0 215 4.5t174 16.5q145 33 174 76l-31 65l-49 107l41 182l152 174l125 616l-25 9l-323 -557l-41 698l-27 8l-240 -672l-135 744h-20l-135 -744l-240 672l-27 -8 l-41 -698l-323 557zM2363 1014l220 -379q-33 2 -80 20q-10 -23 -28.5 -33t-31.5 -10zM2478 575q20 6 43 31q35 -14 82 -14t93 15.5t83 47.5q59 -27 129 -26q92 0 164 45q72 -45 164 -45q70 0 129 26q37 -33 84 -48t92 -15q47 0 82 14q23 -27 47 -31l-106 -122 q-98 43 -236.5 72.5t-255.5 29.5t-256 -29.5t-236 -72.5zM2578 106l54 121q37 18 95 37t121.5 33t122 21.5t101.5 7.5t100.5 -7.5t123 -21.5t122.5 -31.5t94 -36.5l58 -123q-39 14 -105.5 31t-144.5 31t-142.5 22.5t-105.5 8.5t-104.5 -8.5t-139 -22.5t-143.5 -31t-107 -31z M2597 66q51 16 113.5 30.5t133 27.5t130 20.5t98.5 7.5t101.5 -8.5t131 -20.5t133 -28.5t111.5 -31.5q-41 -14 -88 -22q-90 -14 -173 -18.5t-216 -4.5q-131 0 -215 4.5t-174 18.5q-49 11 -86 25zM2599 414q96 41 227 67.5t246 26.5t245 -26.5t228 -67.5l-31 -140 q-39 18 -94 36t-122.5 32t-126 22.5t-99.5 8.5q-39 0 -100.5 -8.5t-125 -21.5t-120.5 -31.5t-96 -37.5zM2666 645l31 563l195 -534q-68 6 -121 28q-50 -43 -105 -57zM2972 678l100 553l100 -553q-49 8 -100 41q-51 -33 -100 -41zM3254 674l193 534l31 -563q-55 14 -105 57 q-53 -20 -119 -28zM3561 635l220 379l-80 -402q-12 0 -30.5 10.5t-29.5 32.5q-47 -18 -80 -20zM223 1217l125 -619l154 -174l39 -182l-80 -172q29 -43 174 -76q90 -12 175 -16.5t214 -4.5q131 0 215 4.5t174 16.5q145 33 174 76l-31 65l-49 107l41 182l152 174l125 616 l-25 9l-323 -557l-41 698l-27 8l-240 -672l-135 744h-20l-135 -744l-240 672l-27 -8l-41 -698l-323 557zM315 1014l220 -379q-33 2 -80 20q-10 -23 -28.5 -33t-31.5 -10zM430 575q20 6 43 31q35 -14 82 -14t93 15.5t83 47.5q59 -27 129 -26q92 0 164 45q72 -45 164 -45 q70 0 129 26q37 -33 84 -48t92 -15q47 0 82 14q23 -27 47 -31l-106 -122q-98 43 -236.5 72.5t-255.5 29.5t-256 -29.5t-236 -72.5zM530 106l54 121q37 18 95 37t121.5 33t122 21.5t101.5 7.5t100.5 -7.5t123 -21.5t122.5 -31.5t94 -36.5l58 -123q-39 14 -105.5 31t-144.5 31 t-142.5 22.5t-105.5 8.5t-104.5 -8.5t-139 -22.5t-143.5 -31t-107 -31zM549 66q51 16 113.5 30.5t133 27.5t130 20.5t98.5 7.5t101.5 -8.5t131 -20.5t133 -28.5t111.5 -31.5q-41 -14 -88 -22q-90 -14 -173 -18.5t-216 -4.5q-131 0 -215 4.5t-174 18.5q-49 11 -86 25z M551 414q96 41 227 67.5t246 26.5t245 -26.5t228 -67.5l-31 -140q-39 18 -94 36t-122.5 32t-126 22.5t-99.5 8.5q-39 0 -100.5 -8.5t-125 -21.5t-120.5 -31.5t-96 -37.5zM618 645l31 563l195 -534q-68 6 -121 28q-50 -43 -105 -57zM924 678l100 553l100 -553q-49 8 -100 41 q-51 -33 -100 -41zM1206 674l193 534l31 -563q-55 14 -105 57q-53 -20 -119 -28zM1513 635l220 379l-80 -402q-12 0 -30.5 10.5t-29.5 32.5q-47 -18 -80 -20z" />
</font>
</defs>
</svg>
