<?xml version="1.0" standalone="no"?> <!DOCTYPE svg PUBLIC "-//W3C//DTD SVG 1.0//EN" "http://www.w3.org/TR/2001/REC-SVG-20010904/DTD/svg10.dtd" > <svg xmlns="http://www.w3.org/2000/svg" width="100%" height="100%">
<defs >
<font id="LiberationSans-Bold" horiz-adv-x="1257" ><font-face
    font-family="Liberation Sans"
    units-per-em="2048"
    panose-1="2 11 7 4 2 2 2 2 2 4"
    ascent="2116"
    descent="-621"
    alphabetic="0" />
<missing-glyph horiz-adv-x="1536" d="M281 1333V76H1254V1333H281ZM205 1409H1330V0H205V1409Z" />
<glyph unicode=" " glyph-name="space" horiz-adv-x="569" />
<glyph unicode="!" glyph-name="exclam" horiz-adv-x="682" d="M193 0V270H481V0H193ZM455 426H225L193 1409H487L455 426Z" />
<glyph unicode="&quot;" glyph-name="quotedbl" horiz-adv-x="971" d="M381 898H162L135 1409H408L381 898ZM807 898H588L561 1409H836L807 898Z" />
<glyph unicode="#" glyph-name="numbersign" horiz-adv-x="1139" d="M449 862L377 530H686L756 862H449ZM909 862L840 530H1055V381H809L727 0H571L651 381H344L264 0H111L190 381H35V530H223L293 862H86V1010H324L408 1395H561L479 1010H786L870 1395H1026L942
1010H1106V862H909Z" />
<glyph unicode="$" glyph-name="dollar" horiz-adv-x="1139" d="M850 408Q850 457 833 487T786 537T716 568L629 594V227Q735 234 792 277T850 408ZM520 1194Q467 1190 432 1176T374 1141T343 1092T334 1034Q334 991 348 964T387 918T446 888T520 862V1194ZM1110
412Q1110 327 1082 258T996 138T846 58T629 23V-152H520V20Q406 24 322 51T178 127T82 246T27 408L283 455Q291 407 306 368T349 299T417 252T520 227V618Q517 620 505 622T489 625Q411 643 336 669T203 741T108 856T72 1030Q72 1121 105 1186T197 1295T339 1360T520
1386V1520H629V1386Q736 1382 811 1358T938 1291T1022 1184T1075 1036L811 997Q796 1084 753 1131T629 1190V838Q634 836 639 836T651 834Q737 814 819 787T966 714T1070 596T1110 412Z" />
<glyph unicode="%" glyph-name="percent" horiz-adv-x="1821" d="M543 977Q543 1063 535 1119T509 1209T467 1256T408 1270Q371 1270 344 1256T300 1209T275 1119T266 977Q266 893 274 837T300 747T344 699T406 684Q440 684 465 698T508 746T534 836T543 977ZM1552
432Q1552 519 1544 576T1518 666T1476 713T1417 727Q1380 727 1354 714T1310 666T1285 575T1276 432Q1276 348 1284 293T1309 203T1353 155T1415 141Q1448 141 1473 155T1516 202T1543 292T1552 432ZM408 1425Q480 1425 544 1405T656 1333T732 1196T760 977Q760
852 732 766T656 627T542 551T403 528Q330 528 266 551T154 626T79 765T51 977Q51 1109 78 1195T153 1333T266 1404T408 1425ZM552 0H346L1266 1409H1475L552 0ZM1767 432Q1767 307 1739 221T1663 83T1551 7T1413 -16Q1338 -16 1274 7T1162 82T1087 221T1059 432Q1059
564 1086 650T1162 788T1275 860T1417 881Q1489 881 1553 861T1664 789T1739 651T1767 432Z" />
<glyph unicode="&amp;" glyph-name="ampersand" horiz-adv-x="1479" d="M788 246Q711 332 642 426T516 623Q433 584 389 527T344 389Q344 343 359 303T405 234T480 187T586 170Q651 170 703 194T788 246ZM870 1118Q870 1175 832 1211T729 1247Q652 1247 612 1204T571
1090Q571 1042 586 992T625 897Q676 919 721 941T799 990T851 1048T870 1118ZM90 385Q90 464 115 528T186 644T293 737T428 813Q396 878 375 952T354 1092T374 1217T439 1320T556 1391T731 1417Q812 1417 878 1398T993 1340T1067 1247T1094 1120Q1094 1047 1061
991T974 889T848 806T702 733Q753 643 814 560T946 397Q1002 482 1040 571T1104 760L1313 690Q1279 573 1232 470T1120 270Q1165 232 1210 215T1298 197Q1330 197 1359 201T1415 213V10Q1360 -12 1284 -12Q1233 -12 1186 -2T1097 24T1019 63T954 109Q921 84 881
61T793 19T691 -9T575 -20Q449 -20 357 11T206 96T119 224T90 385Z" />
<glyph unicode="&apos;" glyph-name="quotesingle" horiz-adv-x="487" d="M354 898H135L109 1409H381L354 898Z" />
<glyph unicode="(" glyph-name="parenleft" horiz-adv-x="682" d="M399 -425Q322 -314 266 -204T174 22T120 263T102 531Q102 674 119 798T173 1038T266 1263T399 1484H680Q600 1368 543 1255T450 1026T396 788T379 530Q379 394 396 272T449 33T543 -195T680 -425H399Z" />
<glyph unicode=")" glyph-name="parenright" horiz-adv-x="682" d="M2 -425Q82 -308 139 -196T232 33T286 271T303 530Q303 665 286 787T233 1026T139 1255T2 1484H283Q360 1373 416 1264T508 1039T562 799T580 531Q580 389 563 264T509 22T416 -204T283 -425H2Z" />
<glyph unicode="*" glyph-name="asterisk" horiz-adv-x="797" d="M492 1135L727 1239L795 1042L545 981L731 768L547 647L401 899L252 647L66 770L256 981L6 1042L74 1239L313 1135L295 1409H510L492 1135Z" />
<glyph unicode="+" glyph-name="plus" horiz-adv-x="1196" d="M711 569V161H485V569H86V793H485V1201H711V793H1113V569H711Z" />
<glyph unicode="," glyph-name="comma" horiz-adv-x="569" d="M432 66Q432 -1 425 -56T403 -157T369 -243T324 -317H139Q168 -282 192 -243T234 -163T262 -81T272 0H143V305H432V66Z" />
<glyph unicode="-" glyph-name="hyphen" horiz-adv-x="682" d="M80 409V653H600V409H80Z" />
<glyph unicode="." glyph-name="period" horiz-adv-x="569" d="M139 0V305H428V0H139Z" />
<glyph unicode="/" glyph-name="slash" horiz-adv-x="569" d="M20 -41L311 1484H549L263 -41H20Z" />
<glyph unicode="0" glyph-name="zero" horiz-adv-x="1139" d="M773 705Q773 854 762 951T727 1106T665 1187T571 1210Q512 1210 472 1187T408 1105T373 950T362 705Q362 560 373 463T408 308T471 225T567 201Q622 201 661 225T725 307T761 463T773 705ZM1055 705Q1055
503 1018 365T916 141T761 18T565 -20T370 17T217 139T117 363T81 705Q81 918 116 1057T217 1280T372 1396T573 1430Q676 1430 764 1397T917 1280T1018 1058T1055 705Z" />
<glyph unicode="1" glyph-name="one" horiz-adv-x="1139" d="M129 0V209H478V1170L140 959V1180L493 1409H759V209H1082V0H129Z" />
<glyph unicode="2" glyph-name="two" horiz-adv-x="1139" d="M71 0V195Q119 300 188 384T332 539T482 670T616 787T713 901T750 1022Q750 1116 703 1161T565 1206Q475 1206 428 1158T366 1012L83 1028Q93 1111 124 1184T212 1312T356 1398T563 1430Q677 1430 765
1404T913 1326T1004 1202T1035 1034Q1035 935 996 855T896 708T760 581L616 466Q546 410 489 353T403 231H1057V0H71Z" />
<glyph unicode="3" glyph-name="three" horiz-adv-x="1139" d="M1065 391Q1065 295 1034 219T939 88T783 6T565 -23Q427 -23 333 12T178 104T87 235T47 383L333 408Q339 363 355 326T400 261T468 220T564 205Q665 205 721 255T777 408Q777 471 751 509T684 567T596
595T507 602H409V829H501Q543 829 586 837T665 866T722 924T744 1020Q744 1107 696 1156T554 1206Q467 1206 414 1158T352 1022L71 1042Q83 1141 125 1214T232 1335T381 1406T559 1430Q683 1430 772 1400T918 1319T1002 1200T1029 1055Q1029 993 1011 940T957 844T863
771T728 725V721Q815 711 879 682T984 608T1045 509T1065 391Z" />
<glyph unicode="4" glyph-name="four" horiz-adv-x="1139" d="M672 957Q672 974 672 1001T674 1058L678 1114Q679 1140 681 1155Q676 1144 665 1124L640 1080L612 1033L587 993L260 496H672V957ZM940 287V0H672V287H31V498L626 1409H940V496H1128V287H940Z" />
<glyph unicode="5" glyph-name="five" horiz-adv-x="1139" d="M1082 469Q1082 363 1049 274T949 119T786 17T560 -20Q442 -20 354 8T206 87T111 206T63 352L344 375Q352 342 366 311T407 256T471 218T563 203Q668 203 730 270T793 463Q793 519 778 564T734 641T664
690T569 707Q499 707 454 681T378 616H104L153 1409H1000V1200H408L385 844Q427 881 491 907T640 934Q744 934 826 900T965 805T1052 659T1082 469Z" />
<glyph unicode="6" glyph-name="six" horiz-adv-x="1139" d="M783 453Q783 510 770 555T731 633T665 682T575 700Q538 700 501 688T435 650T388 582T370 483Q370 423 385 371T427 281T494 221T582 199Q677 199 730 266T783 453ZM1065 461Q1065 355 1035 267T946
115T797 16T591 -20Q342 -20 209 154T75 672Q75 1049 210 1239T598 1430Q682 1430 751 1413T874 1356T966 1256T1027 1106L762 1069Q742 1143 697 1175T592 1208Q479 1208 415 1095T350 752Q395 827 475 867T656 907Q749 907 824 877T953 789T1036 648T1065 461Z"
/>
<glyph unicode="7" glyph-name="seven" horiz-adv-x="1139" d="M1049 1186L870 895Q785 754 722 612T623 319T586 0H293Q293 167 332 317T440 611T598 894L788 1178H88V1409H1049V1186Z" />
<glyph unicode="8" glyph-name="eight" horiz-adv-x="1139" d="M785 420Q785 463 776 503T742 573T674 622T565 641Q505 641 465 623T400 573T365 502T354 416Q354 363 364 319T400 244T468 195T573 178T677 195T742 245T775 321T785 420ZM752 1040Q752 1082 743
1117T713 1178T657 1218T567 1233Q515 1233 480 1219T424 1179T394 1118T385 1040Q385 1003 392 967T420 903T476 856T569 838Q629 838 665 856T721 903T746 968T752 1040ZM1076 397Q1076 306 1046 230T954 98T797 11T571 -20Q441 -20 346 11T188 97T95 229T65
395Q65 472 89 531T153 634T245 702T352 737V741Q293 754 246 784T166 856T116 949T98 1057Q98 1141 128 1210T218 1328T364 1403T567 1430Q690 1430 779 1403T927 1326T1013 1207T1041 1055Q1041 1000 1024 949T973 855T893 784T785 743V739Q847 729 900 703T993
634T1054 532T1076 397Z" />
<glyph unicode="9" glyph-name="nine" horiz-adv-x="1139" d="M766 924Q766 984 753 1036T712 1127T646 1188T556 1210Q509 1210 472 1193T409 1142T370 1062T356 956Q356 901 369 854T407 772T470 718T557 698Q596 698 633 712T700 754T748 824T766 924ZM1063
727Q1063 352 926 166T537 -20Q446 -20 374 -1T247 58T156 161T96 311L360 348Q380 273 425 237T540 201Q597 201 642 228T719 310T768 449T787 649Q767 610 734 580T660 530T571 500T476 489Q384 489 309 521T181 615T100 762T71 958Q71 1070 104 1158T201 1306T355
1398T563 1430Q685 1430 778 1389T935 1261T1030 1042T1063 727Z" />
<glyph unicode=":" glyph-name="colon" horiz-adv-x="682" d="M197 0V281H485V0H197ZM197 752V1034H485V752H197Z" />
<glyph unicode=";" glyph-name="semicolon" horiz-adv-x="682" d="M487 66Q487 -1 480 -56T458 -157T424 -243T379 -317H195Q223 -282 247 -243T290 -163T318 -81T328 0H199V281H487V66ZM199 752V1034H487V752H199Z" />
<glyph unicode="&lt;" glyph-name="less" horiz-adv-x="1196" d="M86 516V838L1113 1229V1001L280 676L1113 352V125L86 516Z" />
<glyph unicode="=" glyph-name="equal" horiz-adv-x="1196" d="M85 291V512H1112V291H85ZM85 842V1065H1112V842H85Z" />
<glyph unicode="&gt;" glyph-name="greater" horiz-adv-x="1196" d="M86 125V352L918 676L86 1001V1229L1113 838V516L86 125Z" />
<glyph unicode="?" glyph-name="question" horiz-adv-x="1251" d="M438 0V270H727V0H438ZM1133 1026Q1133 960 1116 910T1069 821T1003 750T927 690L850 635Q813 608 783 578T734 511T713 426H446Q451 511 482 571T559 677T655 757T749 830T821 910T850 1014Q850
1102 793 1153T629 1204Q578 1204 535 1189T460 1145T406 1077T379 989L94 1001Q106 1090 143 1168T246 1304T405 1396T625 1430Q745 1430 839 1402T998 1322T1098 1194T1133 1026Z" />
<glyph unicode="@" glyph-name="at" horiz-adv-x="1997" d="M1231 721Q1231 768 1216 807T1172 875T1105 920T1018 936Q963 936 917 916T835 860T772 779T728 679T701 570T692 461Q692 347 740 281T889 215Q937 215 984 238T1074 305T1150 415T1206 565Q1211 583
1215 604T1223 647T1229 687T1231 721ZM1878 725Q1878 581 1840 462T1737 256T1584 122T1397 74Q1355 74 1320 84T1259 116T1220 170T1206 246Q1206 260 1207 279T1212 313H1206Q1185 269 1150 226T1070 150T970 95T856 74Q761 74 698 108T596 197T542 321T526
459Q526 574 560 684T658 880T815 1018T1026 1071Q1128 1071 1193 1025T1290 897H1296L1335 1049H1491L1374 543Q1357 464 1347 402T1337 303Q1337 253 1360 232T1415 211Q1474 211 1529 249T1629 355T1699 517T1726 723Q1726 849 1685 957T1564 1144T1366 1268T1094
1313Q961 1313 849 1282T647 1193T488 1057T373 884T303 682T279 461Q279 374 296 293T347 140T434 10T558 -91T719 -156T920 -180Q1006 -180 1086 -168T1239 -135T1380 -86T1509 -25L1571 -147Q1511 -181 1442 -213T1292 -269T1117 -309T913 -324Q783 -324 673
-296T475 -216T319 -92T207 67T140 254T117 461Q117 600 148 728T239 966T384 1166T578 1320T816 1419T1092 1454Q1295 1454 1443 1395T1688 1236T1831 1004T1878 725Z" />
<glyph unicode="A" glyph-name="A" horiz-adv-x="1479" d="M803 987L780 1058Q768 1093 760 1122L746 1171Q740 1190 739 1192Q738 1189 733 1170T720 1122T700 1058L676 987L537 582H942L803 987ZM1133 0L1008 360H471L346 0H51L565 1409H913L1425 0H1133Z" />
<glyph unicode="B" glyph-name="B" horiz-adv-x="1479" d="M1090 425Q1090 481 1068 519T1008 580T918 613T806 623H432V219H817Q875 219 925 228T1011 261T1069 325T1090 425ZM1008 1015Q1008 1110 948 1150T768 1190H432V841H770Q895 841 951 884T1008 1015ZM1386
402Q1386 295 1343 219T1226 94T1052 23T842 0H137V1409H782Q907 1409 1004 1388T1169 1322T1270 1212T1305 1055Q1305 935 1239 853T1036 741Q1207 721 1296 634T1386 402Z" />
<glyph unicode="C" glyph-name="C" horiz-adv-x="1479" d="M795 212Q878 212 938 235T1043 297T1117 383T1166 480L1423 383Q1392 307 1342 234T1217 105T1039 15T795 -20Q612 -20 478 34T257 186T127 418T84 711Q84 876 126 1009T255 1235T472 1379T782 1430Q920
1430 1023 1401T1202 1320T1327 1196T1405 1038L1145 967Q1131 1012 1102 1053T1029 1127T924 1178T788 1198Q681 1198 604 1164T478 1065T405 912T381 711Q381 601 404 510T478 352T606 249T795 212Z" />
<glyph unicode="D" glyph-name="D" horiz-adv-x="1479" d="M1096 715Q1096 838 1063 926T969 1070T826 1154T641 1181H432V228H682Q771 228 846 259T977 351T1064 504T1096 715ZM1393 715Q1393 539 1340 406T1195 182T978 46T707 0H137V1409H647Q811 1409 948
1368T1184 1242T1338 1026T1393 715Z" />
<glyph unicode="E" glyph-name="E" horiz-adv-x="1366" d="M137 0V1409H1245V1181H432V827H1184V599H432V228H1286V0H137Z" />
<glyph unicode="F" glyph-name="F" horiz-adv-x="1251" d="M432 1181V745H1153V517H432V0H137V1409H1176V1181H432Z" />
<glyph unicode="G" glyph-name="G" horiz-adv-x="1593" d="M806 211Q870 211 929 221T1038 247T1129 285T1196 330V525H852V743H1466V225Q1418 176 1350 132T1197 54T1012 0T798 -20Q611 -20 476 34T254 186T126 418T84 711Q84 876 128 1009T261 1235T486 1379T805
1430Q938 1430 1041 1404T1222 1330T1352 1215T1436 1063L1164 981Q1146 1025 1116 1064T1042 1133T939 1180T805 1198Q695 1198 615 1164T483 1065T406 912T381 711Q381 601 406 509T484 351T617 248T806 211Z" />
<glyph unicode="H" glyph-name="H" horiz-adv-x="1479" d="M1046 0V604H432V0H137V1409H432V848H1046V1409H1341V0H1046Z" />
<glyph unicode="I" glyph-name="I" horiz-adv-x="569" d="M137 0V1409H432V0H137Z" />
<glyph unicode="J" glyph-name="J" horiz-adv-x="1139" d="M524 -20Q418 -20 335 2T191 72T91 196T31 382L324 425Q334 366 352 326T395 260T454 223T526 211Q614 211 659 270T705 439V1178H424V1409H999V446Q999 339 968 253T877 106T728 13T524 -20Z" />
<glyph unicode="K" glyph-name="K" horiz-adv-x="1479" d="M1112 0L606 647L432 514V0H137V1409H432V770L1067 1409H1411L809 813L1460 0H1112Z" />
<glyph unicode="L" glyph-name="L" horiz-adv-x="1251" d="M137 0V1409H432V228H1188V0H137Z" />
<glyph unicode="M" glyph-name="M" horiz-adv-x="1706" d="M1307 0V854Q1307 905 1308 959T1312 1058Q1315 1111 1317 1161L1277 1011L1260 949L1242 887L1226 831L1212 786L958 0H748L494 786L480 831L464 887L447 949L429 1011L387 1161L393 1047L397 946Q399
893 399 854V0H137V1409H532L784 621Q794 589 806 545L828 458L854 356L881 456L893 499L905 542L917 582L928 616L1176 1409H1569V0H1307Z" />
<glyph unicode="N" glyph-name="N" horiz-adv-x="1479" d="M995 0L381 1085Q386 1041 390 997Q394 959 396 915T399 831V0H137V1409H474L1097 315Q1092 357 1088 403Q1084 442 1082 491T1079 590V1409H1341V0H995Z" />
<glyph unicode="O" glyph-name="O" horiz-adv-x="1593" d="M1206 711Q1206 822 1180 911T1101 1065T973 1163T795 1198Q692 1198 615 1164T485 1065T407 912T381 711Q381 601 407 510T486 352T615 249T793 212Q901 212 979 249T1107 353T1182 511T1206 711ZM1507
711Q1507 546 1458 411T1317 180T1093 32T793 -20Q616 -20 484 34T262 186T129 418T84 711Q84 876 130 1009T267 1235T490 1379T795 1430T1099 1379T1322 1234T1460 1008T1507 711Z" />
<glyph unicode="P" glyph-name="P" horiz-adv-x="1366" d="M999 958Q999 1067 934 1123T737 1180H432V723H745Q811 723 858 740T937 788T984 862T999 958ZM1296 963Q1296 872 1266 788T1172 638T1012 535T782 496H432V0H137V1409H770Q905 1409 1004 1377T1168
1285T1264 1144T1296 963Z" />
<glyph unicode="Q" glyph-name="Q" horiz-adv-x="1593" d="M1206 711Q1206 822 1180 911T1101 1065T973 1163T795 1198Q692 1198 615 1164T485 1065T407 912T381 711Q381 601 407 509T486 351T615 248T793 211Q901 211 979 248T1107 352T1182 511T1206 711ZM1507
711Q1507 570 1472 452T1369 242T1204 90T983 4Q1003 -54 1030 -90T1091 -147T1165 -175T1251 -183Q1280 -183 1310 -181T1370 -173L1368 -375Q1314 -387 1255 -395T1126 -403Q1031 -403 960 -375T837 -295T748 -171T684 -10Q534 4 422 63T234 217T122 438T84 711Q84
876 130 1009T267 1235T490 1379T795 1430T1099 1379T1322 1234T1460 1008T1507 711Z" />
<glyph unicode="R" glyph-name="R" horiz-adv-x="1479" d="M1070 977Q1070 1080 1003 1130T810 1180H432V764H818Q884 764 931 779T1009 823T1055 891T1070 977ZM1105 0L778 535H432V0H137V1409H841Q973 1409 1071 1380T1236 1296T1334 1164T1367 989Q1367 910
1344 845T1279 728T1180 643T1056 592L1437 0H1105Z" />
<glyph unicode="S" glyph-name="S" horiz-adv-x="1366" d="M1286 406Q1286 310 1251 232T1143 97T955 11T682 -20Q542 -20 435 5T252 79T128 200T59 367L344 414Q356 367 379 328T442 261T543 217T690 201Q840 201 919 246T999 389Q999 447 967 484T882 545T760
585T616 616L496 645Q436 660 382 681T280 731T199 802T145 902T125 1036Q125 1141 167 1216T283 1338T461 1408T686 1430Q824 1430 922 1409T1087 1343T1192 1233T1249 1077L963 1038Q941 1129 874 1175T680 1221Q602 1221 551 1208T469 1171T425 1118T412 1053Q412
1001 437 968T507 912T614 874T752 842Q821 827 883 812Q948 797 1007 776T1117 725T1205 652T1264 548T1286 406Z" />
<glyph unicode="T" glyph-name="T" horiz-adv-x="1251" d="M773 1181V0H478V1181H23V1409H1229V1181H773Z" />
<glyph unicode="U" glyph-name="U" horiz-adv-x="1479" d="M723 -20Q591 -20 481 11T292 109T168 280T123 528V1409H418V551Q418 462 440 398T503 292T602 231T731 211Q803 211 863 231T967 295T1035 404T1059 561V1409H1354V543Q1354 398 1307 292T1176 117T977
14T723 -20Z" />
<glyph unicode="V" glyph-name="V" horiz-adv-x="1366" d="M834 0H535L14 1409H322L612 504Q626 459 639 412L663 326L686 238L707 324L730 410L758 504L1047 1409H1352L834 0Z" />
<glyph unicode="W" glyph-name="W" horiz-adv-x="1933" d="M1567 0H1217L1026 815Q1015 864 1006 903Q996 954 987 1002Q976 1057 967 1116L945 1001L935 952Q930 926 925 902T915 855T905 815L715 0H365L2 1409H301L477 625Q501 518 505 499L529 388L551 279L580
423L593 485L606 548L620 608L631 659L805 1409H1135L1313 659Q1319 635 1325 606L1337 544L1349 482Q1354 458 1360 420L1384 279L1409 395L1434 507L1462 625L1632 1409H1931L1567 0Z" />
<glyph unicode="X" glyph-name="X" horiz-adv-x="1366" d="M1038 0L684 561L330 0H18L506 741L59 1409H371L684 911L997 1409H1307L879 741L1348 0H1038Z" />
<glyph unicode="Y" glyph-name="Y" horiz-adv-x="1366" d="M831 578V0H537V578L35 1409H344L682 813L1024 1409H1333L831 578Z" />
<glyph unicode="Z" glyph-name="Z" horiz-adv-x="1251" d="M1192 0H61V209L823 1178H137V1409H1151V1204L389 231H1192V0Z" />
<glyph unicode="[" glyph-name="bracketleft" horiz-adv-x="682" d="M115 -425V1484H657V1294H381V-234H657V-425H115Z" />
<glyph unicode="\" glyph-name="backslash" horiz-adv-x="569" d="M307 -41L21 1485H259L550 -41H307Z" />
<glyph unicode="]" glyph-name="bracketright" horiz-adv-x="682" d="M25 -425V-234H303V1294H25V1484H567V-425H25Z" />
<glyph unicode="^" glyph-name="asciicircum" horiz-adv-x="1196" d="M922 514L596 1266L272 514H45L436 1409H758L1151 514H922Z" />
<glyph unicode="_" glyph-name="underscore" horiz-adv-x="1139" d="M-20 -250V-172H1157V-250H-20Z" />
<glyph unicode="`" glyph-name="grave" horiz-adv-x="682" d="M406 1183L66 1459V1502H324L575 1214V1183H406Z" />
<glyph unicode="a" glyph-name="a" horiz-adv-x="1139" d="M720 501L576 499Q531 497 491 492T420 469T371 418T353 328Q353 251 388 214T483 176Q537 176 581 199T655 259T703 346T720 446V501ZM393 -20Q315 -20 254 1T149 64T83 167T60 306Q60 402 93 467T185
573T321 632Q397 650 487 652L720 656V711Q720 770 710 809T679 874T630 909T562 920Q527 920 500 913T452 889T420 842T402 767L109 781Q121 852 153 910T241 1012T380 1078T574 1102Q675 1102 754 1077T888 1003T972 881T1001 714V320Q1001 282 1004 252T1017
202T1044 171T1090 160Q1122 160 1152 166V14L1107 3Q1087 -2 1067 -5T1025 -10T972 -12Q866 -12 816 40T755 193H749Q693 92 606 36T393 -20Z" />
<glyph unicode="b" glyph-name="b" horiz-adv-x="1251" d="M874 545Q874 729 820 818T653 907Q610 907 568 890T493 831T440 717T420 536Q420 430 440 360T492 248T566 189T651 172Q758 172 816 260T874 545ZM1167 545Q1167 422 1143 319T1067 140T938 22T752
-20Q704 -20 656 -10T565 23T486 83T424 174H422Q422 153 421 126T417 74T413 28T408 0H135Q138 35 140 99T143 247V1484H424V1070Q424 1038 424 1008Q423 985 422 951Q421 921 420 894H424Q475 1006 564 1054T770 1102Q874 1102 949 1061T1072 945T1144 768T1167
545Z" />
<glyph unicode="c" glyph-name="c" horiz-adv-x="1139" d="M594 -20Q465 -20 369 20T208 133T112 308T80 535Q80 670 115 775T216 953T378 1064T598 1102Q703 1102 784 1074T925 998T1020 883T1071 741L788 727Q776 810 728 859T592 909Q479 909 427 816T375 546Q375
172 596 172Q676 172 730 222T797 373L1079 360Q1069 285 1034 217T938 96T791 12T594 -20Z" />
<glyph unicode="d" glyph-name="d" horiz-adv-x="1251" d="M831 547Q831 654 811 724T759 836T685 894T600 911Q546 911 505 890T435 824T392 709T377 540Q377 172 598 172Q640 172 682 190T757 251T810 366T831 547ZM844 0Q842 8 840 28T835 75T831 128T829 176H825Q776
71 689 26T479 -20Q377 -20 303 22T180 139T108 316T84 540Q84 663 108 766T184 943T313 1060T500 1102Q553 1102 602 1091T693 1057T769 998T827 911H829Q829 921 829 940T828 985T828 1037T827 1089V1484H1108V236Q1108 157 1111 96T1116 0H844Z" />
<glyph unicode="e" glyph-name="e" horiz-adv-x="1139" d="M586 925Q543 925 506 911T441 865T396 783T377 663H797Q789 794 734 859T586 925ZM586 -20Q469 -20 376 14T216 119T115 296T80 546Q80 701 121 807T233 978T396 1073T590 1102Q718 1102 808 1058T957
933T1042 742T1069 495V487H375Q375 419 387 361T426 260T496 193T600 168Q674 168 721 199T788 297L1053 274Q1035 228 1003 176T916 81T782 9T586 -20Z" />
<glyph unicode="f" glyph-name="f" horiz-adv-x="682" d="M473 892V0H193V892H35V1082H193V1195Q193 1257 208 1309T259 1401T356 1462T508 1484Q556 1484 602 1479T686 1468V1287Q668 1291 646 1293T604 1296Q565 1296 540 1288T500 1264T479 1224T473 1167V1082H686V892H473Z"
/>
<glyph unicode="g" glyph-name="g" horiz-adv-x="1251" d="M831 556Q831 658 811 726T759 835T686 893T602 910Q548 910 507 889T436 824T392 712T377 550Q377 375 433 286T600 197Q642 197 683 213T758 271T811 382T831 556ZM596 -434Q489 -434 408 -413T269
-353T177 -261T129 -143L410 -110Q425 -175 474 -212T604 -249Q654 -249 695 -235T766 -188T812 -99T829 37V94Q829 119 830 147T831 201H829Q780 96 692 49T481 2Q378 2 304 42T180 155T108 328T84 550Q84 675 109 776T185 951T315 1063T502 1103T695 1057T829
908H834Q834 929 835 956T839 1009T843 1055T848 1082H1114Q1112 1046 1110 981T1108 832V33Q1108 -85 1074 -172T975 -318T814 -405T596 -434Z" />
<glyph unicode="h" glyph-name="h" horiz-adv-x="1251" d="M420 866Q477 990 563 1046T768 1102Q866 1102 933 1070T1043 982T1105 850T1124 686V0H844V606Q844 669 834 721T801 811T741 870T651 891Q600 891 559 869T487 805T441 706T424 579V0H143V1484H424V1079Q424
1047 423 1015T421 954T418 902T416 866H420Z" />
<glyph unicode="i" glyph-name="i" horiz-adv-x="569" d="M143 0V1082H424V0H143ZM143 1277V1484H424V1277H143Z" />
<glyph unicode="j" glyph-name="j" horiz-adv-x="569" d="M138 -425Q82 -425 41 -423T-32 -416V-218Q-19 -220 -6 -221T19 -222Q58 -222 82 -214T120 -187T139 -137T144 -60V1082H425V-128Q425 -193 409 -247T359 -341T270 -403T138 -425ZM144 1277V1484H425V1277H144Z" />
<glyph unicode="k" glyph-name="k" horiz-adv-x="1139" d="M834 0L545 490L424 406V0H143V1484H424V634L810 1082H1112L732 660L1141 0H834Z" />
<glyph unicode="l" glyph-name="l" horiz-adv-x="569" d="M143 0V1484H424V0H143Z" />
<glyph unicode="m" glyph-name="m" horiz-adv-x="1821" d="M780 0V607Q780 670 772 722T744 812T693 871T616 892Q573 892 538 870T478 806T438 707T424 580V0H143V840Q143 875 143 912T141 982T138 1042T135 1082H403Q405 1070 407 1044T411 985T414 921T416
867H420Q472 991 549 1047T735 1103Q859 1103 934 1043T1036 867H1042Q1071 934 1104 979T1178 1051T1266 1091T1370 1103Q1459 1103 1520 1071T1620 983T1676 851T1694 687V0H1415V607Q1415 670 1407 722T1379 812T1328 871T1251 892Q1209 892 1175 871T1115 810T1075
715T1059 593V0H780Z" />
<glyph unicode="n" glyph-name="n" horiz-adv-x="1251" d="M844 0V607Q844 670 834 722T801 812T741 871T651 892Q600 892 559 870T487 806T441 707T424 580V0H143V840Q143 875 143 912T141 982T138 1042T135 1082H403Q405 1070 407 1044T411 985T414 921T416
867H420Q477 991 563 1047T768 1103Q866 1103 933 1071T1043 983T1105 851T1124 687V0H844Z" />
<glyph unicode="o" glyph-name="o" horiz-adv-x="1251" d="M877 542Q877 735 814 822T631 909Q507 909 441 821T375 542Q375 445 392 375T442 260T519 194T618 172Q680 172 728 193T810 260T860 375T877 542ZM1171 542Q1171 418 1137 315T1033 138T861 22T621
-20Q489 -20 388 21T219 136T115 313T80 542Q80 663 113 765T215 943T386 1060T627 1102Q773 1102 876 1060T1044 944T1140 767T1171 542Z" />
<glyph unicode="p" glyph-name="p" horiz-adv-x="1251" d="M874 546Q874 731 818 820T651 910Q609 910 568 893T494 833T441 719T420 538Q420 432 440 362T492 249T566 190T649 172Q703 172 745 193T815 260T859 377T874 546ZM1167 546Q1167 423 1143 319T1067
140T938 23T752 -20Q704 -20 657 -10T566 22T487 81T424 172H418Q419 167 420 147T422 101T423 45T424 -10V-425H143V833Q143 916 141 981T135 1082H408Q410 1075 412 1055T416 1009T419 955T420 906H424Q475 1013 564 1059T770 1105Q873 1105 948 1063T1071 947T1143
771T1167 546Z" />
<glyph unicode="q" glyph-name="q" horiz-adv-x="1251" d="M831 438T831 546T811 724T759 835T686 893T602 910Q548 910 507 889T436 823T392 708T377 540Q377 172 600 172Q642 172 683 190T758 251T811 366ZM84 540Q84 663 109 766T185 944T315 1061T502 1103T695
1057T829 908Q829 929 830 956T834 1009T839 1055T844 1082H1114Q1112 1046 1110 981T1108 833V-425H829V25Q829 53 830 80T832 130L834 180H832Q783 75 692 28T479 -20Q377 -20 303 22T180 139T108 316T84 540Z" />
<glyph unicode="r" glyph-name="r" horiz-adv-x="797" d="M143 0V828Q143 863 143 902T141 976T138 1040T135 1082H403Q405 1070 407 1041T411 976T414 907T416 851H420Q441 910 462 956T511 1035T580 1085T679 1103Q704 1103 728 1099T766 1088V853Q739 859 712
863T646 868Q541 868 483 783T424 531V0H143Z" />
<glyph unicode="s" glyph-name="s" horiz-adv-x="1139" d="M1055 316Q1055 238 1023 176T928 71T776 4T571 -20Q468 -20 385 -5T240 44T135 134T72 270L319 307Q331 262 352 234T404 191T476 171T571 166Q619 166 660 171T732 190T780 228T797 290Q797 332 773
356T706 396T606 424Q561 432 483 450Q411 466 349 486Q283 507 231 543T147 634T115 775Q115 852 145 912T233 1015T376 1080T573 1103Q661 1103 737 1087T873 1035T973 944T1030 811L781 785Q774 824 756 849T712 890T650 910T573 916Q473 916 423 891T373 805Q373
768 393 746T451 710T540 685T653 659Q728 643 800 622T929 563T1020 466T1055 316Z" />
<glyph unicode="t" glyph-name="t" horiz-adv-x="682" d="M420 -18Q296 -18 229 49T162 254V892H25V1082H176L264 1336H440V1082H645V892H440V330Q440 251 470 214T563 176Q589 176 610 180T657 190V16Q605 -1 547 -9T420 -18Z" />
<glyph unicode="u" glyph-name="u" horiz-adv-x="1251" d="M408 1082V475Q408 412 418 360T451 270T510 211T600 190Q651 190 692 212T764 276T810 375T827 502V1082H1108V242Q1108 208 1108 171T1110 100T1113 40T1116 0H848Q847 12 845 38T840 97L838 161Q836
193 836 215H831Q775 92 689 36T483 -20Q386 -20 318 12T208 99T146 231T127 395V1082H408Z" />
<glyph unicode="v" glyph-name="v" horiz-adv-x="1139" d="M731 0H395L8 1082H305L494 477L513 414L532 347L550 283L565 227Q571 251 580 282L598 345Q608 378 618 411L639 474L836 1082H1130L731 0Z" />
<glyph unicode="w" glyph-name="w" horiz-adv-x="1593" d="M1313 0H1016L844 660Q836 691 828 730L813 802L797 882L779 802L762 729L745 658L571 0H274L-6 1082H258L395 446L408 386L421 323Q428 288 436 255L450 329Q456 361 463 392L475 446L645 1082H946L1112
446Q1120 416 1126 387L1139 325L1153 255L1168 325L1181 387L1194 446L1337 1082H1597L1313 0Z" />
<glyph unicode="x" glyph-name="x" horiz-adv-x="1139" d="M819 0L567 392L313 0H14L410 559L33 1082H336L567 728L797 1082H1102L725 562L1124 0H819Z" />
<glyph unicode="y" glyph-name="y" horiz-adv-x="1139" d="M700 -57Q661 -152 621 -221T533 -335T424 -403T283 -425Q239 -425 193 -422T106 -412V-212Q126 -215 154 -217T203 -220Q244 -220 276 -211T334 -181T382 -125T426 -37L444 11L16 1082H313L483 575Q487
564 496 538L514 478L536 408L557 338Q567 304 574 278L584 241L594 278L608 336L627 404L646 473L662 532Q670 559 674 571L834 1082H1128L700 -57Z" />
<glyph unicode="z" glyph-name="z" horiz-adv-x="1024" d="M68 0V199L608 879H109V1082H918V881L381 205H967V0H68Z" />
<glyph unicode="{" glyph-name="braceleft" horiz-adv-x="797" d="M557 -425Q488 -425 434 -404T341 -345T282 -251T262 -126V202Q262 265 246 308T200 379T128 418T33 431V626Q86 628 128 640T200 680T246 750T262 857V1185Q262 1331 340 1407T557 1484H754V1294H696Q605
1294 565 1242T524 1085V784Q524 733 508 691T463 616T397 563T317 532V528Q360 518 398 497T464 443T508 369T524 276V-25Q524 -131 564 -182T696 -234H754V-425H557Z" />
<glyph unicode="|" glyph-name="bar" horiz-adv-x="573" d="M156 -455V1484H418V-455H156Z" />
<glyph unicode="}" glyph-name="braceright" horiz-adv-x="797" d="M43 -234H100Q193 -234 232 -183T272 -25V276Q272 327 288 368T333 442T398 496T479 528V532Q437 541 400 562T334 616T289 690T272 784V1085Q272 1190 233 1242T100 1294H43V1484H240Q378 1484
456 1408T535 1185V857Q535 794 551 751T598 680T670 641T766 626V431Q713 430 671 418T598 379T552 309T535 202V-126Q535 -195 515 -250T457 -344T364 -404T240 -425H43V-234Z" />
<glyph unicode="~" glyph-name="asciitilde" horiz-adv-x="1196" d="M852 516Q777 516 705 537T557 584Q490 607 436 619Q382 631 336 631Q297 631 264 625T200 608T140 580T81 543V756Q132 794 200 817T352 840Q393 840 434 834T515 817T594 792L671 766Q716
750 769 737T871 723Q939 723 1003 748T1119 815V596Q1087 574 1057 559T995 534T928 520T852 516Z" />
<glyph unicode="&#xa0;" glyph-name="space" horiz-adv-x="569" />
<glyph unicode="&#xa1;" glyph-name="exclamdown" horiz-adv-x="682" d="M194 -327L226 654H456L488 -327H194ZM200 812V1082H488V812H200Z" />
<glyph unicode="&#xa2;" glyph-name="cent" horiz-adv-x="1139" d="M588 340Q676 340 735 394T809 549L1092 537Q1082 468 1051 405T966 290T839 205T668 160V-31H506V158Q392 169 307 212T164 323T79 484T51 686Q51 803 81 897T170 1061T313 1171T506 1225V1409H668V1225Q758
1215 829 1184T953 1106T1037 998T1083 868L801 854Q794 896 778 930T734 990T671 1030T586 1044Q462 1044 398 952T334 696Q334 522 400 431T588 340Z" />
<glyph unicode="&#xa3;" glyph-name="sterling" horiz-adv-x="1139" d="M1118 363Q1105 290 1075 224T996 109T880 30T726 0H32V205Q71 227 104 253T160 314T196 398T209 512V604H21V774H199V1022Q199 1114 223 1189T298 1318T430 1401T625 1430Q721 1430 789
1410T904 1351T982 1260T1032 1139L799 1092Q778 1169 737 1204T630 1239Q539 1239 499 1182T459 999V774H745V604H459V514Q459 455 447 409T411 326T354 261T277 209H657Q761 209 814 258T885 402L1118 363Z" />
<glyph unicode="&#xa4;" glyph-name="currency" horiz-adv-x="1139" d="M360 729T360 686T376 605T421 539T488 494T569 477T649 493T715 538T760 605T777 686T761 767T716 833T650 878T569 895T488 879T422 834T377 767ZM134 624T134 684T149 800T194 905L61
1038L218 1194L349 1061Q397 1089 453 1104T569 1120T684 1105T788 1061L923 1196L1081 1038L945 903Q974 855 989 800T1005 684T990 570T947 467L1081 334L923 174L790 309Q690 250 569 250Q509 250 453 264T349 307L214 170L57 328L192 465Q164 513 149 568Z"
/>
<glyph unicode="&#xa5;" glyph-name="yen" horiz-adv-x="1139" d="M766 691H1042V545H704V383H1042V236H704V0H432V236H96V383H432L434 545H96V691H372L8 1409H297L567 813L841 1409H1130L766 691Z" />
<glyph unicode="&#xa6;" glyph-name="brokenbar" horiz-adv-x="573" d="M156 -455V324H418V-455H156ZM156 676V1454H418V676H156Z" />
<glyph unicode="&#xa7;" glyph-name="section" horiz-adv-x="1139" d="M818 600Q818 639 802 666T751 713T660 749T526 780Q433 769 383 733T333 627Q333 588 357 562T421 517T514 485T623 458Q664 460 700 468T762 494T803 537T818 600ZM575 1427Q662 1427 738
1412T875 1363T975 1278T1031 1153L792 1128Q785 1162 766 1186T718 1226T653 1249T575 1257Q463 1257 411 1228T358 1133Q358 1094 381 1068T443 1022T533 990T642 963Q731 943 802 920Q878 896 934 859T1023 768T1056 634Q1056 590 1043 550T1005 475T943 413T859
371Q900 353 933 329T990 275T1027 205T1040 115Q1040 37 1011 -26T922 -135T771 -204T556 -229Q453 -229 370 -214T223 -165T117 -76T53 59L290 96Q301 51 324 21T381 -27T459 -52T556 -59Q678 -59 741 -27T804 86Q804 131 783 160T720 209T615 246T468 283Q405
298 338 320T217 379T127 468T91 600Q91 649 106 689T149 760T216 816T304 856Q266 872 232 896T172 953T131 1026T116 1114Q116 1263 233 1345T575 1427Z" />
<glyph unicode="&#xa8;" glyph-name="dieresis" horiz-adv-x="682" d="M16 1199V1418H230V1199H16ZM450 1199V1418H667V1199H450Z" />
<glyph unicode="&#xa9;" glyph-name="copyright" horiz-adv-x="1509" d="M544 771T544 709T557 595T599 506T669 447T768 426Q809 426 841 439T897 473T937 519T964 569L1124 522Q1104 479 1076 437T1005 360T905 306T768 285Q664 285 588 316T462 404T388 539T364
709Q364 805 388 882T461 1012T584 1095T759 1124Q837 1124 895 1106T994 1056T1064 983T1112 895L956 854Q946 878 930 901T891 942T836 972T764 983Q706 983 664 964T596 908T557 822ZM1366 707Q1366 833 1318 943T1187 1136T993 1267T755 1315Q671 1315 594
1293T448 1232T325 1137T230 1014T169 869T147 707Q147 580 195 469T325 275T518 144T755 96Q882 96 993 144T1187 275T1318 469T1366 707ZM1478 707Q1478 607 1452 515T1379 342T1267 196T1121 83T948 10T755 -16Q656 -16 564 10T391 83T245 195T131 341T58 514T32
707T58 899T131 1071T244 1218T390 1331T563 1404T755 1430Q905 1430 1036 1373T1266 1218T1421 989T1478 707Z" />
<glyph unicode="&#xaa;" glyph-name="ordfeminine" horiz-adv-x="758" d="M328 856Q363 856 390 871T437 909T466 960T476 1017V1044L384 1042Q353 1041 326 1038T279 1024T246 994T234 941Q234 900 257 878T328 856ZM257 725Q160 725 103 777T45 927Q45 987 68
1027T130 1091T220 1126T329 1138L476 1140V1182Q476 1217 468 1240T446 1276T413 1295T372 1301Q351 1301 333 1297T299 1283T274 1254T260 1207L70 1216Q78 1259 99 1296T158 1360T249 1403T371 1419Q436 1419 488 1405T579 1362T637 1288T658 1184V947Q658 899
667 875T709 850Q713 850 720 850T734 852T747 853T758 855V746Q729 738 698 733T639 728Q568 728 528 764T482 862H479Q445 797 390 761T257 725Z" />
<glyph unicode="&#xab;" glyph-name="guillemotleft" horiz-adv-x="1139" d="M350 141L92 502V573L350 940H586V903L332 537L588 176V141H350ZM807 141L551 502V573L807 940H1045V903L791 537L1047 176V141H807Z" />
<glyph unicode="&#xac;" glyph-name="logicalnot" horiz-adv-x="1196" d="M887 141V569H84V793H1111V141H887Z" />
<glyph unicode="&#xad;" glyph-name="hyphen" horiz-adv-x="682" d="M80 409V653H600V409H80Z" />
<glyph unicode="&#xae;" glyph-name="registered" horiz-adv-x="1509" d="M905 868Q905 925 868 955T761 985H628V739H772Q838 739 871 774T905 868ZM923 297L745 610H628V297H450V1112H780Q933 1112 1009 1048T1085 870Q1085 776 1037 717T911 633L1124 297H923ZM1366
707Q1366 833 1318 943T1187 1136T993 1267T755 1315Q671 1315 594 1293T448 1232T325 1137T230 1014T169 869T147 707Q147 580 195 469T325 275T518 144T755 96Q882 96 993 144T1187 275T1318 469T1366 707ZM1478 707Q1478 607 1452 515T1379 342T1267 196T1121
83T948 10T755 -16Q656 -16 564 10T391 83T245 195T131 341T58 514T32 707T58 899T131 1071T244 1218T390 1331T563 1404T755 1430Q905 1430 1036 1373T1266 1218T1421 989T1478 707Z" />
<glyph unicode="&#xaf;" glyph-name="overscore" horiz-adv-x="1131" d="M1148 1452H-17V1546H1148V1452Z" />
<glyph unicode="&#xb0;" glyph-name="degree" horiz-adv-x="819" d="M573 1110Q573 1145 561 1175T526 1228T475 1263T410 1276T345 1264T293 1229T257 1176T244 1110Q244 1076 257 1046T292 992T345 956T410 942T474 955T526 992T560 1045T573 1110ZM731 1110Q731
1044 706 987T637 887T535 820T410 795T286 819T184 886T115 986T90 1110Q90 1177 115 1234T183 1334T285 1401T410 1425T534 1401T636 1335T705 1235T731 1110Z" />
<glyph unicode="&#xb1;" glyph-name="plusminus" horiz-adv-x="1124" d="M49 0V223H1076V0H49ZM674 707V366H450V707H49V930H450V1270H674V930H1076V707H674Z" />
<glyph unicode="&#xb2;" glyph-name="uni00B2" horiz-adv-x="682" d="M53 694L51 815Q76 868 113 908T193 981T277 1040T352 1092T407 1146T428 1208Q428 1250 409 1274T347 1299Q262 1299 252 1201L58 1206Q64 1252 85 1292T143 1362T230 1409T347 1426Q418 1426
470 1410T557 1366T609 1300T626 1216Q626 1163 604 1123T548 1051T472 992L392 940Q354 915 323 889T277 832H639V694H53Z" />
<glyph unicode="&#xb3;" glyph-name="uni00B3" horiz-adv-x="682" d="M638 895Q638 796 563 740T350 684Q266 684 210 702T118 749T66 816T44 892L233 904Q238 859 265 835T347 811Q396 811 422 834T449 907Q449 938 436 956T402 984T357 997T310 1000H254V1126H305Q328
1126 350 1130T391 1144T420 1171T432 1216Q432 1255 409 1277T343 1299Q301 1299 276 1277T245 1210L59 1222Q65 1273 90 1311T153 1375T241 1413T348 1426Q416 1426 467 1412T551 1372T602 1312T619 1238Q619 1174 583 1129T467 1067V1065Q512 1060 544 1045T597
1006T628 955T638 895Z" />
<glyph unicode="&#xb4;" glyph-name="acute" horiz-adv-x="682" d="M87 1183V1214L339 1502H597V1459L257 1183H87Z" />
<glyph unicode="&#xb5;" glyph-name="mu" horiz-adv-x="1180" d="M789 0L781 62Q776 101 776 144H773Q754 95 733 63T687 13T633 -13T571 -20Q519 -20 479 4T415 70H411Q414 38 414 11T415 -45V-426H134V1082H415V477Q415 413 423 361T451 272T504 214T590 193Q640
193 674 215T729 278T759 376T768 504V1082H1049V242Q1049 208 1049 172T1051 102T1054 41T1057 0H789Z" />
<glyph unicode="&#xb6;" glyph-name="paragraph" horiz-adv-x="1139" d="M940 1266V-264H784V1266H589V-264H434V694Q353 694 287 716T172 783T98 894T71 1049Q71 1133 96 1199T168 1312T285 1384T442 1409H1071V1266H940Z" />
<glyph unicode="&#xb7;" glyph-name="middot" horiz-adv-x="569" d="M141 531V836H429V531H141Z" />
<glyph unicode="&#xb8;" glyph-name="cedilla" horiz-adv-x="682" d="M500 -235Q500 -274 485 -309T434 -369T340 -410T197 -425Q152 -425 96 -419V-301Q121 -306 142 -307T180 -308Q255 -308 286 -290T317 -239Q317 -204 289 -187T195 -170H170Q157 -170 143
-172L205 0H348L315 -82Q409 -87 454 -128T500 -235Z" />
<glyph unicode="&#xb9;" glyph-name="uni00B9" horiz-adv-x="682" d="M82 694V815H266V1283L93 1175V1297L273 1414H448V815H618V694H82Z" />
<glyph unicode="&#xba;" glyph-name="ordmasculine" horiz-adv-x="748" d="M513 1073Q513 1132 505 1171T480 1233T439 1266T381 1276T323 1266T280 1233T253 1170T243 1073Q243 1013 252 973T279 909T321 875T374 865Q407 865 433 875T476 909T503 973T513 1073ZM713
1073Q713 996 692 932T628 822T522 751T375 725Q295 725 234 750T130 821T67 931T45 1073Q45 1148 65 1211T127 1321T232 1393T379 1419Q467 1419 530 1393T634 1321T694 1212T713 1073Z" />
<glyph unicode="&#xbb;" glyph-name="guillemotright" horiz-adv-x="1139" d="M552 141V176L808 537L554 903V940H790L1048 573V502L790 141H552ZM93 141V176L349 537L95 903V940H333L589 573V502L333 141H93Z" />
<glyph unicode="&#xbc;" glyph-name="onequarter" horiz-adv-x="1708" d="M94 694V815H278V1283L105 1175V1297L285 1414H460V815H630V694H94ZM544 0H343L1238 1409H1439L544 0ZM1329 583Q1326 579 1318 563L1298 530Q1288 512 1278 497L1264 475L1123 281H1325V475Q1325
483 1325 497T1326 527T1328 558T1329 583ZM1508 141V1H1325V141H981V289L1297 721H1508V281H1611V141H1508Z" />
<glyph unicode="&#xbd;" glyph-name="onehalf" horiz-adv-x="1708" d="M94 694V815H278V1283L105 1175V1297L285 1414H460V815H630V694H94ZM524 0H323L1218 1409H1419L524 0ZM1026 -1L1024 120Q1049 173 1086 213T1166 286T1250 345T1325 397T1380 451T1401 513Q1401
555 1382 579T1320 604Q1235 604 1225 506L1031 511Q1037 557 1058 597T1116 667T1203 714T1320 731Q1391 731 1443 715T1530 671T1582 605T1599 521Q1599 468 1577 428T1521 356T1445 297L1365 245Q1327 220 1296 194T1250 137H1612V-1H1026Z" />
<glyph unicode="&#xbe;" glyph-name="threequarters" horiz-adv-x="1708" d="M544 0H343L1238 1409H1439L544 0ZM1329 583Q1326 579 1318 563L1298 530Q1288 512 1278 497L1264 475L1123 281H1325V475Q1325 483 1325 497T1326 527T1328 558T1329 583ZM1508 141V1H1325V141H981V289L1297
721H1508V281H1611V141H1508ZM697 895Q697 796 622 740T409 684Q325 684 269 702T177 749T125 816T103 892L292 904Q297 859 324 835T406 811Q455 811 481 834T508 907Q508 938 495 956T461 984T416 997T369 1000H313V1126H364Q387 1126 409 1130T450 1144T479
1171T491 1216Q491 1255 468 1277T402 1299Q360 1299 335 1277T304 1210L118 1222Q124 1273 149 1311T212 1375T300 1413T407 1426Q475 1426 526 1412T610 1372T661 1312T678 1238Q678 1174 642 1129T526 1067V1065Q571 1060 603 1045T656 1006T687 955T697 895Z"
/>
<glyph unicode="&#xbf;" glyph-name="questiondown" horiz-adv-x="1251" d="M809 1082V812H520V1082H809ZM114 56Q114 122 131 172T178 261T244 332T320 392L396 447Q434 474 464 504T513 571T534 656H801Q796 571 765 511T688 406T592 325T498 252T426 172T397
68Q397 -20 454 -71T618 -122Q669 -122 712 -107T787 -63T841 5T868 93L1153 81Q1141 -8 1104 -86T1001 -222T842 -314T622 -348Q502 -348 408 -320T249 -240T149 -112T114 56Z" />
<glyph unicode="&#xc0;" glyph-name="Agrave" horiz-adv-x="1479" d="M803 987L780 1058Q768 1093 760 1122L746 1171Q740 1190 739 1192Q738 1189 733 1170T720 1122T700 1058L676 987L537 582H942L803 987ZM1133 0L1008 360H471L346 0H51L565 1409H913L1425
0H1133ZM769 1530L429 1772V1815H687L938 1561V1530H769Z" />
<glyph unicode="&#xc1;" glyph-name="Aacute" horiz-adv-x="1479" d="M803 987L780 1058Q768 1093 760 1122L746 1171Q740 1190 739 1192Q738 1189 733 1170T720 1122T700 1058L676 987L537 582H942L803 987ZM1133 0L1008 360H471L346 0H51L565 1409H913L1425
0H1133ZM573 1530V1561L825 1815H1083V1772L743 1530H573Z" />
<glyph unicode="&#xc2;" glyph-name="Acircumflex" horiz-adv-x="1479" d="M803 987L780 1058Q768 1093 760 1122L746 1171Q740 1190 739 1192Q738 1189 733 1170T720 1122T700 1058L676 987L537 582H942L803 987ZM1133 0L1008 360H471L346 0H51L565 1409H913L1425
0H1133ZM1107 1559V1530H948L745 1681H741L530 1530H370V1559L628 1835H857L1107 1559Z" />
<glyph unicode="&#xc3;" glyph-name="Atilde" horiz-adv-x="1479" d="M803 987L780 1058Q768 1093 760 1122L746 1171Q740 1190 739 1192Q738 1189 733 1170T720 1122T700 1058L676 987L537 582H942L803 987ZM1133 0L1008 360H471L346 0H51L565 1409H913L1425
0H1133ZM905 1530Q861 1530 817 1549T730 1591T651 1634T583 1653Q557 1653 540 1645T513 1620T496 1582T485 1530H348Q351 1575 359 1626T390 1721T457 1794T573 1823Q618 1823 663 1804T750 1762L829 1719Q865 1700 894 1700Q919 1700 935 1708T963 1733T981
1772T993 1823H1128Q1126 1778 1118 1727T1087 1632T1021 1559T905 1530Z" />
<glyph unicode="&#xc4;" glyph-name="Adieresis" horiz-adv-x="1479" d="M803 987L780 1058Q768 1093 760 1122L746 1171Q740 1190 739 1192Q738 1189 733 1170T720 1122T700 1058L676 987L537 582H942L803 987ZM1133 0L1008 360H471L346 0H51L565 1409H913L1425
0H1133ZM414 1530V1749H608V1530H414ZM868 1530V1749H1065V1530H868Z" />
<glyph unicode="&#xc5;" glyph-name="Aring" horiz-adv-x="1479" d="M803 987L780 1058Q768 1093 760 1122L746 1171Q740 1190 739 1192Q738 1189 733 1170T720 1122T700 1058L676 987L537 582H942L803 987ZM1133 0L1008 360H471L346 0H51L565 1409H913L1425 0H1133ZM866
1552Q866 1578 856 1600T829 1640T789 1667T739 1677T690 1667T650 1640T624 1601T614 1552Q614 1525 623 1502T650 1461T690 1434T739 1424T788 1434T829 1461T856 1501T866 1552ZM993 1552Q993 1499 973 1453T919 1372T838 1318T739 1298T641 1317T560 1371T505
1452T485 1552Q485 1604 505 1650T559 1731T640 1786T739 1806T837 1786T918 1732T973 1651T993 1552Z" />
<glyph unicode="&#xc6;" glyph-name="AE" horiz-adv-x="2048" d="M931 1192H870L853 1155L825 1094L796 1029L774 983L583 582H931V1192ZM931 0V360H481L309 0H4L704 1409H1927V1182H1226V827H1865V606H1226V227H1968V0H931Z" />
<glyph unicode="&#xc7;" glyph-name="Ccedilla" horiz-adv-x="1479" d="M795 212Q878 212 938 235T1043 297T1117 383T1166 480L1423 383Q1392 307 1342 234T1217 105T1039 15T795 -20Q612 -20 478 34T257 186T127 418T84 711Q84 876 126 1009T255 1235T472 1379T782
1430Q920 1430 1023 1401T1202 1320T1327 1196T1405 1038L1145 967Q1131 1012 1102 1053T1029 1127T924 1178T788 1198Q681 1198 604 1164T478 1065T405 912T381 711Q381 601 404 510T478 352T606 249T795 212ZM989 -235Q989 -274 974 -309T923 -369T829 -410T686
-425Q641 -425 585 -419V-301Q610 -306 631 -307T669 -308Q744 -308 775 -290T806 -239Q806 -204 778 -187T684 -170H659Q646 -170 632 -172L694 0H837L804 -82Q898 -87 943 -128T989 -235Z" />
<glyph unicode="&#xc8;" glyph-name="Egrave" horiz-adv-x="1366" d="M137 0V1409H1245V1181H432V827H1184V599H432V228H1286V0H137ZM736 1530L396 1772V1815H654L905 1561V1530H736Z" />
<glyph unicode="&#xc9;" glyph-name="Eacute" horiz-adv-x="1366" d="M137 0V1409H1245V1181H432V827H1184V599H432V228H1286V0H137ZM517 1530V1561L769 1815H1027V1772L687 1530H517Z" />
<glyph unicode="&#xca;" glyph-name="Ecircumflex" horiz-adv-x="1366" d="M137 0V1409H1245V1181H432V827H1184V599H432V228H1286V0H137ZM1081 1559V1530H922L719 1681H715L504 1530H344V1559L602 1835H831L1081 1559Z" />
<glyph unicode="&#xcb;" glyph-name="Edieresis" horiz-adv-x="1366" d="M137 0V1409H1245V1181H432V827H1184V599H432V228H1286V0H137ZM386 1530V1749H580V1530H386ZM840 1530V1749H1037V1530H840Z" />
<glyph unicode="&#xcc;" glyph-name="Igrave" horiz-adv-x="569" d="M137 0V1409H432V0H137ZM556 1530L216 1772V1815H474L725 1561V1530H556Z" />
<glyph unicode="&#xcd;" glyph-name="Iacute" horiz-adv-x="569" d="M137 0V1409H432V0H137ZM104 1530V1561L356 1815H614V1772L274 1530H104Z" />
<glyph unicode="&#xce;" glyph-name="Icircumflex" horiz-adv-x="569" d="M137 0V1409H432V0H137ZM908 1559V1530H749L546 1681H542L331 1530H171V1559L429 1835H658L908 1559Z" />
<glyph unicode="&#xcf;" glyph-name="Idieresis" horiz-adv-x="569" d="M137 0V1409H432V0H137ZM215 1530V1749H409V1530H215ZM669 1530V1749H866V1530H669Z" />
<glyph unicode="&#xd0;" glyph-name="Eth" horiz-adv-x="1479" d="M1096 715Q1096 838 1063 925T969 1069T826 1151T641 1178H432V813H788V594H432V231H682Q771 231 846 261T977 353T1064 504T1096 715ZM1393 715Q1393 539 1340 406T1195 182T978 46T707 0H137V594H8V813H137V1409H647Q811
1409 948 1368T1184 1242T1338 1026T1393 715Z" />
<glyph unicode="&#xd1;" glyph-name="Ntilde" horiz-adv-x="1479" d="M995 0L381 1085Q386 1041 390 997Q394 959 396 915T399 831V0H137V1409H474L1097 315Q1092 357 1088 403Q1084 442 1082 491T1079 590V1409H1341V0H995ZM906 1530Q862 1530 818 1549T731 1591T652
1634T584 1653Q558 1653 541 1645T514 1620T497 1582T486 1530H349Q352 1575 360 1626T391 1721T458 1794T574 1823Q619 1823 664 1804T751 1762L830 1719Q866 1700 895 1700Q920 1700 936 1708T964 1733T982 1772T994 1823H1129Q1127 1778 1119 1727T1088 1632T1022
1559T906 1530Z" />
<glyph unicode="&#xd2;" glyph-name="Ograve" horiz-adv-x="1593" d="M1206 711Q1206 822 1180 911T1101 1065T973 1163T795 1198Q692 1198 615 1164T485 1065T407 912T381 711Q381 601 407 510T486 352T615 249T793 212Q901 212 979 249T1107 353T1182 511T1206
711ZM1507 711Q1507 546 1458 411T1317 180T1093 32T793 -20Q616 -20 484 34T262 186T129 418T84 711Q84 876 130 1009T267 1235T490 1379T795 1430T1099 1379T1322 1234T1460 1008T1507 711ZM887 1530L547 1772V1815H805L1056 1561V1530H887Z" />
<glyph unicode="&#xd3;" glyph-name="Oacute" horiz-adv-x="1593" d="M1206 711Q1206 822 1180 911T1101 1065T973 1163T795 1198Q692 1198 615 1164T485 1065T407 912T381 711Q381 601 407 510T486 352T615 249T793 212Q901 212 979 249T1107 353T1182 511T1206
711ZM1507 711Q1507 546 1458 411T1317 180T1093 32T793 -20Q616 -20 484 34T262 186T129 418T84 711Q84 876 130 1009T267 1235T490 1379T795 1430T1099 1379T1322 1234T1460 1008T1507 711ZM625 1530V1561L877 1815H1135V1772L795 1530H625Z" />
<glyph unicode="&#xd4;" glyph-name="Ocircumflex" horiz-adv-x="1593" d="M1206 711Q1206 822 1180 911T1101 1065T973 1163T795 1198Q692 1198 615 1164T485 1065T407 912T381 711Q381 601 407 510T486 352T615 249T793 212Q901 212 979 249T1107 353T1182 511T1206
711ZM1507 711Q1507 546 1458 411T1317 180T1093 32T793 -20Q616 -20 484 34T262 186T129 418T84 711Q84 876 130 1009T267 1235T490 1379T795 1430T1099 1379T1322 1234T1460 1008T1507 711ZM1163 1559V1530H1004L801 1681H797L586 1530H426V1559L684 1835H913L1163
1559Z" />
<glyph unicode="&#xd5;" glyph-name="Otilde" horiz-adv-x="1593" d="M1206 711Q1206 822 1180 911T1101 1065T973 1163T795 1198Q692 1198 615 1164T485 1065T407 912T381 711Q381 601 407 510T486 352T615 249T793 212Q901 212 979 249T1107 353T1182 511T1206
711ZM1507 711Q1507 546 1458 411T1317 180T1093 32T793 -20Q616 -20 484 34T262 186T129 418T84 711Q84 876 130 1009T267 1235T490 1379T795 1430T1099 1379T1322 1234T1460 1008T1507 711ZM954 1530Q910 1530 866 1549T779 1591T700 1634T632 1653Q606 1653
589 1645T562 1620T545 1582T534 1530H397Q400 1575 408 1626T439 1721T506 1794T622 1823Q667 1823 712 1804T799 1762L878 1719Q914 1700 943 1700Q968 1700 984 1708T1012 1733T1030 1772T1042 1823H1177Q1175 1778 1167 1727T1136 1632T1070 1559T954 1530Z"
/>
<glyph unicode="&#xd6;" glyph-name="Odieresis" horiz-adv-x="1593" d="M1206 711Q1206 822 1180 911T1101 1065T973 1163T795 1198Q692 1198 615 1164T485 1065T407 912T381 711Q381 601 407 510T486 352T615 249T793 212Q901 212 979 249T1107 353T1182 511T1206
711ZM1507 711Q1507 546 1458 411T1317 180T1093 32T793 -20Q616 -20 484 34T262 186T129 418T84 711Q84 876 130 1009T267 1235T490 1379T795 1430T1099 1379T1322 1234T1460 1008T1507 711ZM469 1530V1749H663V1530H469ZM923 1530V1749H1120V1530H923Z" />
<glyph unicode="&#xd7;" glyph-name="multiply" horiz-adv-x="1196" d="M86 326L442 684L90 1036L248 1192L600 842L952 1194L1110 1036L758 682L1110 332L952 172L600 526L244 168L86 326Z" />
<glyph unicode="&#xd8;" glyph-name="Oslash" horiz-adv-x="1593" d="M381 711Q381 612 401 528T465 379L1004 1147Q959 1172 908 1185T795 1198Q692 1198 615 1164T485 1065T407 912T381 711ZM1207 711Q1207 811 1186 893T1121 1038L580 266Q623 240 676 226T793
211Q901 211 979 248T1108 352T1183 511T1207 711ZM147 -73L301 145Q192 244 138 388T84 711Q84 876 130 1009T267 1235T490 1379T795 1430Q898 1430 986 1411T1149 1356L1231 1473H1424L1282 1270Q1394 1176 1451 1034T1508 711Q1508 546 1459 411T1318 180T1093
32T793 -20Q581 -20 433 57L342 -72L147 -73Z" />
<glyph unicode="&#xd9;" glyph-name="Ugrave" horiz-adv-x="1479" d="M723 -20Q591 -20 481 11T292 109T168 280T123 528V1409H418V551Q418 462 440 398T503 292T602 231T731 211Q803 211 863 231T967 295T1035 404T1059 561V1409H1354V543Q1354 398 1307 292T1176
117T977 14T723 -20ZM756 1530L416 1772V1815H674L925 1561V1530H756Z" />
<glyph unicode="&#xda;" glyph-name="Uacute" horiz-adv-x="1479" d="M723 -20Q591 -20 481 11T292 109T168 280T123 528V1409H418V551Q418 462 440 398T503 292T602 231T731 211Q803 211 863 231T967 295T1035 404T1059 561V1409H1354V543Q1354 398 1307 292T1176
117T977 14T723 -20ZM592 1530V1561L844 1815H1102V1772L762 1530H592Z" />
<glyph unicode="&#xdb;" glyph-name="Ucircumflex" horiz-adv-x="1479" d="M723 -20Q591 -20 481 11T292 109T168 280T123 528V1409H418V551Q418 462 440 398T503 292T602 231T731 211Q803 211 863 231T967 295T1035 404T1059 561V1409H1354V543Q1354 398 1307
292T1176 117T977 14T723 -20ZM1105 1559V1530H946L743 1681H739L528 1530H368V1559L626 1835H855L1105 1559Z" />
<glyph unicode="&#xdc;" glyph-name="Udieresis" horiz-adv-x="1479" d="M723 -20Q591 -20 481 11T292 109T168 280T123 528V1409H418V551Q418 462 440 398T503 292T602 231T731 211Q803 211 863 231T967 295T1035 404T1059 561V1409H1354V543Q1354 398 1307 292T1176
117T977 14T723 -20ZM413 1530V1749H607V1530H413ZM867 1530V1749H1064V1530H867Z" />
<glyph unicode="&#xdd;" glyph-name="Yacute" horiz-adv-x="1366" d="M831 578V0H537V578L35 1409H344L682 813L1024 1409H1333L831 578ZM524 1530V1561L776 1815H1034V1772L694 1530H524Z" />
<glyph unicode="&#xde;" glyph-name="Thorn" horiz-adv-x="1366" d="M999 733Q999 843 934 905T737 967H432V492H745Q811 492 858 510T937 560T984 637T999 733ZM1296 737Q1296 646 1266 564T1172 419T1012 320T782 283H432V0H137V1409H432V1176H770Q905 1176
1004 1145T1168 1056T1264 917T1296 737Z" />
<glyph unicode="&#xdf;" glyph-name="germandbls" horiz-adv-x="1251" d="M1193 312Q1193 239 1171 178T1102 73T981 5T806 -20Q735 -20 671 -10T544 23V229Q568 218 598 208T659 189T720 175T776 170Q857 170 894 204T931 296Q931 342 906 376T844 439T762 497T681
562T618 646T593 760Q593 806 609 840T651 904T704 958T758 1009T799 1067T816 1138Q816 1203 770 1242T635 1281Q532 1281 478 1218T424 1013V0H143V1007Q143 1118 173 1206T264 1356T419 1451T638 1484Q752 1484 836 1457T974 1385T1055 1278T1082 1149Q1082
1095 1066 1053T1024 976T970 915L915 866Q890 843 874 823T857 782Q857 754 882 730T944 678L1025 618Q1069 585 1106 543T1168 444T1193 312Z" />
<glyph unicode="&#xe0;" glyph-name="agrave" horiz-adv-x="1139" d="M968 501L824 499Q779 497 739 492T668 469T619 418T601 328Q601 251 636 214T731 176Q785 176 829 199T903 259T951 346T968 446V501ZM641 -20Q563 -20 502 1T397 64T331 167T308 306Q308
402 341 467T433 573T569 632Q645 650 735 652L968 656V711Q968 770 958 809T927 874T878 909T810 920Q775 920 748 913T700 889T668 842T650 767L357 781Q369 852 401 910T489 1012T628 1078T822 1102Q923 1102 1002 1077T1136 1003T1220 881T1249 714V320Q1249
282 1252 252T1265 202T1292 171T1338 160Q1370 160 1400 166V14L1355 3Q1335 -2 1315 -5T1273 -10T1220 -12Q1114 -12 1064 40T1003 193H997Q941 92 854 36T641 -20ZM580 1183L240 1459V1502H498L749 1214V1183H580Z" />
<glyph unicode="&#xe1;" glyph-name="aacute" horiz-adv-x="1139" d="M968 501L824 499Q779 497 739 492T668 469T619 418T601 328Q601 251 636 214T731 176Q785 176 829 199T903 259T951 346T968 446V501ZM641 -20Q563 -20 502 1T397 64T331 167T308 306Q308
402 341 467T433 573T569 632Q645 650 735 652L968 656V711Q968 770 958 809T927 874T878 909T810 920Q775 920 748 913T700 889T668 842T650 767L357 781Q369 852 401 910T489 1012T628 1078T822 1102Q923 1102 1002 1077T1136 1003T1220 881T1249 714V320Q1249
282 1252 252T1265 202T1292 171T1338 160Q1370 160 1400 166V14L1355 3Q1335 -2 1315 -5T1273 -10T1220 -12Q1114 -12 1064 40T1003 193H997Q941 92 854 36T641 -20ZM375 1183V1214L627 1502H885V1459L545 1183H375Z" />
<glyph unicode="&#xe2;" glyph-name="acircumflex" horiz-adv-x="1139" d="M968 501L824 499Q779 497 739 492T668 469T619 418T601 328Q601 251 636 214T731 176Q785 176 829 199T903 259T951 346T968 446V501ZM641 -20Q563 -20 502 1T397 64T331 167T308 306Q308
402 341 467T433 573T569 632Q645 650 735 652L968 656V711Q968 770 958 809T927 874T878 909T810 920Q775 920 748 913T700 889T668 842T650 767L357 781Q369 852 401 910T489 1012T628 1078T822 1102Q923 1102 1002 1077T1136 1003T1220 881T1249 714V320Q1249
282 1252 252T1265 202T1292 171T1338 160Q1370 160 1400 166V14L1355 3Q1335 -2 1315 -5T1273 -10T1220 -12Q1114 -12 1064 40T1003 193H997Q941 92 854 36T641 -20ZM936 1211V1183H777L574 1375H570L359 1183H199V1211L457 1529H686L936 1211Z" />
<glyph unicode="&#xe3;" glyph-name="atilde" horiz-adv-x="1139" d="M968 501L824 499Q779 497 739 492T668 469T619 418T601 328Q601 251 636 214T731 176Q785 176 829 199T903 259T951 346T968 446V501ZM641 -20Q563 -20 502 1T397 64T331 167T308 306Q308
402 341 467T433 573T569 632Q645 650 735 652L968 656V711Q968 770 958 809T927 874T878 909T810 920Q775 920 748 913T700 889T668 842T650 767L357 781Q369 852 401 910T489 1012T628 1078T822 1102Q923 1102 1002 1077T1136 1003T1220 881T1249 714V320Q1249
282 1252 252T1265 202T1292 171T1338 160Q1370 160 1400 166V14L1355 3Q1335 -2 1315 -5T1273 -10T1220 -12Q1114 -12 1064 40T1003 193H997Q941 92 854 36T641 -20ZM719 1183Q675 1183 631 1202T544 1244T465 1287T397 1306Q371 1306 354 1298T327 1273T310 1235T299
1183H162Q165 1228 173 1279T204 1374T271 1447T387 1476Q432 1476 477 1457T564 1414L642 1372Q679 1353 708 1353Q733 1353 749 1361T777 1386T795 1425T807 1476H942Q940 1431 932 1380T901 1285T835 1212T719 1183Z" />
<glyph unicode="&#xe4;" glyph-name="adieresis" horiz-adv-x="1139" d="M968 501L824 499Q779 497 739 492T668 469T619 418T601 328Q601 251 636 214T731 176Q785 176 829 199T903 259T951 346T968 446V501ZM641 -20Q563 -20 502 1T397 64T331 167T308 306Q308
402 341 467T433 573T569 632Q645 650 735 652L968 656V711Q968 770 958 809T927 874T878 909T810 920Q775 920 748 913T700 889T668 842T650 767L357 781Q369 852 401 910T489 1012T628 1078T822 1102Q923 1102 1002 1077T1136 1003T1220 881T1249 714V320Q1249
282 1252 252T1265 202T1292 171T1338 160Q1370 160 1400 166V14L1355 3Q1335 -2 1315 -5T1273 -10T1220 -12Q1114 -12 1064 40T1003 193H997Q941 92 854 36T641 -20ZM231 1199V1418H445V1199H231ZM665 1199V1418H882V1199H665Z" />
<glyph unicode="&#xe5;" glyph-name="aring" horiz-adv-x="1139" d="M968 501L824 499Q779 497 739 492T668 469T619 418T601 328Q601 251 636 214T731 176Q785 176 829 199T903 259T951 346T968 446V501ZM641 -20Q563 -20 502 1T397 64T331 167T308 306Q308 402
341 467T433 573T569 632Q645 650 735 652L968 656V711Q968 770 958 809T927 874T878 909T810 920Q775 920 748 913T700 889T668 842T650 767L357 781Q369 852 401 910T489 1012T628 1078T822 1102Q923 1102 1002 1077T1136 1003T1220 881T1249 714V320Q1249 282
1252 252T1265 202T1292 171T1338 160Q1370 160 1400 166V14L1355 3Q1335 -2 1315 -5T1273 -10T1220 -12Q1114 -12 1064 40T1003 193H997Q941 92 854 36T641 -20ZM686 1431Q686 1457 676 1479T649 1519T609 1546T559 1556T510 1546T470 1519T444 1480T434 1431Q434
1404 443 1381T470 1340T510 1313T559 1303T608 1313T649 1340T676 1380T686 1431ZM813 1431Q813 1378 793 1332T739 1251T658 1197T559 1177T461 1196T380 1250T325 1331T305 1431Q305 1483 325 1529T379 1610T460 1665T559 1685T657 1665T738 1611T793 1530T813
1431Z" />
<glyph unicode="&#xe6;" glyph-name="ae" horiz-adv-x="1821" d="M1253 925Q1210 925 1173 911T1108 865T1063 783T1044 663H1464Q1456 794 1401 859T1253 925ZM496 176Q553 176 599 200T678 264T728 354T746 456V501L594 499Q546 497 504 492T429 469T378 418T359
328Q359 251 396 214T496 176ZM1253 -20Q1102 -20 992 36T819 209Q790 159 752 117T663 45T549 -3T406 -20T264 1T157 64T90 167T66 306Q66 402 100 467T195 572T335 631T506 652L746 656V711Q746 770 735 809T703 874T650 909T578 920Q541 920 512 913T461 889T427
842T408 767L115 781Q127 852 159 910T249 1012T389 1078T586 1102Q803 1102 919 995Q988 1052 1074 1077T1257 1102Q1385 1102 1475 1058T1624 933T1709 742T1736 495V476H1042Q1042 411 1055 355T1095 257T1165 192T1267 168Q1341 168 1388 199T1455 297L1720
274Q1702 228 1670 176T1583 81T1449 9T1253 -20Z" />
<glyph unicode="&#xe7;" glyph-name="ccedilla" horiz-adv-x="1139" d="M594 -20Q465 -20 369 20T208 133T112 308T80 535Q80 670 115 775T216 953T378 1064T598 1102Q703 1102 784 1074T925 998T1020 883T1071 741L788 727Q776 810 728 859T592 909Q479 909 427
816T375 546Q375 172 596 172Q676 172 730 222T797 373L1079 360Q1069 285 1034 217T938 96T791 12T594 -20ZM791 -235Q791 -274 776 -309T725 -369T631 -410T488 -425Q443 -425 387 -419V-301Q412 -306 433 -307T471 -308Q546 -308 577 -290T608 -239Q608 -204
580 -187T486 -170H461Q448 -170 434 -172L496 0H639L606 -82Q700 -87 745 -128T791 -235Z" />
<glyph unicode="&#xe8;" glyph-name="egrave" horiz-adv-x="1139" d="M586 925Q543 925 506 911T441 865T396 783T377 663H797Q789 794 734 859T586 925ZM586 -20Q469 -20 376 14T216 119T115 296T80 546Q80 701 121 807T233 978T396 1073T590 1102Q718 1102 808
1058T957 933T1042 742T1069 495V487H375Q375 419 387 361T426 260T496 193T600 168Q674 168 721 199T788 297L1053 274Q1035 228 1003 176T916 81T782 9T586 -20ZM627 1183L287 1459V1502H545L796 1214V1183H627Z" />
<glyph unicode="&#xe9;" glyph-name="eacute" horiz-adv-x="1139" d="M586 925Q543 925 506 911T441 865T396 783T377 663H797Q789 794 734 859T586 925ZM586 -20Q469 -20 376 14T216 119T115 296T80 546Q80 701 121 807T233 978T396 1073T590 1102Q718 1102 808
1058T957 933T1042 742T1069 495V487H375Q375 419 387 361T426 260T496 193T600 168Q674 168 721 199T788 297L1053 274Q1035 228 1003 176T916 81T782 9T586 -20ZM418 1183V1214L670 1502H928V1459L588 1183H418Z" />
<glyph unicode="&#xea;" glyph-name="ecircumflex" horiz-adv-x="1139" d="M586 925Q543 925 506 911T441 865T396 783T377 663H797Q789 794 734 859T586 925ZM586 -20Q469 -20 376 14T216 119T115 296T80 546Q80 701 121 807T233 978T396 1073T590 1102Q718 1102
808 1058T957 933T1042 742T1069 495V487H375Q375 419 387 361T426 260T496 193T600 168Q674 168 721 199T788 297L1053 274Q1035 228 1003 176T916 81T782 9T586 -20ZM960 1211V1183H801L598 1375H594L383 1183H223V1211L481 1529H710L960 1211Z" />
<glyph unicode="&#xeb;" glyph-name="edieresis" horiz-adv-x="1139" d="M586 925Q543 925 506 911T441 865T396 783T377 663H797Q789 794 734 859T586 925ZM586 -20Q469 -20 376 14T216 119T115 296T80 546Q80 701 121 807T233 978T396 1073T590 1102Q718 1102
808 1058T957 933T1042 742T1069 495V487H375Q375 419 387 361T426 260T496 193T600 168Q674 168 721 199T788 297L1053 274Q1035 228 1003 176T916 81T782 9T586 -20ZM260 1199V1418H474V1199H260ZM694 1199V1418H911V1199H694Z" />
<glyph unicode="&#xec;" glyph-name="igrave" horiz-adv-x="569" d="M145 0V1082H426V0H145ZM276 1183L-64 1459V1502H194L445 1214V1183H276Z" />
<glyph unicode="&#xed;" glyph-name="iacute" horiz-adv-x="569" d="M145 0V1082H426V0H145ZM114 1183V1214L366 1502H624V1459L284 1183H114Z" />
<glyph unicode="&#xee;" glyph-name="icircumflex" horiz-adv-x="569" d="M145 0V1082H426V0H145ZM910 1211V1183H751L548 1375H544L333 1183H173V1211L431 1529H660L910 1211Z" />
<glyph unicode="&#xef;" glyph-name="idieresis" horiz-adv-x="569" d="M145 0V1082H426V0H145ZM216 1199V1418H430V1199H216ZM650 1199V1418H867V1199H650Z" />
<glyph unicode="&#xf0;" glyph-name="eth" horiz-adv-x="1251" d="M877 477Q877 637 814 708T631 780Q507 780 441 707T375 477Q375 397 392 340T442 245T519 190T618 172Q743 172 810 244T877 477ZM856 1266Q925 1196 983 1116T1083 945T1148 753T1171 541V537Q1171
415 1137 313T1035 138T863 23T623 -18Q491 -18 390 18T220 120T116 277T80 479Q80 586 113 676T215 833T386 936T627 973Q673 973 718 965T790 941Q756 1013 721 1068T640 1176L348 1054V1238L514 1308Q457 1354 390 1398L256 1484H549Q589 1464 629 1441T709
1390L977 1503V1315L856 1266Z" />
<glyph unicode="&#xf1;" glyph-name="ntilde" horiz-adv-x="1251" d="M844 0V607Q844 670 834 722T801 812T741 871T651 892Q600 892 559 870T487 806T441 707T424 580V0H143V840Q143 875 143 912T141 982T138 1042T135 1082H403Q405 1070 407 1044T411 985T414
921T416 867H420Q477 991 563 1047T768 1103Q866 1103 933 1071T1043 983T1105 851T1124 687V0H844ZM809 1183Q765 1183 721 1202T634 1244T555 1287T487 1306Q461 1306 444 1298T417 1273T400 1235T389 1183H252Q255 1228 263 1279T294 1374T361 1447T477 1476Q522
1476 567 1457T654 1414L732 1372Q769 1353 798 1353Q823 1353 839 1361T867 1386T885 1425T897 1476H1032Q1030 1431 1022 1380T991 1285T925 1212T809 1183Z" />
<glyph unicode="&#xf2;" glyph-name="ograve" horiz-adv-x="1251" d="M877 542Q877 735 814 822T631 909Q507 909 441 821T375 542Q375 445 392 375T442 260T519 194T618 172Q680 172 728 193T810 260T860 375T877 542ZM1171 542Q1171 418 1137 315T1033 138T861
22T621 -20Q489 -20 388 21T219 136T115 313T80 542Q80 663 113 765T215 943T386 1060T627 1102Q773 1102 876 1060T1044 944T1140 767T1171 542ZM668 1183L328 1459V1502H586L837 1214V1183H668Z" />
<glyph unicode="&#xf3;" glyph-name="oacute" horiz-adv-x="1251" d="M877 542Q877 735 814 822T631 909Q507 909 441 821T375 542Q375 445 392 375T442 260T519 194T618 172Q680 172 728 193T810 260T860 375T877 542ZM1171 542Q1171 418 1137 315T1033 138T861
22T621 -20Q489 -20 388 21T219 136T115 313T80 542Q80 663 113 765T215 943T386 1060T627 1102Q773 1102 876 1060T1044 944T1140 767T1171 542ZM465 1183V1214L717 1502H975V1459L635 1183H465Z" />
<glyph unicode="&#xf4;" glyph-name="ocircumflex" horiz-adv-x="1251" d="M877 542Q877 735 814 822T631 909Q507 909 441 821T375 542Q375 445 392 375T442 260T519 194T618 172Q680 172 728 193T810 260T860 375T877 542ZM1171 542Q1171 418 1137 315T1033
138T861 22T621 -20Q489 -20 388 21T219 136T115 313T80 542Q80 663 113 765T215 943T386 1060T627 1102Q773 1102 876 1060T1044 944T1140 767T1171 542ZM993 1211V1183H834L631 1375H627L416 1183H256V1211L514 1529H743L993 1211Z" />
<glyph unicode="&#xf5;" glyph-name="otilde" horiz-adv-x="1251" d="M877 542Q877 735 814 822T631 909Q507 909 441 821T375 542Q375 445 392 375T442 260T519 194T618 172Q680 172 728 193T810 260T860 375T877 542ZM1171 542Q1171 418 1137 315T1033 138T861
22T621 -20Q489 -20 388 21T219 136T115 313T80 542Q80 663 113 765T215 943T386 1060T627 1102Q773 1102 876 1060T1044 944T1140 767T1171 542ZM791 1183Q747 1183 703 1202T616 1244T537 1287T469 1306Q443 1306 426 1298T399 1273T382 1235T371 1183H234Q237
1228 245 1279T276 1374T343 1447T459 1476Q504 1476 549 1457T636 1414L714 1372Q751 1353 780 1353Q805 1353 821 1361T849 1386T867 1425T879 1476H1014Q1012 1431 1004 1380T973 1285T907 1212T791 1183Z" />
<glyph unicode="&#xf6;" glyph-name="odieresis" horiz-adv-x="1251" d="M877 542Q877 735 814 822T631 909Q507 909 441 821T375 542Q375 445 392 375T442 260T519 194T618 172Q680 172 728 193T810 260T860 375T877 542ZM1171 542Q1171 418 1137 315T1033 138T861
22T621 -20Q489 -20 388 21T219 136T115 313T80 542Q80 663 113 765T215 943T386 1060T627 1102Q773 1102 876 1060T1044 944T1140 767T1171 542ZM300 1199V1418H514V1199H300ZM734 1199V1418H951V1199H734Z" />
<glyph unicode="&#xf7;" glyph-name="divide" horiz-adv-x="1124" d="M442 170V403H680V170H442ZM49 569V793H1076V569H49ZM442 961V1194H680V961H442Z" />
<glyph unicode="&#xf8;" glyph-name="oslash" horiz-adv-x="1251" d="M877 542Q877 589 873 629T861 704L454 244Q486 207 527 190T618 172Q680 172 728 193T810 260T860 375T877 542ZM375 542Q375 450 392 379L799 840Q739 909 631 909Q507 909 441 821T375 542ZM1171
542Q1171 418 1137 315T1033 138T861 22T621 -20Q522 -20 442 3T297 69L184 -55H1L198 160Q139 233 110 329T80 542Q80 663 113 765T215 943T386 1060T627 1102Q731 1102 812 1081T957 1019L1058 1133H1242L1058 927Q1117 853 1144 755T1171 542Z" />
<glyph unicode="&#xf9;" glyph-name="ugrave" horiz-adv-x="1251" d="M408 1082V475Q408 412 418 360T451 270T510 211T600 190Q651 190 692 212T764 276T810 375T827 502V1082H1108V242Q1108 208 1108 171T1110 100T1113 40T1116 0H848Q847 12 845 38T840 97L838
161Q836 193 836 215H831Q775 92 689 36T483 -20Q386 -20 318 12T208 99T146 231T127 395V1082H408ZM623 1183L283 1459V1502H541L792 1214V1183H623Z" />
<glyph unicode="&#xfa;" glyph-name="uacute" horiz-adv-x="1251" d="M408 1082V475Q408 412 418 360T451 270T510 211T600 190Q651 190 692 212T764 276T810 375T827 502V1082H1108V242Q1108 208 1108 171T1110 100T1113 40T1116 0H848Q847 12 845 38T840 97L838
161Q836 193 836 215H831Q775 92 689 36T483 -20Q386 -20 318 12T208 99T146 231T127 395V1082H408ZM463 1183V1214L715 1502H973V1459L633 1183H463Z" />
<glyph unicode="&#xfb;" glyph-name="ucircumflex" horiz-adv-x="1251" d="M408 1082V475Q408 412 418 360T451 270T510 211T600 190Q651 190 692 212T764 276T810 375T827 502V1082H1108V242Q1108 208 1108 171T1110 100T1113 40T1116 0H848Q847 12 845 38T840
97L838 161Q836 193 836 215H831Q775 92 689 36T483 -20Q386 -20 318 12T208 99T146 231T127 395V1082H408ZM989 1211V1183H830L627 1375H623L412 1183H252V1211L510 1529H739L989 1211Z" />
<glyph unicode="&#xfc;" glyph-name="udieresis" horiz-adv-x="1251" d="M408 1082V475Q408 412 418 360T451 270T510 211T600 190Q651 190 692 212T764 276T810 375T827 502V1082H1108V242Q1108 208 1108 171T1110 100T1113 40T1116 0H848Q847 12 845 38T840
97L838 161Q836 193 836 215H831Q775 92 689 36T483 -20Q386 -20 318 12T208 99T146 231T127 395V1082H408ZM298 1199V1418H512V1199H298ZM732 1199V1418H949V1199H732Z" />
<glyph unicode="&#xfd;" glyph-name="yacute" horiz-adv-x="1139" d="M700 -57Q661 -152 621 -221T533 -335T424 -403T283 -425Q239 -425 193 -422T106 -412V-212Q126 -215 154 -217T203 -220Q244 -220 276 -211T334 -181T382 -125T426 -37L444 11L16 1082H313L483
575Q487 564 496 538L514 478L536 408L557 338Q567 304 574 278L584 241L594 278L608 336L627 404L646 473L662 532Q670 559 674 571L834 1082H1128L700 -57ZM413 1183V1214L665 1502H923V1459L583 1183H413Z" />
<glyph unicode="&#xfe;" glyph-name="thorn" horiz-adv-x="1251" d="M874 520Q874 692 819 775T651 858Q609 858 568 842T494 787T441 680T420 512Q420 413 440 348T492 243T566 188T649 172Q757 172 815 254T874 520ZM143 1484H424V1022Q424 992 424 962Q423
939 422 908L420 854H424Q475 961 564 1007T770 1053Q873 1053 948 1013T1071 902T1143 734T1167 520Q1167 403 1143 304T1067 133T938 21T752 -20Q704 -20 657 -10T566 22T487 81T424 172H418Q419 167 420 147T422 101T423 45T424 -10V-425H143V1484Z" />
<glyph unicode="&#xff;" glyph-name="ydieresis" horiz-adv-x="1139" d="M700 -57Q661 -152 621 -221T533 -335T424 -403T283 -425Q239 -425 193 -422T106 -412V-212Q126 -215 154 -217T203 -220Q244 -220 276 -211T334 -181T382 -125T426 -37L444 11L16 1082H313L483
575Q487 564 496 538L514 478L536 408L557 338Q567 304 574 278L584 241L594 278L608 336L627 404L646 473L662 532Q670 559 674 571L834 1082H1128L700 -57ZM257 1199V1418H471V1199H257ZM691 1199V1418H908V1199H691Z" />
<glyph unicode="&#x100;" glyph-name="Amacron" horiz-adv-x="1479" d="M803 987L780 1058Q768 1093 760 1122L746 1171Q740 1190 739 1192Q738 1189 733 1170T720 1122T700 1058L676 987L537 582H942L803 987ZM1133 0L1008 360H471L346 0H51L565 1409H913L1425
0H1133ZM432 1705H1044V1537H432V1705Z" />
<glyph unicode="&#x101;" glyph-name="amacron" horiz-adv-x="1139" d="M720 501L576 499Q531 497 491 492T420 469T371 418T353 328Q353 251 388 214T483 176Q537 176 581 199T655 259T703 346T720 446V501ZM393 -20Q315 -20 254 1T149 64T83 167T60 306Q60 402
93 467T185 573T321 632Q397 650 487 652L720 656V711Q720 770 710 809T679 874T630 909T562 920Q527 920 500 913T452 889T420 842T402 767L109 781Q121 852 153 910T241 1012T380 1078T574 1102Q675 1102 754 1077T888 1003T972 881T1001 714V320Q1001 282 1004
252T1017 202T1044 171T1090 160Q1122 160 1152 166V14L1107 3Q1087 -2 1067 -5T1025 -10T972 -12Q866 -12 816 40T755 193H749Q693 92 606 36T393 -20ZM279 1371H891V1203H279V1371Z" />
<glyph unicode="&#x102;" glyph-name="Abreve" horiz-adv-x="1479" d="M803 987L780 1058Q768 1093 760 1122L746 1171Q740 1190 739 1192Q738 1189 733 1170T720 1122T700 1058L676 987L537 582H942L803 987ZM1133 0L1008 360H471L346 0H51L565 1409H913L1425
0H1133ZM737 1520Q657 1520 594 1544T487 1607T416 1699T385 1808H548Q556 1776 574 1751T617 1709T673 1682T739 1672Q775 1672 806 1681T863 1708T905 1751T929 1808H1093Q1085 1751 1060 1699T991 1608T884 1544T737 1520Z" />
<glyph unicode="&#x103;" glyph-name="abreve" horiz-adv-x="1139" d="M720 501L576 499Q531 497 491 492T420 469T371 418T353 328Q353 251 388 214T483 176Q537 176 581 199T655 259T703 346T720 446V501ZM393 -20Q315 -20 254 1T149 64T83 167T60 306Q60 402
93 467T185 573T321 632Q397 650 487 652L720 656V711Q720 770 710 809T679 874T630 909T562 920Q527 920 500 913T452 889T420 842T402 767L109 781Q121 852 153 910T241 1012T380 1078T574 1102Q675 1102 754 1077T888 1003T972 881T1001 714V320Q1001 282 1004
252T1017 202T1044 171T1090 160Q1122 160 1152 166V14L1107 3Q1087 -2 1067 -5T1025 -10T972 -12Q866 -12 816 40T755 193H749Q693 92 606 36T393 -20ZM578 1183Q498 1183 435 1208T328 1278T257 1381T226 1506H389Q397 1467 415 1436T458 1384T514 1352T580 1340Q616
1340 647 1351T704 1384T746 1436T770 1506H934Q926 1440 901 1382T832 1279T725 1209T578 1183Z" />
<glyph unicode="&#x104;" glyph-name="Aogonek" horiz-adv-x="1479" d="M803 987L780 1058Q768 1093 760 1122L746 1171Q740 1190 739 1192Q738 1189 733 1170T720 1122T700 1058L676 987L537 582H942L803 987ZM1133 0L1008 360H471L346 0H51L565 1409H913L1425
0H1133ZM1262 -414Q1211 -414 1168 -402T1093 -364T1043 -301T1025 -214Q1025 -166 1041 -126T1081 -54T1132 -2T1183 32H1336Q1273 -10 1240 -67T1207 -178Q1207 -220 1231 -245T1301 -271Q1332 -271 1358 -264T1413 -244V-381Q1350 -414 1262 -414Z" />
<glyph unicode="&#x105;" glyph-name="aogonek" horiz-adv-x="1139" d="M720 501L576 499Q531 497 491 492T420 469T371 418T353 328Q353 251 388 214T483 176Q537 176 581 199T655 259T703 346T720 446V501ZM393 -20Q315 -20 254 1T149 64T83 167T60 306Q60 402
93 467T185 573T321 632Q397 650 487 652L720 656V711Q720 770 710 809T679 874T630 909T562 920Q527 920 500 913T452 889T420 842T402 767L109 781Q121 852 153 910T241 1012T380 1078T574 1102Q675 1102 754 1077T888 1003T972 881T1001 714V320Q1001 282 1004
252T1017 202T1044 171T1090 160Q1122 160 1152 166V14L1107 3Q1087 -2 1067 -5T1025 -10T972 -12Q866 -12 816 40T755 193H749Q693 92 606 36T393 -20ZM922 -425Q871 -425 828 -413T753 -375T703 -312T685 -225Q685 -177 701 -137T741 -65T792 -13T843 21H996Q933
-21 900 -78T867 -189Q867 -231 891 -256T961 -282Q992 -282 1018 -275T1073 -255V-392Q1010 -425 922 -425Z" />
<glyph unicode="&#x106;" glyph-name="Cacute" horiz-adv-x="1479" d="M795 212Q878 212 938 235T1043 297T1117 383T1166 480L1423 383Q1392 307 1342 234T1217 105T1039 15T795 -20Q612 -20 478 34T257 186T127 418T84 711Q84 876 126 1009T255 1235T472 1379T782
1430Q920 1430 1023 1401T1202 1320T1327 1196T1405 1038L1145 967Q1131 1012 1102 1053T1029 1127T924 1178T788 1198Q681 1198 604 1164T478 1065T405 912T381 711Q381 601 404 510T478 352T606 249T795 212ZM652 1530V1561L904 1815H1162V1772L822 1530H652Z"
/>
<glyph unicode="&#x107;" glyph-name="cacute" horiz-adv-x="1139" d="M594 -20Q465 -20 369 20T208 133T112 308T80 535Q80 670 115 775T216 953T378 1064T598 1102Q703 1102 784 1074T925 998T1020 883T1071 741L788 727Q776 810 728 859T592 909Q479 909 427
816T375 546Q375 172 596 172Q676 172 730 222T797 373L1079 360Q1069 285 1034 217T938 96T791 12T594 -20ZM446 1183V1214L698 1502H956V1459L616 1183H446Z" />
<glyph unicode="&#x108;" glyph-name="Ccircumflex" horiz-adv-x="1479" d="M795 212Q878 212 938 235T1043 297T1117 383T1166 480L1423 383Q1392 307 1342 234T1217 105T1039 15T795 -20Q612 -20 478 34T257 186T127 418T84 711Q84 876 126 1009T255 1235T472
1379T782 1430Q920 1430 1023 1401T1202 1320T1327 1196T1405 1038L1145 967Q1131 1012 1102 1053T1029 1127T924 1178T788 1198Q681 1198 604 1164T478 1065T405 912T381 711Q381 601 404 510T478 352T606 249T795 212ZM1170 1559V1530H1011L808 1681H804L593
1530H433V1559L691 1835H920L1170 1559Z" />
<glyph unicode="&#x109;" glyph-name="ccircumflex" horiz-adv-x="1139" d="M594 -20Q465 -20 369 20T208 133T112 308T80 535Q80 670 115 775T216 953T378 1064T598 1102Q703 1102 784 1074T925 998T1020 883T1071 741L788 727Q776 810 728 859T592 909Q479 909
427 816T375 546Q375 172 596 172Q676 172 730 222T797 373L1079 360Q1069 285 1034 217T938 96T791 12T594 -20ZM967 1211V1183H808L605 1375H601L390 1183H230V1211L488 1529H717L967 1211Z" />
<glyph unicode="&#x10a;" glyph-name="Cdotaccent" horiz-adv-x="1479" d="M795 212Q878 212 938 235T1043 297T1117 383T1166 480L1423 383Q1392 307 1342 234T1217 105T1039 15T795 -20Q612 -20 478 34T257 186T127 418T84 711Q84 876 126 1009T255 1235T472
1379T782 1430Q920 1430 1023 1401T1202 1320T1327 1196T1405 1038L1145 967Q1131 1012 1102 1053T1029 1127T924 1178T788 1198Q681 1198 604 1164T478 1065T405 912T381 711Q381 601 404 510T478 352T606 249T795 212ZM646 1547V1754H927V1547H646Z" />
<glyph unicode="&#x10b;" glyph-name="cdotaccent" horiz-adv-x="1139" d="M594 -20Q465 -20 369 20T208 133T112 308T80 535Q80 670 115 775T216 953T378 1064T598 1102Q703 1102 784 1074T925 998T1020 883T1071 741L788 727Q776 810 728 859T592 909Q479 909
427 816T375 546Q375 172 596 172Q676 172 730 222T797 373L1079 360Q1069 285 1034 217T938 96T791 12T594 -20ZM460 1277V1484H741V1277H460Z" />
<glyph unicode="&#x10c;" glyph-name="Ccaron" horiz-adv-x="1479" d="M795 212Q878 212 938 235T1043 297T1117 383T1166 480L1423 383Q1392 307 1342 234T1217 105T1039 15T795 -20Q612 -20 478 34T257 186T127 418T84 711Q84 876 126 1009T255 1235T472 1379T782
1430Q920 1430 1023 1401T1202 1320T1327 1196T1405 1038L1145 967Q1131 1012 1102 1053T1029 1127T924 1178T788 1198Q681 1198 604 1164T478 1065T405 912T381 711Q381 601 404 510T478 352T606 249T795 212ZM900 1530H671L413 1806V1835H573L784 1683H788L991
1835H1150V1806L900 1530Z" />
<glyph unicode="&#x10d;" glyph-name="ccaron" horiz-adv-x="1139" d="M594 -20Q465 -20 369 20T208 133T112 308T80 535Q80 670 115 775T216 953T378 1064T598 1102Q703 1102 784 1074T925 998T1020 883T1071 741L788 727Q776 810 728 859T592 909Q479 909 427
816T375 546Q375 172 596 172Q676 172 730 222T797 373L1079 360Q1069 285 1034 217T938 96T791 12T594 -20ZM701 1183H472L214 1500V1529H374L585 1336H589L792 1529H951V1500L701 1183Z" />
<glyph unicode="&#x10e;" glyph-name="Dcaron" horiz-adv-x="1479" d="M1096 715Q1096 838 1063 926T969 1070T826 1154T641 1181H432V228H682Q771 228 846 259T977 351T1064 504T1096 715ZM1393 715Q1393 539 1340 406T1195 182T978 46T707 0H137V1409H647Q811
1409 948 1368T1184 1242T1338 1026T1393 715ZM818 1530H589L331 1806V1835H491L702 1683H706L909 1835H1068V1806L818 1530Z" />
<glyph unicode="&#x10f;" glyph-name="dcaron" horiz-adv-x="1472" d="M831 547Q831 654 811 724T759 836T685 894T600 911Q546 911 505 890T435 824T392 709T377 540Q377 172 598 172Q640 172 682 190T757 251T810 366T831 547ZM844 0Q842 8 840 28T835 75T831
128T829 176H825Q776 71 689 26T479 -20Q377 -20 303 22T180 139T108 316T84 540Q84 663 108 766T184 943T313 1060T500 1102Q553 1102 602 1091T693 1057T769 998T827 911H829Q829 921 829 940T828 985T828 1037T827 1089V1484H1108V236Q1108 157 1111 96T1116
0H844ZM1473 1338Q1473 1295 1466 1259T1446 1193T1416 1137T1379 1087H1242Q1287 1135 1311 1183T1336 1277H1228V1484H1473V1338Z" />
<glyph unicode="&#x110;" glyph-name="Dcroat" horiz-adv-x="1479" d="M1096 715Q1096 838 1063 925T969 1069T826 1151T641 1178H432V813H788V594H432V231H682Q771 231 846 261T977 353T1064 504T1096 715ZM1393 715Q1393 539 1340 406T1195 182T978 46T707 0H137V594H8V813H137V1409H647Q811
1409 948 1368T1184 1242T1338 1026T1393 715Z" />
<glyph unicode="&#x111;" glyph-name="" horiz-adv-x="1251" d="M831 529Q831 633 811 699T759 805T685 859T600 874Q546 874 505 855T435 793T392 684T377 522Q377 172 598 172Q640 172 682 188T757 246T810 355T831 529ZM827 1345V1484H1109V1345H1241V1175H1109V236Q1109
157 1112 96T1117 0H845Q843 8 841 28T836 75T832 128T830 176H826Q777 71 689 26T479 -20Q377 -20 303 20T180 133T108 304T84 521Q84 640 108 739T184 910T313 1022T500 1062Q553 1062 602 1051T693 1017T769 958T827 871H829Q829 881 829 900T828 945T828 997T827
1049V1175H541V1345H827Z" />
<glyph unicode="&#x112;" glyph-name="Emacron" horiz-adv-x="1366" d="M137 0V1409H1245V1181H432V827H1184V599H432V228H1286V0H137ZM386 1705H998V1537H386V1705Z" />
<glyph unicode="&#x113;" glyph-name="emacron" horiz-adv-x="1139" d="M586 925Q543 925 506 911T441 865T396 783T377 663H797Q789 794 734 859T586 925ZM586 -20Q469 -20 376 14T216 119T115 296T80 546Q80 701 121 807T233 978T396 1073T590 1102Q718 1102
808 1058T957 933T1042 742T1069 495V487H375Q375 419 387 361T426 260T496 193T600 168Q674 168 721 199T788 297L1053 274Q1035 228 1003 176T916 81T782 9T586 -20ZM281 1371H893V1203H281V1371Z" />
<glyph unicode="&#x114;" glyph-name="Ebreve" horiz-adv-x="1366" d="M137 0V1409H1245V1181H432V827H1184V599H432V228H1286V0H137ZM700 1520Q620 1520 557 1544T450 1607T379 1699T348 1808H511Q519 1776 537 1751T580 1709T636 1682T702 1672Q738 1672 769
1681T826 1708T868 1751T892 1808H1056Q1048 1751 1023 1699T954 1608T847 1544T700 1520Z" />
<glyph unicode="&#x115;" glyph-name="ebreve" horiz-adv-x="1139" d="M586 925Q543 925 506 911T441 865T396 783T377 663H797Q789 794 734 859T586 925ZM586 -20Q469 -20 376 14T216 119T115 296T80 546Q80 701 121 807T233 978T396 1073T590 1102Q718 1102
808 1058T957 933T1042 742T1069 495V487H375Q375 419 387 361T426 260T496 193T600 168Q674 168 721 199T788 297L1053 274Q1035 228 1003 176T916 81T782 9T586 -20ZM567 1183Q487 1183 424 1208T317 1278T246 1381T215 1506H378Q386 1467 404 1436T447 1384T503
1352T569 1340Q605 1340 636 1351T693 1384T735 1436T759 1506H923Q915 1440 890 1382T821 1279T714 1209T567 1183Z" />
<glyph unicode="&#x116;" glyph-name="Edotaccent" horiz-adv-x="1366" d="M137 0V1409H1245V1181H432V827H1184V599H432V228H1286V0H137ZM565 1547V1754H846V1547H565Z" />
<glyph unicode="&#x117;" glyph-name="edotaccent" horiz-adv-x="1139" d="M586 925Q543 925 506 911T441 865T396 783T377 663H797Q789 794 734 859T586 925ZM586 -20Q469 -20 376 14T216 119T115 296T80 546Q80 701 121 807T233 978T396 1073T590 1102Q718 1102
808 1058T957 933T1042 742T1069 495V487H375Q375 419 387 361T426 260T496 193T600 168Q674 168 721 199T788 297L1053 274Q1035 228 1003 176T916 81T782 9T586 -20ZM441 1277V1484H722V1277H441Z" />
<glyph unicode="&#x118;" glyph-name="Eogonek" horiz-adv-x="1366" d="M137 0V1409H1245V1181H432V827H1184V599H432V228H1286V0H137ZM1062 -425Q1011 -425 968 -413T893 -375T843 -312T825 -225Q825 -177 841 -137T881 -65T932 -13T983 21H1136Q1073 -21 1040
-78T1007 -189Q1007 -231 1031 -256T1101 -282Q1132 -282 1158 -275T1213 -255V-392Q1150 -425 1062 -425Z" />
<glyph unicode="&#x119;" glyph-name="eogonek" horiz-adv-x="1139" d="M586 925Q543 925 506 911T441 865T396 783T377 663H797Q789 794 734 859T586 925ZM586 -20Q469 -20 376 14T216 119T115 296T80 546Q80 701 121 807T233 978T396 1073T590 1102Q718 1102
808 1058T957 933T1042 742T1069 495V487H375Q375 419 387 361T426 260T496 193T600 168Q674 168 721 199T788 297L1053 274Q1035 228 1003 176T916 81T782 9T586 -20ZM776 -408Q725 -408 682 -396T607 -358T557 -295T539 -208Q539 -160 555 -120T595 -48T646 4T697
38H850Q787 -4 754 -61T721 -172Q721 -214 745 -239T815 -265Q846 -265 872 -258T927 -238V-375Q864 -408 776 -408Z" />
<glyph unicode="&#x11a;" glyph-name="Ecaron" horiz-adv-x="1366" d="M137 0V1409H1245V1181H432V827H1184V599H432V228H1286V0H137ZM827 1530H598L340 1806V1835H500L711 1683H715L918 1835H1077V1806L827 1530Z" />
<glyph unicode="&#x11b;" glyph-name="ecaron" horiz-adv-x="1139" d="M586 925Q543 925 506 911T441 865T396 783T377 663H797Q789 794 734 859T586 925ZM586 -20Q469 -20 376 14T216 119T115 296T80 546Q80 701 121 807T233 978T396 1073T590 1102Q718 1102
808 1058T957 933T1042 742T1069 495V487H375Q375 419 387 361T426 260T496 193T600 168Q674 168 721 199T788 297L1053 274Q1035 228 1003 176T916 81T782 9T586 -20ZM703 1183H474L216 1500V1529H376L587 1336H591L794 1529H953V1500L703 1183Z" />
<glyph unicode="&#x11c;" glyph-name="Gcircumflex" horiz-adv-x="1593" d="M806 211Q870 211 929 221T1038 247T1129 285T1196 330V525H852V743H1466V225Q1418 176 1350 132T1197 54T1012 0T798 -20Q611 -20 476 34T254 186T126 418T84 711Q84 876 128 1009T261
1235T486 1379T805 1430Q938 1430 1041 1404T1222 1330T1352 1215T1436 1063L1164 981Q1146 1025 1116 1064T1042 1133T939 1180T805 1198Q695 1198 615 1164T483 1065T406 912T381 711Q381 601 406 509T484 351T617 248T806 211ZM1165 1559V1530H1006L803 1681H799L588
1530H428V1559L686 1835H915L1165 1559Z" />
<glyph unicode="&#x11d;" glyph-name="gcircumflex" horiz-adv-x="1251" d="M831 556Q831 658 811 726T759 835T686 893T602 910Q548 910 507 889T436 824T392 712T377 550Q377 375 433 286T600 197Q642 197 683 213T758 271T811 382T831 556ZM596 -434Q489 -434
408 -413T269 -353T177 -261T129 -143L410 -110Q425 -175 474 -212T604 -249Q654 -249 695 -235T766 -188T812 -99T829 37V94Q829 119 830 147T831 201H829Q780 96 692 49T481 2Q378 2 304 42T180 155T108 328T84 550Q84 675 109 776T185 951T315 1063T502 1103T695
1057T829 908H834Q834 929 835 956T839 1009T843 1055T848 1082H1114Q1112 1046 1110 981T1108 832V33Q1108 -85 1074 -172T975 -318T814 -405T596 -434ZM970 1211V1183H811L608 1375H604L393 1183H233V1211L491 1529H720L970 1211Z" />
<glyph unicode="&#x11e;" glyph-name="Gbreve" horiz-adv-x="1593" d="M806 211Q870 211 929 221T1038 247T1129 285T1196 330V525H852V743H1466V225Q1418 176 1350 132T1197 54T1012 0T798 -20Q611 -20 476 34T254 186T126 418T84 711Q84 876 128 1009T261 1235T486
1379T805 1430Q938 1430 1041 1404T1222 1330T1352 1215T1436 1063L1164 981Q1146 1025 1116 1064T1042 1133T939 1180T805 1198Q695 1198 615 1164T483 1065T406 912T381 711Q381 601 406 509T484 351T617 248T806 211ZM808 1520Q728 1520 665 1544T558 1607T487
1699T456 1808H619Q627 1776 645 1751T688 1709T744 1682T810 1672Q846 1672 877 1681T934 1708T976 1751T1000 1808H1164Q1156 1751 1131 1699T1062 1608T955 1544T808 1520Z" />
<glyph unicode="&#x11f;" glyph-name="gbreve" horiz-adv-x="1251" d="M831 556Q831 658 811 726T759 835T686 893T602 910Q548 910 507 889T436 824T392 712T377 550Q377 375 433 286T600 197Q642 197 683 213T758 271T811 382T831 556ZM596 -434Q489 -434 408
-413T269 -353T177 -261T129 -143L410 -110Q425 -175 474 -212T604 -249Q654 -249 695 -235T766 -188T812 -99T829 37V94Q829 119 830 147T831 201H829Q780 96 692 49T481 2Q378 2 304 42T180 155T108 328T84 550Q84 675 109 776T185 951T315 1063T502 1103T695
1057T829 908H834Q834 929 835 956T839 1009T843 1055T848 1082H1114Q1112 1046 1110 981T1108 832V33Q1108 -85 1074 -172T975 -318T814 -405T596 -434ZM605 1183Q525 1183 462 1208T355 1278T284 1381T253 1506H416Q424 1467 442 1436T485 1384T541 1352T607
1340Q643 1340 674 1351T731 1384T773 1436T797 1506H961Q953 1440 928 1382T859 1279T752 1209T605 1183Z" />
<glyph unicode="&#x120;" glyph-name="Gdotaccent" horiz-adv-x="1593" d="M806 211Q870 211 929 221T1038 247T1129 285T1196 330V525H852V743H1466V225Q1418 176 1350 132T1197 54T1012 0T798 -20Q611 -20 476 34T254 186T126 418T84 711Q84 876 128 1009T261
1235T486 1379T805 1430Q938 1430 1041 1404T1222 1330T1352 1215T1436 1063L1164 981Q1146 1025 1116 1064T1042 1133T939 1180T805 1198Q695 1198 615 1164T483 1065T406 912T381 711Q381 601 406 509T484 351T617 248T806 211ZM667 1547V1754H948V1547H667Z"
/>
<glyph unicode="&#x121;" glyph-name="gdotaccent" horiz-adv-x="1251" d="M831 556Q831 658 811 726T759 835T686 893T602 910Q548 910 507 889T436 824T392 712T377 550Q377 375 433 286T600 197Q642 197 683 213T758 271T811 382T831 556ZM596 -434Q489 -434
408 -413T269 -353T177 -261T129 -143L410 -110Q425 -175 474 -212T604 -249Q654 -249 695 -235T766 -188T812 -99T829 37V94Q829 119 830 147T831 201H829Q780 96 692 49T481 2Q378 2 304 42T180 155T108 328T84 550Q84 675 109 776T185 951T315 1063T502 1103T695
1057T829 908H834Q834 929 835 956T839 1009T843 1055T848 1082H1114Q1112 1046 1110 981T1108 832V33Q1108 -85 1074 -172T975 -318T814 -405T596 -434ZM485 1277V1484H766V1277H485Z" />
<glyph unicode="&#x122;" glyph-name="Gcommaaccent" horiz-adv-x="1593" d="M806 211Q870 211 929 221T1038 247T1129 285T1196 330V525H852V743H1466V225Q1418 176 1350 132T1197 54T1012 0T798 -20Q611 -20 476 34T254 186T126 418T84 711Q84 876 128 1009T261
1235T486 1379T805 1430Q938 1430 1041 1404T1222 1330T1352 1215T1436 1063L1164 981Q1146 1025 1116 1064T1042 1133T939 1180T805 1198Q695 1198 615 1164T483 1065T406 912T381 711Q381 601 406 509T484 351T617 248T806 211ZM938 -204Q938 -248 931 -283T911
-349T881 -405T844 -455H707Q752 -407 776 -365T801 -285H693V-78H938V-204Z" />
<glyph unicode="&#x123;" glyph-name="gcommaaccent" horiz-adv-x="1251" d="M831 556Q831 658 811 726T759 835T686 893T602 910Q548 910 507 889T436 824T392 712T377 550Q377 375 433 286T600 197Q642 197 683 213T758 271T811 382T831 556ZM596 -434Q489 -434
408 -413T269 -353T177 -261T129 -143L410 -110Q425 -175 474 -212T604 -249Q654 -249 695 -235T766 -188T812 -99T829 37V94Q829 119 830 147T831 201H829Q780 96 692 49T481 2Q378 2 304 42T180 155T108 328T84 550Q84 675 109 776T185 951T315 1063T502 1103T695
1057T829 908H834Q834 929 835 956T839 1009T843 1055T848 1082H1114Q1112 1046 1110 981T1108 832V33Q1108 -85 1074 -172T975 -318T814 -405T596 -434ZM496 1358Q496 1445 518 1503T580 1609H727Q682 1561 658 1513T633 1419H741V1212H496V1358Z" />
<glyph unicode="&#x124;" glyph-name="Hcircumflex" horiz-adv-x="1479" d="M1046 0V604H432V0H137V1409H432V848H1046V1409H1341V0H1046ZM1113 1559V1530H954L751 1681H747L536 1530H376V1559L634 1835H863L1113 1559Z" />
<glyph unicode="&#x125;" glyph-name="hcircumflex" horiz-adv-x="1251" d="M420 866Q477 990 563 1046T768 1102Q866 1102 933 1070T1043 982T1105 850T1124 686V0H844V606Q844 669 834 721T801 811T741 870T651 891Q600 891 559 869T487 805T441 706T424 579V0H143V1484H424V1079Q424
1047 423 1015T421 954T418 902T416 866H420ZM1012 1638V1609H853L650 1760H646L435 1609H275V1638L533 1914H762L1012 1638Z" />
<glyph unicode="&#x126;" glyph-name="Hbar" horiz-adv-x="1479" d="M1057 848V1045H432V848H1057ZM1057 0V604H432V0H137V1045H14V1215H137V1409H432V1215H1057V1409H1341V1215H1465V1045H1341V0H1057Z" />
<glyph unicode="&#x127;" glyph-name="hbar" horiz-adv-x="1251" d="M420 826Q477 950 563 1006T768 1062Q866 1062 933 1030T1043 942T1105 810T1124 646V0H844V566Q844 629 834 681T801 771T741 830T651 851Q600 851 559 829T487 765T441 666T424 539V0H143V1175H10V1345H143V1484H424V1345H730V1175H424V1039Q424
1007 423 975T421 914T418 862T416 826H420Z" />
<glyph unicode="&#x128;" glyph-name="Itilde" horiz-adv-x="569" d="M137 0V1409H432V0H137ZM710 1530Q666 1530 622 1549T535 1591T456 1634T388 1653Q362 1653 345 1645T318 1620T301 1582T290 1530H153Q156 1575 164 1626T195 1721T262 1794T378 1823Q423
1823 468 1804T555 1762L634 1719Q670 1700 699 1700Q724 1700 740 1708T768 1733T786 1772T798 1823H933Q931 1778 923 1727T892 1632T826 1559T710 1530Z" />
<glyph unicode="&#x129;" glyph-name="itilde" horiz-adv-x="569" d="M145 0V1082H426V0H145ZM710 1183Q666 1183 622 1202T535 1244T456 1287T388 1306Q362 1306 345 1298T318 1273T301 1235T290 1183H153Q156 1228 164 1279T195 1374T262 1447T378 1476Q423
1476 468 1457T555 1414L633 1372Q670 1353 699 1353Q724 1353 740 1361T768 1386T786 1425T798 1476H933Q931 1431 923 1380T892 1285T826 1212T710 1183Z" />
<glyph unicode="&#x12a;" glyph-name="Imacron" horiz-adv-x="569" d="M137 0V1409H432V0H137ZM-20 1705H592V1537H-20V1705Z" />
<glyph unicode="&#x12b;" glyph-name="imacron" horiz-adv-x="569" d="M145 0V1082H426V0H145ZM236 1371H848V1203H236V1371Z" />
<glyph unicode="&#x12c;" glyph-name="Ibreve" horiz-adv-x="569" d="M137 0V1409H432V0H137ZM540 1520Q460 1520 397 1544T290 1607T219 1699T188 1808H351Q359 1776 377 1751T420 1709T476 1682T542 1672Q578 1672 609 1681T666 1708T708 1751T732 1808H896Q888
1751 863 1699T794 1608T687 1544T540 1520Z" />
<glyph unicode="&#x12d;" glyph-name="ibreve" horiz-adv-x="569" d="M145 0V1082H426V0H145ZM541 1183Q461 1183 398 1208T291 1278T220 1381T189 1506H352Q360 1467 378 1436T421 1384T477 1352T543 1340Q579 1340 610 1351T667 1384T709 1436T733 1506H897Q889
1440 864 1382T795 1279T688 1209T541 1183Z" />
<glyph unicode="&#x12e;" glyph-name="Iogonek" horiz-adv-x="569" d="M137 0V1409H432V0H137ZM325 -425Q274 -425 231 -413T156 -375T106 -312T88 -225Q88 -177 104 -137T144 -65T195 -13T246 21H399Q336 -21 303 -78T270 -189Q270 -231 294 -256T364 -282Q395
-282 421 -275T476 -255V-392Q413 -425 325 -425Z" />
<glyph unicode="&#x12f;" glyph-name="iogonek" horiz-adv-x="569" d="M143 0V1082H424V0H143ZM143 1277V1484H424V1277H143ZM562 -425Q511 -425 468 -413T393 -375T343 -312T325 -225Q325 -177 341 -137T381 -65T432 -13T483 21H636Q573 -21 540 -78T507 -189Q507
-231 531 -256T601 -282Q632 -282 658 -275T713 -255V-392Q650 -425 562 -425Z" />
<glyph unicode="&#x130;" glyph-name="Idot" horiz-adv-x="569" d="M137 0V1409H432V0H137ZM146 1547V1754H427V1547H146Z" />
<glyph unicode="&#x131;" glyph-name="dotlessi" horiz-adv-x="569" d="M145 0V1082H426V0H145Z" />
<glyph unicode="&#x132;" glyph-name="IJ" horiz-adv-x="1607" d="M137 0V1409H432V0H137ZM992 -20Q886 -20 803 2T659 72T559 196T499 382L792 425Q802 366 820 326T863 260T922 223T994 211Q1082 211 1127 270T1173 439V1178H892V1409H1467V446Q1467 339 1436
253T1345 106T1196 13T992 -20Z" />
<glyph unicode="&#x133;" glyph-name="ij" horiz-adv-x="1139" d="M143 0V1082H424V0H143ZM143 1277V1484H424V1277H143ZM707 -425Q651 -425 610 -423T537 -416V-218Q550 -220 563 -221T588 -222Q627 -222 651 -214T689 -187T708 -137T713 -60V1082H994V-128Q994
-193 978 -247T928 -341T839 -403T707 -425ZM713 1277V1484H994V1277H713Z" />
<glyph unicode="&#x134;" glyph-name="Jcircumflex" horiz-adv-x="1139" d="M524 -20Q418 -20 335 2T191 72T91 196T31 382L324 425Q334 366 352 326T395 260T454 223T526 211Q614 211 659 270T705 439V1178H424V1409H999V446Q999 339 968 253T877 106T728 13T524
-20ZM1058 1559V1530H899L696 1681H692L481 1530H321V1559L579 1835H808L1058 1559Z" />
<glyph unicode="&#x135;" glyph-name="jcircumflex" horiz-adv-x="569" d="M138 -425Q82 -425 41 -423T-32 -416V-218Q-19 -220 -6 -221T19 -222Q58 -222 82 -214T120 -187T139 -137T144 -60V1082H425V-128Q425 -193 409 -247T359 -341T270 -403T138 -425ZM647
1211V1183H488L285 1375H281L70 1183H-90V1211L168 1529H397L647 1211Z" />
<glyph unicode="&#x136;" glyph-name="Kcommaaccent" horiz-adv-x="1479" d="M1112 0L606 647L432 514V0H137V1409H432V770L1067 1409H1411L809 813L1460 0H1112ZM875 -204Q875 -248 868 -283T848 -349T818 -405T781 -455H644Q689 -407 713 -365T738 -285H630V-78H875V-204Z"
/>
<glyph unicode="&#x137;" glyph-name="kcommaaccent" horiz-adv-x="1139" d="M834 0L545 490L424 406V0H143V1484H424V634L810 1082H1112L732 660L1141 0H834ZM725 -204Q725 -248 718 -283T698 -349T668 -405T631 -455H494Q539 -407 563 -365T588 -285H480V-78H725V-204Z" />
<glyph unicode="&#x138;" glyph-name="kgreenlandic" horiz-adv-x="1139" d="M834 0L545 490L424 406V0H143V1082H424V634L810 1082H1112L732 660L1141 0H834Z" />
<glyph unicode="&#x139;" glyph-name="Lacute" horiz-adv-x="1251" d="M137 0V1409H432V228H1188V0H137ZM260 1530V1561L512 1815H770V1772L430 1530H260Z" />
<glyph unicode="&#x13a;" glyph-name="lacute" horiz-adv-x="569" d="M143 0V1484H424V0H143ZM106 1609V1640L358 1894H616V1851L276 1609H106Z" />
<glyph unicode="&#x13b;" glyph-name="Lcommaaccent" horiz-adv-x="1251" d="M137 0V1409H432V228H1188V0H137ZM757 -204Q757 -248 750 -283T730 -349T700 -405T663 -455H526Q571 -407 595 -365T620 -285H512V-78H757V-204Z" />
<glyph unicode="&#x13c;" glyph-name="lcommaaccent" horiz-adv-x="569" d="M143 0V1484H424V0H143ZM406 -204Q406 -248 399 -283T379 -349T349 -405T312 -455H175Q220 -407 244 -365T269 -285H161V-78H406V-204Z" />
<glyph unicode="&#x13d;" glyph-name="Lcaron" horiz-adv-x="1251" d="M137 0V1409H432V228H1188V0H137ZM984 1263Q984 1220 977 1184T957 1118T927 1062T890 1012H753Q798 1060 822 1108T847 1202H739V1409H984V1263Z" />
<glyph unicode="&#x13e;" glyph-name="lcaron" horiz-adv-x="789" d="M143 0V1484H424V0H143ZM790 1338Q790 1295 783 1259T763 1193T733 1137T696 1087H559Q604 1135 628 1183T653 1277H545V1484H790V1338Z" />
<glyph unicode="&#x13f;" glyph-name="Ldot" horiz-adv-x="1251" d="M137 0V1409H432V228H1188V0H137ZM669 651V858H950V651H669Z" />
<glyph unicode="&#x140;" glyph-name="ldot" horiz-adv-x="981" d="M143 0V1484H424V0H143ZM600 651V858H881V651H600Z" />
<glyph unicode="&#x141;" glyph-name="Lslash" horiz-adv-x="1251" d="M137 0V483L0 418V643L137 709V1409H432V850L739 997V774L432 627V231H1188V0H137Z" />
<glyph unicode="&#x142;" glyph-name="lslash" horiz-adv-x="569" d="M424 717V0H143V561L18 492V707L143 776V1484H424V932L553 1006V793L424 717Z" />
<glyph unicode="&#x143;" glyph-name="Nacute" horiz-adv-x="1479" d="M995 0L381 1085Q386 1041 390 997Q394 959 396 915T399 831V0H137V1409H474L1097 315Q1092 357 1088 403Q1084 442 1082 491T1079 590V1409H1341V0H995ZM574 1530V1561L826 1815H1084V1772L744
1530H574Z" />
<glyph unicode="&#x144;" glyph-name="nacute" horiz-adv-x="1251" d="M844 0V607Q844 670 834 722T801 812T741 871T651 892Q600 892 559 870T487 806T441 707T424 580V0H143V840Q143 875 143 912T141 982T138 1042T135 1082H403Q405 1070 407 1044T411 985T414
921T416 867H420Q477 991 563 1047T768 1103Q866 1103 933 1071T1043 983T1105 851T1124 687V0H844ZM475 1183V1214L727 1502H985V1459L645 1183H475Z" />
<glyph unicode="&#x145;" glyph-name="Ncommaaccent" horiz-adv-x="1479" d="M995 0L381 1085Q386 1041 390 997Q394 959 396 915T399 831V0H137V1409H474L1097 315Q1092 357 1088 403Q1084 442 1082 491T1079 590V1409H1341V0H995ZM856 -204Q856 -248 849 -283T829
-349T799 -405T762 -455H625Q670 -407 694 -365T719 -285H611V-78H856V-204Z" />
<glyph unicode="&#x146;" glyph-name="ncommaaccent" horiz-adv-x="1251" d="M844 0V607Q844 670 834 722T801 812T741 871T651 892Q600 892 559 870T487 806T441 707T424 580V0H143V840Q143 875 143 912T141 982T138 1042T135 1082H403Q405 1070 407 1044T411
985T414 921T416 867H420Q477 991 563 1047T768 1103Q866 1103 933 1071T1043 983T1105 851T1124 687V0H844ZM759 -204Q759 -248 752 -283T732 -349T702 -405T665 -455H528Q573 -407 597 -365T622 -285H514V-78H759V-204Z" />
<glyph unicode="&#x147;" glyph-name="Ncaron" horiz-adv-x="1479" d="M995 0L381 1085Q386 1041 390 997Q394 959 396 915T399 831V0H137V1409H474L1097 315Q1092 357 1088 403Q1084 442 1082 491T1079 590V1409H1341V0H995ZM852 1530H623L365 1806V1835H525L736
1683H740L943 1835H1102V1806L852 1530Z" />
<glyph unicode="&#x148;" glyph-name="ncaron" horiz-adv-x="1251" d="M844 0V607Q844 670 834 722T801 812T741 871T651 892Q600 892 559 870T487 806T441 707T424 580V0H143V840Q143 875 143 912T141 982T138 1042T135 1082H403Q405 1070 407 1044T411 985T414
921T416 867H420Q477 991 563 1047T768 1103Q866 1103 933 1071T1043 983T1105 851T1124 687V0H844ZM729 1183H500L242 1500V1529H402L613 1336H617L820 1529H979V1500L729 1183Z" />
<glyph unicode="&#x149;" glyph-name="napostrophe" horiz-adv-x="1451" d="M1044 0V607Q1044 670 1034 722T1001 812T941 871T851 892Q800 892 759 870T687 806T641 707T624 580V0H343V840Q343 875 343 912T341 982T338 1042T335 1082H603Q605 1070 607 1044T611
985T614 921T616 867H620Q677 991 763 1047T968 1103Q1066 1103 1133 1071T1243 983T1305 851T1324 687V0H1044ZM269 1214Q269 1147 262 1093T241 992T207 906T160 831H-22Q6 867 30 906T71 985T99 1067T109 1149H-18V1409H269V1214Z" />
<glyph unicode="&#x14a;" glyph-name="Eng" horiz-adv-x="1481" d="M904 -20Q830 -20 773 -9T669 25T587 81T519 158L721 329Q738 307 756 286T797 249T845 222T902 212Q956 212 989 234T1041 300T1065 407T1071 553V848Q1071 942 1055 1009T1006 1118T921 1180T798
1200Q722 1200 655 1171T539 1092T461 977T432 839V0H137V1092Q137 1129 136 1175V1266Q135 1311 135 1349T133 1409H421Q423 1387 425 1356T428 1290T431 1221T432 1158H436Q468 1220 516 1270T626 1355T760 1409T914 1429Q1031 1429 1115 1397T1252 1299T1330
1130T1355 889V542Q1355 412 1334 308T1262 131T1123 19T904 -20Z" />
<glyph unicode="&#x14b;" glyph-name="eng" horiz-adv-x="1251" d="M837 -425Q781 -425 740 -423T667 -416V-218Q680 -220 693 -221T718 -222Q757 -222 781 -214T820 -187T839 -137T844 -60V607Q844 670 834 722T801 812T741 871T651 892Q600 892 559 870T487
806T441 707T424 580V0H143V840Q143 875 143 912T141 982T138 1042T135 1082H403Q405 1070 407 1044T411 985T414 921T416 867H420Q477 991 563 1047T768 1103Q866 1103 933 1071T1043 983T1105 851T1124 687V-128Q1124 -193 1108 -247T1058 -341T969 -403T837
-425Z" />
<glyph unicode="&#x14c;" glyph-name="Omacron" horiz-adv-x="1593" d="M1206 711Q1206 822 1180 911T1101 1065T973 1163T795 1198Q692 1198 615 1164T485 1065T407 912T381 711Q381 601 407 510T486 352T615 249T793 212Q901 212 979 249T1107 353T1182 511T1206
711ZM1507 711Q1507 546 1458 411T1317 180T1093 32T793 -20Q616 -20 484 34T262 186T129 418T84 711Q84 876 130 1009T267 1235T490 1379T795 1430T1099 1379T1322 1234T1460 1008T1507 711ZM490 1705H1102V1537H490V1705Z" />
<glyph unicode="&#x14d;" glyph-name="omacron" horiz-adv-x="1251" d="M877 542Q877 735 814 822T631 909Q507 909 441 821T375 542Q375 445 392 375T442 260T519 194T618 172Q680 172 728 193T810 260T860 375T877 542ZM1171 542Q1171 418 1137 315T1033 138T861
22T621 -20Q489 -20 388 21T219 136T115 313T80 542Q80 663 113 765T215 943T386 1060T627 1102Q773 1102 876 1060T1044 944T1140 767T1171 542ZM324 1371H936V1203H324V1371Z" />
<glyph unicode="&#x14e;" glyph-name="Obreve" horiz-adv-x="1593" d="M1206 711Q1206 822 1180 911T1101 1065T973 1163T795 1198Q692 1198 615 1164T485 1065T407 912T381 711Q381 601 407 510T486 352T615 249T793 212Q901 212 979 249T1107 353T1182 511T1206
711ZM1507 711Q1507 546 1458 411T1317 180T1093 32T793 -20Q616 -20 484 34T262 186T129 418T84 711Q84 876 130 1009T267 1235T490 1379T795 1430T1099 1379T1322 1234T1460 1008T1507 711ZM784 1520Q704 1520 641 1544T534 1607T463 1699T432 1808H595Q603 1776
621 1751T664 1709T720 1682T786 1672Q822 1672 853 1681T910 1708T952 1751T976 1808H1140Q1132 1751 1107 1699T1038 1608T931 1544T784 1520Z" />
<glyph unicode="&#x14f;" glyph-name="obreve" horiz-adv-x="1251" d="M877 542Q877 735 814 822T631 909Q507 909 441 821T375 542Q375 445 392 375T442 260T519 194T618 172Q680 172 728 193T810 260T860 375T877 542ZM1171 542Q1171 418 1137 315T1033 138T861
22T621 -20Q489 -20 388 21T219 136T115 313T80 542Q80 663 113 765T215 943T386 1060T627 1102Q773 1102 876 1060T1044 944T1140 767T1171 542ZM631 1183Q551 1183 488 1208T381 1278T310 1381T279 1506H442Q450 1467 468 1436T511 1384T567 1352T633 1340Q669
1340 700 1351T757 1384T799 1436T823 1506H987Q979 1440 954 1382T885 1279T778 1209T631 1183Z" />
<glyph unicode="&#x150;" glyph-name="Ohungarumlaut" horiz-adv-x="1593" d="M1206 711Q1206 822 1180 911T1101 1065T973 1163T795 1198Q692 1198 615 1164T485 1065T407 912T381 711Q381 601 407 510T486 352T615 249T793 212Q901 212 979 249T1107 353T1182
511T1206 711ZM1507 711Q1507 546 1458 411T1317 180T1093 32T793 -20Q616 -20 484 34T262 186T129 418T84 711Q84 876 130 1009T267 1235T490 1379T795 1430T1099 1379T1322 1234T1460 1008T1507 711ZM1017 1530H885V1564L1100 1816H1335V1773L1017 1530ZM611
1530H479V1564L694 1816H929V1773L611 1530Z" />
<glyph unicode="&#x151;" glyph-name="ohungarumlaut" horiz-adv-x="1251" d="M877 542Q877 735 814 822T631 909Q507 909 441 821T375 542Q375 445 392 375T442 260T519 194T618 172Q680 172 728 193T810 260T860 375T877 542ZM1171 542Q1171 418 1137 315T1033
138T861 22T621 -20Q489 -20 388 21T219 136T115 313T80 542Q80 663 113 765T215 943T386 1060T627 1102Q773 1102 876 1060T1044 944T1140 767T1171 542ZM841 1184H699V1218L924 1484H1159V1441L841 1184ZM435 1184H293V1218L518 1484H753V1441L435 1184Z" />
<glyph unicode="&#x152;" glyph-name="OE" horiz-adv-x="2048" d="M963 1169Q933 1177 886 1182T795 1188Q692 1188 615 1155T485 1060T407 910T381 711Q381 601 407 511T486 357T616 257T793 222Q839 222 882 225T963 242V1169ZM992 0Q954 -2 901 -6T793 -10Q616
-10 484 43T262 191T129 419T84 711Q84 876 130 1007T267 1230T490 1371T795 1420Q851 1420 900 1417T998 1409H1927V1182H1260V827H1866V606H1260V227H1968V0H992Z" />
<glyph unicode="&#x153;" glyph-name="oe" horiz-adv-x="1933" d="M1384 925Q1341 925 1304 911T1239 865T1194 783T1175 663H1595Q1587 794 1532 859T1384 925ZM877 542Q877 735 814 822T631 909Q507 909 441 821T375 542Q375 445 392 375T442 260T519 194T618
172Q680 172 728 193T810 260T860 375T877 542ZM1384 -20Q1266 -20 1174 19T1015 139Q946 63 848 22T621 -20Q489 -20 388 21T219 136T115 313T80 542Q80 663 113 765T215 943T386 1060T627 1102Q761 1102 858 1062T1021 949Q1092 1030 1187 1066T1388 1102Q1516
1102 1606 1058T1755 933T1840 742T1867 495V476H1173Q1173 411 1186 355T1226 257T1296 192T1398 168Q1472 168 1519 199T1586 297L1851 274Q1833 228 1801 176T1714 81T1580 9T1384 -20Z" />
<glyph unicode="&#x154;" glyph-name="Racute" horiz-adv-x="1479" d="M1070 977Q1070 1080 1003 1130T810 1180H432V764H818Q884 764 931 779T1009 823T1055 891T1070 977ZM1105 0L778 535H432V0H137V1409H841Q973 1409 1071 1380T1236 1296T1334 1164T1367 989Q1367
910 1344 845T1279 728T1180 643T1056 592L1437 0H1105ZM548 1530V1561L800 1815H1058V1772L718 1530H548Z" />
<glyph unicode="&#x155;" glyph-name="racute" horiz-adv-x="797" d="M143 0V828Q143 863 143 902T141 976T138 1040T135 1082H403Q405 1070 407 1041T411 976T414 907T416 851H420Q441 910 462 956T511 1035T580 1085T679 1103Q704 1103 728 1099T766 1088V853Q739
859 712 863T646 868Q541 868 483 783T424 531V0H143ZM269 1183V1214L521 1502H779V1459L439 1183H269Z" />
<glyph unicode="&#x156;" glyph-name="Rcommaaccent" horiz-adv-x="1479" d="M1070 977Q1070 1080 1003 1130T810 1180H432V764H818Q884 764 931 779T1009 823T1055 891T1070 977ZM1105 0L778 535H432V0H137V1409H841Q973 1409 1071 1380T1236 1296T1334 1164T1367
989Q1367 910 1344 845T1279 728T1180 643T1056 592L1437 0H1105ZM865 -204Q865 -248 858 -283T838 -349T808 -405T771 -455H634Q679 -407 703 -365T728 -285H620V-78H865V-204Z" />
<glyph unicode="&#x157;" glyph-name="rcommaaccent" horiz-adv-x="797" d="M143 0V828Q143 863 143 902T141 976T138 1040T135 1082H403Q405 1070 407 1041T411 976T414 907T416 851H420Q441 910 462 956T511 1035T580 1085T679 1103Q704 1103 728 1099T766 1088V853Q739
859 712 863T646 868Q541 868 483 783T424 531V0H143ZM405 -204Q405 -248 398 -283T378 -349T348 -405T311 -455H174Q219 -407 243 -365T268 -285H160V-78H405V-204Z" />
<glyph unicode="&#x158;" glyph-name="Rcaron" horiz-adv-x="1479" d="M1070 977Q1070 1080 1003 1130T810 1180H432V764H818Q884 764 931 779T1009 823T1055 891T1070 977ZM1105 0L778 535H432V0H137V1409H841Q973 1409 1071 1380T1236 1296T1334 1164T1367 989Q1367
910 1344 845T1279 728T1180 643T1056 592L1437 0H1105ZM818 1530H589L331 1806V1835H491L702 1683H706L909 1835H1068V1806L818 1530Z" />
<glyph unicode="&#x159;" glyph-name="rcaron" horiz-adv-x="797" d="M143 0V828Q143 863 143 902T141 976T138 1040T135 1082H403Q405 1070 407 1041T411 976T414 907T416 851H420Q441 910 462 956T511 1035T580 1085T679 1103Q704 1103 728 1099T766 1088V853Q739
859 712 863T646 868Q541 868 483 783T424 531V0H143ZM543 1183H314L56 1500V1529H216L427 1336H431L634 1529H793V1500L543 1183Z" />
<glyph unicode="&#x15a;" glyph-name="Sacute" horiz-adv-x="1366" d="M1286 406Q1286 310 1251 232T1143 97T955 11T682 -20Q542 -20 435 5T252 79T128 200T59 367L344 414Q356 367 379 328T442 261T543 217T690 201Q840 201 919 246T999 389Q999 447 967 484T882
545T760 585T616 616L496 645Q436 660 382 681T280 731T199 802T145 902T125 1036Q125 1141 167 1216T283 1338T461 1408T686 1430Q824 1430 922 1409T1087 1343T1192 1233T1249 1077L963 1038Q941 1129 874 1175T680 1221Q602 1221 551 1208T469 1171T425 1118T412
1053Q412 1001 437 968T507 912T614 874T752 842Q821 827 883 812Q948 797 1007 776T1117 725T1205 652T1264 548T1286 406ZM555 1530V1561L807 1815H1065V1772L725 1530H555Z" />
<glyph unicode="&#x15b;" glyph-name="sacute" horiz-adv-x="1139" d="M1055 316Q1055 238 1023 176T928 71T776 4T571 -20Q468 -20 385 -5T240 44T135 134T72 270L319 307Q331 262 352 234T404 191T476 171T571 166Q619 166 660 171T732 190T780 228T797 290Q797
332 773 356T706 396T606 424Q561 432 483 450Q411 466 349 486Q283 507 231 543T147 634T115 775Q115 852 145 912T233 1015T376 1080T573 1103Q661 1103 737 1087T873 1035T973 944T1030 811L781 785Q774 824 756 849T712 890T650 910T573 916Q473 916 423 891T373
805Q373 768 393 746T451 710T540 685T653 659Q728 643 800 622T929 563T1020 466T1055 316ZM400 1183V1214L652 1502H910V1459L570 1183H400Z" />
<glyph unicode="&#x15c;" glyph-name="Scircumflex" horiz-adv-x="1366" d="M1286 406Q1286 310 1251 232T1143 97T955 11T682 -20Q542 -20 435 5T252 79T128 200T59 367L344 414Q356 367 379 328T442 261T543 217T690 201Q840 201 919 246T999 389Q999 447 967
484T882 545T760 585T616 616L496 645Q436 660 382 681T280 731T199 802T145 902T125 1036Q125 1141 167 1216T283 1338T461 1408T686 1430Q824 1430 922 1409T1087 1343T1192 1233T1249 1077L963 1038Q941 1129 874 1175T680 1221Q602 1221 551 1208T469 1171T425
1118T412 1053Q412 1001 437 968T507 912T614 874T752 842Q821 827 883 812Q948 797 1007 776T1117 725T1205 652T1264 548T1286 406ZM1079 1559V1530H920L717 1681H713L502 1530H342V1559L600 1835H829L1079 1559Z" />
<glyph unicode="&#x15d;" glyph-name="scircumflex" horiz-adv-x="1139" d="M1055 316Q1055 238 1023 176T928 71T776 4T571 -20Q468 -20 385 -5T240 44T135 134T72 270L319 307Q331 262 352 234T404 191T476 171T571 166Q619 166 660 171T732 190T780 228T797
290Q797 332 773 356T706 396T606 424Q561 432 483 450Q411 466 349 486Q283 507 231 543T147 634T115 775Q115 852 145 912T233 1015T376 1080T573 1103Q661 1103 737 1087T873 1035T973 944T1030 811L781 785Q774 824 756 849T712 890T650 910T573 916Q473 916
423 891T373 805Q373 768 393 746T451 710T540 685T653 659Q728 643 800 622T929 563T1020 466T1055 316ZM935 1211V1183H776L573 1375H569L358 1183H198V1211L456 1529H685L935 1211Z" />
<glyph unicode="&#x15e;" glyph-name="Scedilla" horiz-adv-x="1366" d="M1286 406Q1286 310 1251 232T1143 97T955 11T682 -20Q542 -20 435 5T252 79T128 200T59 367L344 414Q356 367 379 328T442 261T543 217T690 201Q840 201 919 246T999 389Q999 447 967 484T882
545T760 585T616 616L496 645Q436 660 382 681T280 731T199 802T145 902T125 1036Q125 1141 167 1216T283 1338T461 1408T686 1430Q824 1430 922 1409T1087 1343T1192 1233T1249 1077L963 1038Q941 1129 874 1175T680 1221Q602 1221 551 1208T469 1171T425 1118T412
1053Q412 1001 437 968T507 912T614 874T752 842Q821 827 883 812Q948 797 1007 776T1117 725T1205 652T1264 548T1286 406ZM922 -235Q922 -274 907 -309T856 -369T762 -410T619 -425Q574 -425 518 -419V-301Q543 -306 564 -307T602 -308Q677 -308 708 -290T739
-239Q739 -204 711 -187T617 -170H592Q579 -170 565 -172L627 0H770L737 -82Q831 -87 876 -128T922 -235Z" />
<glyph unicode="&#x15f;" glyph-name="scedilla" horiz-adv-x="1139" d="M1055 316Q1055 238 1023 176T928 71T776 4T571 -20Q468 -20 385 -5T240 44T135 134T72 270L319 307Q331 262 352 234T404 191T476 171T571 166Q619 166 660 171T732 190T780 228T797 290Q797
332 773 356T706 396T606 424Q561 432 483 450Q411 466 349 486Q283 507 231 543T147 634T115 775Q115 852 145 912T233 1015T376 1080T573 1103Q661 1103 737 1087T873 1035T973 944T1030 811L781 785Q774 824 756 849T712 890T650 910T573 916Q473 916 423 891T373
805Q373 768 393 746T451 710T540 685T653 659Q728 643 800 622T929 563T1020 466T1055 316ZM786 -235Q786 -274 771 -309T720 -369T626 -410T483 -425Q438 -425 382 -419V-301Q407 -306 428 -307T466 -308Q541 -308 572 -290T603 -239Q603 -204 575 -187T481 -170H456Q443
-170 429 -172L491 0H634L601 -82Q695 -87 740 -128T786 -235Z" />
<glyph unicode="&#x160;" glyph-name="Scaron" horiz-adv-x="1366" d="M1286 406Q1286 310 1251 232T1143 97T955 11T682 -20Q542 -20 435 5T252 79T128 200T59 367L344 414Q356 367 379 328T442 261T543 217T690 201Q840 201 919 246T999 389Q999 447 967 484T882
545T760 585T616 616L496 645Q436 660 382 681T280 731T199 802T145 902T125 1036Q125 1141 167 1216T283 1338T461 1408T686 1430Q824 1430 922 1409T1087 1343T1192 1233T1249 1077L963 1038Q941 1129 874 1175T680 1221Q602 1221 551 1208T469 1171T425 1118T412
1053Q412 1001 437 968T507 912T614 874T752 842Q821 827 883 812Q948 797 1007 776T1117 725T1205 652T1264 548T1286 406ZM806 1530H577L319 1806V1835H479L690 1683H694L897 1835H1056V1806L806 1530Z" />
<glyph unicode="&#x161;" glyph-name="scaron" horiz-adv-x="1139" d="M1055 316Q1055 238 1023 176T928 71T776 4T571 -20Q468 -20 385 -5T240 44T135 134T72 270L319 307Q331 262 352 234T404 191T476 171T571 166Q619 166 660 171T732 190T780 228T797 290Q797
332 773 356T706 396T606 424Q561 432 483 450Q411 466 349 486Q283 507 231 543T147 634T115 775Q115 852 145 912T233 1015T376 1080T573 1103Q661 1103 737 1087T873 1035T973 944T1030 811L781 785Q774 824 756 849T712 890T650 910T573 916Q473 916 423 891T373
805Q373 768 393 746T451 710T540 685T653 659Q728 643 800 622T929 563T1020 466T1055 316ZM692 1183H463L205 1500V1529H365L576 1336H580L783 1529H942V1500L692 1183Z" />
<glyph unicode="&#x162;" glyph-name="Tcommaaccent" horiz-adv-x="1251" d="M773 1181V0H478V1181H23V1409H1229V1181H773ZM754 -204Q754 -248 747 -283T727 -349T697 -405T660 -455H523Q568 -407 592 -365T617 -285H509V-78H754V-204Z" />
<glyph unicode="&#x163;" glyph-name="tcommaaccent" horiz-adv-x="682" d="M420 -18Q296 -18 229 49T162 254V892H25V1082H176L264 1336H440V1082H645V892H440V330Q440 251 470 214T563 176Q589 176 610 180T657 190V16Q605 -1 547 -9T420 -18ZM486 -204Q486
-248 479 -283T459 -349T429 -405T392 -455H255Q300 -407 324 -365T349 -285H241V-78H486V-204Z" />
<glyph unicode="&#x164;" glyph-name="Tcaron" horiz-adv-x="1251" d="M773 1181V0H478V1181H23V1409H1229V1181H773ZM749 1530H520L262 1806V1835H422L633 1683H637L840 1835H999V1806L749 1530Z" />
<glyph unicode="&#x165;" glyph-name="tcaron" horiz-adv-x="981" d="M420 -18Q296 -18 229 49T162 254V892H25V1082H176L264 1336H440V1082H645V892H440V330Q440 251 470 214T563 176Q589 176 610 180T657 190V16Q605 -1 547 -9T420 -18ZM981 1338Q981 1295 974
1259T954 1193T924 1137T887 1087H750Q795 1135 819 1183T844 1277H736V1484H981V1338Z" />
<glyph unicode="&#x166;" glyph-name="Tbar" horiz-adv-x="1251" d="M773 1181V816H1001V626H773V0H478V626H251V816H478V1181H23V1409H1229V1181H773Z" />
<glyph unicode="&#x167;" glyph-name="tbar" horiz-adv-x="682" d="M420 -18Q296 -18 229 49T162 254V473H35V663H162V892H25V1082H176L264 1336H440V1082H645V892H440V663H625V473H440V330Q440 251 470 214T563 176Q589 176 610 180T657 190V16Q605 -1 547 -9T420 -18Z" />
<glyph unicode="&#x168;" glyph-name="Utilde" horiz-adv-x="1479" d="M723 -20Q591 -20 481 11T292 109T168 280T123 528V1409H418V551Q418 462 440 398T503 292T602 231T731 211Q803 211 863 231T967 295T1035 404T1059 561V1409H1354V543Q1354 398 1307 292T1176
117T977 14T723 -20ZM905 1530Q861 1530 817 1549T730 1591T651 1634T583 1653Q557 1653 540 1645T513 1620T496 1582T485 1530H348Q351 1575 359 1626T390 1721T457 1794T573 1823Q618 1823 663 1804T750 1762L829 1719Q865 1700 894 1700Q919 1700 935 1708T963
1733T981 1772T993 1823H1128Q1126 1778 1118 1727T1087 1632T1021 1559T905 1530Z" />
<glyph unicode="&#x169;" glyph-name="utilde" horiz-adv-x="1251" d="M408 1082V475Q408 412 418 360T451 270T510 211T600 190Q651 190 692 212T764 276T810 375T827 502V1082H1108V242Q1108 208 1108 171T1110 100T1113 40T1116 0H848Q847 12 845 38T840 97L838
161Q836 193 836 215H831Q775 92 689 36T483 -20Q386 -20 318 12T208 99T146 231T127 395V1082H408ZM786 1183Q742 1183 698 1202T611 1244T532 1287T464 1306Q438 1306 421 1298T394 1273T377 1235T366 1183H229Q232 1228 240 1279T271 1374T338 1447T454 1476Q499
1476 544 1457T631 1414L709 1372Q746 1353 775 1353Q800 1353 816 1361T844 1386T862 1425T874 1476H1009Q1007 1431 999 1380T968 1285T902 1212T786 1183Z" />
<glyph unicode="&#x16a;" glyph-name="Umacron" horiz-adv-x="1479" d="M723 -20Q591 -20 481 11T292 109T168 280T123 528V1409H418V551Q418 462 440 398T503 292T602 231T731 211Q803 211 863 231T967 295T1035 404T1059 561V1409H1354V543Q1354 398 1307 292T1176
117T977 14T723 -20ZM433 1700H1045V1532H433V1700Z" />
<glyph unicode="&#x16b;" glyph-name="umacron" horiz-adv-x="1251" d="M408 1082V475Q408 412 418 360T451 270T510 211T600 190Q651 190 692 212T764 276T810 375T827 502V1082H1108V242Q1108 208 1108 171T1110 100T1113 40T1116 0H848Q847 12 845 38T840 97L838
161Q836 193 836 215H831Q775 92 689 36T483 -20Q386 -20 318 12T208 99T146 231T127 395V1082H408ZM312 1371H924V1203H312V1371Z" />
<glyph unicode="&#x16c;" glyph-name="Ubreve" horiz-adv-x="1479" d="M723 -20Q591 -20 481 11T292 109T168 280T123 528V1409H418V551Q418 462 440 398T503 292T602 231T731 211Q803 211 863 231T967 295T1035 404T1059 561V1409H1354V543Q1354 398 1307 292T1176
117T977 14T723 -20ZM737 1520Q657 1520 594 1544T487 1607T416 1699T385 1808H548Q556 1776 574 1751T617 1709T673 1682T739 1672Q775 1672 806 1681T863 1708T905 1751T929 1808H1093Q1085 1751 1060 1699T991 1608T884 1544T737 1520Z" />
<glyph unicode="&#x16d;" glyph-name="ubreve" horiz-adv-x="1251" d="M408 1082V475Q408 412 418 360T451 270T510 211T600 190Q651 190 692 212T764 276T810 375T827 502V1082H1108V242Q1108 208 1108 171T1110 100T1113 40T1116 0H848Q847 12 845 38T840 97L838
161Q836 193 836 215H831Q775 92 689 36T483 -20Q386 -20 318 12T208 99T146 231T127 395V1082H408ZM622 1183Q542 1183 479 1208T372 1278T301 1381T270 1506H433Q441 1467 459 1436T502 1384T558 1352T624 1340Q660 1340 691 1351T748 1384T790 1436T814 1506H978Q970
1440 945 1382T876 1279T769 1209T622 1183Z" />
<glyph unicode="&#x16e;" glyph-name="Uring" horiz-adv-x="1479" d="M723 -20Q591 -20 481 11T292 109T168 280T123 528V1409H418V551Q418 462 440 398T503 292T602 231T731 211Q803 211 863 231T967 295T1035 404T1059 561V1409H1354V543Q1354 398 1307 292T1176
117T977 14T723 -20ZM867 1724Q867 1750 857 1772T830 1812T790 1839T740 1849T691 1839T651 1812T625 1773T615 1724Q615 1697 624 1674T651 1633T691 1606T740 1596T789 1606T830 1633T857 1673T867 1724ZM994 1724Q994 1671 974 1625T920 1544T839 1490T740
1470T642 1489T561 1543T506 1624T486 1724Q486 1776 506 1822T560 1903T641 1958T740 1978T838 1958T919 1904T974 1823T994 1724Z" />
<glyph unicode="&#x16f;" glyph-name="uring" horiz-adv-x="1251" d="M408 1082V475Q408 412 418 360T451 270T510 211T600 190Q651 190 692 212T764 276T810 375T827 502V1082H1108V242Q1108 208 1108 171T1110 100T1113 40T1116 0H848Q847 12 845 38T840 97L838
161Q836 193 836 215H831Q775 92 689 36T483 -20Q386 -20 318 12T208 99T146 231T127 395V1082H408ZM748 1390Q748 1416 738 1438T711 1478T671 1505T621 1515T572 1505T532 1478T506 1439T496 1390Q496 1363 505 1340T532 1299T572 1272T621 1262T670 1272T711
1299T738 1339T748 1390ZM875 1390Q875 1337 855 1291T801 1210T720 1156T621 1136T523 1155T442 1209T387 1290T367 1390Q367 1442 387 1488T441 1569T522 1624T621 1644T719 1624T800 1570T855 1489T875 1390Z" />
<glyph unicode="&#x170;" glyph-name="Uhungarumlaut" horiz-adv-x="1479" d="M723 -20Q591 -20 481 11T292 109T168 280T123 528V1409H418V551Q418 462 440 398T503 292T602 231T731 211Q803 211 863 231T967 295T1035 404T1059 561V1409H1354V543Q1354 398 1307
292T1176 117T977 14T723 -20ZM931 1530H799V1564L1014 1816H1249V1773L931 1530ZM525 1530H393V1564L608 1816H843V1773L525 1530Z" />
<glyph unicode="&#x171;" glyph-name="uhungarumlaut" horiz-adv-x="1251" d="M408 1082V475Q408 412 418 360T451 270T510 211T600 190Q651 190 692 212T764 276T810 375T827 502V1082H1108V242Q1108 208 1108 171T1110 100T1113 40T1116 0H848Q847 12 845 38T840
97L838 161Q836 193 836 215H831Q775 92 689 36T483 -20Q386 -20 318 12T208 99T146 231T127 395V1082H408ZM805 1184H663V1218L888 1484H1123V1441L805 1184ZM399 1184H257V1218L482 1484H717V1441L399 1184Z" />
<glyph unicode="&#x172;" glyph-name="Uogonek" horiz-adv-x="1479" d="M723 -20Q591 -20 481 11T292 109T168 280T123 528V1409H418V551Q418 462 440 398T503 292T602 231T731 211Q803 211 863 231T967 295T1035 404T1059 561V1409H1354V543Q1354 398 1307 292T1176
117T977 14T723 -20ZM857 -425Q806 -425 763 -413T688 -375T638 -312T620 -225Q620 -177 636 -137T676 -65T727 -13T778 21H931Q868 -21 835 -78T802 -189Q802 -231 826 -256T896 -282Q927 -282 953 -275T1008 -255V-392Q945 -425 857 -425Z" />
<glyph unicode="&#x173;" glyph-name="uogonek" horiz-adv-x="1251" d="M408 1082V475Q408 412 418 360T451 270T510 211T600 190Q651 190 692 212T764 276T810 375T827 502V1082H1108V242Q1108 208 1108 171T1110 100T1113 40T1116 0H848Q847 12 845 38T840 97L838
161Q836 193 836 215H831Q775 92 689 36T483 -20Q386 -20 318 12T208 99T146 231T127 395V1082H408ZM958 -425Q907 -425 864 -413T789 -375T739 -312T721 -225Q721 -177 737 -137T777 -65T828 -13T879 21H1032Q969 -21 936 -78T903 -189Q903 -231 927 -256T997
-282Q1028 -282 1054 -275T1109 -255V-392Q1046 -425 958 -425Z" />
<glyph unicode="&#x174;" glyph-name="Wcircumflex" horiz-adv-x="1933" d="M1567 0H1217L1026 815Q1015 864 1006 903Q996 954 987 1002Q976 1057 967 1116L945 1001L935 952Q930 926 925 902T915 855T905 815L715 0H365L2 1409H301L477 625Q501 518 505 499L529
388L551 279L580 423L593 485L606 548L620 608L631 659L805 1409H1135L1313 659Q1319 635 1325 606L1337 544L1349 482Q1354 458 1360 420L1384 279L1409 395L1434 507L1462 625L1632 1409H1931L1567 0ZM1337 1559V1530H1178L975 1681H971L760 1530H600V1559L858
1835H1087L1337 1559Z" />
<glyph unicode="&#x175;" glyph-name="wcircumflex" horiz-adv-x="1593" d="M1313 0H1016L844 660Q836 691 828 730L813 802L797 882L779 802L762 729L745 658L571 0H274L-6 1082H258L395 446L408 386L421 323Q428 288 436 255L450 329Q456 361 463 392L475 446L645
1082H946L1112 446Q1120 416 1126 387L1139 325L1153 255L1168 325L1181 387L1194 446L1337 1082H1597L1313 0ZM1166 1211V1183H1007L804 1375H800L589 1183H429V1211L687 1529H916L1166 1211Z" />
<glyph unicode="&#x176;" glyph-name="Ycircumflex" horiz-adv-x="1366" d="M831 578V0H537V578L35 1409H344L682 813L1024 1409H1333L831 578ZM1053 1559V1530H894L691 1681H687L476 1530H316V1559L574 1835H803L1053 1559Z" />
<glyph unicode="&#x177;" glyph-name="ycircumflex" horiz-adv-x="1139" d="M700 -57Q661 -152 621 -221T533 -335T424 -403T283 -425Q239 -425 193 -422T106 -412V-212Q126 -215 154 -217T203 -220Q244 -220 276 -211T334 -181T382 -125T426 -37L444 11L16 1082H313L483
575Q487 564 496 538L514 478L536 408L557 338Q567 304 574 278L584 241L594 278L608 336L627 404L646 473L662 532Q670 559 674 571L834 1082H1128L700 -57ZM949 1211V1183H790L587 1375H583L372 1183H212V1211L470 1529H699L949 1211Z" />
<glyph unicode="&#x178;" glyph-name="Ydieresis" horiz-adv-x="1366" d="M831 578V0H537V578L35 1409H344L682 813L1024 1409H1333L831 578ZM353 1530V1749H547V1530H353ZM807 1530V1749H1004V1530H807Z" />
<glyph unicode="&#x179;" glyph-name="Zacute" horiz-adv-x="1251" d="M1192 0H61V209L823 1178H137V1409H1151V1204L389 231H1192V0ZM473 1530V1561L725 1815H983V1772L643 1530H473Z" />
<glyph unicode="&#x17a;" glyph-name="zacute" horiz-adv-x="1024" d="M68 0V199L608 879H109V1082H918V881L381 205H967V0H68ZM336 1183V1214L588 1502H846V1459L506 1183H336Z" />
<glyph unicode="&#x17b;" glyph-name="Zdotaccent" horiz-adv-x="1251" d="M1192 0H61V209L823 1178H137V1409H1151V1204L389 231H1192V0ZM496 1547V1754H777V1547H496Z" />
<glyph unicode="&#x17c;" glyph-name="zdotaccent" horiz-adv-x="1024" d="M68 0V199L608 879H109V1082H918V881L381 205H967V0H68ZM389 1277V1484H670V1277H389Z" />
<glyph unicode="&#x17d;" glyph-name="Zcaron" horiz-adv-x="1251" d="M1192 0H61V209L823 1178H137V1409H1151V1204L389 231H1192V0ZM761 1530H532L274 1806V1835H434L645 1683H649L852 1835H1011V1806L761 1530Z" />
<glyph unicode="&#x17e;" glyph-name="zcaron" horiz-adv-x="1024" d="M68 0V199L608 879H109V1082H918V881L381 205H967V0H68ZM630 1183H401L143 1500V1529H303L514 1336H518L721 1529H880V1500L630 1183Z" />
<glyph unicode="&#x17f;" glyph-name="longs" horiz-adv-x="569" d="M142 1195Q142 1257 157 1309T208 1401T305 1462T457 1484Q505 1484 551 1479T635 1468V1287Q617 1291 595 1293T553 1296Q514 1296 489 1288T449 1264T428 1224T422 1167V0H142V1195Z" />
<glyph unicode="&#x192;" glyph-name="florin" horiz-adv-x="1139" d="M993 1247Q984 1250 971 1253T943 1258T916 1262T891 1264Q826 1264 798 1231T757 1137L737 1030H949L913 840H700L449 -425H168L419 840H261L298 1030H456L483 1165Q494 1227 518 1279T586
1371T694 1432T851 1454Q874 1454 899 1452T949 1445T996 1436T1033 1424L993 1247Z" />
<glyph unicode="&#x1fa;" glyph-name="Aringacute" horiz-adv-x="1479" d="M803 987L780 1058Q768 1093 760 1122L746 1171Q740 1190 739 1192Q738 1189 733 1170T720 1122T700 1058L676 987L537 582H942L803 987ZM1133 0L1008 360H471L346 0H51L565 1409H913L1425
0H1133ZM866 1537Q866 1563 856 1585T829 1625T789 1652T739 1662T690 1652T650 1625T624 1586T614 1537Q614 1510 623 1487T650 1446T690 1419T739 1409T788 1419T829 1446T856 1486T866 1537ZM993 1537Q993 1484 973 1438T919 1357T838 1303T739 1283T641 1302T560
1356T505 1437T485 1537Q485 1589 505 1635T559 1716T640 1771T739 1791T837 1771T918 1717T973 1636T993 1537ZM586 1831V1862L838 2116H1096V2073L756 1831H586Z" />
<glyph unicode="&#x1fb;" glyph-name="aringacute" horiz-adv-x="1139" d="M720 501L576 499Q531 497 491 492T420 469T371 418T353 328Q353 251 388 214T483 176Q537 176 581 199T655 259T703 346T720 446V501ZM393 -20Q315 -20 254 1T149 64T83 167T60 306Q60
402 93 467T185 573T321 632Q397 650 487 652L720 656V711Q720 770 710 809T679 874T630 909T562 920Q527 920 500 913T452 889T420 842T402 767L109 781Q121 852 153 910T241 1012T380 1078T574 1102Q675 1102 754 1077T888 1003T972 881T1001 714V320Q1001 282
1004 252T1017 202T1044 171T1090 160Q1122 160 1152 166V14L1107 3Q1087 -2 1067 -5T1025 -10T972 -12Q866 -12 816 40T755 193H749Q693 92 606 36T393 -20ZM696 1390Q696 1416 686 1438T659 1478T619 1505T569 1515T520 1505T480 1478T454 1439T444 1390Q444
1363 453 1340T480 1299T520 1272T569 1262T618 1272T659 1299T686 1339T696 1390ZM823 1390Q823 1337 803 1291T749 1210T668 1156T569 1136T471 1155T390 1209T335 1290T315 1390Q315 1442 335 1488T389 1569T470 1624T569 1644T667 1624T748 1570T803 1489T823
1390ZM442 1693V1724L694 2012H952V1969L612 1693H442Z" />
<glyph unicode="&#x1fc;" glyph-name="AEacute" horiz-adv-x="2048" d="M931 1192H870L853 1155L825 1094L796 1029L774 983L583 582H931V1192ZM931 0V360H481L309 0H4L704 1409H1927V1182H1226V827H1865V606H1226V227H1968V0H931ZM1083 1530V1561L1335 1815H1593V1772L1253
1530H1083Z" />
<glyph unicode="&#x1fd;" glyph-name="aeacute" horiz-adv-x="1821" d="M1253 925Q1210 925 1173 911T1108 865T1063 783T1044 663H1464Q1456 794 1401 859T1253 925ZM496 176Q553 176 599 200T678 264T728 354T746 456V501L594 499Q546 497 504 492T429 469T378
418T359 328Q359 251 396 214T496 176ZM1253 -20Q1102 -20 992 36T819 209Q790 159 752 117T663 45T549 -3T406 -20T264 1T157 64T90 167T66 306Q66 402 100 467T195 572T335 631T506 652L746 656V711Q746 770 735 809T703 874T650 909T578 920Q541 920 512 913T461
889T427 842T408 767L115 781Q127 852 159 910T249 1012T389 1078T586 1102Q803 1102 919 995Q988 1052 1074 1077T1257 1102Q1385 1102 1475 1058T1624 933T1709 742T1736 495V476H1042Q1042 411 1055 355T1095 257T1165 192T1267 168Q1341 168 1388 199T1455
297L1720 274Q1702 228 1670 176T1583 81T1449 9T1253 -20ZM774 1183V1214L1026 1502H1284V1459L944 1183H774Z" />
<glyph unicode="&#x1fe;" glyph-name="Oslashacute" horiz-adv-x="1593" d="M381 711Q381 612 401 528T465 379L1004 1147Q959 1172 908 1185T795 1198Q692 1198 615 1164T485 1065T407 912T381 711ZM1207 711Q1207 811 1186 893T1121 1038L580 266Q623 240 676
226T793 211Q901 211 979 248T1108 352T1183 511T1207 711ZM147 -73L301 145Q192 244 138 388T84 711Q84 876 130 1009T267 1235T490 1379T795 1430Q898 1430 986 1411T1149 1356L1231 1473H1424L1282 1270Q1394 1176 1451 1034T1508 711Q1508 546 1459 411T1318
180T1093 32T793 -20Q581 -20 433 57L342 -72L147 -73ZM625 1530V1561L877 1815H1135V1772L795 1530H625Z" />
<glyph unicode="&#x1ff;" glyph-name="oslashacute" horiz-adv-x="1251" d="M877 542Q877 589 873 629T861 704L454 244Q486 207 527 190T618 172Q680 172 728 193T810 260T860 375T877 542ZM375 542Q375 450 392 379L799 840Q739 909 631 909Q507 909 441 821T375
542ZM1171 542Q1171 418 1137 315T1033 138T861 22T621 -20Q522 -20 442 3T297 69L184 -55H1L198 160Q139 233 110 329T80 542Q80 663 113 765T215 943T386 1060T627 1102Q731 1102 812 1081T957 1019L1058 1133H1242L1058 927Q1117 853 1144 755T1171 542ZM465
1183V1214L717 1502H975V1459L635 1183H465Z" />
<glyph unicode="&#x2c6;" glyph-name="circumflex" horiz-adv-x="682" d="M737 1211V1183H578L375 1375H371L160 1183H0V1211L258 1529H487L737 1211Z" />
<glyph unicode="&#x2c7;" glyph-name="caron" horiz-adv-x="682" d="M487 1183H258L0 1500V1529H160L371 1336H375L578 1529H737V1500L487 1183Z" />
<glyph unicode="&#x2c9;" glyph-name="uni02C9" horiz-adv-x="682" d="M36 1371H648V1203H36V1371Z" />
<glyph unicode="&#x2d8;" glyph-name="breve" horiz-adv-x="682" d="M295 1183Q215 1183 152 1208T45 1278T-26 1381T-57 1506H106Q114 1467 132 1436T175 1384T231 1352T297 1340Q333 1340 364 1351T421 1384T463 1436T487 1506H651Q643 1440 618 1382T549 1279T442
1209T295 1183Z" />
<glyph unicode="&#x2d9;" glyph-name="dotaccent" horiz-adv-x="682" d="M200 1277V1484H481V1277H200Z" />
<glyph unicode="&#x2da;" glyph-name="ring" horiz-adv-x="682" d="M420 1390Q420 1416 410 1438T383 1478T343 1505T293 1515T244 1505T204 1478T178 1439T168 1390Q168 1363 177 1340T204 1299T244 1272T293 1262T342 1272T383 1299T410 1339T420 1390ZM547
1390Q547 1337 527 1291T473 1210T392 1156T293 1136T195 1155T114 1209T59 1290T39 1390Q39 1442 59 1488T113 1569T194 1624T293 1644T391 1624T472 1570T527 1489T547 1390Z" />
<glyph unicode="&#x2db;" glyph-name="ogonek" horiz-adv-x="682" d="M313 -425Q262 -425 219 -413T144 -375T94 -312T76 -225Q76 -177 92 -137T132 -65T183 -13T234 21H387Q324 -21 291 -78T258 -189Q258 -231 282 -256T352 -282Q383 -282 409 -275T464 -255V-392Q401
-425 313 -425Z" />
<glyph unicode="&#x2dc;" glyph-name="tilde" horiz-adv-x="682" d="M543 1183Q499 1183 455 1202T368 1244T289 1287T221 1306Q195 1306 178 1298T151 1273T134 1235T123 1183H-14Q-11 1228 -3 1279T28 1374T95 1447T211 1476Q256 1476 301 1457T388 1414L466
1372Q503 1353 532 1353Q557 1353 573 1361T601 1386T619 1425T631 1476H766Q764 1431 756 1380T725 1285T659 1212T543 1183Z" />
<glyph unicode="&#x2dd;" glyph-name="hungarumlaut" horiz-adv-x="682" d="M456 1184H314V1218L539 1484H774V1441L456 1184ZM50 1184H-92V1218L133 1484H368V1441L50 1184Z" />
<glyph unicode="&#x37e;" glyph-name="semicolon" horiz-adv-x="682" d="M487 66Q487 -1 480 -56T458 -157T424 -243T379 -317H195Q223 -282 247 -243T290 -163T318 -81T328 0H199V281H487V66ZM199 752V1034H487V752H199Z" />
<glyph unicode="&#x384;" glyph-name="tonos" horiz-adv-x="682" d="M185 1183V1216L254 1508H511V1471L290 1183H185Z" />
<glyph unicode="&#x385;" glyph-name="dieresistonos" horiz-adv-x="952" d="M642 1231V1453H842V1231H642ZM110 1231V1453H310V1231H110ZM361 1190V1223L420 1621H657V1584L476 1190H361Z" />
<glyph unicode="&#x386;" glyph-name="Alphatonos" horiz-adv-x="1479" d="M803 987L780 1058Q768 1093 760 1122L746 1171Q740 1190 739 1192Q738 1189 733 1170T720 1122T700 1058L676 987L537 582H942L803 987ZM1133 0L1008 360H471L346 0H51L565 1409H913L1425
0H1133ZM36 1085V1118L105 1410H362V1373L141 1085H36Z" />
<glyph unicode="&#x387;" glyph-name="anoteleia" horiz-adv-x="682" d="M197 531V836H485V531H197Z" />
<glyph unicode="&#x388;" glyph-name="Epsilontonos" horiz-adv-x="1747" d="M518 0V1409H1626V1181H813V827H1565V599H813V228H1667V0H518ZM46 1085V1118L115 1410H372V1373L151 1085H46Z" />
<glyph unicode="&#x389;" glyph-name="Etatonos" horiz-adv-x="1855" d="M1422 0V604H808V0H513V1409H808V848H1422V1409H1717V0H1422ZM36 1085V1118L105 1410H362V1373L141 1085H36Z" />
<glyph unicode="&#x38a;" glyph-name="Iotatonos" horiz-adv-x="970" d="M538 0V1409H833V0H538ZM36 1085V1118L105 1410H362V1373L141 1085H36Z" />
<glyph unicode="&#x38c;" glyph-name="Omicrontonos" horiz-adv-x="1689" d="M1302 711Q1302 822 1276 911T1197 1065T1069 1163T891 1198Q788 1198 711 1164T581 1065T503 912T477 711Q477 601 503 510T582 352T711 249T889 212Q997 212 1075 249T1203 353T1278
511T1302 711ZM1603 711Q1603 546 1554 411T1413 180T1189 32T889 -20Q712 -20 580 34T358 186T225 418T180 711Q180 876 226 1009T363 1235T586 1379T891 1430T1195 1379T1418 1234T1556 1008T1603 711ZM-26 1085V1118L43 1410H300V1373L79 1085H-26Z" />
<glyph unicode="&#x38e;" glyph-name="Upsilontonos" horiz-adv-x="1899" d="M1363 578V0H1069V578L567 1409H876L1214 813L1556 1409H1865L1363 578ZM384 1341V1374L453 1666H710V1629L489 1341H384Z" />
<glyph unicode="&#x38f;" glyph-name="Omegatonos" horiz-adv-x="1716" d="M730 1430T895 1430T1191 1389T1415 1270T1556 1081T1605 828Q1605 726 1581 638T1505 473T1373 332T1179 217L1242 223Q1269 225 1300 226T1357 228H1633V0H962V309Q1143 395 1224 510T1305
774Q1305 875 1278 954T1198 1087T1068 1169T893 1198Q794 1198 718 1170T588 1087T508 954T480 774Q480 626 561 511T824 309V0H157V228H431Q457 228 488 227T546 223L608 217Q496 268 416 332T284 472T209 638T185 829Q185 970 234 1081T375 1270T598 1389ZM-48
1085V1118L21 1410H278V1373L57 1085H-48Z" />
<glyph unicode="&#x390;" glyph-name="iotadieresistonos" horiz-adv-x="569" d="M199 0Q184 16 172 42T153 101T141 168T137 236V1082H419V227Q419 195 425 163T441 101T466 46T499 0H199ZM445 1231V1453H645V1231H445ZM-87 1231V1453H113V1231H-87ZM164 1190V1223L223
1621H460V1584L279 1190H164Z" />
<glyph unicode="&#x391;" glyph-name="Alpha" horiz-adv-x="1479" d="M803 987L780 1058Q768 1093 760 1122L746 1171Q740 1190 739 1192Q738 1189 733 1170T720 1122T700 1058L676 987L537 582H942L803 987ZM1133 0L1008 360H471L346 0H51L565 1409H913L1425 0H1133Z" />
<glyph unicode="&#x392;" glyph-name="Beta" horiz-adv-x="1479" d="M1090 425Q1090 481 1068 519T1008 580T918 613T806 623H432V219H817Q875 219 925 228T1011 261T1069 325T1090 425ZM1008 1015Q1008 1110 948 1150T768 1190H432V841H770Q895 841 951 884T1008
1015ZM1386 402Q1386 295 1343 219T1226 94T1052 23T842 0H137V1409H782Q907 1409 1004 1388T1169 1322T1270 1212T1305 1055Q1305 935 1239 853T1036 741Q1207 721 1296 634T1386 402Z" />
<glyph unicode="&#x393;" glyph-name="Gamma" horiz-adv-x="1231" d="M1198 1409V1181H432V1H137V1409H1198Z" />
<glyph unicode="&#x394;" glyph-name="uni0394" horiz-adv-x="1472" d="M1086 244L820 942L790 1024L764 1098Q753 1133 746 1158L737 1189Q736 1182 728 1157L709 1097Q698 1062 684 1021L654 940L391 244H1086ZM84 226L567 1409L912 1408L1388 226V0H83L84 226Z" />
<glyph unicode="&#x395;" glyph-name="Epsilon" horiz-adv-x="1366" d="M137 0V1409H1245V1181H432V827H1184V599H432V228H1286V0H137Z" />
<glyph unicode="&#x396;" glyph-name="Zeta" horiz-adv-x="1251" d="M1192 0H61V209L823 1178H137V1409H1151V1204L389 231H1192V0Z" />
<glyph unicode="&#x397;" glyph-name="Eta" horiz-adv-x="1479" d="M1046 0V604H432V0H137V1409H432V848H1046V1409H1341V0H1046Z" />
<glyph unicode="&#x398;" glyph-name="Theta" horiz-adv-x="1593" d="M1206 711Q1206 822 1180 911T1101 1065T973 1163T795 1198Q692 1198 615 1164T485 1065T407 912T381 711Q381 601 407 510T486 352T615 249T793 212Q901 212 979 249T1107 353T1182 511T1206
711ZM1507 711Q1507 546 1458 411T1317 180T1093 32T793 -20Q616 -20 484 34T262 186T129 418T84 711Q84 876 130 1009T267 1235T490 1379T795 1430T1099 1379T1322 1234T1460 1008T1507 711ZM502 827H1089V599H502V827Z" />
<glyph unicode="&#x399;" glyph-name="Iota" horiz-adv-x="569" d="M137 0V1409H432V0H137Z" />
<glyph unicode="&#x39a;" glyph-name="Kappa" horiz-adv-x="1479" d="M1112 0L606 647L432 514V0H137V1409H432V770L1067 1409H1411L809 813L1460 0H1112Z" />
<glyph unicode="&#x39b;" glyph-name="Lambda" horiz-adv-x="1366" d="M1352 1H1047L758 886L730 981Q717 1028 707 1066L686 1152L663 1064L639 978Q626 931 612 886L322 1H14L535 1410H834L1352 1Z" />
<glyph unicode="&#x39c;" glyph-name="Mu" horiz-adv-x="1706" d="M1307 0V854Q1307 905 1308 959T1312 1058Q1315 1111 1317 1161L1277 1011L1260 949L1242 887L1226 831L1212 786L958 0H748L494 786L480 831L464 887L447 949L429 1011L387 1161L393 1047L397
946Q399 893 399 854V0H137V1409H532L784 621Q794 589 806 545L828 458L854 356L881 456L893 499L905 542L917 582L928 616L1176 1409H1569V0H1307Z" />
<glyph unicode="&#x39d;" glyph-name="Nu" horiz-adv-x="1479" d="M995 0L381 1085Q386 1041 390 997Q394 959 396 915T399 831V0H137V1409H474L1097 315Q1092 357 1088 403Q1084 442 1082 491T1079 590V1409H1341V0H995Z" />
<glyph unicode="&#x39e;" glyph-name="Xi" horiz-adv-x="1318" d="M1080 827V599H239V827H1080ZM1235 228V0H84V228H1235ZM119 1409H1200V1181H119V1409Z" />
<glyph unicode="&#x39f;" glyph-name="Omicron" horiz-adv-x="1593" d="M1206 711Q1206 822 1180 911T1101 1065T973 1163T795 1198Q692 1198 615 1164T485 1065T407 912T381 711Q381 601 407 510T486 352T615 249T793 212Q901 212 979 249T1107 353T1182 511T1206
711ZM1507 711Q1507 546 1458 411T1317 180T1093 32T793 -20Q616 -20 484 34T262 186T129 418T84 711Q84 876 130 1009T267 1235T490 1379T795 1430T1099 1379T1322 1234T1460 1008T1507 711Z" />
<glyph unicode="&#x3a0;" glyph-name="Pi" horiz-adv-x="1479" d="M1056 0V1165H431V0H137V1409H1341V0H1056Z" />
<glyph unicode="&#x3a1;" glyph-name="Rho" horiz-adv-x="1366" d="M999 958Q999 1067 934 1123T737 1180H432V723H745Q811 723 858 740T937 788T984 862T999 958ZM1296 963Q1296 872 1266 788T1172 638T1012 535T782 496H432V0H137V1409H770Q905 1409 1004 1377T1168
1285T1264 1144T1296 963Z" />
<glyph unicode="&#x3a3;" glyph-name="Sigma" horiz-adv-x="1229" d="M90 0V234L538 741L107 1176V1409H1106V1181H409L780 808V674L386 228H1167V0H90Z" />
<glyph unicode="&#x3a4;" glyph-name="Tau" horiz-adv-x="1251" d="M773 1181V0H478V1181H23V1409H1229V1181H773Z" />
<glyph unicode="&#x3a5;" glyph-name="Upsilon" horiz-adv-x="1366" d="M831 578V0H537V578L35 1409H344L682 813L1024 1409H1333L831 578Z" />
<glyph unicode="&#x3a6;" glyph-name="Phi" horiz-adv-x="1681" d="M360 730Q360 658 378 597T434 492T532 422T676 397H702V1052H683Q518 1052 439 967T360 730ZM702 -11V188H648Q500 188 390 232T207 351T99 525T63 734Q63 853 100 950T211 1117T398 1223T660
1261H702V1419H980V1261H1022Q1172 1261 1284 1224T1470 1117T1582 951T1619 734Q1619 624 1584 525T1475 351T1293 232T1034 188H980V-11H702ZM1322 730Q1322 882 1243 967T999 1052H980V397H1006Q1090 397 1149 422T1247 491T1304 597T1322 730Z" />
<glyph unicode="&#x3a7;" glyph-name="Chi" horiz-adv-x="1366" d="M1038 0L684 561L330 0H18L506 741L59 1409H371L684 911L997 1409H1307L879 741L1348 0H1038Z" />
<glyph unicode="&#x3a8;" glyph-name="Psi" horiz-adv-x="1657" d="M968 427V0H689V427H649Q505 427 401 460T229 559T129 722T96 946V1409H375V942Q375 862 392 806T447 715T541 664T680 648H689V1409H968V648H977Q1058 648 1115 664T1210 715T1264 806T1282
942V1409H1561V946Q1561 819 1529 722T1429 560T1257 461T1008 427H968Z" />
<glyph unicode="&#x3a9;" glyph-name="uni03A9" horiz-adv-x="1642" d="M656 1430T821 1430T1117 1389T1341 1270T1482 1081T1531 828Q1531 726 1507 638T1431 473T1299 332T1105 217L1168 223Q1195 225 1226 226T1283 228H1559V0H888V309Q1069 395 1150 510T1231
774Q1231 875 1204 954T1124 1087T994 1169T819 1198Q720 1198 644 1170T514 1087T434 954T406 774Q406 626 487 511T750 309V0H83V228H357Q383 228 414 227T472 223L534 217Q422 268 342 332T210 472T135 638T111 829Q111 970 160 1081T301 1270T524 1389Z" />
<glyph unicode="&#x3aa;" glyph-name="Iotadieresis" horiz-adv-x="569" d="M137 0V1409H432V0H137ZM215 1530V1749H409V1530H215ZM669 1530V1749H866V1530H669Z" />
<glyph unicode="&#x3ab;" glyph-name="Upsilondieresis" horiz-adv-x="1366" d="M831 578V0H537V578L35 1409H344L682 813L1024 1409H1333L831 578ZM353 1530V1749H547V1530H353ZM807 1530V1749H1004V1530H807Z" />
<glyph unicode="&#x3ac;" glyph-name="alphatonos" horiz-adv-x="1259" d="M375 539Q375 442 385 373T417 260T473 194T556 173Q595 173 633 195T702 264T757 379T791 542Q782 616 765 682T720 799T654 878T564 908Q516 908 480 888T421 824T387 710T375 539ZM860
237Q834 181 802 134T727 53T629 -1T501 -20Q289 -20 185 117T80 536Q80 820 193 961T527 1102Q600 1102 658 1083T762 1029T841 948T895 847H898Q909 902 929 965T973 1082H1238Q1212 1035 1185 969T1134 830T1093 686T1069 556Q1077 479 1090 404T1121 258T1160
122T1205 0H935Q922 32 911 65T890 129T875 188T864 237H860ZM519 1183V1216L588 1508H845V1471L624 1183H519Z" />
<glyph unicode="&#x3ad;" glyph-name="epsilontonos" horiz-adv-x="924" d="M451 168T526 168T669 206T796 305L939 165Q906 131 868 98T778 39T658 -3T497 -20Q390 -20 311 3T180 69T103 169T77 297Q77 354 98 400T157 480T249 533T365 558V560Q304 566 257 587T177
641T127 717T110 812Q110 875 138 928T220 1019T352 1080T533 1102Q603 1102 660 1093T764 1063T850 1011T923 933L761 810Q719 867 669 895T549 923Q465 923 421 891T377 801Q377 753 402 724T472 678T576 657T705 652V475Q639 475 578 472T469 453T394 405T366
314Q366 242 408 205ZM423 1183V1216L492 1508H749V1471L528 1183H423Z" />
<glyph unicode="&#x3ae;" glyph-name="etatonos" horiz-adv-x="1251" d="M845 -424V629Q845 704 836 754T804 835T747 879T659 892Q606 892 563 872T489 811T442 714T425 581V0H143V851Q143 919 132 979T107 1082H376Q385 1061 392 1037T404 989T411 941T414 897H417Q444
944 476 982T550 1046T646 1087T772 1102Q865 1102 931 1080T1040 1012T1103 894T1124 721V-424H845ZM568 1183V1216L637 1508H894V1471L673 1183H568Z" />
<glyph unicode="&#x3af;" glyph-name="iotatonos" horiz-adv-x="569" d="M199 0Q184 16 172 42T153 101T141 168T137 236V1082H419V227Q419 195 425 163T441 101T466 46T499 0H199ZM432 1183V1216L501 1508H758V1471L537 1183H432Z" />
<glyph unicode="&#x3b0;" glyph-name="upsilondieresistonos" horiz-adv-x="1192" d="M1108 571Q1108 435 1079 326T987 139T827 21T594 -20Q354 -20 241 90T127 433V1082H408V460Q408 324 455 256T611 187Q670 187 711 210T778 283T815 413T827 603Q827 666 816
735T786 868T746 989T703 1082H989Q1009 1042 1030 986T1068 862T1097 721T1108 571ZM770 1231V1453H970V1231H770ZM238 1231V1453H438V1231H238ZM489 1190V1223L548 1621H785V1584L604 1190H489Z" />
<glyph unicode="&#x3b1;" glyph-name="alpha" horiz-adv-x="1259" d="M375 539Q375 442 385 373T417 260T473 194T556 173Q595 173 633 195T702 264T757 379T791 542Q782 616 765 682T720 799T654 878T564 908Q516 908 480 888T421 824T387 710T375 539ZM860 237Q834
181 802 134T727 53T629 -1T501 -20Q289 -20 185 117T80 536Q80 820 193 961T527 1102Q600 1102 658 1083T762 1029T841 948T895 847H898Q909 902 929 965T973 1082H1238Q1212 1035 1185 969T1134 830T1093 686T1069 556Q1077 479 1090 404T1121 258T1160 122T1205
0H935Q922 32 911 65T890 129T875 188T864 237H860Z" />
<glyph unicode="&#x3b2;" glyph-name="beta" horiz-adv-x="1250" d="M424 255Q446 238 474 223T535 197T603 179T672 172Q730 172 774 189T847 239T892 317T907 419T889 522T831 603T728 656T576 676V874Q703 896 759 953T816 1109Q816 1145 806 1176T773 1231T718
1268T637 1281Q583 1281 543 1266T477 1216T437 1126T424 991V255ZM1181 405Q1181 317 1155 240T1074 104T933 13T728 -20Q627 -20 554 7T425 74H416Q421 17 422 -29T424 -128V-425H142V1027Q142 1264 266 1374T638 1484Q746 1484 829 1461T968 1392T1053 1282T1082
1135Q1082 1062 1065 1007T1017 910T946 841T859 795Q916 784 973 757T1077 683T1152 568T1181 405Z" />
<glyph unicode="&#x3b3;" glyph-name="gamma" horiz-adv-x="1139" d="M8 1082H306L518 442Q521 433 530 402Q538 371 547 333T563 255T572 188Q576 219 584 255T601 327T619 394T635 447L836 1082H1131L736 54Q715 -1 697 -56T663 -169T635 -291T613 -424H323Q343
-290 369 -184T424 11L8 1082Z" />
<glyph unicode="&#x3b4;" glyph-name="delta" horiz-adv-x="1242" d="M734 1294Q721 1294 702 1295T661 1297T620 1299T587 1301L910 1008Q968 955 1014 898T1091 777T1139 640T1156 483Q1156 375 1121 283T1016 123T847 18T617 -20Q490 -20 391 14T225 113T122
271T86 481Q86 591 122 677T222 829T370 942T551 1023L239 1337V1484H1092V1294H734ZM866 487Q866 556 850 614T807 724T743 819T667 903Q600 879 547 841T455 751T397 631T376 481Q376 415 390 359T433 263T506 199T612 176Q682 176 730 199T809 264T852 362T866
487Z" />
<glyph unicode="&#x3b5;" glyph-name="epsilon" horiz-adv-x="972" d="M451 168T526 168T669 206T796 305L939 165Q906 131 868 98T778 39T658 -3T497 -20Q390 -20 311 3T180 69T103 169T77 297Q77 354 98 400T157 480T249 533T365 558V560Q304 566 257 587T177
641T127 717T110 812Q110 875 138 928T220 1019T352 1080T533 1102Q603 1102 660 1093T764 1063T850 1011T923 933L761 810Q719 867 669 895T549 923Q465 923 421 891T377 801Q377 753 402 724T472 678T576 657T705 652V475Q639 475 578 472T469 453T394 405T366
314Q366 242 408 205Z" />
<glyph unicode="&#x3b6;" glyph-name="zeta" horiz-adv-x="943" d="M324 422Q324 366 344 332T399 276T484 240L588 209Q652 191 700 175Q757 156 804 123T881 36T911 -102Q911 -144 901 -187T877 -271T846 -346T817 -401L634 -327Q643 -312 652 -294T670 -255T683
-214T689 -172Q689 -135 672 -110T622 -66T543 -35T439 -6Q375 8 309 27T188 84T100 182T66 339Q66 419 89 502T152 670T245 838T360 1002T487 1156T617 1295V1299Q605 1298 588 1298L553 1296H518Q501 1295 490 1295H175V1484H876V1294L748 1163Q683 1093 622
1019T506 867T412 713T348 563T324 422Z" />
<glyph unicode="&#x3b7;" glyph-name="eta" horiz-adv-x="1251" d="M845 -424V629Q845 704 836 754T804 835T747 879T659 892Q606 892 563 872T489 811T442 714T425 581V0H143V851Q143 919 132 979T107 1082H376Q385 1061 392 1037T404 989T411 941T414 897H417Q444
944 476 982T550 1046T646 1087T772 1102Q865 1102 931 1080T1040 1012T1103 894T1124 721V-424H845Z" />
<glyph unicode="&#x3b8;" glyph-name="theta" horiz-adv-x="1107" d="M557 1300Q518 1300 484 1278T425 1201T383 1058T365 834H743Q741 968 726 1057T686 1201T628 1277T557 1300ZM550 162Q589 162 623 185T683 264T725 413T743 644H366Q368 506 384 414T425
265T483 186T550 162ZM1017 733Q1017 352 897 166T549 -20Q441 -20 356 26T211 165T121 399T90 733Q90 1107 206 1295T555 1483Q676 1483 763 1437T907 1296T990 1062T1017 733Z" />
<glyph unicode="&#x3b9;" glyph-name="iota" horiz-adv-x="569" d="M199 0Q184 16 172 42T153 101T141 168T137 236V1082H419V227Q419 195 425 163T441 101T466 46T499 0H199Z" />
<glyph unicode="&#x3ba;" glyph-name="kappa" horiz-adv-x="1142" d="M842 0L551 455L424 349V0H143V1082H424V588L821 1082H1112L732 620L1141 0H842Z" />
<glyph unicode="&#x3bb;" glyph-name="lambda" horiz-adv-x="1139" d="M1108 0H814L678 462L668 498L653 548L636 608Q627 639 620 668L608 721Q602 745 600 759Q593 732 580 688L550 598L518 504Q503 463 488 429L306 0H9L483 1006L457 1079Q430 1148 408 1196T365
1274T319 1318T263 1332Q243 1332 216 1327T170 1313L122 1507Q153 1518 202 1527T309 1537Q390 1537 448 1516T550 1448T630 1331Q665 1263 700 1162L1108 0Z" />
<glyph unicode="&#x3bc;" glyph-name="uni03BC" horiz-adv-x="1253" d="M849 0Q848 12 846 34T841 82T838 136T836 184H833Q795 85 734 33T587 -20Q535 -20 492 4T425 70H421Q424 38 424 11T425 -45V-416H144V1082H425V477Q425 413 434 361T465 272T522 214T609
193Q659 193 699 215T768 278T812 376T828 504V1082H1109V242Q1109 208 1109 172T1111 102T1114 41T1117 0H849Z" />
<glyph unicode="&#x3bd;" glyph-name="nu" horiz-adv-x="1139" d="M1047 846Q1047 747 1016 638T930 419T806 201T657 0H390L0 1082H297L558 239Q614 319 653 393T718 539T754 685T766 837Q766 918 752 977T717 1082H997Q1020 1037 1033 981T1047 846Z" />
<glyph unicode="&#x3be;" glyph-name="xi" horiz-adv-x="912" d="M324 420Q324 367 344 333T399 277T484 239Q514 229 588 209Q642 194 699 175T804 123T881 36T911 -102Q911 -144 901 -187T877 -271T846 -346T817 -401L634 -327Q643 -312 652 -294T670 -255T683
-214T689 -172Q689 -135 672 -110T622 -66T543 -35T439 -6Q375 8 309 27T188 84T100 182T66 339Q66 415 92 491T173 631T317 743T529 810V812Q462 817 403 834T300 881T231 954T205 1052Q205 1109 230 1150T294 1220T382 1266T478 1293V1301Q466 1300 432 1299T358
1297T280 1294T224 1293H148V1484H802V1299Q733 1292 668 1278T553 1240T472 1179T441 1088Q441 1037 467 1005T538 952T640 922T759 907V716Q659 704 579 686T442 636T355 552T324 420Z" />
<glyph unicode="&#x3bf;" glyph-name="omicron" horiz-adv-x="1251" d="M877 542Q877 735 814 822T631 909Q507 909 441 821T375 542Q375 445 392 375T442 260T519 194T618 172Q680 172 728 193T810 260T860 375T877 542ZM1171 542Q1171 418 1137 315T1033 138T861
22T621 -20Q489 -20 388 21T219 136T115 313T80 542Q80 663 113 765T215 943T386 1060T627 1102Q773 1102 876 1060T1044 944T1140 767T1171 542Z" />
<glyph unicode="&#x3c0;" glyph-name="pi" horiz-adv-x="1568" d="M1240 892V303Q1240 231 1268 204T1344 176Q1370 176 1396 180T1442 188L1462 4Q1418 -6 1361 -13T1239 -20Q1098 -20 1030 54T961 265V892H598V768Q598 638 592 529T573 327T545 154T510 0H223Q242
76 260 157T292 331T315 529T324 760V892Q227 892 153 884T42 855V1053Q57 1060 79 1065T125 1074T175 1080T224 1082H1513V892H1240Z" />
<glyph unicode="&#x3c1;" glyph-name="rho" horiz-adv-x="1267" d="M893 526Q893 616 875 687T822 807T741 883T636 909Q577 909 536 886T468 820T429 714T416 572V300Q468 243 534 209T677 174Q730 174 770 199T838 269T879 380T893 526ZM1187 516Q1187 398 1155
300T1064 130T919 20T727 -20Q672 -20 627 -10T543 19T473 63T416 117H412Q414 87 415 60T416 0V-425H121V581Q121 700 155 796T256 961T417 1066T634 1103Q748 1103 848 1064T1024 949T1143 765T1187 516Z" />
<glyph unicode="&#x3c2;" glyph-name="sigma1" horiz-adv-x="1065" d="M340 445Q340 387 362 350T422 288T514 244L629 204L710 180Q752 168 791 152T866 115T927 61T968 -15T984 -120Q984 -159 973 -200T946 -279T911 -349T878 -401L700 -327Q709 -312 718 -294T736
-256T749 -215T755 -173Q755 -136 734 -111T675 -68T586 -36L472 -8Q427 4 381 18T290 53T208 105T141 180T96 286T79 428Q79 487 90 559T126 707T192 853T293 980T435 1069T621 1103Q736 1103 824 1066T972 962L833 813Q815 832 794 850T748 882T694 904T631 913Q576
913 534 889T459 827T404 738T367 636T347 534T340 445Z" />
<glyph unicode="&#x3c3;" glyph-name="sigma" horiz-adv-x="1401" d="M876 492Q876 555 868 612T845 719T813 813T774 892H700Q632 892 573 870T470 802T401 687T375 524Q375 347 437 260T621 172Q686 172 733 194T813 257T860 358T876 492ZM1170 458Q1170 353
1136 265T1035 114T866 16T628 -20T390 17T218 123T115 294T80 524Q80 668 127 773T259 947T461 1049T719 1082H1361V892H1166Q1156 892 1137 892T1094 894L1046 896Q1021 897 1002 898V894Q1033 854 1063 807T1117 706T1155 590T1170 458Z" />
<glyph unicode="&#x3c4;" glyph-name="tau" horiz-adv-x="914" d="M270 892Q231 892 192 889T118 881T57 869T18 855V1053Q30 1059 51 1064T98 1074T151 1080T201 1082H880V892H575V312Q575 272 583 246T605 205T641 183T690 177Q707 177 731 179T771 185L795
7Q778 2 753 -3T701 -12T646 -18T596 -21Q441 -21 369 49T297 251V892H270Z" />
<glyph unicode="&#x3c5;" glyph-name="upsilon" horiz-adv-x="1192" d="M1108 571Q1108 435 1079 326T987 139T827 21T594 -20Q354 -20 241 90T127 433V1082H408V460Q408 324 455 256T611 187Q670 187 711 210T778 283T815 413T827 603Q827 666 816 735T786 868T746
989T703 1082H989Q1009 1042 1030 986T1068 862T1097 721T1108 571Z" />
<glyph unicode="&#x3c6;" glyph-name="phi" horiz-adv-x="1465" d="M1111 567Q1111 758 1074 844T968 930Q911 930 878 876T845 699V166Q973 172 1042 272T1111 567ZM1386 565Q1386 414 1346 307T1233 129T1061 24T845 -18V-425H607V-20Q486 -15 389 21T223 126T117
299T80 544Q80 677 110 775T197 940T337 1048T529 1106L550 927Q499 914 462 879T401 793T366 678T355 544Q355 451 372 382T422 267T502 196T607 167V702Q607 900 694 1002T967 1104Q1062 1104 1139 1066T1272 958T1356 788T1386 565Z" />
<glyph unicode="&#x3c7;" glyph-name="chi" horiz-adv-x="1179" d="M233 1104Q293 1104 338 1083T422 1015T500 893T586 710L606 664Q608 659 612 645T620 618Q625 632 633 652L650 691L666 729Q674 747 679 757L834 1082H1131L756 392L1169 -424H869L674 8Q667
23 656 48L636 100Q625 128 616 154T602 198Q597 181 587 155L566 102L544 52Q535 29 527 13L313 -424H13L465 405L346 648Q307 727 282 773Q254 822 231 850T187 888T138 899Q97 899 57 883L17 1074Q48 1085 102 1094T233 1104Z" />
<glyph unicode="&#x3c8;" glyph-name="psi" horiz-adv-x="1543" d="M901 176Q967 177 1012 191T1086 240T1127 332T1140 474V1082H1415V458Q1415 336 1388 247T1299 99T1140 11T903 -20V-425H644V-20Q508 -19 411 10T251 98T159 246T129 458V1082H404V475Q404
390 418 334T462 243T537 194T644 177V1340H901V176Z" />
<glyph unicode="&#x3c9;" glyph-name="omega" horiz-adv-x="1730" d="M995 474Q995 332 1042 254T1174 176Q1228 176 1264 200T1323 269T1354 377T1363 519Q1363 591 1349 656T1304 775T1225 864T1109 914L1132 1103Q1253 1085 1349 1039T1511 919T1613 745T1649
517Q1649 389 1620 289T1536 121T1399 16T1214 -20Q1140 -20 1083 -4T984 42T913 116T867 218H863Q846 161 817 117T746 42T647 -4T516 -20Q412 -20 331 16T195 120T110 289T81 517Q81 644 116 744T218 918T381 1038T597 1103L620 916Q552 903 504 866T425 777T380
659T366 521Q366 443 375 380T406 271T464 202T554 177Q640 177 688 255T737 474V661H995V474Z" />
<glyph unicode="&#x3ca;" glyph-name="iotadieresis" horiz-adv-x="569" d="M199 0Q184 16 172 42T153 101T141 168T137 236V1082H419V227Q419 195 425 163T441 101T466 46T499 0H199ZM217 1199V1418H431V1199H217ZM651 1199V1418H868V1199H651Z" />
<glyph unicode="&#x3cb;" glyph-name="upsilondieresis" horiz-adv-x="1192" d="M1108 571Q1108 435 1079 326T987 139T827 21T594 -20Q354 -20 241 90T127 433V1082H408V460Q408 324 455 256T611 187Q670 187 711 210T778 283T815 413T827 603Q827 666 816 735T786
868T746 989T703 1082H989Q1009 1042 1030 986T1068 862T1097 721T1108 571ZM258 1199V1418H472V1199H258ZM692 1199V1418H909V1199H692Z" />
<glyph unicode="&#x3cc;" glyph-name="omicrontonos" horiz-adv-x="1251" d="M877 542Q877 735 814 822T631 909Q507 909 441 821T375 542Q375 445 392 375T442 260T519 194T618 172Q680 172 728 193T810 260T860 375T877 542ZM1171 542Q1171 418 1137 315T1033
138T861 22T621 -20Q489 -20 388 21T219 136T115 313T80 542Q80 663 113 765T215 943T386 1060T627 1102Q773 1102 876 1060T1044 944T1140 767T1171 542ZM527 1183V1216L596 1508H853V1471L632 1183H527Z" />
<glyph unicode="&#x3cd;" glyph-name="upsilontonos" horiz-adv-x="1192" d="M1108 571Q1108 435 1079 326T987 139T827 21T594 -20Q354 -20 241 90T127 433V1082H408V460Q408 324 455 256T611 187Q670 187 711 210T778 283T815 413T827 603Q827 666 816 735T786
868T746 989T703 1082H989Q1009 1042 1030 986T1068 862T1097 721T1108 571ZM465 1183V1216L534 1508H791V1471L570 1183H465Z" />
<glyph unicode="&#x3ce;" glyph-name="omegatonos" horiz-adv-x="1730" d="M995 474Q995 332 1042 254T1174 176Q1228 176 1264 200T1323 269T1354 377T1363 519Q1363 591 1349 656T1304 775T1225 864T1109 914L1132 1103Q1253 1085 1349 1039T1511 919T1613 745T1649
517Q1649 389 1620 289T1536 121T1399 16T1214 -20Q1140 -20 1083 -4T984 42T913 116T867 218H863Q846 161 817 117T746 42T647 -4T516 -20Q412 -20 331 16T195 120T110 289T81 517Q81 644 116 744T218 918T381 1038T597 1103L620 916Q552 903 504 866T425 777T380
659T366 521Q366 443 375 380T406 271T464 202T554 177Q640 177 688 255T737 474V661H995V474ZM788 1183V1216L857 1508H1114V1471L893 1183H788Z" />
<glyph unicode="&#x401;" glyph-name="afii10023" horiz-adv-x="1370" d="M137 0V1409H1245V1181H432V827H1184V599H432V228H1286V0H137ZM392 1530V1749H586V1530H392ZM846 1530V1749H1043V1530H846Z" />
<glyph unicode="&#x402;" glyph-name="afii10051" horiz-adv-x="1813" d="M773 1181V845Q809 860 860 878T975 911T1109 937T1256 948Q1373 948 1458 921T1599 839T1681 700T1708 500V446Q1708 338 1687 252T1615 106T1480 13T1267 -20Q1193 -20 1134 -9T1028
25T942 81T872 158L1074 329Q1091 307 1109 286T1150 249T1198 222T1255 212Q1309 212 1342 228T1394 276T1418 354T1424 461V470Q1424 537 1412 585T1370 665T1290 712T1161 727Q1107 727 1052 721T946 705T851 684T773 661V0H478V1181H23V1409H1229V1181H773Z"
/>
<glyph unicode="&#x403;" glyph-name="afii10052" horiz-adv-x="1161" d="M456 1530V1561L708 1815H966V1772L626 1530H456ZM1121 1409V1181H432V1H137V1409H1121Z" />
<glyph unicode="&#x404;" glyph-name="afii10053" horiz-adv-x="1457" d="M787 212Q868 212 928 235T1031 297T1103 383T1151 480L1403 383Q1372 307 1323 234T1200 105T1024 15T784 -20Q604 -20 472 34T254 186T126 418T84 711Q84 876 125 1009T252 1235T466
1379T771 1430Q907 1430 1009 1401T1185 1320T1308 1196T1385 1038L1130 967Q1116 1012 1088 1053T1016 1127T914 1178T780 1198Q689 1198 618 1173T498 1101T420 985T387 829H933V601H386Q392 512 420 440T498 318T620 240T787 212Z" />
<glyph unicode="&#x405;" glyph-name="afii10054" horiz-adv-x="1366" d="M1286 406Q1286 310 1251 232T1143 97T955 11T682 -20Q542 -20 435 5T252 79T128 200T59 367L344 414Q356 367 379 328T442 261T543 217T690 201Q840 201 919 246T999 389Q999 447 967
484T882 545T760 585T616 616L496 645Q436 660 382 681T280 731T199 802T145 902T125 1036Q125 1141 167 1216T283 1338T461 1408T686 1430Q824 1430 922 1409T1087 1343T1192 1233T1249 1077L963 1038Q941 1129 874 1175T680 1221Q602 1221 551 1208T469 1171T425
1118T412 1053Q412 1001 437 968T507 912T614 874T752 842Q821 827 883 812Q948 797 1007 776T1117 725T1205 652T1264 548T1286 406Z" />
<glyph unicode="&#x406;" glyph-name="afii10055" horiz-adv-x="569" d="M137 0V1409H432V0H137Z" />
<glyph unicode="&#x407;" glyph-name="afii10056" horiz-adv-x="565" d="M137 0V1409H432V0H137ZM213 1530V1749H407V1530H213ZM667 1530V1749H864V1530H667Z" />
<glyph unicode="&#x408;" glyph-name="afii10057" horiz-adv-x="1139" d="M524 -20Q418 -20 335 2T191 72T91 196T31 382L324 425Q334 366 352 326T395 260T454 223T526 211Q614 211 659 270T705 439V1178H424V1409H999V446Q999 339 968 253T877 106T728 13T524 -20Z" />
<glyph unicode="&#x409;" glyph-name="afii10058" horiz-adv-x="2240" d="M1870 427Q1870 520 1801 570T1593 621H1251V230H1599Q1739 230 1804 280T1870 427ZM2168 431Q2168 341 2136 262T2038 125T1875 34T1647 0H956V1165H609L560 817Q537 656 515 532T466
315T407 159T332 57T234 1T107 -16Q80 -16 51 -12T8 1V248Q16 244 29 243T51 241Q74 241 94 251T132 290T169 367T204 493T241 680T281 936L348 1409H1251V848H1679Q1802 848 1894 818T2046 734T2137 602T2168 431Z" />
<glyph unicode="&#x40a;" glyph-name="afii10059" horiz-adv-x="2176" d="M1804 427Q1804 520 1735 570T1527 621H1274V230H1533Q1673 230 1738 280T1804 427ZM2102 431Q2102 341 2070 262T1972 125T1809 34T1581 0H979V604H432V0H137V1409H432V848H979V1409H1274V848H1613Q1736
848 1828 818T1980 734T2071 602T2102 431Z" />
<glyph unicode="&#x40b;" glyph-name="afii10060" horiz-adv-x="1792" d="M773 1181V862Q810 876 855 891T953 918T1064 937T1187 945Q1422 945 1540 832T1659 480V0H1375V449Q1375 521 1360 573T1311 659T1224 709T1092 726Q1004 726 922 710T773 673V0H478V1181H23V1409H1229V1181H773Z"
/>
<glyph unicode="&#x40c;" glyph-name="afii10061" horiz-adv-x="1250" d="M137 1409H432V810Q459 810 485 824T542 870T611 954Q644 1000 698 1085L904 1409H1204L939 1004L891 933L843 866Q820 835 800 812T768 780L1253 0H932L558 640Q547 633 532 627T499 616T464
608T431 605V0H137V1409ZM515 1530V1561L767 1815H1025V1772L685 1530H515Z" />
<glyph unicode="&#x40e;" glyph-name="afii10062" horiz-adv-x="1274" d="M1016 318Q976 235 937 172T849 66T738 2T589 -20Q558 -20 523 -16T454 -4T390 15T336 40L418 286Q456 268 495 256T578 244Q613 244 640 254T692 287T740 348Q762 383 788 440L805 477L249
1409H556L944 729L1242 1409H1541L1016 318ZM709 1514T627 1514T483 1527T377 1563T303 1619T256 1689T230 1769T220 1854H444Q449 1751 496 1703T627 1655T758 1703T810 1854H1034Q1032 1811 1024 1769T999 1690T952 1620T878 1564T771 1527Z" />
<glyph unicode="&#x40f;" glyph-name="afii10145" horiz-adv-x="1472" d="M611 -408V0H137V1409H432V244H1049V1409H1334V0H861V-408H611Z" />
<glyph unicode="&#x410;" glyph-name="afii10017" horiz-adv-x="1479" d="M803 987L780 1058Q768 1093 760 1122L746 1171Q740 1190 739 1192Q738 1189 733 1170T720 1122T700 1058L676 987L537 582H942L803 987ZM1133 0L1008 360H471L346 0H51L565 1409H913L1425
0H1133Z" />
<glyph unicode="&#x411;" glyph-name="afii10018" horiz-adv-x="1472" d="M1101 427Q1101 520 1032 570T824 621H432V230H830Q970 230 1035 280T1101 427ZM1399 431Q1399 341 1367 262T1269 125T1106 34T878 0H137V1409H1198V1182H432V848H910Q1033 848 1125 818T1277
734T1368 602T1399 431Z" />
<glyph unicode="&#x412;" glyph-name="afii10019" horiz-adv-x="1479" d="M1090 425Q1090 481 1068 519T1008 580T918 613T806 623H432V219H817Q875 219 925 228T1011 261T1069 325T1090 425ZM1008 1015Q1008 1110 948 1150T768 1190H432V841H770Q895 841 951
884T1008 1015ZM1386 402Q1386 295 1343 219T1226 94T1052 23T842 0H137V1409H782Q907 1409 1004 1388T1169 1322T1270 1212T1305 1055Q1305 935 1239 853T1036 741Q1207 721 1296 634T1386 402Z" />
<glyph unicode="&#x413;" glyph-name="afii10020" horiz-adv-x="1161" d="M1121 1409V1181H432V1H137V1409H1121Z" />
<glyph unicode="&#x414;" glyph-name="afii10021" horiz-adv-x="1459" d="M952 244V1165H690L659 931Q647 846 629 751T589 563T539 388T483 244H952ZM1237 244H1422V-408H1172V0H268V-408H18V244H174Q208 306 240 386T299 559T349 754T387 964L448 1409H1237V244Z" />
<glyph unicode="&#x415;" glyph-name="afii10022" horiz-adv-x="1366" d="M137 0V1409H1245V1181H432V827H1184V599H432V228H1286V0H137Z" />
<glyph unicode="&#x416;" glyph-name="afii10024" horiz-adv-x="1851" d="M786 0V612Q771 612 754 614T719 619T686 628T659 640L310 0H-6L449 780Q437 789 419 811T378 864L334 930L289 1002L38 1409H338L536 1085L619 954Q654 901 682 869T734 824T785 810V1409H1069V810Q1096
810 1120 823T1172 869T1236 954L1319 1085L1517 1409H1817L1566 1002L1521 930L1476 864Q1455 834 1437 812T1406 780L1861 0H1545L1196 640Q1170 627 1135 620T1069 612V0H786Z" />
<glyph unicode="&#x417;" glyph-name="afii10025" horiz-adv-x="1283" d="M638 -20Q512 -20 416 6T248 81T128 203T46 368L310 461Q330 406 359 360T427 280T519 227T638 208Q767 208 834 261T901 412Q901 513 822 557T573 602H514V829H573Q724 829 796 877T868
1025Q868 1116 807 1164T637 1212Q574 1212 527 1192T446 1138T388 1059T349 965L81 1026Q112 1118 159 1192T274 1319T433 1400T642 1429Q758 1429 852 1403T1013 1330T1116 1214T1153 1062Q1153 993 1133 938T1077 841T988 771T873 726Q940 716 997 692T1097
627T1164 530T1189 400Q1189 307 1152 230T1045 98T872 11T638 -20Z" />
<glyph unicode="&#x418;" glyph-name="afii10026" horiz-adv-x="1472" d="M136 0V1409H398V590Q398 540 397 491Q396 455 394 403L390 315L1003 1409H1335V0H1073V831Q1073 871 1074 915Q1075 947 1077 997L1081 1085L472 0H136Z" />
<glyph unicode="&#x419;" glyph-name="afii10027" horiz-adv-x="1472" d="M136 0V1409H398V590Q398 540 397 491Q396 455 394 403L390 315L1003 1409H1335V0H1073V831Q1073 871 1074 915Q1075 947 1077 997L1081 1085L472 0H136ZM824 1514T742 1514T598 1527T492
1563T418 1619T371 1689T345 1769T335 1854H559Q564 1751 611 1703T742 1655T873 1703T925 1854H1149Q1147 1811 1139 1769T1114 1690T1067 1620T993 1564T886 1527Z" />
<glyph unicode="&#x41a;" glyph-name="afii10028" horiz-adv-x="1250" d="M137 1409H432V810Q459 810 485 824T542 870T611 954Q644 1000 698 1085L904 1409H1204L939 1004L891 933L843 866Q820 835 800 812T768 780L1253 0H932L558 640Q547 633 532 627T499 616T464
608T431 605V0H137V1409Z" />
<glyph unicode="&#x41b;" glyph-name="afii10029" horiz-adv-x="1437" d="M1016 1165H609L560 817Q537 656 515 532T466 315T407 159T332 57T234 1T107 -16Q80 -16 51 -12T8 1V248Q16 244 29 243T51 241Q74 241 94 251T132 290T169 367T204 493T241 680T281 936L348
1409H1300V0H1016V1165Z" />
<glyph unicode="&#x41c;" glyph-name="afii10030" horiz-adv-x="1706" d="M1307 0V854Q1307 905 1308 959T1312 1058Q1315 1111 1317 1161L1277 1011L1260 949L1242 887L1226 831L1212 786L958 0H748L494 786L480 831L464 887L447 949L429 1011L387 1161L393 1047L397
946Q399 893 399 854V0H137V1409H532L784 621Q794 589 806 545L828 458L854 356L881 456L893 499L905 542L917 582L928 616L1176 1409H1569V0H1307Z" />
<glyph unicode="&#x41d;" glyph-name="afii10031" horiz-adv-x="1479" d="M1046 0V604H432V0H137V1409H432V848H1046V1409H1341V0H1046Z" />
<glyph unicode="&#x41e;" glyph-name="afii10032" horiz-adv-x="1593" d="M1206 711Q1206 822 1180 911T1101 1065T973 1163T795 1198Q692 1198 615 1164T485 1065T407 912T381 711Q381 601 407 510T486 352T615 249T793 212Q901 212 979 249T1107 353T1182 511T1206
711ZM1507 711Q1507 546 1458 411T1317 180T1093 32T793 -20Q616 -20 484 34T262 186T129 418T84 711Q84 876 130 1009T267 1235T490 1379T795 1430T1099 1379T1322 1234T1460 1008T1507 711Z" />
<glyph unicode="&#x41f;" glyph-name="afii10033" horiz-adv-x="1472" d="M1050 0V1165H431V0H137V1409H1335V0H1050Z" />
<glyph unicode="&#x420;" glyph-name="afii10034" horiz-adv-x="1366" d="M999 958Q999 1067 934 1123T737 1180H432V723H745Q811 723 858 740T937 788T984 862T999 958ZM1296 963Q1296 872 1266 788T1172 638T1012 535T782 496H432V0H137V1409H770Q905 1409 1004
1377T1168 1285T1264 1144T1296 963Z" />
<glyph unicode="&#x421;" glyph-name="afii10035" horiz-adv-x="1479" d="M795 212Q878 212 938 235T1043 297T1117 383T1166 480L1423 383Q1392 307 1342 234T1217 105T1039 15T795 -20Q612 -20 478 34T257 186T127 418T84 711Q84 876 126 1009T255 1235T472
1379T782 1430Q920 1430 1023 1401T1202 1320T1327 1196T1405 1038L1145 967Q1131 1012 1102 1053T1029 1127T924 1178T788 1198Q681 1198 604 1164T478 1065T405 912T381 711Q381 601 404 510T478 352T606 249T795 212Z" />
<glyph unicode="&#x422;" glyph-name="afii10036" horiz-adv-x="1251" d="M773 1181V0H478V1181H23V1409H1229V1181H773Z" />
<glyph unicode="&#x423;" glyph-name="afii10037" horiz-adv-x="1274" d="M768 318Q728 235 689 172T601 66T490 2T341 -20Q310 -20 275 -16T206 -4T142 15T88 40L170 286Q208 268 247 256T330 244Q365 244 392 254T444 287T492 348Q514 383 540 440L557 477L1
1409H308L696 729L994 1409H1293L768 318Z" />
<glyph unicode="&#x424;" glyph-name="afii10038" horiz-adv-x="1748" d="M368 730Q368 658 386 597T442 492T540 422T684 397H735V1052H691Q526 1052 447 967T368 730ZM735 -11V188H656Q508 188 398 232T215 351T107 525T71 734Q71 853 108 950T219 1117T406
1223T668 1261H735V1419H1013V1261H1080Q1230 1261 1342 1224T1528 1117T1640 951T1677 734Q1677 624 1642 525T1533 351T1351 232T1092 188H1013V-11H735ZM1380 730Q1380 882 1301 967T1057 1052H1013V397H1064Q1148 397 1207 422T1305 491T1362 597T1380 730Z"
/>
<glyph unicode="&#x425;" glyph-name="afii10039" horiz-adv-x="1366" d="M1038 0L684 561L330 0H18L506 741L59 1409H371L684 911L997 1409H1307L879 741L1348 0H1038Z" />
<glyph unicode="&#x426;" glyph-name="afii10040" horiz-adv-x="1496" d="M1231 -408V0H137V1409H432V244H1001V1409H1286V244H1481V-408H1231Z" />
<glyph unicode="&#x427;" glyph-name="afii10041" horiz-adv-x="1439" d="M1006 0V547Q967 533 920 518T817 491T700 472T571 464Q331 464 221 577T110 929V1409H394V960Q394 888 406 836T450 750T535 700T671 683Q763 683 849 699T1006 736V1409H1301V0H1006Z" />
<glyph unicode="&#x428;" glyph-name="afii10042" horiz-adv-x="2058" d="M137 0V1409H422V244H886V1409H1171V244H1636V1409H1921V0H137Z" />
<glyph unicode="&#x429;" glyph-name="afii10043" horiz-adv-x="2087" d="M137 0V1409H422V244H865V1409H1150V244H1592V1409H1877V244H2072V-408H1822V0H137Z" />
<glyph unicode="&#x42a;" glyph-name="afii10044" horiz-adv-x="1781" d="M1410 427Q1410 520 1341 570T1133 621H773V230H1139Q1279 230 1344 280T1410 427ZM1219 848Q1342 848 1434 818T1586 734T1677 602T1708 431Q1708 341 1676 262T1578 125T1415 34T1187
0H478V1181H22V1409H773V848H1219Z" />
<glyph unicode="&#x42b;" glyph-name="afii10045" horiz-adv-x="2005" d="M1573 0V1409H1868V0H1573ZM1061 427Q1061 520 992 570T784 621H432V230H790Q930 230 995 280T1061 427ZM1359 431Q1359 341 1327 262T1229 125T1066 34T838 0H137V1409H432V848H870Q993
848 1085 818T1237 734T1328 602T1359 431Z" />
<glyph unicode="&#x42c;" glyph-name="afii10046" horiz-adv-x="1472" d="M1101 427Q1101 520 1032 570T824 621H432V230H830Q970 230 1035 280T1101 427ZM1399 431Q1399 341 1367 262T1269 125T1106 34T878 0H137V1409H432V848H910Q1033 848 1125 818T1277 734T1368
602T1399 431Z" />
<glyph unicode="&#x42d;" glyph-name="afii10047" horiz-adv-x="1457" d="M670 212Q765 212 837 239T959 317T1037 440T1071 601H524V829H1070Q1065 916 1037 984T960 1100T839 1173T677 1198Q602 1198 544 1179T442 1127T370 1054T327 967L72 1038Q100 1124 148
1195T271 1319T448 1401T686 1430Q861 1430 990 1380T1205 1236T1331 1009T1373 711Q1373 552 1331 418T1203 187T985 35T673 -20Q535 -20 433 14T257 105T134 234T54 383L306 480Q325 431 354 383T426 297T529 236T670 212Z" />
<glyph unicode="&#x42e;" glyph-name="afii10048" horiz-adv-x="2112" d="M1725 711Q1725 822 1703 911T1636 1065T1524 1163T1366 1198Q1274 1198 1206 1164T1094 1065T1027 912T1005 711Q1005 601 1027 510T1094 352T1206 249T1365 212Q1462 212 1530 249T1641
353T1705 511T1725 711ZM2026 711Q2026 546 1981 411T1851 180T1642 32T1364 -20Q1214 -20 1099 26T902 154T773 351T712 604H432V0H137V1409H432V848H715Q732 983 782 1091T915 1274T1111 1389T1366 1430Q1525 1430 1648 1379T1855 1234T1982 1008T2026 711Z"
/>
<glyph unicode="&#x42f;" glyph-name="afii10049" horiz-adv-x="1472" d="M402 977Q402 930 417 891T462 824T540 780T654 764H1040V1180H662Q537 1180 470 1130T402 977ZM35 0L416 592Q349 608 292 642T194 728T129 844T105 989Q105 1086 137 1163T236 1295T400
1379T631 1409H1335V0H1040V535H694L367 0H35Z" />
<glyph unicode="&#x430;" glyph-name="afii10065" horiz-adv-x="1139" d="M720 501L576 499Q531 497 491 492T420 469T371 418T353 328Q353 251 388 214T483 176Q537 176 581 199T655 259T703 346T720 446V501ZM393 -20Q315 -20 254 1T149 64T83 167T60 306Q60
402 93 467T185 573T321 632Q397 650 487 652L720 656V711Q720 770 710 809T679 874T630 909T562 920Q527 920 500 913T452 889T420 842T402 767L109 781Q121 852 153 910T241 1012T380 1078T574 1102Q675 1102 754 1077T888 1003T972 881T1001 714V320Q1001 282
1004 252T1017 202T1044 171T1090 160Q1122 160 1152 166V14L1107 3Q1087 -2 1067 -5T1025 -10T972 -12Q866 -12 816 40T755 193H749Q693 92 606 36T393 -20Z" />
<glyph unicode="&#x431;" glyph-name="afii10066" horiz-adv-x="1265" d="M697 1027Q948 1027 1066 897T1184 504Q1184 239 1043 110T634 -20Q507 -20 407 15T237 128T131 331T94 636Q94 828 126 967T231 1202T420 1356T702 1442Q768 1453 823 1462Q879 1470 930
1477L1030 1490L1127 1502V1267Q1030 1257 939 1246Q866 1236 746 1218Q653 1204 588 1189Q518 1173 465 1149T374 1091T312 1004T275 881T259 713Q281 780 317 837T406 937T531 1003T697 1027ZM890 404T890 501T874 662T826 764T751 818T651 834Q592 834 544 818T462
763T409 660T390 501Q390 405 408 342T460 241T537 188T634 172Q693 172 740 187T821 239T872 340Z" />
<glyph unicode="&#x432;" glyph-name="afii10067" horiz-adv-x="1259" d="M425 907V647H633Q697 647 740 654T808 677T845 718T856 778Q856 845 808 876T646 907H425ZM425 175H652Q718 175 764 183T838 209T879 255T892 322Q892 364 879 393T835 441T757 467T641
475H425V175ZM679 1082Q772 1082 857 1070T1007 1027T1110 944T1149 811Q1149 759 1130 718T1077 648T999 601T906 573V566Q965 559 1014 542T1101 493T1158 418T1179 312Q1179 155 1060 78T721 0H143V1082H679Z" />
<glyph unicode="&#x433;" glyph-name="afii10068" horiz-adv-x="853" d="M798 1082V892H425V0H143V1082H798Z" />
<glyph unicode="&#x434;" glyph-name="afii10069" horiz-adv-x="1300" d="M259 0V-408H14V190H139Q169 237 197 304T252 474T307 725T362 1082H1116V190H1262V-408H1017V0H259ZM834 892H598Q580 754 560 643T519 446T475 296T430 190H834V892Z" />
<glyph unicode="&#x435;" glyph-name="afii10070" horiz-adv-x="1139" d="M586 925Q543 925 506 911T441 865T396 783T377 663H797Q789 794 734 859T586 925ZM586 -20Q469 -20 376 14T216 119T115 296T80 546Q80 701 121 807T233 978T396 1073T590 1102Q718 1102
808 1058T957 933T1042 742T1069 495V487H375Q375 419 387 361T426 260T496 193T600 168Q674 168 721 199T788 297L1053 274Q1035 228 1003 176T916 81T782 9T586 -20Z" />
<glyph unicode="&#x436;" glyph-name="afii10072" horiz-adv-x="1452" d="M600 457Q575 457 546 460T503 468L280 0H-17L301 571Q284 585 262 616Q241 645 209 701L-7 1082H267L403 825Q446 744 470 707Q498 664 519 643T560 615T600 608V1082H852V608Q873 609
892 615T932 642T982 707Q1006 744 1049 825L1185 1082H1459L1243 701Q1213 645 1191 615T1151 571L1469 0H1172L949 468Q942 465 931 463T906 460T879 458T852 457V0H600V457Z" />
<glyph unicode="&#x437;" glyph-name="afii10073" horiz-adv-x="1018" d="M493 -20Q314 -20 204 60T53 288L294 332Q303 293 322 263T367 211T425 179T491 168Q571 168 615 207T660 311Q660 361 639 392T578 440T485 464T365 471V648Q428 648 480 654T569 677T627
722T648 796Q648 856 609 889T498 923Q468 923 438 917T382 894T338 849T314 779L77 801Q90 876 126 932T220 1026T352 1083T515 1102Q606 1102 680 1082T806 1024T887 936T916 821Q916 765 897 723T845 649T766 598T668 567V565Q724 559 775 540T864 487T926 408T949
304Q949 235 921 176T837 73T695 5T493 -20Z" />
<glyph unicode="&#x438;" glyph-name="afii10074" horiz-adv-x="1259" d="M404 1082V596Q404 573 402 533T397 450T391 369T384 309L832 1082H1117V0H857V550Q857 569 858 599T863 661T869 723T877 773L442 0H142V1082H404Z" />
<glyph unicode="&#x439;" glyph-name="afii10075" horiz-adv-x="1259" d="M404 1082V596Q404 573 402 533T397 450T391 369T384 309L832 1082H1117V0H857V550Q857 569 858 599T863 661T869 723T877 773L442 0H142V1082H404ZM720 1184T638 1184T494 1197T388 1233T314
1289T267 1359T241 1439T231 1524H455Q460 1421 507 1373T638 1325T769 1373T821 1524H1045Q1043 1481 1035 1439T1010 1360T963 1290T889 1234T782 1197Z" />
<glyph unicode="&#x43a;" glyph-name="afii10076" horiz-adv-x="1025" d="M142 1082H424V618Q447 619 465 623T503 648T550 709T616 825L742 1082H1016L810 701Q777 640 752 613Q725 585 708 571L1026 0H739L506 458Q492 453 467 450T424 447V0H142V1082Z" />
<glyph unicode="&#x43b;" glyph-name="afii10077" horiz-adv-x="1301" d="M876 0V892H566Q541 708 520 569T477 329T430 160T369 53T287 -3T175 -20Q161 -20 139 -19T93 -16T50 -12T21 -7V184Q32 180 51 178T89 175Q118 175 139 187T179 235T212 333T245 496T284
741L331 1082H1158V0H876Z" />
<glyph unicode="&#x43c;" glyph-name="afii10078" horiz-adv-x="1515" d="M870 0H657L373 885Q376 856 379 821T384 750T388 683T389 628V0H143V1082H515L695 521Q715 456 735 382T763 235Q773 307 792 381T831 521L1006 1082H1372V0H1126V628Q1126 650 1127 683T1132
754L1138 826Q1141 861 1144 887L870 0Z" />
<glyph unicode="&#x43d;" glyph-name="afii10079" horiz-adv-x="1237" d="M425 1082V654H812V1082H1094V0H812V463H425V0H143V1082H425Z" />
<glyph unicode="&#x43e;" glyph-name="afii10080" horiz-adv-x="1251" d="M877 542Q877 735 814 822T631 909Q507 909 441 821T375 542Q375 445 392 375T442 260T519 194T618 172Q680 172 728 193T810 260T860 375T877 542ZM1171 542Q1171 418 1137 315T1033 138T861
22T621 -20Q489 -20 388 21T219 136T115 313T80 542Q80 663 113 765T215 943T386 1060T627 1102Q773 1102 876 1060T1044 944T1140 767T1171 542Z" />
<glyph unicode="&#x43f;" glyph-name="afii10081" horiz-adv-x="1237" d="M1094 1082V0H812V892H425V0H143V1082H1094Z" />
<glyph unicode="&#x440;" glyph-name="afii10082" horiz-adv-x="1251" d="M874 546Q874 731 818 820T651 910Q609 910 568 893T494 833T441 719T420 538Q420 432 440 362T492 249T566 190T649 172Q703 172 745 193T815 260T859 377T874 546ZM1167 546Q1167 423
1143 319T1067 140T938 23T752 -20Q704 -20 657 -10T566 22T487 81T424 172H418Q419 167 420 147T422 101T423 45T424 -10V-425H143V833Q143 916 141 981T135 1082H408Q410 1075 412 1055T416 1009T419 955T420 906H424Q475 1013 564 1059T770 1105Q873 1105 948
1063T1071 947T1143 771T1167 546Z" />
<glyph unicode="&#x441;" glyph-name="afii10083" horiz-adv-x="1139" d="M594 -20Q465 -20 369 20T208 133T112 308T80 535Q80 670 115 775T216 953T378 1064T598 1102Q703 1102 784 1074T925 998T1020 883T1071 741L788 727Q776 810 728 859T592 909Q479 909
427 816T375 546Q375 172 596 172Q676 172 730 222T797 373L1079 360Q1069 285 1034 217T938 96T791 12T594 -20Z" />
<glyph unicode="&#x442;" glyph-name="afii10084" horiz-adv-x="1003" d="M58 1082H946V892H643V0H361V892H58V1082Z" />
<glyph unicode="&#x443;" glyph-name="afii10085" horiz-adv-x="1139" d="M700 -57Q661 -152 621 -221T533 -335T424 -403T283 -425Q239 -425 193 -422T106 -412V-212Q126 -215 154 -217T203 -220Q244 -220 276 -211T334 -181T382 -125T426 -37L444 11L16 1082H313L483
575Q487 564 496 538L514 478L536 408L557 338Q567 304 574 278L584 241L594 278L608 336L627 404L646 473L662 532Q670 559 674 571L834 1082H1128L700 -57Z" />
<glyph unicode="&#x444;" glyph-name="afii10086" horiz-adv-x="1792" d="M1416 546Q1416 731 1368 820T1222 910Q1186 910 1150 893T1086 833T1040 719T1022 538Q1022 432 1039 362T1085 249T1149 190T1221 172Q1315 172 1365 261T1416 546ZM769 547Q769 654
752 724T706 836T642 894T569 911Q522 911 486 890T425 824T388 709T375 540Q375 172 567 172Q604 172 640 190T704 251T751 366T769 547ZM1709 546Q1709 423 1687 319T1617 140T1498 23T1328 -20Q1284 -20 1241 -10T1157 22T1084 81T1026 172H1020Q1021 167 1022
147T1024 101T1025 45T1026 -10V-425H765V176H763Q718 71 638 26T445 -20Q351 -20 283 22T170 139T104 316T82 540Q82 663 104 766T174 943T293 1060T464 1102Q513 1102 558 1091T641 1057T711 998T765 911H767Q767 921 767 940T766 985T766 1037T765 1089V1484H1026V906Q1073
1013 1155 1059T1344 1105Q1439 1105 1507 1063T1621 947T1687 771T1709 546Z" />
<glyph unicode="&#x445;" glyph-name="afii10087" horiz-adv-x="1139" d="M819 0L567 392L313 0H14L410 559L33 1082H336L567 728L797 1082H1102L725 562L1124 0H819Z" />
<glyph unicode="&#x446;" glyph-name="afii10088" horiz-adv-x="1259" d="M143 0V1082H425V190H812V1082H1094V190H1240V-408H995V0H143Z" />
<glyph unicode="&#x447;" glyph-name="afii10089" horiz-adv-x="1189" d="M363 1082V696Q363 663 371 635T397 585T445 552T521 540Q554 540 583 543T642 552T701 566L766 585V1082H1047V0H766V415L680 384Q638 369 592 357T496 337T389 329Q315 329 258 350T162
413T103 512T83 644V1082H363Z" />
<glyph unicode="&#x448;" glyph-name="afii10090" horiz-adv-x="1707" d="M1560 0H143V1082H405V190H721V1082H983V190H1298V1082H1560V0Z" />
<glyph unicode="&#x449;" glyph-name="afii10091" horiz-adv-x="1728" d="M143 0V1082H405V190H722V1082H984V190H1300V1082H1562V190H1708V-408H1463V0H143Z" />
<glyph unicode="&#x44a;" glyph-name="afii10092" horiz-adv-x="1493" d="M693 175H881Q950 175 996 185T1070 214T1109 263T1121 329Q1121 367 1109 394T1068 440T994 466T882 475H693V175ZM941 647Q1176 647 1292 570T1408 329Q1408 252 1380 191T1293 88T1148
23T942 0H411V892H38V1082H693V647H941Z" />
<glyph unicode="&#x44b;" glyph-name="afii10093" horiz-adv-x="1749" d="M1325 0V1082H1606V0H1325ZM425 175H637Q706 175 754 185T831 214T874 263T887 329Q887 405 829 440T638 475H425V175ZM697 647Q932 647 1053 570T1174 329Q1174 252 1144 191T1054 88T905
23T698 0H143V1082H425V647H697Z" />
<glyph unicode="&#x44c;" glyph-name="afii10094" horiz-adv-x="1259" d="M425 175H637Q706 175 754 185T831 214T874 263T887 329Q887 405 829 440T638 475H425V175ZM697 647Q932 647 1053 570T1174 329Q1174 252 1144 191T1054 88T905 23T698 0H143V1082H425V647H697Z" />
<glyph unicode="&#x44d;" glyph-name="afii10095" horiz-adv-x="1131" d="M52 360L334 373Q347 273 401 223T535 172Q593 172 633 190T698 244T736 332T752 453H443V643H752Q749 704 737 753T700 837T636 890T539 909Q451 909 403 860T343 727L60 741Q74 817 110
883T206 997T346 1074T533 1102Q656 1102 752 1064T915 954T1016 776T1051 535Q1051 411 1019 309T923 133T763 20T537 -20Q426 -20 340 11T194 95T98 216T52 360Z" />
<glyph unicode="&#x44e;" glyph-name="afii10096" horiz-adv-x="1749" d="M1375 542Q1375 735 1317 822T1149 909Q1034 909 974 821T913 542Q913 445 929 375T974 260T1045 194T1137 172Q1251 172 1313 259T1375 542ZM1669 542Q1669 418 1636 315T1537 138T1371
22T1139 -20Q1022 -20 931 14T774 112T670 265T621 463H425V0H143V1082H425V654H625Q639 753 677 835T780 977T936 1069T1145 1102Q1286 1102 1385 1060T1548 944T1640 767T1669 542Z" />
<glyph unicode="&#x44f;" glyph-name="afii10097" horiz-adv-x="1195" d="M772 907H580Q478 907 427 871T375 756Q375 684 421 646T564 607H772V907ZM578 435L306 0H-1L321 471Q271 483 229 506T155 567T106 655T88 772Q88 851 120 909T213 1006T363 1063T565
1082H1052V0H770V435H578Z" />
<glyph unicode="&#x451;" glyph-name="afii10071" horiz-adv-x="1139" d="M586 925Q543 925 506 911T441 865T396 783T377 663H797Q789 794 734 859T586 925ZM586 -20Q469 -20 376 14T216 119T115 296T80 546Q80 701 121 807T233 978T396 1073T590 1102Q718 1102
808 1058T957 933T1042 742T1069 495V487H375Q375 419 387 361T426 260T496 193T600 168Q674 168 721 199T788 297L1053 274Q1035 228 1003 176T916 81T782 9T586 -20ZM260 1199V1418H474V1199H260ZM694 1199V1418H911V1199H694Z" />
<glyph unicode="&#x452;" glyph-name="afii10099" horiz-adv-x="1251" d="M837 -425Q781 -425 740 -423T667 -416V-218Q680 -220 693 -221T718 -222Q757 -222 781 -214T820 -187T839 -137T844 -60V566Q844 629 834 681T801 771T741 830T651 851Q600 851 559 829T487
765T441 666T424 539V0H143V1175H10V1345H143V1484H424V1345H734V1175H424V1039Q424 1007 423 975T421 914T418 862T416 826H420Q477 950 563 1006T768 1062Q866 1062 933 1030T1043 942T1105 810T1124 646V-128Q1124 -193 1108 -247T1058 -341T969 -403T837 -425Z"
/>
<glyph unicode="&#x453;" glyph-name="afii10100" horiz-adv-x="853" d="M798 1082V892H425V0H143V1082H798ZM303 1183V1214L555 1502H813V1459L473 1183H303Z" />
<glyph unicode="&#x454;" glyph-name="afii10101" horiz-adv-x="1131" d="M594 -20Q465 -20 369 20T208 133T112 308T80 535Q80 670 115 775T216 953T378 1064T598 1102Q703 1102 784 1074T925 998T1020 883T1071 741L788 727Q776 810 728 859T592 909Q491 909
438 842T379 643H688V453H379Q384 312 439 242T596 172Q676 172 730 222T797 373L1079 360Q1069 285 1034 217T938 96T791 12T594 -20Z" />
<glyph unicode="&#x455;" glyph-name="afii10102" horiz-adv-x="1139" d="M1055 316Q1055 238 1023 176T928 71T776 4T571 -20Q468 -20 385 -5T240 44T135 134T72 270L319 307Q331 262 352 234T404 191T476 171T571 166Q619 166 660 171T732 190T780 228T797 290Q797
332 773 356T706 396T606 424Q561 432 483 450Q411 466 349 486Q283 507 231 543T147 634T115 775Q115 852 145 912T233 1015T376 1080T573 1103Q661 1103 737 1087T873 1035T973 944T1030 811L781 785Q774 824 756 849T712 890T650 910T573 916Q473 916 423 891T373
805Q373 768 393 746T451 710T540 685T653 659Q728 643 800 622T929 563T1020 466T1055 316Z" />
<glyph unicode="&#x456;" glyph-name="afii10103" horiz-adv-x="569" d="M399 0V1082H680V0H399ZM401 1277V1484H682V1277H401Z" />
<glyph unicode="&#x457;" glyph-name="afii10104" horiz-adv-x="576" d="M145 0V1082H426V0H145ZM218 1199V1418H432V1199H218ZM652 1199V1418H869V1199H652Z" />
<glyph unicode="&#x458;" glyph-name="afii10105" horiz-adv-x="569" d="M138 -425Q82 -425 41 -423T-32 -416V-218Q-19 -220 -6 -221T19 -222Q58 -222 82 -214T120 -187T139 -137T144 -60V1082H425V-128Q425 -193 409 -247T359 -341T270 -403T138 -425ZM144 1277V1484H425V1277H144Z"
/>
<glyph unicode="&#x459;" glyph-name="afii10106" horiz-adv-x="1984" d="M1150 175H1362Q1431 175 1479 185T1556 214T1599 263T1612 329Q1612 405 1554 440T1363 475H1150V175ZM868 0V892H566Q541 708 520 569T477 329T430 160T369 53T287 -3T175 -20Q161 -20
139 -19T93 -16T50 -12T21 -7V184Q32 180 51 178T89 175Q118 175 139 187T179 235T212 333T245 496T284 741L331 1082H1150V647H1422Q1657 647 1778 570T1899 329Q1899 252 1869 191T1779 88T1630 23T1423 0H868Z" />
<glyph unicode="&#x45a;" glyph-name="afii10107" horiz-adv-x="1856" d="M1058 175H1234Q1303 175 1351 185T1428 214T1471 263T1484 329Q1484 405 1426 440T1235 475H1058V175ZM1294 647Q1529 647 1650 570T1771 329Q1771 252 1741 191T1651 88T1502 23T1295
0H776V463H425V0H143V1082H425V654H776V1082H1058V647H1294Z" />
<glyph unicode="&#x45b;" glyph-name="afii10108" horiz-adv-x="1251" d="M844 0V566Q844 629 834 681T801 771T741 830T651 851Q600 851 559 829T487 765T441 666T424 539V0H143V1175H10V1345H143V1484H424V1345H734V1175H424V1039Q424 1007 423 975T421 914T418
862T416 826H420Q477 950 563 1006T768 1062Q866 1062 933 1030T1043 942T1105 810T1124 646V0H844Z" />
<glyph unicode="&#x45c;" glyph-name="afii10109" horiz-adv-x="1025" d="M142 1082H424V618Q447 619 465 623T503 648T550 709T616 825L742 1082H1016L810 701Q777 640 752 613Q725 585 708 571L1026 0H739L506 458Q492 453 467 450T424 447V0H142V1082ZM406
1183V1214L658 1502H916V1459L576 1183H406Z" />
<glyph unicode="&#x45e;" glyph-name="afii10110" horiz-adv-x="1139" d="M700 -57Q661 -152 621 -221T533 -335T424 -403T283 -425Q239 -425 193 -422T106 -412V-212Q126 -215 154 -217T203 -220Q244 -220 276 -211T334 -181T382 -125T426 -37L444 11L16 1082H313L483
575Q487 564 496 538L514 478L536 408L557 338Q567 304 574 278L584 241L594 278L608 336L627 404L646 473L662 532Q670 559 674 571L834 1082H1128L700 -57ZM650 1184T568 1184T424 1197T318 1233T244 1289T197 1359T171 1439T161 1524H385Q390 1421 437 1373T568
1325T699 1373T751 1524H975Q973 1481 965 1439T940 1360T893 1290T819 1234T712 1197Z" />
<glyph unicode="&#x45f;" glyph-name="afii10193" horiz-adv-x="1237" d="M496 0H143V1082H425V191H812V1082H1094V0H741V-408H496V0Z" />
<glyph unicode="&#x490;" glyph-name="afii10050" horiz-adv-x="997" d="M703 1409V1820H953V1181H432V1H137V1409H703Z" />
<glyph unicode="&#x491;" glyph-name="afii10098" horiz-adv-x="915" d="M584 1082V1490H829V892H425V0H143V1082H584Z" />
<glyph unicode="&#x1e80;" glyph-name="Wgrave" horiz-adv-x="1933" d="M1567 0H1217L1026 815Q1015 864 1006 903Q996 954 987 1002Q976 1057 967 1116L945 1001L935 952Q930 926 925 902T915 855T905 815L715 0H365L2 1409H301L477 625Q501 518 505 499L529
388L551 279L580 423L593 485L606 548L620 608L631 659L805 1409H1135L1313 659Q1319 635 1325 606L1337 544L1349 482Q1354 458 1360 420L1384 279L1409 395L1434 507L1462 625L1632 1409H1931L1567 0ZM1004 1530L664 1772V1815H922L1173 1561V1530H1004Z" />
<glyph unicode="&#x1e81;" glyph-name="wgrave" horiz-adv-x="1593" d="M1313 0H1016L844 660Q836 691 828 730L813 802L797 882L779 802L762 729L745 658L571 0H274L-6 1082H258L395 446L408 386L421 323Q428 288 436 255L450 329Q456 361 463 392L475 446L645
1082H946L1112 446Q1120 416 1126 387L1139 325L1153 255L1168 325L1181 387L1194 446L1337 1082H1597L1313 0ZM785 1183L445 1459V1502H703L954 1214V1183H785Z" />
<glyph unicode="&#x1e82;" glyph-name="Wacute" horiz-adv-x="1933" d="M1567 0H1217L1026 815Q1015 864 1006 903Q996 954 987 1002Q976 1057 967 1116L945 1001L935 952Q930 926 925 902T915 855T905 815L715 0H365L2 1409H301L477 625Q501 518 505 499L529
388L551 279L580 423L593 485L606 548L620 608L631 659L805 1409H1135L1313 659Q1319 635 1325 606L1337 544L1349 482Q1354 458 1360 420L1384 279L1409 395L1434 507L1462 625L1632 1409H1931L1567 0ZM823 1530V1561L1075 1815H1333V1772L993 1530H823Z" />
<glyph unicode="&#x1e83;" glyph-name="wacute" horiz-adv-x="1593" d="M1313 0H1016L844 660Q836 691 828 730L813 802L797 882L779 802L762 729L745 658L571 0H274L-6 1082H258L395 446L408 386L421 323Q428 288 436 255L450 329Q456 361 463 392L475 446L645
1082H946L1112 446Q1120 416 1126 387L1139 325L1153 255L1168 325L1181 387L1194 446L1337 1082H1597L1313 0ZM637 1183V1214L889 1502H1147V1459L807 1183H637Z" />
<glyph unicode="&#x1e84;" glyph-name="Wdieresis" horiz-adv-x="1933" d="M1567 0H1217L1026 815Q1015 864 1006 903Q996 954 987 1002Q976 1057 967 1116L945 1001L935 952Q930 926 925 902T915 855T905 815L715 0H365L2 1409H301L477 625Q501 518 505 499L529
388L551 279L580 423L593 485L606 548L620 608L631 659L805 1409H1135L1313 659Q1319 635 1325 606L1337 544L1349 482Q1354 458 1360 420L1384 279L1409 395L1434 507L1462 625L1632 1409H1931L1567 0ZM644 1530V1749H838V1530H644ZM1098 1530V1749H1295V1530H1098Z"
/>
<glyph unicode="&#x1e85;" glyph-name="wdieresis" horiz-adv-x="1593" d="M1313 0H1016L844 660Q836 691 828 730L813 802L797 882L779 802L762 729L745 658L571 0H274L-6 1082H258L395 446L408 386L421 323Q428 288 436 255L450 329Q456 361 463 392L475 446L645
1082H946L1112 446Q1120 416 1126 387L1139 325L1153 255L1168 325L1181 387L1194 446L1337 1082H1597L1313 0ZM472 1199V1418H686V1199H472ZM906 1199V1418H1123V1199H906Z" />
<glyph unicode="&#x1ef2;" glyph-name="Ygrave" horiz-adv-x="1366" d="M831 578V0H537V578L35 1409H344L682 813L1024 1409H1333L831 578ZM717 1530L377 1772V1815H635L886 1561V1530H717Z" />
<glyph unicode="&#x1ef3;" glyph-name="ygrave" horiz-adv-x="1139" d="M700 -57Q661 -152 621 -221T533 -335T424 -403T283 -425Q239 -425 193 -422T106 -412V-212Q126 -215 154 -217T203 -220Q244 -220 276 -211T334 -181T382 -125T426 -37L444 11L16 1082H313L483
575Q487 564 496 538L514 478L536 408L557 338Q567 304 574 278L584 241L594 278L608 336L627 404L646 473L662 532Q670 559 674 571L834 1082H1128L700 -57ZM545 1183L205 1459V1502H463L714 1214V1183H545Z" />
<glyph unicode="&#x2013;" glyph-name="endash" horiz-adv-x="1139" d="M62 448V651H1076V448H62Z" />
<glyph unicode="&#x2014;" glyph-name="emdash" horiz-adv-x="2048" d="M0 448V651H2048V448H0Z" />
<glyph unicode="&#x2015;" glyph-name="afii00208" horiz-adv-x="2048" d="M0 448V651H2048V448H0Z" />
<glyph unicode="&#x2017;" glyph-name="underscoredbl" horiz-adv-x="1131" d="M-20 -512V-434H1157V-512H-20ZM-20 -250V-172H1157V-250H-20Z" />
<glyph unicode="&#x2018;" glyph-name="quoteleft" horiz-adv-x="569" d="M139 831V1026Q139 1093 146 1148T168 1249T202 1334T247 1409H430Q402 1374 378 1335T337 1255T309 1173T299 1092H426V831H139Z" />
<glyph unicode="&#x2019;" glyph-name="quoteright" horiz-adv-x="569" d="M430 1214Q430 1147 423 1093T402 992T368 906T321 831H139Q167 867 191 906T232 985T260 1067T270 1149H143V1409H430V1214Z" />
<glyph unicode="&#x201a;" glyph-name="quotesinglbase" horiz-adv-x="569" d="M431 66Q431 -1 424 -56T402 -157T368 -243T323 -317H138Q167 -282 191 -243T234 -163T262 -81T272 0H143V260H431V66Z" />
<glyph unicode="&#x201b;" glyph-name="quotereversed" horiz-adv-x="569" d="M426 1409V1149H299Q299 1109 309 1068T336 986T378 906T430 831H248Q222 867 202 906T167 991T146 1092T139 1214V1409H426Z" />
<glyph unicode="&#x201c;" glyph-name="quotedblleft" horiz-adv-x="1024" d="M151 831V1026Q151 1093 158 1148T180 1249T214 1334T259 1409H442Q414 1374 390 1335T349 1255T321 1173T311 1092H438V831H151ZM579 831V1026Q579 1093 586 1148T608 1249T643 1334T690
1409H872Q844 1374 820 1335T779 1255T751 1173T741 1092H868V831H579Z" />
<glyph unicode="&#x201d;" glyph-name="quotedblright" horiz-adv-x="1024" d="M442 1217Q442 1149 435 1094T414 992T380 906T333 831H151Q179 867 203 906T244 985T272 1067T282 1149H155V1409H442V1217ZM872 1217Q872 1149 865 1094T843 992T809 906T763 831H579Q636
903 674 985T712 1149H585V1409H872V1217Z" />
<glyph unicode="&#x201e;" glyph-name="quotedblbase" horiz-adv-x="1024" d="M442 66Q442 -1 435 -56T414 -157T380 -243T333 -317H151Q179 -282 203 -243T244 -163T272 -81T282 0H155V260H442V66ZM872 66Q872 -1 865 -56T843 -157T809 -243T763 -317H579Q608
-282 632 -243T674 -163T702 -81T712 0H585V260H872V66Z" />
<glyph unicode="&#x2020;" glyph-name="dagger" horiz-adv-x="1139" d="M669 960L647 -138H492L470 960L138 933V1137L470 1108L442 1484H697L669 1108L1002 1137V933L669 960Z" />
<glyph unicode="&#x2021;" glyph-name="daggerdbl" horiz-adv-x="1139" d="M478 980L137 953V1157L478 1128L462 1484H677L661 1128L1002 1157V953L661 980L635 670L661 363L1001 390V186L661 215L677 -141H462L478 215L136 186V390L478 363L504 670L478 980Z" />
<glyph unicode="&#x2022;" glyph-name="bullet" horiz-adv-x="717" d="M651 737T651 676T628 562T564 468T471 405T356 381Q296 381 243 404T151 468T88 561T65 676T88 790T150 883T243 946T356 969Q417 969 470 946T564 884T627 791Z" />
<glyph unicode="&#x2026;" glyph-name="ellipsis" horiz-adv-x="2048" d="M225 0V305H513V0H225ZM880 0V305H1166V0H880ZM1528 0V305H1816V0H1528Z" />
<glyph unicode="&#x2030;" glyph-name="perthousand" horiz-adv-x="2048" d="M1831 356Q1831 425 1824 470T1804 541T1770 579T1722 590Q1692 590 1671 579T1635 541T1614 469T1607 356Q1607 289 1614 244T1635 172T1670 134T1720 122Q1747 122 1768 133T1803
172T1824 244T1831 356ZM1722 714Q1781 714 1832 698T1923 641T1984 531T2007 356Q2007 256 1985 188T1923 77T1831 16T1718 -3T1606 15T1516 76T1455 186T1432 356Q1432 462 1454 531T1515 640T1607 697T1722 714ZM1166 356Q1166 425 1159 470T1139 541T1105 579T1057
590Q1027 590 1005 579T969 541T948 469T941 356Q941 289 948 244T969 172T1004 134T1055 122Q1082 122 1103 133T1138 172T1159 244T1166 356ZM1057 714Q1115 714 1167 698T1258 641T1319 531T1342 356Q1342 256 1319 188T1257 77T1166 16T1053 -3T941 15T851
76T790 186T767 356Q767 462 789 531T850 640T942 697T1057 714ZM440 1061Q440 1130 433 1175T413 1246T379 1284T331 1295Q301 1295 280 1284T244 1246T223 1174T216 1061Q216 994 223 949T244 877T279 839T329 827Q356 827 377 838T412 877T433 949T440 1061ZM331
1419Q389 1419 441 1403T532 1346T593 1236T616 1061Q616 961 593 893T531 782T440 721T327 702T215 720T125 781T64 891T41 1061Q41 1167 63 1236T124 1345T216 1402T331 1419ZM382 0H185L997 1409H1196L382 0Z" />
<glyph unicode="&#x2032;" glyph-name="minute" horiz-adv-x="491" d="M85 890L149 1409H455L297 890H85Z" />
<glyph unicode="&#x2033;" glyph-name="second" horiz-adv-x="981" d="M85 890L149 1409H455L297 890H85ZM574 890L638 1409H944L786 890H574Z" />
<glyph unicode="&#x2039;" glyph-name="guilsinglleft" horiz-adv-x="682" d="M350 141L92 502V573L350 940H586V903L332 537L588 176V141H350Z" />
<glyph unicode="&#x203a;" glyph-name="guilsinglright" horiz-adv-x="682" d="M93 141V176L349 537L95 903V940H333L589 573V502L333 141H93Z" />
<glyph unicode="&#x203c;" glyph-name="exclamdbl" horiz-adv-x="1237" d="M193 0V270H481V0H193ZM455 426H225L193 1409H487L455 426ZM750 0V270H1038V0H750ZM1012 426H782L750 1409H1044L1012 426Z" />
<glyph unicode="&#x203e;" glyph-name="uni203E" horiz-adv-x="682" d="M812 1454H-130V1620H812V1454Z" />
<glyph unicode="&#x2044;" glyph-name="fraction" horiz-adv-x="342" d="M-176 0H-377L518 1409H719L-176 0Z" />
<glyph unicode="&#x207f;" glyph-name="uni207F" horiz-adv-x="811" d="M531 519V903Q531 947 526 976T508 1024T475 1049T425 1057Q363 1057 327 1009T290 870V519H112V1030Q112 1050 112 1073T111 1116T109 1150T108 1169H274Q275 1166 276 1153T278 1122T281
1088T282 1058H285Q300 1086 319 1109T362 1148T419 1172T493 1181Q603 1181 656 1127T710 952V519H531Z" />
<glyph unicode="&#x20a3;" glyph-name="franc" horiz-adv-x="1139" d="M422 1201V805H1059V597H422V407H736V258H422V0H137V258H7V407H137V1409H1092V1201H422Z" />
<glyph unicode="&#x20a4;" glyph-name="lira" horiz-adv-x="1139" d="M1118 363Q1105 290 1075 224T996 109T880 30T726 0H32V205Q71 227 104 251T160 309T196 389T209 502V508H21V657H199V769H21V918H199V1022Q199 1114 223 1189T298 1318T430 1401T625 1430Q721
1430 789 1410T904 1351T982 1260T1032 1139L799 1092Q778 1169 737 1204T630 1239Q539 1239 499 1182T459 999V918H745V769H459V657H745V508H459V504Q459 445 447 400T411 321T354 260T277 209H657Q761 209 814 258T885 402L1118 363Z" />
<glyph unicode="&#x20a7;" glyph-name="peseta" horiz-adv-x="2240" d="M752 983Q752 1050 734 1094T680 1166T592 1204T474 1216H399V740H482Q549 740 599 752T684 793T735 868T752 983ZM2171 241Q2171 114 2074 47T1798 -20Q1715 -20 1651 -7T1539 37T1461 114T1414
230L1613 256Q1628 195 1672 171T1796 147Q1832 147 1862 150T1915 162T1949 187T1961 228Q1961 255 1944 271T1895 299T1821 318L1726 338Q1677 349 1629 365T1542 410T1481 482T1457 588Q1457 703 1546 763T1806 824Q1955 824 2043 761T2154 573L1953 556Q1948
584 1935 603T1902 634T1858 651T1808 656Q1739 656 1706 643T1672 593Q1672 572 1688 559T1733 536T1801 518T1889 499Q1937 489 1987 472T2078 426T2145 352T2171 241ZM1427 8Q1393 -3 1361 -9T1280 -16Q1155 -16 1099 45T1042 229V647H938V760Q911 712 871 674T776
607T656 564T509 549H399V0H158V1409H472Q603 1409 701 1379T864 1293T961 1159T994 985Q994 938 986 895T963 813H1049L1137 1055H1262V813H1409V647H1262V278Q1262 241 1267 217T1284 178T1312 158T1353 152Q1376 152 1392 155T1427 166V8Z" />
<glyph unicode="&#x20ac;" glyph-name="Euro" horiz-adv-x="1139" d="M658 199Q730 199 773 245T826 373L1103 357Q1090 277 1059 208T974 89T841 9T654 -20Q529 -20 438 19T284 128T187 296T139 510H10L50 659H127Q126 664 126 679T125 710Q125 727 125 744T127
766H10L50 915H137Q152 1038 190 1134T291 1296T445 1396T654 1430Q755 1430 831 1403T961 1327T1047 1213T1093 1071L813 1055Q803 1129 761 1170T645 1211Q598 1211 561 1195T497 1144T452 1052T426 915H753L724 766H421Q420 755 420 740T419 710T420 684L422
659H762L732 510H428Q434 443 449 386T491 288T560 223T658 199Z" />
<glyph unicode="&#x2105;" glyph-name="afii61248" horiz-adv-x="1813" d="M1544 432Q1544 519 1536 576T1510 666T1468 713T1409 727Q1372 727 1346 714T1302 666T1277 575T1268 432Q1268 348 1276 293T1301 203T1345 155T1407 141Q1440 141 1465 155T1508 202T1535
292T1544 432ZM548 0H342L1262 1409H1471L548 0ZM1759 432Q1759 307 1731 221T1655 83T1543 7T1405 -16Q1330 -16 1266 7T1154 82T1079 221T1051 432Q1051 564 1078 650T1154 788T1267 860T1409 881Q1481 881 1545 861T1656 789T1731 651T1759 432ZM419 525Q320
525 251 559T138 654T74 797T54 976Q54 1107 85 1193T168 1331T284 1404T416 1425Q491 1425 547 1404T644 1345T707 1258T741 1149L553 1137Q545 1200 512 1237T420 1275Q335 1275 301 1204T266 986Q266 835 301 763T420 690Q480 690 514 728T556 834L744 824Q737
766 714 712T651 616T552 550T419 525Z" />
<glyph unicode="&#x2113;" glyph-name="afii61289" horiz-adv-x="1001" d="M689 1107Q689 1176 662 1218T578 1260Q544 1260 521 1248T485 1216T467 1169T461 1112V776Q515 798 557 832T629 910T673 1003T689 1107ZM582 195Q662 195 704 248T770 408H916Q906 357
891 306T852 207T798 118T724 46T626 -2T501 -20Q332 -20 253 63T173 310V476Q109 451 41 428V623L108 646L174 671L173 1061Q173 1129 191 1195T256 1313T379 1397T574 1429Q657 1429 722 1410T834 1352T904 1259T928 1132Q928 1034 896 950T802 796T652 671T453
578V377Q453 281 487 238T582 195Z" />
<glyph unicode="&#x2116;" glyph-name="afii61352" horiz-adv-x="2283" d="M1961 623Q1961 679 1954 716T1931 775T1894 807T1843 816T1791 807T1752 775T1728 715T1719 623Q1719 566 1727 528T1751 467T1788 435T1836 425Q1866 425 1889 434T1928 467T1952 528T1961
623ZM2175 623Q2175 546 2154 482T2090 372T1984 301T1837 275Q1757 275 1696 300T1592 371T1529 481T1507 623Q1507 698 1527 761T1589 871T1694 943T1841 969Q1929 969 1992 943T2096 871T2156 762T2175 623ZM1039 0L361 1095Q366 1049 370 1002Q374 962 376
917T379 831V0H137V1409H434L1117 305Q1112 354 1108 404Q1104 447 1102 496T1099 590V1409H1341V0H1039ZM1524 0V166H2159V0H1524Z" />
<glyph unicode="&#x2122;" glyph-name="trademark" horiz-adv-x="2048" d="M548 1270V768H368V1270H125V1409H799V1270H548ZM1059 768H893V1409H1141L1280 1108L1300 1060L1322 1008L1345 948L1368 1008L1389 1060Q1400 1088 1409 1108L1553 1409H1796V768H1631V1108Q1631
1122 1632 1150T1635 1207Q1637 1241 1639 1280L1609 1205L1584 1144Q1571 1113 1563 1096L1409 768H1278L1129 1096L1108 1146L1082 1206Q1067 1241 1052 1280Q1054 1239 1056 1204Q1058 1167 1058 1146Q1059 1119 1059 1108V768Z" />
<glyph unicode="&#x2126;" glyph-name="Omega" horiz-adv-x="1573" d="M787 1430Q943 1430 1068 1389T1280 1270T1413 1081T1460 828Q1460 726 1437 638T1363 473T1236 332T1049 217L1110 223Q1136 225 1165 226T1220 228H1488V0H859V309Q946 352 1005 402T1100
510T1152 634T1168 774Q1168 875 1143 954T1069 1087T950 1169T788 1198T627 1170T508 1087T434 954T408 774Q408 700 424 634T477 511T573 403T721 309V0H85V228H355Q381 228 411 227T468 223L529 217Q418 268 340 332T211 472T137 638T113 829Q113 970 159 1081T293
1270T505 1389T787 1430Z" />
<glyph unicode="&#x212e;" glyph-name="estimated" horiz-adv-x="1229" d="M917 616V893Q898 913 869 934T801 972T717 1000T617 1011Q566 1011 523 1002T442 976T375 939T321 894V616H917ZM619 -34Q489 -34 390 12T224 137T123 318T88 531Q88 629 110 709T170
851T259 960T369 1037T492 1081T619 1096Q732 1096 828 1057T996 944T1107 767T1148 531H321V175Q343 151 375 129T446 89T529 61T619 51Q694 51 752 67T856 113T941 186T1014 285L1086 243Q1050 186 1009 136T912 48T786 -12T619 -34Z" />
<glyph unicode="&#x215b;" glyph-name="oneeighth" horiz-adv-x="1708" d="M114 694V815H298V1283L125 1175V1297L305 1414H480V815H650V694H114ZM524 0H323L1218 1409H1419L524 0ZM1419 220Q1419 238 1415 254T1398 284T1364 304T1310 312Q1280 312 1260 305T1228
284T1210 254T1205 219Q1205 174 1228 147T1314 119Q1345 119 1365 126T1398 147T1414 179T1419 220ZM1402 524Q1402 560 1384 583T1314 607Q1264 607 1245 584T1226 524Q1226 508 1229 493T1242 465T1269 445T1314 437Q1343 437 1360 445T1387 465T1399 493T1402
524ZM1608 205Q1608 159 1591 120T1537 52T1446 8T1314 -8T1183 8T1091 52T1038 119T1020 204Q1020 243 1032 273T1066 325T1113 360T1168 378V380Q1108 394 1074 439T1039 542Q1039 628 1108 680T1312 732Q1384 732 1436 718T1522 679T1572 619T1589 541Q1589
513 1580 487T1554 439T1513 402T1458 381V379Q1490 374 1517 361T1565 326T1596 274T1608 205Z" />
<glyph unicode="&#x215c;" glyph-name="threeeighths" horiz-adv-x="1708" d="M504 0H303L1198 1409H1399L504 0ZM1419 220Q1419 238 1415 254T1398 284T1364 304T1310 312Q1280 312 1260 305T1228 284T1210 254T1205 219Q1205 174 1228 147T1314 119Q1345 119
1365 126T1398 147T1414 179T1419 220ZM1402 524Q1402 560 1384 583T1314 607Q1264 607 1245 584T1226 524Q1226 508 1229 493T1242 465T1269 445T1314 437Q1343 437 1360 445T1387 465T1399 493T1402 524ZM1608 205Q1608 159 1591 120T1537 52T1446 8T1314 -8T1183
8T1091 52T1038 119T1020 204Q1020 243 1032 273T1066 325T1113 360T1168 378V380Q1108 394 1074 439T1039 542Q1039 628 1108 680T1312 732Q1384 732 1436 718T1522 679T1572 619T1589 541Q1589 513 1580 487T1554 439T1513 402T1458 381V379Q1490 374 1517 361T1565
326T1596 274T1608 205ZM678 895Q678 796 603 740T390 684Q306 684 250 702T158 749T106 816T84 892L273 904Q278 859 305 835T387 811Q436 811 462 834T489 907Q489 938 476 956T442 984T397 997T350 1000H294V1126H345Q368 1126 390 1130T431 1144T460 1171T472
1216Q472 1255 449 1277T383 1299Q341 1299 316 1277T285 1210L99 1222Q105 1273 130 1311T193 1375T281 1413T388 1426Q456 1426 507 1412T591 1372T642 1312T659 1238Q659 1174 623 1129T507 1067V1065Q552 1060 584 1045T637 1006T668 955T678 895Z" />
<glyph unicode="&#x215d;" glyph-name="fiveeighths" horiz-adv-x="1708" d="M504 0H303L1198 1409H1399L504 0ZM1419 220Q1419 238 1415 254T1398 284T1364 304T1310 312Q1280 312 1260 305T1228 284T1210 254T1205 219Q1205 174 1228 147T1314 119Q1345 119
1365 126T1398 147T1414 179T1419 220ZM1402 524Q1402 560 1384 583T1314 607Q1264 607 1245 584T1226 524Q1226 508 1229 493T1242 465T1269 445T1314 437Q1343 437 1360 445T1387 465T1399 493T1402 524ZM1608 205Q1608 159 1591 120T1537 52T1446 8T1314 -8T1183
8T1091 52T1038 119T1020 204Q1020 243 1032 273T1066 325T1113 360T1168 378V380Q1108 394 1074 439T1039 542Q1039 628 1108 680T1312 732Q1384 732 1436 718T1522 679T1572 619T1589 541Q1589 513 1580 487T1554 439T1513 402T1458 381V379Q1490 374 1517 361T1565
326T1596 274T1608 205ZM690 939Q690 884 671 837T613 756T519 703T389 684Q321 684 271 700T185 744T130 808T103 887L293 899Q296 882 303 866T322 838T352 819T395 811Q444 811 473 843T502 935Q502 988 476 1019T398 1050Q364 1050 339 1037T299 1004H121L150
1409H645V1271H308L298 1135Q321 1154 360 1167T446 1181Q503 1181 548 1164T625 1114T673 1038T690 939Z" />
<glyph unicode="&#x215e;" glyph-name="seveneighths" horiz-adv-x="1708" d="M484 0H283L1178 1409H1379L484 0ZM1419 220Q1419 238 1415 254T1398 284T1364 304T1310 312Q1280 312 1260 305T1228 284T1210 254T1205 219Q1205 174 1228 147T1314 119Q1345 119
1365 126T1398 147T1414 179T1419 220ZM1402 524Q1402 560 1384 583T1314 607Q1264 607 1245 584T1226 524Q1226 508 1229 493T1242 465T1269 445T1314 437Q1343 437 1360 445T1387 465T1399 493T1402 524ZM1608 205Q1608 159 1591 120T1537 52T1446 8T1314 -8T1183
8T1091 52T1038 119T1020 204Q1020 243 1032 273T1066 325T1113 360T1168 378V380Q1108 394 1074 439T1039 542Q1039 628 1108 680T1312 732Q1384 732 1436 718T1522 679T1572 619T1589 541Q1589 513 1580 487T1554 439T1513 402T1458 381V379Q1490 374 1517 361T1565
326T1596 274T1608 205ZM744 1281Q680 1202 633 1134T554 997T508 856T492 694H299Q299 777 319 850T375 993T462 1131T573 1271H163V1409H742L744 1281Z" />
<glyph unicode="&#x2190;" glyph-name="arrowleft" horiz-adv-x="2048" d="M641 297Q670 263 699 214T760 100H688Q630 168 565 224T418 322V358Q500 400 565 456T688 580H760Q729 515 700 466T641 383H1630V297H641Z" />
<glyph unicode="&#x2191;" glyph-name="arrowup" horiz-adv-x="1024" d="M469 928Q435 899 386 870T272 809V881Q340 939 396 1004T494 1151H530Q572 1069 628 1004T752 881V809Q687 840 638 869T555 928V-61H469V928Z" />
<glyph unicode="&#x2192;" glyph-name="arrowright" horiz-adv-x="2048" d="M1407 383Q1378 417 1349 466T1288 580H1360Q1418 512 1483 456T1630 358V322Q1548 280 1483 224T1360 100H1288Q1319 165 1348 214T1407 297H418V383H1407Z" />
<glyph unicode="&#x2193;" glyph-name="arrowdown" horiz-adv-x="1024" d="M555 162Q589 191 638 220T752 281V209Q684 151 628 86T530 -61H494Q452 21 396 86T272 209V281Q337 250 386 221T469 162V1151H555V162Z" />
<glyph unicode="&#x2194;" glyph-name="arrowboth" horiz-adv-x="2048" d="M641 297Q670 263 699 214T760 100H688Q630 168 565 224T418 322V358Q500 400 565 456T688 580H760Q729 515 700 466T641 383H1407Q1378 417 1349 466T1288 580H1360Q1418 512 1483 456T1630
358V322Q1548 280 1483 224T1360 100H1288Q1319 165 1348 214T1407 297H641Z" />
<glyph unicode="&#x2195;" glyph-name="arrowupdn" horiz-adv-x="1024" d="M469 928Q435 899 386 870T272 809V881Q340 939 396 1004T494 1151H530Q572 1069 628 1004T752 881V809Q687 840 638 869T555 928V162Q589 191 638 220T752 281V209Q684 151 628 86T530
-61H494Q452 21 396 86T272 209V281Q337 250 386 221T469 162V928Z" />
<glyph unicode="&#x21a8;" glyph-name="arrowupdnbse" horiz-adv-x="1024" d="M469 928Q435 899 386 870T272 809V881Q340 939 396 1004T494 1151H530Q572 1069 628 1004T752 881V809Q687 840 638 869T555 928V162Q589 191 638 220T752 281V209Q684 151 628 86T530
-61H494Q452 21 396 86T272 209V281Q337 250 386 221T469 162V928ZM272 -104H752V-184H272V-104Z" />
<glyph unicode="&#x2202;" glyph-name="partialdiff" horiz-adv-x="1012" d="M685 645Q678 681 664 712T629 765T583 800T529 813Q488 813 455 792T395 735T348 654T316 560T297 463T290 375Q290 329 298 291T324 226T366 185T423 170Q474 170 517 210T594 318T651
470T685 645ZM945 907Q945 858 942 806T933 700T919 595T898 494Q870 377 825 282T718 118T575 12T393 -25Q299 -25 234 7T129 93T71 220T53 371Q53 430 63 498T95 634T151 765T233 876T343 954T484 983Q560 983 621 940T713 821H717Q718 841 718 863V911Q718 1084
665 1179T501 1274Q476 1274 448 1269T392 1255T338 1234T292 1206L337 1411Q376 1434 429 1451T549 1468Q659 1468 734 1422T857 1299T924 1120T945 907Z" />
<glyph unicode="&#x2206;" glyph-name="increment" horiz-adv-x="1253" d="M709 920L680 1016L654 1105L634 1174Q625 1203 624 1208Q623 1203 615 1174L596 1104L570 1014Q563 987 543 920L336 231H916L709 920ZM43 0V215L440 1409H808L1209 215V0H43Z" />
<glyph unicode="&#x220f;" glyph-name="product" horiz-adv-x="1686" d="M1200 -455V1165H499V-455H204V1409H1482V-455H1200Z" />
<glyph unicode="&#x2211;" glyph-name="summation" horiz-adv-x="1460" d="M134 -455V-295L740 481L154 1257V1409H1291V1182H525L1053 485L505 -227H1348V-455H134Z" />
<glyph unicode="&#x2212;" glyph-name="minus" horiz-adv-x="1196" d="M85 569V793H1112V569H85Z" />
<glyph unicode="&#x2215;" glyph-name="fraction" horiz-adv-x="342" d="M-176 0H-377L518 1409H719L-176 0Z" />
<glyph unicode="&#x2219;" glyph-name="middot" horiz-adv-x="569" d="M141 531V836H429V531H141Z" />
<glyph unicode="&#x221a;" glyph-name="radical" horiz-adv-x="1124" d="M624 -25H456L186 729H2V895H313L532 260L944 1620H1130L624 -25Z" />
<glyph unicode="&#x221e;" glyph-name="infinity" horiz-adv-x="1460" d="M631 595Q609 642 588 679T542 741T491 780T428 793Q391 793 361 778T308 736T274 673T262 595Q262 556 273 521T305 458T357 416T429 400Q488 400 536 447T631 595ZM1042 782Q982 782
929 734T828 585Q872 491 921 440T1041 389Q1077 389 1106 404T1156 446T1188 508T1199 585T1189 662T1158 724T1109 766T1042 782ZM1389 583Q1389 509 1366 443T1299 326T1197 246T1066 216Q963 216 879 272T730 455Q702 406 668 364T592 291T502 243T397 226Q327
226 267 252T164 326T97 443T72 597Q72 674 95 741T162 857T265 935T397 964Q500 964 582 909T730 725Q757 774 790 816T864 889T951 937T1054 955Q1129 955 1191 929T1297 855T1365 738T1389 583Z" />
<glyph unicode="&#x221f;" glyph-name="orthogonal" horiz-adv-x="2005" d="M408 1223H502V94H1632V0H408V1223Z" />
<glyph unicode="&#x2229;" glyph-name="intersection" horiz-adv-x="1479" d="M281 -2V510Q281 626 315 722T410 887T554 994T736 1032Q835 1032 919 994T1065 887T1162 722T1197 510V-2H1094V512Q1094 610 1068 687T994 819T881 901T738 930T595 902T483 820T410
688T384 510V-2H281Z" />
<glyph unicode="&#x222b;" glyph-name="integral'" horiz-adv-x="561" d="M26 -455Q7 -455 -14 -454T-57 -449T-96 -443T-129 -434V-217Q-108 -225 -77 -233T-10 -242Q34 -242 64 -227T112 -186T137 -123T145 -45V1106Q145 1193 171 1263T247 1383T373 1460T547
1487Q587 1487 630 1482T702 1468V1249Q682 1259 651 1266T583 1274Q539 1274 509 1259T461 1216T434 1154T426 1079V-74Q426 -161 401 -231T325 -351T200 -428T26 -455Z" />
<glyph unicode="&#x2248;" glyph-name="approxequal" horiz-adv-x="1124" d="M814 274Q739 274 667 296T519 344Q452 367 398 378Q344 389 298 389Q259 389 226 383T162 366T102 338T43 301V514Q94 552 162 575T314 598Q397 598 477 575T633 526L680 511Q705 503
731 496T783 485T833 481Q901 481 965 506T1081 573V354Q1049 332 1019 317T957 292T890 278T814 274ZM814 756Q739 756 667 776T519 823Q383 870 298 870Q259 870 226 864T162 847T102 820T43 782V995Q94 1034 162 1056T314 1079Q355 1079 396 1073T477 1056T556
1032L633 1006Q678 990 731 977T833 963Q901 963 965 988T1081 1055V836Q1049 813 1019 798T957 773T890 760T814 756Z" />
</font>
</defs>
</svg>
